<svg width="37" height="30" viewBox="0 0 37 30" fill="none" xmlns="http://www.w3.org/2000/svg">
<path d="M8.05705 2.46157H2.98278C2.69289 2.46145 2.40581 2.51779 2.13797 2.62736C1.87013 2.73694 1.62678 2.8976 1.42184 3.10017C1.21689 3.30273 1.05438 3.54322 0.94358 3.80788C0.832783 4.07254 0.77588 4.35619 0.776124 4.64259C0.77891 11.0829 0.783863 22.1721 0.78603 26.8473C0.785867 27.1335 0.842808 27.4168 0.953594 27.6812C1.06438 27.9456 1.22684 28.1858 1.43168 28.3881C1.63651 28.5904 1.87971 28.7508 2.14735 28.8601C2.41499 28.9694 2.70183 29.0256 2.99145 29.0253C11.1237 29.0219 25.5397 29.0149 33.5537 29.0122C33.8435 29.0121 34.1303 28.9557 34.398 28.846C34.6656 28.7364 34.9087 28.5757 35.1135 28.3732C35.3182 28.1707 35.4805 27.9302 35.5911 27.6657C35.7018 27.4012 35.7586 27.1177 35.7582 26.8314C35.7555 19.9467 35.7514 10.7838 35.7486 4.63036C35.7487 4.34397 35.6916 4.06038 35.5806 3.79581C35.4696 3.53124 35.3069 3.29088 35.1018 3.08849C34.8967 2.88609 34.6533 2.72563 34.3853 2.61627C34.1174 2.50691 33.8303 2.45081 33.5404 2.45117H29.085" fill="white"/>
<path d="M21.7081 1.72168L15.3742 1.72413C14.4182 1.72413 14.4167 3.19221 15.3742 3.19221L21.7081 3.18976C22.6641 3.18976 22.6656 1.72168 21.7081 1.72168Z" fill="#211715"/>
<path d="M9.75133 9.38525L8.0626 9.38831C7.81697 9.39133 7.5819 9.48746 7.40598 9.65685C7.31973 9.74205 7.2513 9.84321 7.20462 9.95454C7.15794 10.0659 7.13391 10.1852 7.13391 10.3057C7.13391 10.4262 7.15794 10.5455 7.20462 10.6569C7.2513 10.7682 7.31973 10.8694 7.40598 10.9546C7.58224 11.1235 7.81707 11.2196 8.0626 11.2234L9.75133 11.2204C9.99697 11.2171 10.232 11.1209 10.4079 10.9515C10.5821 10.7794 10.6799 10.5461 10.6799 10.3028C10.6799 10.0595 10.5821 9.82616 10.4079 9.6541C10.2317 9.48518 9.99686 9.38903 9.75133 9.38525Z" fill="#54D8CE"/>
<path d="M16.0626 9.38525L14.3739 9.38831C14.1282 9.39133 13.8932 9.48746 13.7173 9.65685C13.631 9.74205 13.5626 9.84321 13.5159 9.95454C13.4692 10.0659 13.4452 10.1852 13.4452 10.3057C13.4452 10.4262 13.4692 10.5455 13.5159 10.6569C13.5626 10.7682 13.631 10.8694 13.7173 10.9546C13.8935 11.1235 14.1283 11.2196 14.3739 11.2234L16.0626 11.2204C16.3082 11.2171 16.5432 11.1209 16.7192 10.9515C16.8933 10.7794 16.9911 10.5461 16.9911 10.3028C16.9911 10.0595 16.8933 9.82616 16.7192 9.6541C16.543 9.48518 16.3081 9.38903 16.0626 9.38525Z" fill="#211715"/>
<path d="M22.3733 9.38525L20.6845 9.38831C20.4389 9.39133 20.2039 9.48746 20.0279 9.65685C19.9417 9.74205 19.8733 9.84321 19.8266 9.95454C19.7799 10.0659 19.7559 10.1852 19.7559 10.3057C19.7559 10.4262 19.7799 10.5455 19.8266 10.6569C19.8733 10.7682 19.9417 10.8694 20.0279 10.9546C20.2042 11.1235 20.439 11.2196 20.6845 11.2234L22.3733 11.2204C22.6189 11.2171 22.8539 11.1209 23.0299 10.9515C23.204 10.7794 23.3018 10.5461 23.3018 10.3028C23.3018 10.0595 23.204 9.82616 23.0299 9.6541C22.8536 9.48518 22.6188 9.38903 22.3733 9.38525Z" fill="#211715"/>
<path d="M28.6841 9.38525L26.9947 9.38984C26.7491 9.39286 26.514 9.48899 26.3381 9.65838C26.2519 9.74358 26.1834 9.84474 26.1367 9.95607C26.0901 10.0674 26.066 10.1867 26.066 10.3072C26.066 10.4277 26.0901 10.5471 26.1367 10.6584C26.1834 10.7697 26.2519 10.8709 26.3381 10.9561C26.5144 11.125 26.7492 11.2212 26.9947 11.2249L28.6835 11.2219C28.9292 11.2187 29.1643 11.1225 29.3404 10.953C29.5145 10.781 29.6123 10.5476 29.6123 10.3043C29.6123 10.061 29.5145 9.82769 29.3404 9.65563C29.164 9.48669 28.9291 9.39055 28.6835 9.38678L28.6841 9.38525Z" fill="#211715"/>
<path d="M9.75142 15.3838L8.06269 15.3868C7.81705 15.3901 7.58205 15.4864 7.40607 15.6557C7.23196 15.8278 7.13416 16.0611 7.13416 16.3044C7.13416 16.5477 7.23196 16.781 7.40607 16.9531C7.58224 17.1222 7.81713 17.2183 8.06269 17.222L9.75142 17.2189C9.99705 17.2159 10.2321 17.1197 10.408 16.9504C10.4943 16.8652 10.5627 16.764 10.6094 16.6527C10.6561 16.5413 10.6801 16.422 10.6801 16.3015C10.6801 16.181 10.6561 16.0617 10.6094 15.9503C10.5627 15.839 10.4943 15.7378 10.408 15.6526C10.2318 15.4837 9.99695 15.3876 9.75142 15.3838Z" fill="#54D8CE"/>
<path d="M16.0626 15.3838L14.3738 15.3868C14.1282 15.3901 13.8932 15.4864 13.7172 15.6557C13.5431 15.8278 13.4453 16.0611 13.4453 16.3044C13.4453 16.5477 13.5431 16.781 13.7172 16.9531C13.8934 17.1222 14.1283 17.2183 14.3738 17.222L16.0626 17.2189C16.3082 17.2159 16.5433 17.1197 16.7192 16.9504C16.8054 16.8652 16.8739 16.764 16.9206 16.6527C16.9672 16.5413 16.9913 16.422 16.9913 16.3015C16.9913 16.181 16.9672 16.0617 16.9206 15.9503C16.8739 15.839 16.8054 15.7378 16.7192 15.6526C16.5429 15.4837 16.3081 15.3876 16.0626 15.3838Z" fill="#211715"/>
<path d="M22.3734 15.3838L20.6846 15.3868C20.439 15.3901 20.204 15.4864 20.028 15.6557C19.8539 15.8278 19.7561 16.0611 19.7561 16.3044C19.7561 16.5477 19.8539 16.781 20.028 16.9531C20.2042 17.1222 20.4391 17.2183 20.6846 17.222L22.3734 17.2189C22.619 17.2159 22.8541 17.1197 23.03 16.9504C23.1162 16.8652 23.1847 16.764 23.2313 16.6527C23.278 16.5413 23.3021 16.422 23.3021 16.3015C23.3021 16.181 23.278 16.0617 23.2313 15.9503C23.1847 15.839 23.1162 15.7378 23.03 15.6526C22.8537 15.4837 22.6189 15.3876 22.3734 15.3838Z" fill="#211715"/>
<path d="M28.684 15.3838L26.9953 15.3868C26.7497 15.3901 26.5147 15.4864 26.3387 15.6557C26.1646 15.8278 26.0668 16.0611 26.0668 16.3044C26.0668 16.5477 26.1646 16.781 26.3387 16.9531C26.5149 17.1222 26.7497 17.2183 26.9953 17.222L28.684 17.2189C28.9297 17.2158 29.1649 17.1197 29.341 16.9504C29.4272 16.8652 29.4956 16.764 29.5423 16.6527C29.589 16.5413 29.613 16.422 29.613 16.3015C29.613 16.181 29.589 16.0617 29.5423 15.9503C29.4956 15.839 29.4272 15.7378 29.341 15.6526C29.1646 15.4837 28.9297 15.3876 28.684 15.3838Z" fill="#211715"/>
<path d="M9.75142 21.3853L8.06269 21.3883C7.81705 21.3916 7.58205 21.4878 7.40607 21.6572C7.23196 21.8292 7.13416 22.0626 7.13416 22.3059C7.13416 22.5492 7.23196 22.7825 7.40607 22.9546C7.58217 23.1237 7.8171 23.2199 8.06269 23.2234L9.75142 23.2204C9.99705 23.2173 10.2321 23.1212 10.408 22.9518C10.4943 22.8666 10.5627 22.7655 10.6094 22.6541C10.6561 22.5428 10.6801 22.4235 10.6801 22.303C10.6801 22.1825 10.6561 22.0631 10.6094 21.9518C10.5627 21.8405 10.4943 21.7393 10.408 21.6541C10.2318 21.4852 9.99695 21.389 9.75142 21.3853Z" fill="#54D8CE"/>
<path d="M16.0626 21.3853L14.3738 21.3883C14.1282 21.3916 13.8932 21.4878 13.7172 21.6572C13.5431 21.8292 13.4453 22.0626 13.4453 22.3059C13.4453 22.5492 13.5431 22.7825 13.7172 22.9546C13.8933 23.1237 14.1283 23.2199 14.3738 23.2234L16.0626 23.2204C16.3082 23.2173 16.5433 23.1212 16.7192 22.9518C16.8054 22.8666 16.8739 22.7655 16.9206 22.6541C16.9672 22.5428 16.9913 22.4235 16.9913 22.303C16.9913 22.1825 16.9672 22.0631 16.9206 21.9518C16.8739 21.8405 16.8054 21.7393 16.7192 21.6541C16.5429 21.4852 16.3081 21.389 16.0626 21.3853Z" fill="#211715"/>
<path d="M22.3734 21.3853L20.6846 21.3883C20.439 21.3916 20.204 21.4878 20.028 21.6572C19.8539 21.8292 19.7561 22.0626 19.7561 22.3059C19.7561 22.5492 19.8539 22.7825 20.028 22.9546C20.2041 23.1237 20.439 23.2199 20.6846 23.2234L22.3734 23.2204C22.619 23.2173 22.8541 23.1212 23.03 22.9518C23.1162 22.8666 23.1847 22.7655 23.2313 22.6541C23.278 22.5428 23.3021 22.4235 23.3021 22.303C23.3021 22.1825 23.278 22.0631 23.2313 21.9518C23.1847 21.8405 23.1162 21.7393 23.03 21.6541C22.8537 21.4852 22.6189 21.389 22.3734 21.3853Z" fill="#211715"/>
<path d="M28.684 21.3853L26.9953 21.3883C26.7497 21.3916 26.5147 21.4878 26.3387 21.6572C26.1646 21.8292 26.0668 22.0626 26.0668 22.3059C26.0668 22.5492 26.1646 22.7825 26.3387 22.9546C26.5148 23.1237 26.7497 23.2199 26.9953 23.2234L28.684 23.2204C28.9297 23.2172 29.1649 23.1211 29.341 22.9518C29.4272 22.8666 29.4956 22.7655 29.5423 22.6541C29.589 22.5428 29.613 22.4235 29.613 22.303C29.613 22.1825 29.589 22.0631 29.5423 21.9518C29.4956 21.8405 29.4272 21.7393 29.341 21.6541C29.1646 21.4852 28.9297 21.389 28.684 21.3853Z" fill="#211715"/>
<path d="M8.05707 1.72732H3.45552C2.6692 1.72732 1.92869 1.79644 1.27177 2.27204C0.907193 2.53363 0.606808 2.87285 0.392838 3.26462C0.178869 3.65638 0.0567909 4.09066 0.0356357 4.53533C-0.0445446 6.05633 0.0356357 7.60271 0.0356357 9.12615C0.0356357 10.8613 0.036358 12.5964 0.0378027 14.3314C0.0392474 17.6334 0.0405889 20.9343 0.0418272 24.2342V26.0923C0.0418272 26.8291 0.033159 27.524 0.382361 28.2027C0.582977 28.5809 0.865629 28.9108 1.21014 29.1687C1.55466 29.4265 1.95255 29.6061 2.37541 29.6946C3.1248 29.7887 3.88169 29.8103 4.63532 29.7591L25.7546 29.7497L30.6747 29.7475H32.8523C33.6748 29.7475 34.4751 29.7362 35.1837 29.2606C35.5563 29.0116 35.8674 28.683 36.0939 28.299C36.3205 27.915 36.4566 27.4856 36.4923 27.0426C36.5659 26.1522 36.5015 25.2313 36.5012 24.3382L36.4988 18.3378C36.4973 14.4867 36.4957 10.6357 36.4938 6.78486C36.533 5.96224 36.5252 5.13809 36.4703 4.31634C36.4199 3.87541 36.2695 3.45139 36.0303 3.07587C35.791 2.70036 35.469 2.38303 35.0883 2.14756C34.458 1.7576 33.768 1.71631 33.0485 1.71631H30.9642H29.085C28.1291 1.71631 28.1272 3.18439 29.085 3.18439H32.9018C33.4343 3.18439 33.9689 3.13546 34.4209 3.46944C34.9951 3.89366 35.0057 4.50169 35.006 5.14918L35.0106 15.8481C35.0106 17.7585 35.0115 19.6686 35.0131 21.5785C35.0131 23.3439 35.071 25.1194 35.0131 26.8835C35.0025 27.1678 34.9076 27.4427 34.7403 27.6742C34.573 27.9057 34.3407 28.0836 34.072 28.1858C33.4971 28.3999 32.725 28.2776 32.1186 28.2776L27.6449 28.2794L7.24164 28.2886C5.84019 28.2886 4.43626 28.3146 3.03512 28.2904C2.73307 28.2959 2.4364 28.211 2.18408 28.0469C1.93175 27.8827 1.73557 27.647 1.62129 27.3707C1.43554 26.9013 1.52841 26.2908 1.52841 25.795C1.52676 22.8943 1.52542 19.9936 1.52439 17.0929C1.52274 13.8051 1.52129 10.5173 1.52005 7.22957V5.09412C1.52005 4.46866 1.55101 3.89121 2.1033 3.4829C2.58623 3.12506 3.17752 3.19663 3.7456 3.19632H6.0021H8.05768C9.01366 3.19632 9.0152 1.72824 8.05768 1.72824L8.05707 1.72732Z" fill="#211715"/>
<path d="M24.9998 0.734041C24.9998 1.80656 24.9998 2.87917 24.9998 3.95189C24.9998 4.14657 25.0781 4.33328 25.2175 4.47094C25.3568 4.6086 25.5458 4.68594 25.7428 4.68594C25.9399 4.68594 26.1289 4.6086 26.2682 4.47094C26.4075 4.33328 26.4858 4.14657 26.4858 3.95189C26.4858 2.87938 26.4853 1.80676 26.4843 0.734041C26.4843 0.539361 26.406 0.352655 26.2666 0.214996C26.1273 0.0773363 25.9383 0 25.7413 0C25.5442 0 25.3552 0.0773363 25.2159 0.214996C25.0766 0.352655 24.9983 0.539361 24.9983 0.734041H24.9998Z" fill="#211715"/>
<path d="M12.0048 3.95238C12.0048 2.87987 12.0048 1.80725 12.0048 0.73453C12.0048 0.53985 11.9265 0.353143 11.7872 0.215484C11.6478 0.0778245 11.4588 0.000488281 11.2618 0.000488281C11.0647 0.000488281 10.8757 0.0778245 10.7364 0.215484C10.5971 0.353143 10.5188 0.53985 10.5188 0.73453C10.5188 1.80705 10.5188 2.87966 10.5188 3.95238C10.5188 4.04878 10.538 4.14423 10.5754 4.23329C10.6127 4.32235 10.6674 4.40327 10.7364 4.47143C10.8054 4.53959 10.8873 4.59366 10.9775 4.63055C11.0676 4.66744 11.1642 4.68642 11.2618 4.68642C11.3594 4.68642 11.456 4.66744 11.5461 4.63055C11.6363 4.59366 11.7182 4.53959 11.7872 4.47143C11.8561 4.40327 11.9109 4.32235 11.9482 4.23329C11.9855 4.14423 12.0048 4.04878 12.0048 3.95238Z" fill="#211715"/>
</svg>
