<svg width="58" height="45" viewBox="0 0 58 45" fill="none" xmlns="http://www.w3.org/2000/svg">
<g clip-path="url(#clip0_492_271)">
<path d="M45.6673 14.2845C45.4663 15.0967 45.2223 15.8978 44.9363 16.6842C44.1422 17.1041 43.2778 17.3749 42.3859 17.483C42.3527 17.4889 42.3194 17.4947 42.2862 17.5003C41.1201 17.7027 39.9221 17.6144 38.7985 17.2433C38.6995 16.6708 38.6173 16.0868 38.5597 15.5021L39.8095 13.4843L44.3732 13.2959L45.6673 14.2845Z" fill="white"/>
<path d="M54.3358 23.4797C54.8854 25.8799 55.2172 27.8911 54.2641 29.8126C54.0456 30.2532 53.6197 30.9338 53.2603 31.278C52.8719 31.642 52.4029 31.9092 51.8915 32.0577C51.9881 32.4302 52.0962 32.8038 52.2073 33.1729H37.1502L32.4451 25.2788C32.3767 24.775 32.3939 24.2631 32.4961 23.765C32.7611 22.3311 33.08 20.873 33.3139 20.1959C33.5913 19.3927 33.909 18.087 34.7198 17.1525C35.2504 16.541 36.3271 16.0269 37.3018 15.6935L38.3648 15.3806L38.5431 15.328C38.7547 17.6879 39.3849 20.0611 39.886 21.6726C40.0742 22.2778 40.2441 22.7754 40.3669 23.1247C40.6746 23.9675 41.0272 24.7932 41.4232 25.5983C41.6368 25.164 42.3048 23.6155 43.0097 21.8722C43.6008 20.4108 44.2179 18.8125 44.6154 17.6181C44.9847 16.5094 45.4333 15.3715 45.7186 14.0562L46.1892 14.2851L47.4595 14.902C49.4834 15.506 51.1633 16.2683 52.3141 17.9658C53.3585 19.5062 54.0399 22.3625 54.3353 23.4799" fill="white"/>
<path d="M48.0487 25.6626C47.2569 26.0697 45.9928 26.7089 45.2479 27.1278L44.0396 27.6502C43.7294 27.826 43.1783 28.1319 42.9001 28.2773L42.766 28.3512V32.3176L42.8146 32.8264V36.7609L42.9488 37.0882V41.434C43.0634 41.434 43.2132 41.434 43.3622 41.434C45.0734 40.4949 46.6315 39.6745 48.2085 38.7613C48.1799 37.7849 48.1499 36.2393 48.1499 35.3625L48.2048 34.3161C48.168 33.0356 48.168 31.6126 48.3704 30.4687L48.1317 29.9089C48.089 28.4587 48.1167 26.9301 48.2043 25.7787" fill="white"/>
<path d="M41.846 24.0523C41.992 23.8364 42.163 23.6384 42.3554 23.4626C42.5606 22.9728 42.7834 22.4329 43.0101 21.8724C43.6011 20.4111 44.2182 18.8128 44.6157 17.6184C44.7182 17.3103 44.827 17.0001 44.9366 16.6846C44.1425 17.1046 43.2778 17.3754 42.3857 17.4836C42.3525 17.4895 42.3193 17.4953 42.286 17.5009C41.1199 17.7034 39.9217 17.6149 38.7981 17.2433C39.0661 18.7415 39.4295 20.221 39.8863 21.673C40.0745 22.2781 40.2444 22.7758 40.3672 23.1251C40.5736 23.7123 40.8137 24.2863 41.1962 25.1125C41.405 24.728 41.6046 24.4164 41.846 24.0523Z" fill="white"/>
<path d="M42.4099 14.8565C43.0058 14.5473 43.5543 14.1545 44.0386 13.6899C44.338 13.3773 44.6088 13.0385 44.8479 12.6778C44.8479 12.6778 45.0807 12.3183 45.179 12.113C45.179 12.113 45.2045 12.059 45.2454 11.9749C45.5553 11.9985 45.8657 11.9345 46.141 11.7901C46.5219 11.5456 46.8213 11.1932 47.0006 10.7779C47.2121 10.3517 47.3063 9.63511 47.1163 9.21735C47.0571 9.09156 46.9655 8.98374 46.8509 8.90492C46.7362 8.82611 46.6027 8.77913 46.4639 8.7688C46.2446 8.7331 46.0199 8.78267 45.8361 8.90733L44.9217 9.07169C44.4654 8.87349 44.2428 8.5617 43.992 8.07231C43.6099 7.32824 43.4738 6.37224 42.9531 5.77842C42.8173 5.61291 42.6437 5.48234 42.447 5.39766C42.2502 5.31297 42.036 5.27664 41.8223 5.2917C41.8223 5.2917 41.247 5.28788 41.0056 5.28598C40.5366 4.95522 39.7641 5.1538 39.2126 5.38266C38.9826 5.48387 38.7706 5.62188 38.585 5.79126C37.9493 6.34731 37.5335 7.07395 36.9675 7.68813C36.4334 8.26784 35.8224 8.50916 34.9785 8.44504C35.0247 8.79119 35.0658 9.13822 35.1035 9.48208C35.1637 10.0273 35.215 10.5624 35.2713 11.0692C35.3816 12.0712 35.6366 13.0043 36.1427 13.7389C36.3266 14.009 36.5484 14.2513 36.8013 14.4582C37.8085 15.2799 38.8773 15.6159 40.1648 15.5025C40.3711 15.4833 40.5698 15.4565 40.7645 15.4193C41.3321 15.2915 41.8842 15.1027 42.4111 14.8562L42.4099 14.8565Z" fill="white"/>
<path d="M42.5768 32.5964L41.9422 32.5817L30.342 32.3138C30.342 32.3138 30.297 32.3128 30.252 32.311V36.26L30.5875 36.5495C30.6287 36.5505 30.6598 36.5515 30.6598 36.5515L42.8141 36.9277V32.6018L42.5768 32.5964Z" fill="white"/>
<path d="M41.3645 29.5608C39.8307 29.4983 38.096 29.4673 36.6813 29.4336V31.086C38.1332 31.1569 39.9248 31.1613 41.3645 31.231V29.5608Z" fill="white"/>
<path d="M41.4986 33.9138C39.9648 33.8512 38.23 33.8202 36.8154 33.7866V35.439C38.2673 35.51 40.0588 35.5144 41.4986 35.584V33.9138Z" fill="white"/>
<path d="M43.6452 22.8682C43.6148 22.8696 43.5844 22.8727 43.5544 22.8774C43.1497 22.9436 42.8306 23.0413 42.5566 23.281C42.2853 23.5043 42.0462 23.7639 41.8459 24.0524C41.5681 24.4588 41.3148 24.8815 41.0875 25.3181C40.9636 25.5598 40.8463 25.823 40.8678 26.0932C40.8849 26.2165 40.9451 26.3299 41.0377 26.4132C41.1304 26.4965 41.2496 26.5443 41.3742 26.5483C41.4578 26.5373 41.5381 26.5084 41.6097 26.4638C41.6812 26.4191 41.7423 26.3596 41.7889 26.2893L41.8765 26.1332L41.7504 26.4767C41.6833 26.66 41.8356 26.9783 42.0321 27.0546C42.1334 27.0851 42.2408 27.0888 42.3439 27.0654C42.447 27.042 42.5423 26.9923 42.6204 26.9212L42.8679 26.7176L42.8472 26.7907C42.8266 26.9085 42.8467 27.0299 42.9044 27.1348C42.962 27.2396 43.0536 27.3218 43.1642 27.3677C43.3234 27.422 43.6596 27.4186 43.752 27.2787L44.001 26.9013L43.9969 27.0632C43.9915 27.2893 44.135 27.4271 44.3295 27.5131C44.3982 27.5352 44.4706 27.5432 44.5425 27.5366C44.6144 27.5301 44.6842 27.5091 44.7477 27.4749C45.2646 27.2537 45.5464 26.7072 45.9365 26.3027C46.1835 26.0468 46.48 25.8438 46.8081 25.7059C47.0521 25.6034 47.1803 25.3067 47.2691 25.0571C47.3455 24.8436 47.2691 24.6605 47.2319 24.4592C47.1754 24.1524 47.0791 24.0322 46.6799 23.726C46.3922 23.4772 46.0674 23.2746 45.7172 23.1257C45.3195 23.071 44.1333 22.8426 43.6452 22.8682Z" fill="white"/>
<path d="M15.5067 20.3491L15.0107 20.2786C14.8543 20.1679 12.7916 18.5433 12.6903 18.4615V18.2683C12.1654 17.9637 11.7019 17.564 11.3236 17.0896C10.7846 16.4391 10.3845 15.6852 10.1481 14.8744C10.0172 14.902 9.88167 14.8995 9.75186 14.867C9.62206 14.8346 9.50137 14.773 9.39895 14.687C8.96592 14.3329 8.78609 13.8392 8.67643 13.5166C8.52156 13.0609 8.51175 12.3244 8.74253 11.9247C8.81101 11.8064 8.91034 11.7089 9.02993 11.6425C9.14952 11.5762 9.28489 11.5434 9.42162 11.5479C9.52915 11.5431 9.63655 11.5597 9.73763 11.5967C9.83871 11.6336 9.93146 11.6902 10.0105 11.7631C10.0105 11.7631 9.08208 7.53076 15.1954 7.53076C20.7625 7.53076 20.4328 11.7636 20.4328 11.7636C20.5118 11.6907 20.6046 11.6341 20.7056 11.5971C20.8067 11.5601 20.9141 11.5435 21.0217 11.5483C21.1584 11.5439 21.2938 11.5766 21.4133 11.6429C21.5329 11.7093 21.6323 11.8068 21.7008 11.9251C21.9314 12.3248 21.9217 13.0613 21.7669 13.517C21.6571 13.8397 21.4774 14.3334 21.0442 14.6874C20.9489 14.7666 20.8381 14.8252 20.719 14.8596C20.5998 14.894 20.4748 14.9033 20.3519 14.8869L20.2855 14.8758C20.2202 15.096 20.1406 15.3117 20.0472 15.5216C19.8725 15.9952 18.9128 17.6476 17.695 18.3104C17.695 18.4011 17.695 18.4619 17.695 18.4619C17.5937 18.5437 15.531 20.1683 15.3746 20.279" fill="white"/>
<path d="M15.077 30.7461C14.3603 28.9799 14.1759 28.3967 13.6158 26.6785C12.9215 24.5492 12.2725 22.225 11.7548 20.0125C11.7352 19.9021 11.7404 19.7887 11.77 19.6805C11.7995 19.5723 11.8527 19.472 11.9257 19.3868C12.1588 19.1173 12.4523 18.7274 12.6899 18.4614C12.7918 18.5432 14.8539 20.1679 15.0103 20.2785H15.3737C15.5301 20.1679 17.5929 18.5432 17.6941 18.4614C17.9323 18.7274 18.2259 19.1173 18.4583 19.3868C18.5313 19.472 18.5845 19.5723 18.614 19.6805C18.6436 19.7887 18.6488 19.9021 18.6292 20.0125C18.1115 22.2248 17.4625 24.5489 16.7683 26.6785C16.208 28.3967 16.0237 28.9799 15.3071 30.7461H15.077Z" fill="white"/>
<path d="M3.04065 33.1275C3.2699 31.0349 3.54245 28.6675 3.72585 27.2592C3.9793 25.6195 4.35374 24.3613 4.98163 23.4085C6.11425 21.6894 8.32066 20.9637 10.8373 19.9782C11.1206 19.7589 11.3966 19.5664 11.6194 19.4238C12.1572 21.8089 12.8597 24.3597 13.6158 26.6786C14.2047 28.485 14.3783 29.037 15.192 31.0293C16.0072 29.0374 16.1804 28.4858 16.7694 26.6786C17.5254 24.3595 18.228 21.8089 18.7658 19.4238C18.9886 19.5664 19.2647 19.7589 19.5478 19.9782C22.0646 20.9637 24.2709 21.6894 25.4035 23.4085C26.0314 24.3613 26.4058 25.6195 26.6593 27.2592C26.8427 28.6675 27.1152 31.0349 27.3445 33.1275H3.04065Z" fill="white"/>
<path d="M15.077 26.3076C11.2039 26.3356 7.34939 26.3585 5.9809 26.3628C5.9292 26.3629 5.87804 26.3732 5.83033 26.3931C5.78263 26.413 5.73932 26.4421 5.70288 26.4787C5.66644 26.5154 5.6376 26.5588 5.61799 26.6066C5.59839 26.6544 5.58841 26.7056 5.58863 26.7572C5.59652 28.9781 5.70325 36.6644 5.7854 39.4895C5.7885 39.593 5.83231 39.6911 5.90734 39.7625C5.98237 39.834 6.08256 39.873 6.1862 39.8711C7.42301 39.8522 11.2538 39.8639 15.077 39.877C18.9002 39.8643 22.7314 39.8522 23.9677 39.8711C24.0714 39.873 24.1716 39.834 24.2466 39.7625C24.3216 39.6911 24.3654 39.593 24.3685 39.4895C24.4502 36.6644 24.5574 28.9781 24.5654 26.7572C24.5656 26.7056 24.5556 26.6544 24.536 26.6066C24.5164 26.5589 24.4876 26.5154 24.4511 26.4788C24.4147 26.4422 24.3714 26.4131 24.3237 26.3932C24.276 26.3733 24.2249 26.363 24.1732 26.3628C22.8045 26.3585 18.9501 26.3357 15.077 26.3076Z" fill="white"/>
<path d="M41.4986 38.3338C39.9648 38.2712 38.23 38.2401 36.8154 38.2065V39.8589C38.2673 39.9299 40.0588 39.9343 41.4986 40.0041V38.3338Z" fill="white"/>
<path d="M32.1481 25.3184C32.4998 25.0803 32.8999 24.9229 33.3197 24.8576C33.7395 24.7922 34.1686 24.8204 34.5762 24.9403C34.6806 24.9666 34.7788 25.0132 34.8653 25.0773C35.0677 25.2427 35.1 25.5353 35.1172 25.7955C35.1325 25.9044 35.1233 26.0152 35.0902 26.12C35.058 26.1908 35.0077 26.2519 34.9445 26.2973C34.8813 26.3426 34.8072 26.3706 34.7298 26.3785C34.5739 26.3921 34.4179 26.353 34.2868 26.2675C34.2239 26.2188 34.1514 26.1839 34.074 26.1651C33.9806 26.1638 33.8892 26.192 33.8128 26.2457C33.4239 26.4529 33.0484 26.6844 32.6887 26.9388C32.5336 27.068 32.3638 27.1784 32.1828 27.2679C31.9869 27.3441 31.7765 27.3758 31.5668 27.3606C31.3571 27.351 31.1274 27.2988 31.0058 27.1281C30.8343 26.8878 30.9632 26.5523 31.126 26.306C31.3691 25.9385 31.6786 25.6193 32.0385 25.3647" fill="white"/>
<path d="M48.5815 10.2734C48.3769 9.18861 48.0836 8.30792 47.8008 7.0204C47.5633 5.93579 47.439 4.54485 46.973 3.60742C46.662 2.98217 46.0547 2.05428 45.145 1.51109L44.1006 0.941047L43.9478 0.855942C43.0084 0.471315 41.9998 0.283902 40.9848 0.305367C38.9471 0.315925 37.2659 1.25679 36.4635 2.03011C35.5684 2.99337 35.202 3.95293 34.7882 5.75985C34.5199 6.94293 34.2533 8.37903 34.0428 9.57177C33.8633 10.5999 33.8492 11.6311 34.3651 12.538C34.7711 13.2464 35.4134 13.7022 36.3081 13.9733H36.3196C36.2578 13.897 36.1981 13.8198 36.1426 13.7387C35.6364 13.0042 35.3814 12.0711 35.2712 11.0691C35.2149 10.5623 35.1635 10.0272 35.1033 9.48196C35.0651 9.13849 35.0246 8.79107 34.9784 8.44493C35.8222 8.50853 36.4332 8.26759 36.9674 7.68801C37.5333 7.07383 37.9492 6.34719 38.5848 5.79115C38.7704 5.62176 38.9824 5.48375 39.2125 5.38254C39.7639 5.15356 40.537 4.95549 41.0055 5.28586C41.2468 5.28777 41.8221 5.29159 41.8221 5.29159C42.0358 5.27652 42.25 5.31286 42.4468 5.39754C42.6436 5.48223 42.8171 5.6128 42.9529 5.7783C43.4736 6.37213 43.6099 7.32813 43.9918 8.07219C44.2431 8.56158 44.4657 8.87363 44.9216 9.07158L45.8359 8.90722C46.0198 8.78256 46.2444 8.73298 46.4638 8.76868C46.6026 8.77901 46.7361 8.82599 46.8507 8.90481C46.9653 8.98362 47.0569 9.09144 47.1161 9.21723C47.3061 9.635 47.2119 10.3516 47.0005 10.7777C46.8211 11.1931 46.5218 11.5455 46.1408 11.79C45.8655 11.9344 45.5552 11.9984 45.2452 11.9748C45.2047 12.0589 45.1788 12.1128 45.1788 12.1128C45.0805 12.3182 44.8477 12.6777 44.8477 12.6777C44.6087 13.0384 44.3378 13.3771 44.0384 13.6898C43.8341 13.8885 43.6162 14.073 43.3865 14.2419L44.806 14.2957C46.3713 14.3547 47.4974 13.7296 48.1391 12.6554C48.5688 11.9405 48.7259 11.0947 48.5815 10.2734Z" fill="#54D8CE"/>
<path d="M43.9969 27.0629L44.0009 26.9011L43.7519 27.2784C43.6595 27.4183 43.3234 27.4222 43.1642 27.3675C43.0536 27.3216 42.9619 27.2394 42.9043 27.1345C42.8467 27.0296 42.8265 26.9083 42.8472 26.7904L42.8678 26.7174L42.6203 26.9209C42.5423 26.9922 42.447 27.0419 42.3439 27.0653C42.2407 27.0887 42.1333 27.0849 42.0321 27.0544C41.8355 26.9781 41.6832 26.66 41.7505 26.4765L41.8764 26.133L41.7889 26.2891C41.7423 26.3593 41.6812 26.4188 41.6096 26.4635C41.5381 26.5082 41.4578 26.537 41.3741 26.5481C41.2495 26.5441 41.1303 26.4962 41.0377 26.4129C40.945 26.3296 40.8848 26.2163 40.8677 26.0929C40.8598 25.9217 40.8912 25.7509 40.9596 25.5936C39.1272 25.5694 37.3117 25.5478 35.6297 25.5459C35.4832 25.5455 35.338 25.5732 35.2019 25.6276C35.1718 25.6397 35.1397 25.653 35.1065 25.6657C35.1109 25.7091 35.1144 25.7524 35.1172 25.7947C35.1325 25.9036 35.1233 26.0144 35.0902 26.1192C35.058 26.19 35.0078 26.2511 34.9445 26.2965C34.8813 26.3418 34.8073 26.3698 34.7298 26.3777C34.5739 26.3913 34.4179 26.3522 34.2868 26.2667C34.2239 26.218 34.1514 26.1831 34.074 26.1643C33.9806 26.163 33.8892 26.1912 33.8128 26.2449C33.4239 26.4521 33.0485 26.6836 32.6887 26.938C32.5336 27.0672 32.3638 27.1776 32.1828 27.2671C31.9869 27.3433 31.7765 27.375 31.5668 27.3598C31.5269 27.358 31.4866 27.354 31.4462 27.3485C30.9779 27.5852 30.5854 27.7974 30.353 27.9489C30.2748 27.996 30.1351 28.1409 30.1351 28.1875V32.0994C30.1351 32.2606 30.1978 32.3133 30.3593 32.3133L42.5941 32.5959C42.5941 32.5959 42.6799 32.5978 42.7659 32.6001V28.3499L42.9 28.2774C43.1782 28.132 43.7293 27.8261 44.0395 27.6503L44.3452 27.5182C44.3401 27.5163 44.3347 27.5152 44.3298 27.5129C44.1349 27.4269 43.9914 27.2891 43.9969 27.0629ZM41.3644 31.2313C39.9253 31.1616 38.1332 31.1572 36.6812 31.0863V29.4339C38.096 29.4674 39.8306 29.4984 41.3644 29.5611V31.2313Z" fill="#54D8CE"/>
<path d="M42.9487 36.9321L30.6603 36.5518C30.4736 36.5518 30.3866 36.671 30.3866 36.8571V40.888C30.3863 40.9465 30.4086 41.0028 30.449 41.0451C30.4894 41.0874 30.5446 41.1124 30.6031 41.1149C34.4922 41.2582 38.803 41.3921 42.949 41.4362C42.9486 40.1737 42.9487 38.1256 42.9487 36.9321ZM41.4986 40.0044C40.0588 39.9347 38.2673 39.9303 36.8154 39.8593V38.2069C38.23 38.2404 39.9648 38.2714 41.4986 38.3341V40.0044Z" fill="#54D8CE"/>
<path d="M14.2399 22.1622C14.315 22.3681 14.3602 22.5837 14.3743 22.8024C14.3759 22.9009 14.1411 24.5453 13.8889 26.3161L15.0771 26.3077C15.5714 26.3112 16.0653 26.3148 16.5545 26.3181C16.3462 24.5838 16.1184 22.8219 16.1184 22.7628C16.1231 22.6405 16.1417 22.5192 16.1738 22.4012C16.1876 22.3472 16.2001 22.2932 16.2112 22.2392C16.271 21.9704 16.2819 21.8327 16.3513 21.548L16.3556 21.534C16.0229 21.0858 15.6204 20.5545 15.375 20.2788H15.0108C14.7677 20.5521 14.37 21.0768 14.0388 21.5226L14.0698 21.6096C14.1415 21.7888 14.1984 21.9737 14.2399 22.1622Z" fill="#54D8CE"/>
<path d="M21.3832 7.91143C21.0026 6.4753 20.1121 5.22642 18.8777 4.3977C17.8026 3.64698 16.5186 3.25246 15.2069 3.26983C13.8487 3.24818 12.5207 3.67145 11.426 4.47492C10.6368 5.04593 9.98978 5.79065 9.53494 6.65145C9.0801 7.51225 8.82965 8.46604 8.80297 9.439C8.78263 10.1754 8.87826 10.9104 9.08635 11.6171C9.19294 11.5737 9.3066 11.5502 9.42169 11.5478C9.52923 11.5431 9.63664 11.5597 9.73772 11.5966C9.8388 11.6336 9.93155 11.6902 10.0106 11.7632L10.2629 11.7608L10.8436 11.0646C11.4685 10.3689 12.5717 9.32031 13.3459 8.91476C13.4366 8.86718 13.5533 8.93155 13.5901 9.08306C13.6203 9.20151 13.6283 9.3245 13.6139 9.44587C13.6077 9.48025 13.6112 9.51567 13.624 9.54818C13.6367 9.5807 13.6583 9.60904 13.6862 9.63006C13.7141 9.65108 13.7474 9.66394 13.7822 9.66722C13.817 9.6705 13.852 9.66407 13.8834 9.64865C14.4362 9.34207 15.4208 8.72483 16.1191 8.43084L16.4087 8.30974C16.6615 8.37947 16.9104 8.46231 17.1545 8.55793C17.5041 8.70235 17.8265 8.90494 18.1082 9.1571C18.7368 9.69724 19.3393 10.4383 19.6063 11.109L20.1334 11.7908L20.4328 11.7632C20.5119 11.6902 20.6046 11.6336 20.7057 11.5966C20.8068 11.5597 20.9142 11.5431 21.0217 11.5478C21.1295 11.5502 21.236 11.571 21.3367 11.6092C21.5505 10.7838 21.6424 10.1824 21.6109 9.439C21.5911 8.92303 21.5147 8.41079 21.3832 7.91143Z" fill="#54D8CE"/>
<path d="M40.5176 9.9268C40.4412 9.64693 40.5189 9.01379 41.0449 8.97754C41.7375 9.00527 41.7482 9.77503 41.5026 10.1284C41.3016 10.4178 40.7361 10.5218 40.5176 9.9268Z" fill="#211715"/>
<path d="M36.4005 9.91631C36.3313 9.63644 36.4021 9.00038 36.8838 8.96387C37.5179 8.99147 37.5276 9.76378 37.3026 10.1183C37.1186 10.4086 36.6006 10.5131 36.4005 9.91631Z" fill="#211715"/>
<path d="M38.5117 10.5439C38.4226 10.6946 38.3361 10.8481 38.2601 11.0063C38.2141 11.09 38.1861 11.1824 38.1778 11.2776C38.1755 11.3364 38.1863 11.395 38.2095 11.4492C38.2326 11.5033 38.2675 11.5516 38.3116 11.5907C38.3816 11.6565 38.4664 11.7045 38.5589 11.7306C38.6186 11.7425 38.679 11.7505 38.7398 11.7547L38.6586 11.7437L38.6653 11.7447C38.745 11.7635 38.8287 11.7525 38.9008 11.714C38.9355 11.6937 38.9658 11.6669 38.9901 11.635C39.0144 11.603 39.0322 11.5667 39.0424 11.5279C39.0526 11.4891 39.055 11.4487 39.0496 11.4089C39.0442 11.3692 39.031 11.3309 39.0107 11.2963C38.9912 11.2619 38.965 11.2318 38.9337 11.2078C38.9023 11.1837 38.8664 11.1663 38.8281 11.1564C38.7771 11.1489 38.7249 11.1444 38.6733 11.1378L38.7546 11.1487C38.7312 11.1453 38.7083 11.1392 38.6863 11.1304L38.7593 11.1612C38.7392 11.1521 38.7201 11.1408 38.7024 11.1276L38.7643 11.1755C38.7471 11.1623 38.7313 11.1476 38.7169 11.1314L38.7647 11.1931C38.7607 11.188 38.7574 11.1824 38.7547 11.1765L38.7856 11.2494C38.7822 11.2404 38.7798 11.231 38.7784 11.2215L38.7892 11.3027C38.7885 11.2926 38.7885 11.2826 38.7892 11.2725L38.7784 11.3537C38.7825 11.3286 38.7897 11.304 38.7998 11.2807L38.769 11.3536C38.849 11.1811 38.9393 11.0137 39.0394 10.8521C39.0803 10.7822 39.0917 10.6989 39.0712 10.6205C39.0506 10.5422 38.9997 10.4752 38.9297 10.4343C38.8597 10.3934 38.7763 10.382 38.6979 10.4026C38.6195 10.4231 38.5524 10.4739 38.5115 10.5439H38.5117Z" fill="#211715"/>
<path d="M45.9901 9.17136C46.0753 9.11414 46.1732 9.0786 46.2753 9.06784C46.3774 9.05709 46.4806 9.07145 46.5759 9.10967C46.6325 9.12678 46.6848 9.15571 46.7293 9.19456C46.7739 9.2334 46.8096 9.28126 46.8342 9.33496C46.9976 9.66711 46.9096 10.1459 46.7938 10.4834C46.6686 10.8521 46.4418 11.1781 46.1396 11.424C45.8849 11.6206 45.4331 11.7816 45.0988 11.6287C45.0283 11.5902 44.9456 11.5801 44.8679 11.6004C44.7901 11.6208 44.7231 11.6701 44.6805 11.7383C44.6403 11.8083 44.6292 11.8914 44.6497 11.9696C44.6702 12.0477 44.7207 12.1147 44.7902 12.156C45.0121 12.247 45.2508 12.29 45.4905 12.2822C45.7302 12.2744 45.9656 12.216 46.1811 12.1109C46.5847 11.9062 46.9159 11.5831 47.1303 11.185C47.3536 10.8081 47.4864 10.3846 47.5183 9.94774C47.5471 9.5488 47.4844 9.10725 47.2008 8.80487C47.0024 8.61153 46.7446 8.49055 46.4689 8.46143C46.1933 8.43231 45.9159 8.49673 45.6813 8.64432C45.3556 8.86122 45.6612 9.3903 45.9899 9.17162L45.9901 9.17136Z" fill="#211715"/>
<path d="M42.5641 15.1205C43.1743 14.8075 43.7353 14.4068 44.2292 13.9312C44.4967 13.6599 44.7404 13.3662 44.9577 13.0534C45.1408 12.8051 45.3031 12.542 45.443 12.267C45.4819 12.1966 45.4922 12.114 45.4717 12.0363C45.4513 11.9585 45.4018 11.8916 45.3333 11.8494C45.2631 11.8092 45.18 11.7982 45.1017 11.8187C45.0235 11.8392 44.9565 11.8895 44.9151 11.9589C44.3452 13.1207 43.383 14.005 42.2556 14.5929C41.9067 14.7749 42.2154 15.302 42.5641 15.1202V15.1205Z" fill="#211715"/>
<path d="M42.2563 14.5926C40.9603 15.1891 39.4322 15.4906 38.0776 14.8966C37.3952 14.6134 36.8062 14.1444 36.3777 13.5431C35.9625 12.9215 35.7497 12.1958 35.6302 11.4642C35.4739 10.5065 35.4239 9.52952 35.2991 8.56703C35.2966 8.48683 35.2636 8.4106 35.2068 8.35386C35.15 8.29713 35.0737 8.26418 34.9934 8.26172C34.9125 8.26215 34.835 8.29446 34.7778 8.35162C34.7205 8.40878 34.6882 8.48619 34.6877 8.56703C34.8084 9.5014 34.8753 10.4426 35.003 11.376C35.1147 12.1927 35.3323 13.0149 35.7671 13.7233C36.6113 15.0982 38.2554 15.8758 39.8461 15.8269C40.8003 15.7977 41.7025 15.5164 42.564 15.1199C42.6335 15.0786 42.684 15.0116 42.7045 14.9334C42.7251 14.8553 42.714 14.7722 42.6737 14.7021C42.6315 14.6336 42.5645 14.584 42.4866 14.5636C42.4087 14.5432 42.326 14.5536 42.2555 14.5926H42.2563Z" fill="#211715"/>
<path d="M54.0409 23.5609C54.4015 25.1383 54.7814 26.8259 54.4248 28.4393C54.2558 29.1672 53.9496 29.8562 53.5226 30.4696C53.1501 31.0519 52.5928 31.4925 51.9398 31.7208C51.1145 32.004 50.227 32.0185 49.3651 31.9552C49.2843 31.9559 49.2069 31.9883 49.1497 32.0454C49.0926 32.1025 49.0601 32.1798 49.0594 32.2605C49.061 32.341 49.0936 32.4178 49.1506 32.4748C49.2076 32.5317 49.2845 32.5644 49.3651 32.5659C50.9787 32.6843 52.7644 32.4676 53.8166 31.101C54.3197 30.4568 54.6969 29.7238 54.9286 28.9403C55.1457 28.134 55.2208 27.2962 55.1506 26.4642C55.0567 25.4304 54.8828 24.4054 54.6305 23.3984C54.543 23.0154 53.9534 23.1774 54.0409 23.5607V23.5609Z" fill="#211715"/>
<path d="M32.7318 25.1498C32.6867 24.6527 32.7181 24.1515 32.8248 23.6638C32.9245 23.1331 33.0314 22.6039 33.1454 22.0761C33.3123 21.3116 33.5181 20.5688 33.7568 19.8244C34.0146 19.0214 34.2917 18.2027 34.8087 17.5232C35.3333 16.8334 36.1932 16.4359 36.9828 16.1325C37.4603 15.9491 37.9557 15.8185 38.4458 15.6745C38.8224 15.5636 38.6623 14.9741 38.2833 15.0858C37.8795 15.2047 37.4682 15.3093 37.0716 15.4509C36.1928 15.765 35.23 16.1709 34.5739 16.8591C33.9339 17.5304 33.5745 18.4308 33.2862 19.2966C33.0397 20.0368 32.8139 20.7754 32.6398 21.5365C32.5021 22.1384 32.379 22.7437 32.2636 23.3503C32.1508 23.9431 32.048 24.5461 32.1201 25.1501C32.1225 25.2303 32.1554 25.3066 32.2122 25.3633C32.2691 25.42 32.3454 25.453 32.4257 25.4554C32.5067 25.4549 32.5841 25.4226 32.6414 25.3654C32.6986 25.3083 32.7309 25.2309 32.7314 25.1501L32.7318 25.1498Z" fill="#211715"/>
<path d="M47.0174 16.0289C47.1494 16.2238 47.264 16.4299 47.3601 16.6447C47.4283 16.7753 47.4779 16.9147 47.5075 17.0589V16.8966C47.5909 16.7815 47.6121 16.7427 47.5712 16.7801C47.6195 16.744 47.6303 16.7351 47.6036 16.7536C47.5885 16.7615 47.574 16.7706 47.5603 16.7809C47.5123 16.8101 47.4627 16.837 47.4131 16.8637C47.273 16.94 47.1299 17.0112 46.987 17.0826C46.6996 17.2262 46.41 17.3653 46.1221 17.508C46.0822 17.532 46.0483 17.5647 46.0229 17.6036C45.9974 17.6425 45.9811 17.6867 45.9752 17.7328C45.9692 17.7789 45.9738 17.8257 45.9885 17.8698C46.0032 17.9139 46.0277 17.9541 46.0602 17.9875C46.2415 18.1863 46.4236 18.3842 46.6032 18.5847C46.6796 18.6706 46.7561 18.757 46.8325 18.8439C46.9253 18.9331 47.0075 19.0329 47.0774 19.141C47.1506 19.2861 47.009 19.4439 46.94 19.5672C46.8304 19.7628 46.7192 19.9576 46.6063 20.1513C46.0688 21.0763 45.5082 21.9878 44.9342 22.8905C44.7226 23.2231 45.2514 23.5297 45.4621 23.1986C46.083 22.2222 46.6894 21.2358 47.2654 20.2323C47.5055 19.8139 47.8754 19.349 47.6165 18.8552C47.4891 18.6122 47.2562 18.3999 47.0739 18.1955C46.8823 17.9805 46.6872 17.7685 46.4929 17.5557L46.4312 18.0352C46.9048 17.8005 47.3972 17.5885 47.8521 17.3183C47.9377 17.2764 48.0112 17.2134 48.0656 17.1353C48.1435 17.0007 48.0921 16.8427 48.0432 16.7081C47.9199 16.3593 47.7527 16.0275 47.5457 15.7208C47.5034 15.6524 47.4364 15.6029 47.3585 15.5825C47.2806 15.5621 47.1979 15.5724 47.1274 15.6113C47.058 15.6526 47.0076 15.7196 46.9871 15.7977C46.9666 15.8758 46.9776 15.9588 47.0178 16.0289H47.0174Z" fill="#211715"/>
<path d="M38.2539 15.5021C38.5196 18.1608 39.2031 20.7977 40.1087 23.3082C40.349 23.9744 40.6354 24.6229 40.9321 25.2657C40.9734 25.3352 41.0405 25.3856 41.1187 25.4061C41.197 25.4266 41.2802 25.4155 41.3503 25.3753C41.4189 25.3331 41.4686 25.2662 41.489 25.1884C41.5094 25.1106 41.499 25.028 41.46 24.9576C40.4294 22.7238 39.7173 20.3291 39.2347 17.9196C39.0745 17.1197 38.9464 16.3138 38.8654 15.5026C38.8632 15.4223 38.8303 15.3459 38.7735 15.2891C38.7166 15.2323 38.6401 15.1994 38.5597 15.1973C38.4788 15.1978 38.4014 15.2302 38.3442 15.2873C38.287 15.3444 38.2546 15.4218 38.254 15.5026L38.2539 15.5021Z" fill="#211715"/>
<path d="M54.6305 23.3985C54.1702 21.6551 53.739 19.8455 52.8525 18.2591C52.3477 17.3649 51.6413 16.6003 50.7893 16.0262C49.9259 15.4385 48.9395 15.0489 47.9491 14.7336C47.8776 14.7108 47.8059 14.6884 47.7343 14.6664C47.7027 14.6567 47.6706 14.645 47.638 14.637C47.5339 14.6116 47.6032 14.6343 47.6107 14.637C47.5805 14.6259 47.5514 14.6083 47.5226 14.5943L47.0921 14.3853L46.3437 14.0218C46.2733 13.983 46.1906 13.9728 46.1128 13.9932C46.035 14.0135 45.968 14.063 45.9256 14.1313C45.8854 14.2014 45.8743 14.2845 45.8948 14.3626C45.9154 14.4408 45.9658 14.5078 46.0353 14.5491C46.4572 14.754 46.8759 14.9689 47.3021 15.1643C47.5301 15.2523 47.7626 15.328 47.9987 15.3911C48.2517 15.4748 48.5032 15.5641 48.7515 15.6609C49.2107 15.8378 49.6549 16.0512 50.0799 16.2992C50.922 16.7852 51.6347 17.4664 52.158 18.2852C52.6665 19.0972 53.0023 20.0125 53.297 20.9193C53.58 21.7903 53.8072 22.6763 54.0408 23.5613C54.141 23.9409 54.7309 23.7799 54.6304 23.399L54.6305 23.3985Z" fill="#211715"/>
<path d="M39.5362 17.7582C40.496 17.9402 41.4809 17.9479 42.4434 17.7808C42.9054 17.7163 43.3619 17.6176 43.8093 17.4857C44.2517 17.3453 44.6805 17.1652 45.0903 16.9476C45.4381 16.7634 45.1296 16.2362 44.7819 16.4203C44.0341 16.8116 43.2229 17.068 42.3858 17.1776C41.946 17.2479 41.502 17.2887 41.0567 17.2997C40.6006 17.3015 40.1456 17.2578 39.6982 17.1693C39.6201 17.1499 39.5375 17.1612 39.4676 17.2009C39.3976 17.2406 39.3455 17.3057 39.3223 17.3826C39.3015 17.4607 39.3122 17.5438 39.3521 17.614C39.392 17.6842 39.458 17.736 39.5357 17.7582H39.5362Z" fill="#211715"/>
<path d="M42.6498 23.5442C43.1519 22.3414 43.6433 21.1339 44.1081 19.9165C44.5465 18.7695 44.9429 17.6086 45.3412 16.4474C45.5765 15.762 45.7948 15.0711 45.9625 14.3658C46.0533 13.9842 45.4639 13.8207 45.3729 14.2035C45.0776 15.4462 44.6279 16.6484 44.2132 17.8545C43.8078 19.0335 43.3552 20.1965 42.8918 21.3538C42.6201 22.0323 42.3429 22.7082 42.0603 23.3815C42.0392 23.4595 42.0498 23.5428 42.0898 23.6131C42.1297 23.6834 42.1958 23.7351 42.2737 23.757C42.3519 23.7765 42.4345 23.7652 42.5045 23.7255C42.5745 23.6858 42.6265 23.6208 42.6498 23.5438V23.5442Z" fill="#211715"/>
<path d="M36.6884 16.5979C36.4677 16.8617 36.2828 17.1533 36.1383 17.4653C36.0085 17.7497 35.9413 18.0654 36.2824 18.2277C36.4097 18.2885 36.5415 18.3422 36.6709 18.3997C36.6925 18.4093 36.8051 18.478 36.8296 18.4699C36.8059 18.4777 36.7984 18.3792 36.7891 18.351C36.7773 18.3147 36.8341 18.3099 36.7844 18.3393C36.7394 18.3764 36.699 18.4188 36.6641 18.4655C36.5474 18.5875 36.4305 18.7091 36.3161 18.8331C36.1984 18.9603 36.0359 19.0993 35.981 19.2681C35.8861 19.5618 36.155 19.8889 36.2909 20.1344C36.6261 20.7406 36.9657 21.3444 37.3098 21.9459C37.6886 22.6115 38.0709 23.275 38.4568 23.9364C38.6554 24.2754 39.1839 23.9684 38.9847 23.6283C38.3244 22.5014 37.6765 21.3677 37.0412 20.227C36.9032 19.9801 36.7663 19.7326 36.6303 19.4845C36.6162 19.4495 36.5981 19.4163 36.5763 19.3856L36.5659 19.3663C36.5307 19.4833 36.5328 19.515 36.5722 19.4614C36.6311 19.4098 36.6835 19.3514 36.7284 19.2873C36.843 19.163 36.9594 19.0411 37.076 18.9191C37.2844 18.7012 37.5045 18.443 37.3317 18.1282C37.2462 17.9725 37.0897 17.9217 36.9387 17.855L36.6927 17.7462C36.6647 17.7313 36.6356 17.7186 36.6056 17.7081C36.5412 17.6909 36.5242 17.619 36.5876 17.7806C36.6604 17.9658 36.604 17.8717 36.6439 17.8243C36.6677 17.785 36.6871 17.7432 36.7016 17.6997C36.7384 17.6233 36.7781 17.5488 36.8194 17.4755C36.9068 17.3187 37.0076 17.1697 37.1208 17.0303C37.176 16.972 37.2068 16.8947 37.2068 16.8144C37.2068 16.7341 37.176 16.6568 37.1208 16.5985C37.0631 16.5417 36.9853 16.5098 36.9043 16.5098C36.8232 16.5098 36.7454 16.5417 36.6878 16.5985L36.6884 16.5979Z" fill="#211715"/>
<path d="M36.389 13.6789C35.7878 13.4934 35.2153 13.1887 34.8248 12.6823C34.3679 12.0897 34.2177 11.3391 34.237 10.6054C34.2576 9.82535 34.4422 9.04872 34.5853 8.28405C34.7349 7.48465 34.891 6.68601 35.0708 5.89245C35.3358 4.72006 35.643 3.49743 36.4162 2.54766C37.1638 1.62944 38.3439 1.0711 39.4844 0.794417C40.3423 0.593959 41.2297 0.552864 42.1025 0.673183C42.4712 0.722551 42.8353 0.802158 43.191 0.911198C43.3628 0.963355 43.5326 1.02187 43.7005 1.08535C43.7283 1.09591 43.7559 1.10698 43.7837 1.11741C43.8968 1.15977 43.7552 1.09884 43.8231 1.13573C43.8645 1.15812 43.9053 1.18152 43.9464 1.20442C44.2903 1.39626 44.5987 0.86909 44.2549 0.677254C43.6923 0.389647 43.0852 0.199029 42.4591 0.113448C41.6124 -0.0298456 40.7482 -0.0374465 39.8991 0.0909319C39.1423 0.211756 38.4088 0.449341 37.725 0.79518C37.1813 1.0538 36.6825 1.39777 36.2477 1.81402C35.3279 2.74331 34.9007 4.00386 34.5964 5.24393C34.3952 6.06432 34.2305 6.89387 34.0718 7.7233C33.9125 8.5559 33.7215 9.3983 33.6473 10.2436C33.5663 11.1669 33.702 12.1447 34.2459 12.9188C34.7268 13.6034 35.4374 14.0239 36.2274 14.2672C36.6041 14.3834 36.7653 13.7943 36.3899 13.6785L36.389 13.6789Z" fill="#211715"/>
<path d="M44.9913 1.77468C45.7782 2.25236 46.3974 3.04681 46.7677 3.88437C47.1928 4.84559 47.2658 5.9414 47.4762 6.96037C47.701 8.04893 48.0395 9.11026 48.2569 10.2009C48.3592 10.6865 48.3472 11.1893 48.222 11.6696C48.0967 12.1499 47.8616 12.5946 47.5352 12.9687C46.8368 13.7484 45.8266 14.0246 44.8062 13.9906C44.4127 13.9779 44.4132 14.5885 44.8062 14.6013C45.8446 14.6355 46.8822 14.3744 47.6791 13.6844C48.0923 13.3152 48.4194 12.8598 48.6371 12.3504C48.8547 11.8411 48.9577 11.2902 48.9388 10.7367C48.9179 10.186 48.7669 9.63616 48.6331 9.1039C48.4871 8.51999 48.3275 7.93965 48.1897 7.35371C47.9263 6.23615 47.8398 5.06198 47.4557 3.97571C47.0702 2.88525 46.2929 1.85012 45.2993 1.247C44.9622 1.04232 44.6546 1.57025 44.9907 1.7743L44.9913 1.77468Z" fill="#211715"/>
<path d="M40.8928 4.89C40.4241 4.72462 39.8906 4.82321 39.432 4.97574C38.9371 5.14054 38.4901 5.42381 38.13 5.80084C37.7774 6.18793 37.4458 6.59355 37.1366 7.01597C36.8621 7.36276 36.575 7.71564 36.1813 7.93025C35.764 8.15771 35.288 8.17513 34.8251 8.12476C34.7442 8.12523 34.6667 8.15754 34.6095 8.2147C34.5522 8.27185 34.5199 8.34924 34.5194 8.43007C34.5212 8.51047 34.554 8.58708 34.6109 8.64395C34.6679 8.70082 34.7446 8.73356 34.8251 8.73538C35.264 8.79507 35.7108 8.75448 36.1318 8.61669C36.5432 8.4632 36.9107 8.21156 37.2024 7.88369C37.5442 7.51007 37.833 7.09307 38.1512 6.70062C38.4635 6.31491 38.8145 5.91266 39.2683 5.69144C39.6912 5.48523 40.271 5.31705 40.7313 5.47899C40.8095 5.50052 40.893 5.49014 40.9636 5.45015C41.0341 5.41015 41.0858 5.34381 41.1074 5.26572C41.1289 5.18763 41.1185 5.10419 41.0785 5.03375C41.0384 4.96332 40.972 4.91165 40.8938 4.89013L40.8928 4.89Z" fill="#211715"/>
<path d="M41.8217 5.59759C42.7626 5.5191 43.0982 6.57255 43.3457 7.28163C43.6195 8.06666 43.9535 8.97037 44.7674 9.33586C44.838 9.37433 44.9206 9.38442 44.9983 9.36406C45.0761 9.34369 45.1431 9.29442 45.1857 9.22633C45.226 9.15628 45.237 9.07321 45.2165 8.99506C45.196 8.91692 45.1455 8.84997 45.076 8.80869C44.2864 8.45376 44.0734 7.48199 43.8016 6.74174C43.6418 6.30616 43.4551 5.86639 43.1329 5.52368C42.968 5.34229 42.7647 5.19997 42.5377 5.10712C42.3108 5.01426 42.0659 4.97321 41.821 4.98697C41.7406 4.98897 41.664 5.02178 41.6071 5.07861C41.5502 5.13544 41.5174 5.21194 41.5154 5.29228C41.516 5.37307 41.5484 5.45038 41.6056 5.50751C41.6628 5.56463 41.7402 5.59699 41.821 5.59759H41.8217Z" fill="#211715"/>
<path d="M52.5019 33.0912C52.4001 32.7517 52.3011 32.4111 52.2103 32.0684C52.1887 31.9904 52.137 31.924 52.0665 31.8841C51.996 31.8441 51.9125 31.8337 51.8343 31.8552C51.7562 31.8767 51.6898 31.9284 51.6497 31.9988C51.6097 32.0693 51.5993 32.1527 51.6209 32.2308C51.7115 32.5735 51.8104 32.914 51.9125 33.2535C51.9232 33.2922 51.9414 33.3284 51.966 33.36C51.9907 33.3917 52.0214 33.4181 52.0563 33.4379C52.0912 33.4577 52.1297 33.4705 52.1695 33.4754C52.2094 33.4803 52.2498 33.4774 52.2885 33.4667C52.3272 33.4561 52.3634 33.4379 52.3951 33.4133C52.4268 33.3886 52.4533 33.358 52.4731 33.3231C52.4929 33.2883 52.5057 33.2498 52.5106 33.21C52.5156 33.1703 52.5126 33.1299 52.5019 33.0912Z" fill="#211715"/>
<path d="M38.6338 13.1289C38.9048 13.2715 39.2062 13.3469 39.5125 13.3486C39.6641 13.3528 39.8156 13.3394 39.964 13.3085C40.1051 13.2742 40.2427 13.2273 40.3754 13.1686C40.4524 13.1453 40.5176 13.0933 40.5573 13.0234C40.597 12.9535 40.6083 12.871 40.5889 12.793C40.5666 12.7154 40.5148 12.6496 40.4445 12.6097C40.3742 12.5698 40.2911 12.559 40.2129 12.5797C40.0923 12.6323 39.9681 12.6761 39.8413 12.7109C39.8146 12.7173 39.7878 12.7229 39.7608 12.7275C39.747 12.7299 39.7326 12.731 39.719 12.7341C39.7941 12.7166 39.7461 12.7301 39.7252 12.732C39.6621 12.7376 39.5987 12.7398 39.5353 12.7386C39.4742 12.7376 39.4136 12.7327 39.3528 12.7269C39.2921 12.721 39.3936 12.7344 39.355 12.7269C39.3401 12.7242 39.3252 12.7222 39.3103 12.7195C39.2809 12.7143 39.2517 12.7084 39.2225 12.7018C39.1631 12.6883 39.1045 12.6713 39.047 12.6509C39.0343 12.6464 39.0216 12.6413 39.0088 12.6366C38.9562 12.6169 39.0497 12.6585 39.0177 12.64C38.9934 12.6259 38.9668 12.6146 38.9422 12.6008C38.8722 12.5599 38.7888 12.5485 38.7104 12.5691C38.6319 12.5896 38.5649 12.6404 38.524 12.7104C38.483 12.7803 38.4716 12.8636 38.4922 12.9419C38.5127 13.0203 38.5636 13.0872 38.6336 13.1281L38.6338 13.1289Z" fill="#211715"/>
<path d="M41.0059 12.5644C41.0728 12.6726 41.1313 12.7857 41.1811 12.9027L41.1502 12.8298C41.1682 12.8722 41.1852 12.9152 41.2012 12.9589C41.2253 13.0341 41.2748 13.0986 41.3413 13.1413C41.4126 13.1822 41.4973 13.1933 41.5768 13.1721C41.6535 13.1507 41.7189 13.1006 41.7594 13.0322C41.7802 12.9971 41.7936 12.9581 41.7989 12.9177C41.8042 12.8773 41.8013 12.8362 41.7902 12.797C41.7237 12.6085 41.6378 12.4274 41.534 12.2566C41.4927 12.1888 41.4276 12.1389 41.3513 12.1166C41.3119 12.1039 41.2698 12.102 41.2295 12.1112C41.189 12.1129 41.1497 12.1253 41.1157 12.1473C41.0472 12.1878 40.997 12.2532 40.9756 12.3298C40.9546 12.4092 40.9656 12.4937 41.0063 12.5651L41.0059 12.5644Z" fill="#211715"/>
<path d="M19.8634 26.5151C20.3036 25.7105 20.7356 24.9014 21.1593 24.0877C21.2536 23.9055 21.3902 23.7085 21.4191 23.5025C21.4507 23.277 21.3393 23.1044 21.1917 22.9462C20.8807 22.6136 20.5501 22.3001 20.2179 21.9888L20.1562 22.4683C20.3939 22.3332 20.6312 22.1978 20.868 22.0621C21.0823 21.9395 21.3353 21.8289 21.3183 21.539C21.3075 21.3563 21.1701 21.1687 21.0636 21.0249C20.9512 20.8726 20.8294 20.7275 20.6988 20.5904C20.1646 20.0447 19.5671 19.5646 18.9191 19.1603C18.8786 19.1371 18.8333 19.1234 18.7867 19.1203C18.7401 19.1172 18.6934 19.1247 18.6501 19.1423C18.6068 19.1599 18.5681 19.187 18.5369 19.2218C18.5057 19.2565 18.4829 19.2978 18.47 19.3427C17.936 21.6798 17.3051 23.9917 16.5774 26.2783C16.4573 26.6535 17.0474 26.8141 17.167 26.4406C17.898 24.1572 18.5289 21.8453 19.0596 19.505L18.6105 19.6874C19.025 19.9526 19.4196 20.2478 19.7909 20.5707C19.9905 20.7423 20.1797 20.9258 20.3573 21.1201C20.429 21.1979 20.4964 21.2797 20.559 21.365C20.5883 21.4061 20.6167 21.4479 20.6433 21.4908C20.6589 21.5162 20.6722 21.5436 20.6887 21.568C20.7014 21.5872 20.7101 21.6393 20.7083 21.5903L20.75 21.4362C20.7736 21.3894 20.7728 21.4151 20.7234 21.4407C20.6769 21.4648 20.6319 21.4931 20.5864 21.5192C20.5043 21.5661 20.4222 21.6131 20.3401 21.66C20.1759 21.7539 20.0116 21.8476 19.8472 21.9411C19.8073 21.9651 19.7733 21.9977 19.7478 22.0367C19.7223 22.0756 19.706 22.1198 19.7 22.1659C19.6941 22.212 19.6986 22.2589 19.7134 22.303C19.7282 22.3471 19.7527 22.3873 19.7853 22.4206C20.0805 22.6974 20.3746 22.9757 20.6548 23.268C20.7166 23.3218 20.7725 23.3821 20.8215 23.4478C20.8305 23.4631 20.8206 23.4027 20.8136 23.4235C20.8009 23.4543 20.786 23.484 20.7689 23.5126C20.6769 23.6914 20.5844 23.8701 20.4912 24.0485C20.1135 24.7721 19.7281 25.4917 19.3351 26.2072C19.1463 26.5521 19.674 26.8607 19.863 26.5153L19.8634 26.5151Z" fill="#211715"/>
<path d="M11.05 26.207C10.6582 25.4908 10.2728 24.7712 9.89381 24.0483C9.80525 23.8787 9.71725 23.7091 9.62979 23.5395C9.609 23.5036 9.59013 23.4666 9.57325 23.4287C9.56446 23.4055 9.56637 23.4438 9.5628 23.4518C9.60983 23.3833 9.6662 23.3217 9.73028 23.2688C10.0105 22.9762 10.3046 22.6982 10.5996 22.4214C10.6322 22.3882 10.6568 22.348 10.6716 22.3039C10.6864 22.2598 10.691 22.2129 10.6851 22.1667C10.6791 22.1206 10.6628 22.0764 10.6373 22.0375C10.6118 21.9985 10.5778 21.9659 10.5379 21.942C10.3733 21.8487 10.2089 21.755 10.0445 21.6608C9.97155 21.6193 9.89853 21.5775 9.82542 21.5356L9.68876 21.4573L9.63412 21.4259C9.59757 21.4017 9.59732 21.4054 9.63412 21.4371L9.67577 21.5911C9.67373 21.628 9.67221 21.6038 9.68851 21.5841C9.70487 21.5596 9.71975 21.5341 9.73308 21.5078C9.75856 21.4649 9.78683 21.4233 9.81561 21.3822C9.87693 21.297 9.9431 21.2154 10.0138 21.1378C10.1954 20.9373 10.3895 20.7484 10.5948 20.5721C10.9658 20.2494 11.3599 19.9542 11.774 19.6889L11.325 19.5065C11.8539 21.8441 12.4851 24.156 13.2188 26.4421C13.3382 26.815 13.9286 26.6556 13.8084 26.2798C13.0775 23.9971 12.4462 21.6852 11.9145 19.3442C11.9017 19.2993 11.8788 19.2579 11.8476 19.2232C11.8164 19.1885 11.7777 19.1613 11.7344 19.1438C11.6912 19.1262 11.6445 19.1187 11.5979 19.1218C11.5513 19.1249 11.506 19.1386 11.4654 19.1617C10.818 19.5664 10.221 20.0465 9.68698 20.5919C9.45773 20.8324 9.13563 21.1607 9.07323 21.4999C9.01655 21.8079 9.2956 21.9364 9.51772 22.0636C9.75486 22.1993 9.99231 22.3347 10.23 22.4698L10.1681 21.9903C9.84351 22.2947 9.52001 22.6009 9.21523 22.9256C9.06953 23.0808 8.94956 23.2396 8.96166 23.4634C8.9735 23.6826 9.12863 23.8991 9.22695 24.0889C9.64877 24.9031 10.0807 25.7122 10.5229 26.5163C10.7116 26.8613 11.2396 26.5534 11.0508 26.2082L11.05 26.207Z" fill="#211715"/>
<path d="M12.4742 18.246C12.3298 18.409 12.194 18.5788 12.057 18.7485C11.9146 18.9255 11.754 19.095 11.624 19.2815C11.5181 19.4241 11.4547 19.5936 11.4409 19.7705C11.4272 19.9474 11.4638 20.1247 11.5464 20.2818C11.8525 20.7997 12.1992 21.2926 12.5832 21.7558C12.8022 22.0415 13.0631 22.2926 13.3571 22.5006C13.4275 22.5396 13.5103 22.5499 13.5882 22.5295C13.6661 22.5091 13.7331 22.4596 13.7753 22.3911C14.2519 21.755 14.7004 21.091 15.2273 20.4949C15.2593 20.4614 15.2834 20.4211 15.2979 20.3771C15.3123 20.3331 15.3168 20.2864 15.3108 20.2404C15.3049 20.1945 15.2888 20.1504 15.2637 20.1115C15.2385 20.0726 15.205 20.0397 15.1655 20.0154C15.1475 20.0027 15.13 19.9891 15.1124 19.9758C15.0911 19.9598 14.9874 19.8797 15.0655 19.9401C14.9741 19.8695 14.8828 19.7986 14.7918 19.7274C14.5384 19.53 14.2856 19.3319 14.0331 19.1333C13.6573 18.8382 13.279 18.5457 12.9069 18.246C12.8484 18.1909 12.7711 18.1602 12.6907 18.1602C12.6104 18.1602 12.533 18.1909 12.4746 18.246C12.4178 18.3036 12.386 18.3811 12.386 18.4619C12.386 18.5427 12.4178 18.6202 12.4746 18.6778C12.8555 18.9846 13.2427 19.2838 13.6274 19.5858C14.0349 19.9058 14.4355 20.241 14.8569 20.5426L14.795 20.0631C14.2337 20.698 13.7551 21.4057 13.2474 22.0829L13.6657 21.9733C13.5392 21.8846 13.4229 21.7823 13.3189 21.668C13.1853 21.5291 13.0605 21.3818 12.9404 21.2313C12.7142 20.948 12.5067 20.6492 12.3084 20.3459C12.238 20.2382 12.1683 20.1297 12.1022 20.0192C12.0799 19.9862 12.0599 19.9517 12.0421 19.9161C12.0279 19.8832 12.0468 19.9144 12.0483 19.926C12.0437 19.8922 12.044 19.8579 12.0492 19.8242C12.0818 19.616 12.2647 19.4591 12.3912 19.3026C12.5608 19.0925 12.7277 18.8799 12.9069 18.6778C13.1666 18.3846 12.7361 17.951 12.4742 18.246Z" fill="#211715"/>
<path d="M17.4785 18.6777C17.6577 18.8799 17.8245 19.0924 17.9943 19.3026C18.1202 19.4586 18.3036 19.6161 18.3361 19.8242C18.3413 19.8572 18.342 19.8908 18.3383 19.924C18.3383 19.9224 18.3587 19.8804 18.3433 19.916C18.3255 19.9517 18.3054 19.9862 18.2831 20.0192C18.2169 20.1295 18.1475 20.2381 18.0769 20.3459C17.8786 20.6491 17.6712 20.948 17.445 21.2313C17.3249 21.3818 17.2001 21.5291 17.0665 21.668C16.9625 21.7822 16.8462 21.8846 16.7197 21.9733L17.1379 22.0828C16.6302 21.4057 16.1516 20.698 15.5903 20.0631L15.5284 20.5425C15.9499 20.2409 16.3506 19.9057 16.758 19.5858C17.1426 19.2838 17.5298 18.9846 17.9107 18.6777C17.9676 18.6202 17.9995 18.5427 17.9995 18.4619C17.9995 18.381 17.9676 18.3035 17.9107 18.246C17.8525 18.1904 17.7751 18.1594 17.6946 18.1594C17.6141 18.1594 17.5367 18.1904 17.4785 18.246C17.1063 18.5457 16.7281 18.8382 16.3522 19.1333C16.0995 19.3316 15.8466 19.5296 15.5935 19.7274C15.5024 19.7984 15.4112 19.8693 15.32 19.9401C15.398 19.8796 15.2945 19.9598 15.273 19.9758C15.2554 19.9885 15.2378 20.0025 15.2199 20.0154C15.1804 20.0397 15.1469 20.0726 15.1217 20.1115C15.0966 20.1504 15.0805 20.1945 15.0746 20.2404C15.0686 20.2863 15.0731 20.333 15.0875 20.3771C15.102 20.4211 15.1261 20.4613 15.1581 20.4948C15.685 21.091 16.1334 21.7553 16.61 22.3911C16.652 22.4598 16.719 22.5096 16.797 22.5301C16.875 22.5505 16.9579 22.5399 17.0283 22.5006C17.5849 22.1355 17.9972 21.5371 18.3715 20.9995C18.5227 20.7826 18.6694 20.562 18.806 20.3356C18.8906 20.1979 18.938 20.0405 18.9434 19.879C18.9488 19.7175 18.9121 19.5573 18.8368 19.4143C18.7172 19.2103 18.574 19.0211 18.4102 18.8505C18.2461 18.647 18.0842 18.4416 17.9107 18.246C17.6494 17.9511 17.2183 18.3844 17.4785 18.6777Z" fill="#211715"/>
<path d="M27.6502 33.1276C27.5149 31.8931 27.3751 30.6592 27.2306 29.4257C27.1033 28.3458 26.9995 27.2569 26.7763 26.1915C26.5652 25.1828 26.2549 24.1611 25.6901 23.2894C25.1493 22.4546 24.3627 21.8302 23.5034 21.3458C22.3954 20.7212 21.1854 20.288 20.0031 19.8298C19.925 19.8089 19.8418 19.8195 19.7714 19.8594C19.701 19.8993 19.6492 19.9653 19.6272 20.043C19.6075 20.121 19.6187 20.2036 19.6584 20.2736C19.6982 20.3436 19.7635 20.3956 19.8406 20.4187C20.8595 20.813 21.8924 21.1909 22.8644 21.6946C23.6683 22.1112 24.4598 22.6314 25.0041 23.3691C25.5833 24.1539 25.8982 25.0976 26.117 26.038C26.3523 27.0499 26.4596 28.0823 26.582 29.1122C26.7408 30.45 26.893 31.7885 27.0386 33.1278C27.0408 33.2081 27.0738 33.2844 27.1306 33.3412C27.1875 33.398 27.2639 33.4309 27.3442 33.4331C27.4251 33.4326 27.5026 33.4003 27.5598 33.3432C27.617 33.286 27.6494 33.2087 27.6499 33.1278L27.6502 33.1276Z" fill="#211715"/>
<path d="M16.0384 22.2483C15.5007 22.2483 14.9631 22.2371 14.4255 22.2368C14.3445 22.2368 14.2667 22.269 14.2094 22.3262C14.1521 22.3835 14.1199 22.4612 14.1199 22.5421C14.1199 22.6231 14.1521 22.7008 14.2094 22.758C14.2667 22.8153 14.3445 22.8474 14.4255 22.8474C14.9631 22.8474 15.5007 22.8586 16.0384 22.8589C16.1195 22.8589 16.1973 22.8267 16.2546 22.7695C16.3119 22.7122 16.3441 22.6345 16.3441 22.5536C16.3441 22.4726 16.3119 22.3949 16.2546 22.3377C16.1973 22.2804 16.1195 22.2483 16.0384 22.2483Z" fill="#211715"/>
<path d="M16.0557 21.4664C16.0016 21.6954 15.9654 21.9283 15.9156 22.1584C15.8544 22.3608 15.8201 22.5704 15.8137 22.7818C15.8252 22.994 15.8647 23.2078 15.8901 23.4178C16.0121 24.3981 16.1351 25.3784 16.2524 26.3594C16.2548 26.4396 16.2877 26.5158 16.3445 26.5726C16.4013 26.6293 16.4777 26.6623 16.558 26.6647C16.6389 26.6642 16.7164 26.6319 16.7736 26.5747C16.8309 26.5176 16.8632 26.4402 16.8637 26.3594C16.7479 25.3911 16.6267 24.4236 16.5062 23.4559C16.4787 23.2352 16.4388 23.0116 16.4253 22.7894C16.4305 22.6301 16.4574 22.4722 16.5052 22.3201C16.555 22.09 16.5911 21.8573 16.6453 21.6281C16.7353 21.2464 16.146 21.0828 16.0557 21.4658V21.4664Z" fill="#211715"/>
<path d="M13.806 21.7635C13.8854 21.9756 13.9493 22.1932 13.997 22.4146C14.0444 22.5534 14.0673 22.6993 14.0649 22.846C14.0485 23.0845 14.014 23.2522 13.9851 23.4668C13.8562 24.4046 13.7208 25.3414 13.5872 26.2782C13.5684 26.3561 13.5799 26.4383 13.6196 26.5081C13.6592 26.5778 13.724 26.6299 13.8006 26.6537C13.8788 26.6746 13.9621 26.664 14.0325 26.6241C14.1028 26.5842 14.1547 26.5183 14.1767 26.4405C14.3156 25.4663 14.4569 24.4924 14.5898 23.5173C14.6208 23.2897 14.6672 23.0564 14.678 22.8264C14.6767 22.6112 14.6401 22.3977 14.5696 22.1944C14.5079 21.9428 14.4289 21.6958 14.3331 21.4552C14.2918 21.3857 14.2248 21.3352 14.1465 21.3147C14.0682 21.2942 13.985 21.3053 13.9149 21.3456C13.8463 21.3878 13.7967 21.4547 13.7763 21.5325C13.7558 21.6103 13.7662 21.6929 13.8052 21.7633L13.806 21.7635Z" fill="#211715"/>
<path d="M3.3463 33.1276C3.47773 31.9285 3.61359 30.7298 3.75385 29.5317C3.87421 28.5067 3.9719 27.4736 4.17656 26.4613C4.37423 25.4839 4.65366 24.5 5.18998 23.6499C5.6765 22.8785 6.40437 22.3161 7.19082 21.873C8.2539 21.2743 9.41047 20.8582 10.545 20.4187C10.6219 20.3952 10.6869 20.3431 10.7266 20.2733C10.7663 20.2034 10.7777 20.121 10.7585 20.043C10.7364 19.9653 10.6846 19.8993 10.6142 19.8594C10.5439 19.8195 10.4606 19.8089 10.3825 19.8298C9.31444 20.2436 8.23111 20.6395 7.2126 21.1673C6.33381 21.6229 5.51016 22.1999 4.90494 22.9926C4.29361 23.794 3.94502 24.7777 3.7094 25.7474C3.44908 26.8192 3.33458 27.9165 3.20429 29.0097C3.04084 30.3816 2.88457 31.7543 2.73547 33.1278C2.73594 33.2087 2.7683 33.2861 2.82552 33.3432C2.88274 33.4004 2.96022 33.4327 3.04114 33.4331C3.12164 33.4313 3.19833 33.3986 3.25527 33.3417C3.3122 33.2848 3.34499 33.2082 3.34681 33.1278L3.3463 33.1276Z" fill="#211715"/>
<path d="M5.66857 33.1211H0.295207C-0.0980839 33.1211 -0.0987207 33.7317 0.295207 33.7317H5.66857C6.06199 33.7317 6.06263 33.1211 5.66857 33.1211Z" fill="#211715"/>
<path d="M30.2532 33.1211H24.4862C24.093 33.1211 24.0923 33.7317 24.4862 33.7317H30.2532C30.6466 33.7317 30.6472 33.1211 30.2532 33.1211Z" fill="#211715"/>
<path d="M57.7047 33.1216H48.2518C47.8585 33.1216 47.8578 33.7322 48.2518 33.7322H57.7047C58.0982 33.7322 58.0988 33.1216 57.7047 33.1216Z" fill="#211715"/>
<path d="M5.98086 26.0577C5.85915 26.0601 5.74001 26.0931 5.63453 26.1538C5.52904 26.2144 5.44064 26.3008 5.37755 26.4048C5.30363 26.5526 5.27111 26.7176 5.28343 26.8823C5.28445 27.0938 5.28585 27.3054 5.28763 27.5171C5.29222 28.0923 5.29799 28.6674 5.30496 29.2425C5.32194 30.7212 5.34215 32.2 5.36558 33.6788C5.38791 35.1105 5.41364 36.5422 5.44276 37.9739C5.44887 38.2628 5.45545 38.5517 5.4625 38.8406C5.4483 39.1056 5.46024 39.3715 5.49816 39.6342C5.53904 39.7967 5.63542 39.9398 5.77065 40.0388C5.90588 40.1379 6.07149 40.1867 6.23889 40.1768C6.31862 40.1768 6.39835 40.1753 6.47808 40.1748C7.13666 40.1703 7.79537 40.1695 8.45396 40.1683C9.50341 40.1662 10.5529 40.1648 11.6023 40.1643C12.8349 40.1635 14.0676 40.1631 15.3004 40.1632C16.5265 40.1632 17.7527 40.1637 18.9788 40.1647C19.9913 40.1655 21.0037 40.1669 22.0163 40.1689C22.6133 40.1702 23.2105 40.1706 23.8076 40.1758C23.9368 40.1853 24.0666 40.1738 24.1921 40.1418C24.3031 40.105 24.4032 40.0412 24.4835 39.9563C24.5637 39.8713 24.6216 39.7677 24.6519 39.6548C24.6779 39.5115 24.6879 39.3657 24.6817 39.2202C24.6967 38.6565 24.7097 38.0928 24.7205 37.5291C24.7506 36.0557 24.7761 34.5821 24.7969 33.1085C24.8187 31.6645 24.8377 30.2206 24.854 28.7767C24.8598 28.2499 24.8646 27.723 24.8685 27.196C24.8702 26.9444 24.9102 26.6504 24.7855 26.4228C24.7142 26.3025 24.6105 26.2044 24.4863 26.1399C24.3621 26.0753 24.2222 26.0468 24.0826 26.0575C23.5222 26.0561 22.9618 26.0555 22.4014 26.0557C21.4118 26.0552 20.4222 26.0549 19.4325 26.0547C18.2113 26.0547 16.9899 26.0547 15.7684 26.0547C14.5118 26.0547 13.2549 26.0547 11.9978 26.0547C10.906 26.0547 9.81409 26.0549 8.72218 26.0555C7.98094 26.0555 7.23966 26.056 6.49833 26.057C6.3258 26.057 6.15322 26.0573 5.98061 26.058C5.58719 26.0593 5.58642 26.6699 5.98061 26.6686C6.46186 26.667 6.94324 26.6664 7.42475 26.6668C8.34124 26.6662 9.25774 26.6659 10.1742 26.6657C11.3426 26.6657 12.5111 26.6657 13.6796 26.6657H17.3909H20.7588C21.5837 26.6657 22.4086 26.6662 23.2336 26.6671C23.4771 26.6671 23.7207 26.6674 23.9643 26.668C24.0337 26.6618 24.1035 26.6618 24.1729 26.668C24.3205 26.6966 24.2583 27.0064 24.2576 27.1268C24.25 28.2957 24.2354 29.4646 24.2202 30.6334C24.2007 32.129 24.1784 33.6245 24.1534 35.1201C24.1316 36.4023 24.1089 37.6844 24.077 38.9664C24.074 39.0846 24.0709 39.2028 24.0677 39.3209C24.0656 39.3972 24.0906 39.5211 24.0114 39.5591C23.9401 39.5738 23.8668 39.5757 23.7949 39.5646C23.564 39.5628 23.3331 39.5616 23.102 39.561C22.2942 39.5579 21.4863 39.5561 20.6783 39.5555C19.566 39.554 18.4538 39.553 17.3415 39.5527C16.1132 39.5522 14.8849 39.5522 13.6565 39.5527C12.5007 39.5527 11.3448 39.5534 10.1889 39.5549C9.29369 39.5559 8.39856 39.5575 7.50346 39.5597C7.21257 39.5606 6.92164 39.5618 6.63066 39.5631C6.53471 39.5636 6.43872 39.5643 6.34269 39.565C6.28118 39.565 6.16872 39.5845 6.1244 39.5468C6.06072 39.4934 6.08784 39.348 6.08619 39.271C6.08305 39.1511 6.07995 39.0311 6.07689 38.911C6.07018 38.6371 6.06382 38.3632 6.05779 38.0892C6.04352 37.4353 6.03079 36.7813 6.01958 36.1272C5.99249 34.6327 5.96885 33.1382 5.94864 31.6436C5.93064 30.3537 5.91535 29.0637 5.90279 27.7737C5.90084 27.5544 5.89914 27.3351 5.89769 27.1158C5.89769 27.0125 5.83656 26.6765 5.98252 26.6682C6.37199 26.646 6.37453 26.0352 5.98086 26.0577Z" fill="#211715"/>
<path d="M7.44031 38.2387C8.92521 38.2293 12.0119 38.2387 15.077 38.2493C18.142 38.2389 21.0299 38.2293 22.5149 38.2387" fill="#BDBDBD"/>
<path d="M7.44035 38.5441C9.30848 38.5325 11.1767 38.5423 13.0449 38.548C15.308 38.5549 17.5709 38.5446 19.834 38.5412C20.7276 38.5398 21.6212 38.5385 22.5148 38.5441C22.9082 38.5465 22.9086 37.9359 22.5148 37.9335C20.6888 37.9221 18.8627 37.9318 17.0369 37.9375C14.7511 37.9448 12.4655 37.9339 10.1798 37.9304C9.26658 37.9291 8.35353 37.9277 7.44035 37.9335C7.04719 37.9359 7.04629 38.5465 7.44035 38.5441Z" fill="#211715"/>
<path d="M13.9185 31.9184C13.918 32.1575 13.918 32.3966 13.9185 32.6355C13.9185 32.9051 13.8819 33.2013 14.0914 33.4093C14.2952 33.611 14.5739 33.5778 14.8356 33.5776C15.0712 33.5776 15.3069 33.5776 15.5426 33.5776C15.679 33.5881 15.8158 33.5624 15.939 33.503C16.0077 33.4643 16.0677 33.4121 16.1155 33.3495C16.1632 33.2868 16.1977 33.2152 16.2168 33.1388C16.2372 33.0087 16.2435 32.8768 16.2358 32.7453C16.2358 32.6194 16.2358 32.4935 16.2358 32.3676C16.2358 32.2526 16.2358 32.1376 16.2358 32.0226C16.2472 31.8804 16.2167 31.738 16.1482 31.6129C16.1038 31.542 16.0445 31.4816 15.9744 31.4359C15.9043 31.3901 15.8251 31.3602 15.7423 31.3482C15.6319 31.3376 15.5209 31.3345 15.4101 31.3387H14.6211C14.4693 31.3244 14.3168 31.357 14.1841 31.432C14.1039 31.4857 14.0379 31.5579 13.9915 31.6425C13.9452 31.7271 13.92 31.8216 13.9181 31.9181C13.9186 31.9989 13.951 32.0762 14.0082 32.1333C14.0654 32.1905 14.1429 32.2228 14.2237 32.2234C14.3043 32.2217 14.3811 32.189 14.438 32.1321C14.495 32.0752 14.5278 31.9985 14.5294 31.9181C14.5329 31.8405 14.5113 31.9799 14.5341 31.9083L14.5214 31.9402C14.5394 31.912 14.5365 31.9145 14.5126 31.948C14.5327 31.9352 14.5465 31.9321 14.5014 31.9528C14.5651 31.9237 14.4392 31.9538 14.5104 31.9472C14.424 31.9552 14.5419 31.9494 14.5633 31.9494H15.5666C15.6035 31.9442 15.6409 31.9445 15.6777 31.9503L15.6422 31.9472C15.6746 31.9576 15.6713 31.9557 15.632 31.9413C15.6946 31.9668 15.5884 31.9159 15.6399 31.948L15.6196 31.9211C15.6359 31.9505 15.6356 31.9463 15.6187 31.9084C15.6408 31.9776 15.6251 31.8429 15.6234 31.9182C15.6226 31.9571 15.6234 31.996 15.6234 32.0348C15.6234 32.1319 15.6234 32.2289 15.6234 32.3259C15.6234 32.5265 15.623 32.7271 15.6222 32.9276C15.6252 32.9516 15.6252 32.9758 15.6222 32.9998L15.6288 32.9654C15.626 32.9804 15.622 32.9952 15.617 33.0095C15.6297 32.9968 15.6257 32.9505 15.617 32.9968L15.6371 32.9699C15.6127 32.9926 15.6164 32.9909 15.648 32.9648C15.578 32.9831 15.6966 32.9568 15.6497 32.9668C15.6049 32.9765 15.7267 32.9697 15.6506 32.9677C15.6063 32.9666 15.5614 32.9677 15.5175 32.9677C15.325 32.9677 15.1326 32.9677 14.9402 32.9677H14.6575H14.5429C14.521 32.971 14.4987 32.9708 14.4768 32.9669C14.5158 32.9729 14.5239 32.9729 14.5015 32.9669C14.4791 32.961 14.4867 32.9632 14.5224 32.9763C14.4536 32.9473 14.575 33.0109 14.5141 32.97C14.5379 33.0039 14.5407 33.0066 14.5227 32.978L14.5348 33.0101L14.528 32.9883C14.5206 32.9545 14.5213 32.9584 14.5297 33.0003C14.5204 32.992 14.529 32.9169 14.529 32.9032C14.5285 32.7955 14.5282 32.6877 14.528 32.5798C14.528 32.3593 14.528 32.1388 14.528 31.9183C14.528 31.8373 14.4958 31.7597 14.4385 31.7024C14.3812 31.6452 14.3034 31.613 14.2223 31.613C14.1413 31.613 14.0635 31.6452 14.0062 31.7024C13.9489 31.7597 13.9167 31.8373 13.9167 31.9183L13.9185 31.9184Z" fill="#211715"/>
<path d="M42.6431 37.0888V41.2995C42.6431 41.6925 43.2544 41.6931 43.2544 41.2995V37.0888C43.2544 36.696 42.6431 36.6953 42.6431 37.0888Z" fill="#211715"/>
<path d="M42.5089 32.8271V36.7616C42.5089 37.1544 43.1202 37.1552 43.1202 36.7616V32.8271C43.1202 32.4343 42.5089 32.4335 42.5089 32.8271Z" fill="#211715"/>
<path d="M48.418 33.9012C46.581 34.7854 44.8122 35.8033 42.9669 36.6715L43.1213 36.6299C42.7308 36.6299 42.3394 36.6079 41.9495 36.5958L39.1858 36.5102L35.7641 36.4044L32.6496 36.308L30.8175 36.2512C30.7698 36.2498 30.7216 36.2463 30.6739 36.2468C30.5402 36.2411 30.4089 36.2831 30.3033 36.3652C30.1977 36.4473 30.1248 36.5642 30.0976 36.6951C30.0395 36.9794 30.0804 37.3038 30.0804 37.5909V40.6294C30.0804 40.7149 30.0762 40.8015 30.0804 40.8869C30.0817 40.9916 30.1134 41.0937 30.1716 41.1808C30.2299 41.2679 30.3121 41.3363 30.4085 41.3776C30.6321 41.4705 30.9398 41.4328 31.179 41.4412C32.2658 41.4805 33.3526 41.5174 34.4394 41.552C36.6818 41.6227 38.9245 41.6778 41.1675 41.7174C41.695 41.7259 42.2226 41.7368 42.7503 41.7392C42.9675 41.754 43.1855 41.7522 43.4025 41.7337C43.542 41.6926 43.6739 41.6292 43.793 41.5458C43.9298 41.471 44.0666 41.3964 44.2036 41.3219C45.1588 40.8019 46.1168 40.2872 47.0672 39.7587C47.5306 39.501 47.9918 39.2392 48.4507 38.9734C48.7908 38.7761 48.4833 38.2483 48.1421 38.4463C46.5171 39.3897 44.8549 40.2666 43.2076 41.1703L43.3619 41.1286C41.2418 41.1286 39.1207 41.0726 37.0018 41.0161C35.9065 40.987 34.8115 40.9544 33.7169 40.9181C33.182 40.9007 32.6474 40.8826 32.1131 40.8638C31.8499 40.8547 31.5869 40.8453 31.3243 40.8358L30.9487 40.8225L30.7471 40.8151C30.7185 40.814 30.6897 40.8122 30.661 40.8119C30.58 40.8119 30.6274 40.7926 30.6483 40.8176C30.6952 40.8762 30.6873 40.9153 30.6932 40.846C30.6976 40.7978 30.6932 40.7474 30.6932 40.6991V37.1413C30.698 37.0484 30.698 36.9554 30.6932 36.8625C30.6824 36.7572 30.6995 36.873 30.6622 36.857C30.6697 36.8602 30.6811 36.8545 30.6885 36.8578C30.7425 36.8678 30.7977 36.8695 30.8522 36.8629L31.1579 36.8724L32.1062 36.9017L34.9773 36.9907L38.3682 37.0957L41.3432 37.1878L42.9668 37.238C42.9952 37.2389 43.0236 37.2402 43.052 37.2407C43.2851 37.2444 43.517 37.0859 43.7224 36.9863C43.9707 36.866 44.2178 36.7437 44.4639 36.6193C45.4288 36.1325 46.3802 35.6196 47.3402 35.1235C47.7998 34.886 48.2614 34.6528 48.7276 34.4285C48.797 34.3872 48.8474 34.3202 48.868 34.2421C48.8885 34.1639 48.8774 34.0809 48.8372 34.0108C48.7952 33.9421 48.7282 33.8924 48.6502 33.872C48.5723 33.8516 48.4895 33.8621 48.4191 33.9012H48.418Z" fill="#211715"/>
<path d="M43.1029 32.9106C44.8181 32.0281 46.5271 31.1337 48.2438 30.2543C48.594 30.0749 48.285 29.5478 47.9352 29.7271C46.2185 30.6064 44.5091 31.5009 42.7944 32.3833C42.4445 32.5633 42.7535 33.0903 43.1029 32.9106Z" fill="#211715"/>
<path d="M42.4603 28.5718V32.3176C42.4603 32.7105 43.0717 32.7112 43.0717 32.3176V28.5718C43.0717 28.1789 42.4603 28.1782 42.4603 28.5718Z" fill="#211715"/>
<path d="M48.4378 29.9096C48.3906 28.5326 48.4149 27.154 48.5104 25.7794C48.5098 25.6987 48.4773 25.6214 48.4202 25.5643C48.363 25.5072 48.2856 25.4748 48.2048 25.4741C48.1242 25.4757 48.0473 25.5084 47.9904 25.5653C47.9334 25.6222 47.9007 25.6989 47.8991 25.7794C47.8035 27.154 47.7793 28.5326 47.8265 29.9096C47.8378 30.3017 48.4492 30.3034 48.4378 29.9096Z" fill="#211715"/>
<path d="M48.0761 30.3877C47.8508 31.682 47.8622 33.0083 47.8991 34.3164C47.9102 34.7086 48.5216 34.7108 48.5104 34.3164C48.4752 33.0655 48.4502 31.7875 48.6656 30.5501C48.6848 30.4721 48.6734 30.3897 48.6337 30.3199C48.594 30.25 48.529 30.198 48.4521 30.1745C48.374 30.1536 48.2908 30.1643 48.2204 30.2042C48.1501 30.2441 48.0983 30.31 48.0761 30.3877Z" fill="#211715"/>
<path d="M47.8442 35.3628C47.8442 36.4528 47.8688 37.5433 47.8991 38.6322C47.9101 39.0243 48.5214 39.0265 48.5105 38.6322C48.4802 37.5426 48.4561 36.4521 48.4556 35.3628C48.4556 34.9699 47.8442 34.9692 47.8442 35.3628Z" fill="#211715"/>
<path d="M41.2316 29.2502C39.9781 29.2013 38.7238 29.1739 37.4697 29.1464L37.0611 29.1373C36.9074 29.1337 36.7361 29.11 36.5968 29.1913C36.5239 29.2387 36.4649 29.3046 36.4261 29.3824C36.3872 29.4601 36.3697 29.5467 36.3756 29.6334C36.3707 29.9266 36.3756 30.2204 36.3756 30.5137C36.3756 30.8026 36.3111 31.1846 36.6164 31.3473C36.7639 31.4011 36.9214 31.4221 37.0778 31.4089C37.2231 31.4148 37.3684 31.42 37.5137 31.4247C37.8145 31.4346 38.1153 31.4431 38.4161 31.4501C39.0352 31.4654 39.6543 31.4777 40.2733 31.4958C40.5713 31.5046 40.8697 31.5222 41.1679 31.5276C41.231 31.5334 41.2945 31.5261 41.3546 31.5062C41.4148 31.4863 41.4701 31.4543 41.5173 31.412C41.5644 31.3698 41.6023 31.3183 41.6286 31.2608C41.6549 31.2032 41.669 31.1409 41.6701 31.0776C41.6856 30.7877 41.6701 30.4925 41.6701 30.2027C41.6701 29.8705 41.7553 29.3488 41.3128 29.2613C41.2347 29.2419 41.1521 29.2532 41.0821 29.2929C41.0121 29.3326 40.96 29.3977 40.9367 29.4746C40.916 29.5527 40.9267 29.6358 40.9667 29.706C41.0066 29.7762 41.0726 29.828 41.1503 29.8502C40.8537 29.7914 41.0791 29.6296 41.0588 29.7175C41.0566 29.7386 41.0566 29.7599 41.0588 29.7811V30.6386C41.0436 30.7824 41.0436 30.9274 41.0588 31.0712C41.0798 31.1602 41.3035 30.9461 41.1939 30.9185C41.1153 30.9074 41.0358 30.9041 40.9566 30.9086C40.7566 30.9009 40.5567 30.894 40.3569 30.8881C39.5772 30.8646 38.7972 30.8509 38.0175 30.8296C37.8311 30.8245 37.6448 30.8189 37.4585 30.8128C37.3676 30.8097 37.2766 30.8065 37.1856 30.803C37.0971 30.7897 37.0074 30.7861 36.9181 30.7922C36.7431 30.8278 37.0737 30.6623 36.9869 30.9499C36.9879 30.9467 36.9861 30.942 36.9869 30.9389C36.9889 30.9199 36.9889 30.9008 36.9869 30.8819V29.943C36.9797 29.8084 36.9814 29.6734 36.992 29.539L36.9502 29.6931C36.8111 29.7284 36.7772 29.7454 36.8483 29.7439L36.901 29.7452L37.034 29.7483L37.3044 29.7544L37.8328 29.7661C38.2082 29.7746 38.5835 29.7833 38.9587 29.7923C39.7164 29.8109 40.4743 29.8322 41.2312 29.8619C41.625 29.8761 41.6244 29.2655 41.2316 29.2502Z" fill="#211715"/>
<path d="M41.3846 33.6044C40.111 33.5544 38.8357 33.5273 37.5611 33.4988L37.15 33.4897C36.973 33.4856 36.7897 33.4666 36.6488 33.5961C36.598 33.6484 36.5592 33.7112 36.5352 33.78C36.5112 33.8488 36.5025 33.9221 36.5097 33.9946V34.9105C36.5097 35.1933 36.4461 35.5857 36.7743 35.7165C36.9101 35.7543 37.0512 35.7695 37.192 35.7616C37.355 35.7682 37.518 35.7741 37.681 35.7792C37.9813 35.7889 38.2815 35.7974 38.5818 35.8047C39.208 35.8199 39.8342 35.8324 40.4604 35.8511C40.7477 35.8596 41.0354 35.8766 41.3228 35.8821C41.3841 35.8878 41.4458 35.8807 41.504 35.8611C41.5623 35.8416 41.6158 35.8101 41.6612 35.7686C41.7065 35.7271 41.7427 35.6767 41.7673 35.6204C41.792 35.5642 41.8046 35.5034 41.8043 35.442C41.817 35.1382 41.8043 34.8314 41.8043 34.527C41.8043 34.2107 41.8887 33.7001 41.4659 33.6156C41.3877 33.5961 41.3051 33.6074 41.2351 33.6471C41.1651 33.6869 41.113 33.752 41.0898 33.8289C41.069 33.907 41.0798 33.9901 41.1197 34.0603C41.1597 34.1305 41.2256 34.1823 41.3034 34.2045C41.272 34.1982 41.2162 33.9937 41.1929 34.0437C41.1877 34.0547 41.1938 34.0788 41.1929 34.091C41.1892 34.1444 41.1929 34.1995 41.1929 34.2529V35.3907C41.1929 35.5392 41.1751 35.3505 41.2594 35.3101L41.4138 35.2684C41.2239 35.2769 41.0336 35.2714 40.8445 35.2519C40.642 35.2448 40.4395 35.2385 40.2371 35.2331C39.8191 35.2217 39.4008 35.2124 38.9827 35.2026C38.5764 35.1932 38.1701 35.1834 37.764 35.1708C37.5733 35.1648 37.3826 35.158 37.192 35.1504L37.0594 35.145C36.8507 35.1359 37.1741 35.1392 37.1211 35.3241C37.1223 35.31 37.1223 35.2959 37.1211 35.2818C37.1369 35.1106 37.1211 34.9306 37.1211 34.7587V34.1243C37.1248 34.0632 37.1248 34.002 37.1211 33.9409C37.1217 33.9305 37.1217 33.9201 37.1211 33.9097L36.9895 34.0961L37.0962 34.0985L37.2584 34.1022C37.6735 34.1116 38.0885 34.1209 38.5036 34.1302C39.464 34.1523 40.4246 34.1769 41.3846 34.2145C41.778 34.2304 41.7773 33.6198 41.3846 33.6044Z" fill="#211715"/>
<path d="M41.2952 38.0204C40.0741 37.9736 38.8522 37.9472 37.6304 37.9199L37.2193 37.9108C37.0614 37.8884 36.9004 37.9134 36.7567 37.9827C36.6774 38.0352 36.613 38.1073 36.5697 38.192C36.5265 38.2767 36.5058 38.3711 36.5098 38.4661C36.5045 38.7435 36.5098 39.0217 36.5098 39.2992C36.5098 39.6124 36.4716 39.9742 36.82 40.1284C36.9532 40.1723 37.0935 40.1909 37.2336 40.1831C37.3813 40.1889 37.5291 40.1942 37.677 40.1988C37.9827 40.2088 38.2887 40.2172 38.5951 40.2243C39.2043 40.2392 39.8138 40.2514 40.4231 40.2693C40.7059 40.2776 40.9943 40.3065 41.2771 40.2995C41.4153 40.2986 41.5476 40.244 41.646 40.1472C41.7445 40.0504 41.8013 39.9191 41.8043 39.7812C41.8186 39.5083 41.8043 39.231 41.8043 38.9579C41.8043 38.6065 41.8527 38.0969 41.3765 38.0314C41.2984 38.0126 41.2161 38.0242 41.1463 38.0638C41.0765 38.1035 41.0244 38.1681 41.0005 38.2447C40.9796 38.3228 40.9902 38.4059 41.0301 38.4762C41.0701 38.5465 41.1361 38.5982 41.214 38.6203C41.348 38.6387 41.1009 38.5761 41.193 38.5387C41.1919 38.5387 41.193 38.5499 41.193 38.5514C41.1881 38.5818 41.1881 38.6127 41.193 38.643V38.9888C41.193 39.2321 41.1848 39.477 41.193 39.7203C41.193 39.7309 41.1857 39.7722 41.193 39.78C41.1815 39.7673 41.2276 39.7142 41.2341 39.7052C41.2538 39.6782 41.3039 39.71 41.2504 39.6882C41.215 39.6819 41.1789 39.6804 41.143 39.6839C40.8937 39.6738 40.6442 39.6653 40.3947 39.6584C39.8725 39.6433 39.3503 39.6321 38.8281 39.6203C38.3147 39.6075 37.8013 39.5948 37.2881 39.5755C37.2251 39.566 37.1613 39.5634 37.0978 39.5677C37.1068 39.5658 37.0596 39.5647 37.0572 39.5693C37.067 39.5531 37.1164 39.6317 37.1053 39.6228C37.1417 39.6525 37.1133 39.6664 37.121 39.6156C37.1278 39.52 37.1278 39.4241 37.121 39.3286V38.5573C37.1241 38.5234 37.1241 38.4894 37.121 38.4555C37.1217 38.4468 37.1217 38.438 37.121 38.4293C37.1402 38.4392 37.0666 38.4984 37.0634 38.5037C37.0393 38.5437 37.0269 38.5084 37.0851 38.5195C37.1207 38.5229 37.1565 38.5237 37.1922 38.5219L37.3548 38.5256L37.742 38.5343C38.9264 38.5606 40.1109 38.5868 41.2954 38.6322C41.6887 38.6461 41.688 38.0355 41.2952 38.0204Z" fill="#211715"/>
<path d="M44.4037 34.9727C45.1666 34.4933 45.9559 34.0575 46.7681 33.6672C46.8375 33.6259 46.8879 33.5589 46.9084 33.4808C46.9289 33.4027 46.9179 33.3197 46.8777 33.2496C46.8356 33.1809 46.7686 33.1312 46.6907 33.1108C46.6127 33.0904 46.5299 33.1009 46.4595 33.1401C45.6473 33.5303 44.858 33.9661 44.0951 34.4454C43.763 34.6541 44.0697 35.1832 44.4037 34.9727Z" fill="#211715"/>
<path d="M44.6618 33.6583C45.4247 33.179 46.2141 32.7431 47.0262 32.3528C47.0956 32.3115 47.146 32.2445 47.1666 32.1664C47.1871 32.0882 47.176 32.0052 47.1358 31.9351C47.0938 31.8665 47.0268 31.8167 46.9488 31.7963C46.8709 31.7759 46.7881 31.7864 46.7177 31.8256C45.9056 32.2159 45.1162 32.6517 44.3534 33.131C44.0211 33.3398 44.3279 33.8688 44.6618 33.6583Z" fill="#211715"/>
<path d="M44.6619 39.6625C45.8061 38.9435 46.9902 38.2898 48.2084 37.7045C48.2779 37.6631 48.3283 37.5961 48.3488 37.518C48.3693 37.4398 48.3583 37.3568 48.3181 37.2867C48.276 37.218 48.209 37.1683 48.131 37.1479C48.053 37.1275 47.9702 37.138 47.8998 37.1772C46.6816 37.7625 45.4976 38.4162 44.3534 39.1353C44.0213 39.3441 44.328 39.8732 44.6619 39.6625Z" fill="#211715"/>
<path d="M31.8689 33.8302V35.3186C31.8689 35.3996 31.9011 35.4772 31.9584 35.5345C32.0157 35.5917 32.0935 35.6239 32.1746 35.6239C32.2556 35.6239 32.3334 35.5917 32.3907 35.5345C32.448 35.4772 32.4802 35.3996 32.4802 35.3186V33.8302C32.4802 33.7492 32.448 33.6716 32.3907 33.6143C32.3334 33.5571 32.2556 33.5249 32.1746 33.5249C32.0935 33.5249 32.0157 33.5571 31.9584 33.6143C31.9011 33.6716 31.8689 33.7492 31.8689 33.8302Z" fill="#211715"/>
<path d="M32.0031 38.2501V39.7385C32.0031 39.7786 32.011 39.8183 32.0263 39.8554C32.0417 39.8924 32.0642 39.9261 32.0926 39.9544C32.121 39.9828 32.1547 40.0052 32.1917 40.0206C32.2288 40.0359 32.2686 40.0438 32.3087 40.0438C32.3489 40.0438 32.3886 40.0359 32.4257 40.0206C32.4628 40.0052 32.4965 39.9828 32.5249 39.9544C32.5532 39.9261 32.5758 39.8924 32.5911 39.8554C32.6065 39.8183 32.6144 39.7786 32.6144 39.7385V38.2501C32.6144 38.1692 32.5822 38.0915 32.5249 38.0342C32.4675 37.977 32.3898 37.9448 32.3087 37.9448C32.2276 37.9448 32.1499 37.977 32.0926 38.0342C32.0353 38.0915 32.0031 38.1692 32.0031 38.2501Z" fill="#211715"/>
<path d="M31.2927 27.0858C30.9769 27.2456 30.6612 27.4074 30.3569 27.5883C30.1355 27.7201 29.8475 27.9028 29.8294 28.1881C29.8191 28.3503 29.8294 28.5165 29.8294 28.6789V31.9191C29.8294 31.9773 29.8275 32.0359 29.8294 32.0941C29.8256 32.1609 29.8353 32.2277 29.8581 32.2907C29.8808 32.3536 29.916 32.4113 29.9617 32.4603C30.0073 32.5093 30.0624 32.5485 30.1236 32.5757C30.1848 32.6029 30.2509 32.6174 30.3178 32.6184C30.5365 32.6336 30.7581 32.629 30.9771 32.6341L34.8871 32.7243L39.7927 32.8375C40.711 32.8587 41.633 32.9054 42.5516 32.9011C42.566 32.9011 42.5804 32.9011 42.5947 32.9021C42.9882 32.9111 42.9881 32.3005 42.5947 32.2915L40.3952 32.2406L35.7311 32.133L31.5139 32.0355L30.4679 32.0115C30.4369 32.0107 30.4059 32.0104 30.3748 32.0093C30.3699 32.0088 30.365 32.0088 30.3601 32.0093C30.2724 32.0241 30.3291 32.0093 30.3301 32.0072C30.3293 32.009 30.4447 32.0955 30.4406 32.0983C30.4473 32.048 30.4473 31.9971 30.4406 31.9469V28.4134C30.4451 28.3453 30.4451 28.2771 30.4406 28.209C30.4399 28.2035 30.4424 28.1963 30.4406 28.1908C30.4736 28.2926 30.361 28.3359 30.4309 28.2852C30.4499 28.2713 30.5277 28.1987 30.5074 28.2134C30.5686 28.1697 30.6366 28.1325 30.7015 28.0944C30.9944 27.9224 31.2979 27.7665 31.6014 27.613C31.9524 27.4349 31.6433 26.9084 31.2928 27.0858H31.2927Z" fill="#211715"/>
<path d="M46.9106 25.9656C47.3093 25.9656 47.7079 25.9681 48.1066 25.9681C48.1876 25.9681 48.2654 25.936 48.3227 25.8787C48.38 25.8215 48.4122 25.7438 48.4122 25.6628C48.4122 25.5819 48.38 25.5042 48.3227 25.4469C48.2654 25.3897 48.1876 25.3575 48.1066 25.3575C47.7079 25.3575 47.3093 25.355 46.9106 25.355C46.8296 25.355 46.7518 25.3871 46.6945 25.4444C46.6372 25.5017 46.605 25.5793 46.605 25.6603C46.605 25.7413 46.6372 25.8189 46.6945 25.8762C46.7518 25.9334 46.8296 25.9656 46.9106 25.9656Z" fill="#211715"/>
<path d="M35.1881 25.961C35.3837 25.8819 35.5938 25.8446 35.8047 25.8514C36.0402 25.852 36.2757 25.8528 36.5112 25.854C36.9946 25.8564 37.478 25.8599 37.9613 25.8645C38.9606 25.8737 39.9599 25.8854 40.959 25.8994C41.3526 25.9047 41.3528 25.294 40.959 25.2888C39.9394 25.2753 38.9197 25.2635 37.9001 25.2533C37.4174 25.249 36.9346 25.2456 36.4519 25.2432C35.9711 25.2409 35.4801 25.1897 35.0254 25.3723C34.9486 25.3959 34.8838 25.4479 34.8441 25.5177C34.8044 25.5875 34.7929 25.6698 34.812 25.7478C34.834 25.8256 34.8858 25.8915 34.9562 25.9314C35.0265 25.9713 35.1098 25.982 35.1879 25.961H35.1881Z" fill="#211715"/>
<path d="M29.9468 32.5663V36.1891C29.9444 36.2626 29.9606 36.3356 29.994 36.4012C30.0274 36.4667 30.0769 36.5228 30.1378 36.5641L30.3742 36.7677C30.6706 37.0234 31.1049 36.5933 30.8065 36.3359L30.4686 36.0443L30.5577 36.2606V32.5663C30.5577 32.1735 29.9464 32.1729 29.9464 32.5663H29.9468Z" fill="#211715"/>
<path d="M42.8146 28.063L39.2152 27.9421L33.484 27.7498L32.1752 27.7058C31.7817 27.693 31.7822 28.3037 32.1752 28.3164L35.7746 28.4372L41.5065 28.6297L42.8152 28.6736C43.2086 28.6863 43.2081 28.0757 42.8152 28.063H42.8146Z" fill="#211715"/>
<path d="M43.0543 28.5409C43.4384 28.3399 43.8168 28.1275 44.1938 27.9138C44.2638 27.8729 44.3147 27.8059 44.3352 27.7276C44.3558 27.6492 44.3444 27.5659 44.3034 27.496C44.2625 27.4261 44.1955 27.3753 44.117 27.3547C44.0386 27.3342 43.9552 27.3456 43.8852 27.3865C43.5082 27.6002 43.1298 27.8126 42.7458 28.0136C42.6763 28.0549 42.6258 28.1219 42.6053 28.2001C42.5848 28.2782 42.5959 28.3613 42.6362 28.4314C42.6783 28.4999 42.7453 28.5496 42.8232 28.57C42.9011 28.5904 42.9839 28.58 43.0543 28.5409Z" fill="#211715"/>
<path d="M45.4021 27.3917C46.3209 26.8762 47.2663 26.4081 48.203 25.9265C48.2377 25.9062 48.268 25.8794 48.2923 25.8474C48.3166 25.8155 48.3343 25.7791 48.3445 25.7403C48.3547 25.7015 48.3571 25.6611 48.3517 25.6213C48.3462 25.5816 48.333 25.5433 48.3127 25.5087C48.2924 25.4741 48.2655 25.4438 48.2336 25.4195C48.2016 25.3953 48.1651 25.3776 48.1263 25.3674C48.0874 25.3572 48.047 25.3548 48.0072 25.3603C47.9674 25.3657 47.9291 25.3789 47.8944 25.3992C46.9577 25.8809 46.0123 26.3491 45.0935 26.8645C44.7505 27.0569 45.0584 27.5845 45.4021 27.3917Z" fill="#211715"/>
<path d="M27.0993 42.5096C27.4025 42.3739 27.7062 42.2399 28.0105 42.1077C28.3049 41.9805 28.5518 41.8761 28.86 41.7534C28.9371 41.7302 29.0022 41.6782 29.042 41.6083C29.0817 41.5383 29.093 41.4558 29.0734 41.3778C29.0512 41.3002 28.9993 41.2344 28.929 41.1945C28.8587 41.1547 28.7756 41.1439 28.6975 41.1646C28.0549 41.4205 27.4222 41.7004 26.7907 41.9824C26.7209 42.0235 26.6702 42.0904 26.6497 42.1687C26.6291 42.2469 26.6404 42.3301 26.6811 42.4001C26.7236 42.4682 26.7906 42.5176 26.8684 42.5379C26.9462 42.5583 27.0288 42.5482 27.0993 42.5096Z" fill="#211715"/>
<path d="M28.594 44.2558L29.7255 43.2013C29.7822 43.1437 29.8139 43.0661 29.8139 42.9854C29.8139 42.9046 29.7822 42.8271 29.7255 42.7695C29.6673 42.7137 29.5899 42.6826 29.5093 42.6826C29.4288 42.6826 29.3513 42.7137 29.2932 42.7695L28.1617 43.8241C28.105 43.8817 28.0732 43.9592 28.0732 44.04C28.0732 44.1207 28.105 44.1983 28.1617 44.2558C28.2198 44.3116 28.2973 44.3427 28.3779 44.3427C28.4584 44.3427 28.5359 44.3116 28.594 44.2558Z" fill="#211715"/>
<path d="M46.255 42.3538C46.889 42.5151 47.5297 42.649 48.16 42.8244C48.2382 42.846 48.3217 42.8356 48.3922 42.7956C48.4627 42.7556 48.5145 42.6893 48.536 42.6112C48.5576 42.5331 48.5472 42.4496 48.5071 42.3792C48.4671 42.3088 48.4007 42.2571 48.3225 42.2356C47.6922 42.0598 47.0515 41.9258 46.4175 41.7649C46.3394 41.7434 46.2558 41.7537 46.1853 41.7937C46.1148 41.8337 46.0631 41.9001 46.0415 41.9782C46.02 42.0562 46.0303 42.1397 46.0704 42.2101C46.1104 42.2806 46.1769 42.3322 46.255 42.3538Z" fill="#211715"/>
<path d="M45.2865 43.6304C45.6672 44.0647 46.0548 44.4944 46.4542 44.9118C46.5119 44.9683 46.5895 45 46.6703 45C46.7511 45 46.8287 44.9683 46.8864 44.9118C46.9423 44.8538 46.9735 44.7764 46.9735 44.6959C46.9735 44.6154 46.9423 44.538 46.8864 44.48C46.487 44.0626 46.0995 43.6329 45.7188 43.1986C45.6613 43.1417 45.5836 43.1099 45.5027 43.1099C45.4217 43.1099 45.3441 43.1417 45.2865 43.1986C45.231 43.2568 45.2 43.3341 45.2 43.4145C45.2 43.4949 45.231 43.5722 45.2865 43.6304Z" fill="#211715"/>
<path d="M42.8202 24.1934C42.4763 24.6514 42.1392 25.113 41.8387 25.6005C41.7615 25.7259 41.6862 25.8524 41.613 25.9801C41.5694 26.0882 41.4895 26.1779 41.3871 26.2338C41.3406 26.2578 41.3283 26.2558 41.2608 26.203C41.2267 26.179 41.2002 26.1457 41.1844 26.1072C41.1686 26.0686 41.1642 26.0263 41.1716 25.9853C41.1921 25.6952 41.3769 25.4139 41.5146 25.1661C41.6616 24.9017 41.8218 24.6453 41.9872 24.3921C42.1384 24.1524 42.3163 23.9305 42.5174 23.7306C42.6828 23.5481 42.8841 23.4019 43.1089 23.301C43.23 23.2573 43.3545 23.2236 43.4812 23.2001C43.5236 23.1916 43.5668 23.1856 43.6085 23.1767C43.6928 23.1592 43.5566 23.1795 43.6059 23.1767C43.6441 23.1747 43.681 23.1723 43.7188 23.172C43.9154 23.1744 44.1117 23.1893 44.3063 23.2167C44.7074 23.2654 45.1067 23.3389 45.5065 23.4015C45.9689 23.474 46.4683 23.8557 46.7257 24.2396C46.8452 24.4223 46.932 24.6243 46.9821 24.8367C47.0084 24.937 47.066 25.1175 47.0203 25.2132C46.9929 25.2707 46.888 25.3265 46.8285 25.3591C46.6937 25.4327 46.5483 25.4844 46.4133 25.5579C46.2665 25.6396 46.1269 25.7335 45.9959 25.8387C45.7557 26.0407 45.5399 26.2699 45.3527 26.5218C45.1901 26.756 44.9885 26.9606 44.7566 27.1267C44.6683 27.1975 44.5577 27.2348 44.4445 27.232C44.4053 27.2239 44.3699 27.2029 44.344 27.1724C44.3181 27.1419 44.3032 27.1036 44.3016 27.0636C44.2941 26.6711 43.6828 26.6699 43.6903 27.0636C43.694 27.2301 43.7496 27.3914 43.8495 27.5249C43.9493 27.6583 44.0884 27.7573 44.2473 27.808C44.6195 27.9388 45.0131 27.7166 45.2942 27.4862C45.5255 27.2746 45.7347 27.0402 45.9189 26.7865C46.1266 26.5163 46.3832 26.2873 46.6754 26.1115C46.9518 25.9534 47.2684 25.8717 47.4764 25.6143C47.7224 25.3096 47.6465 24.8923 47.5334 24.5457C47.3245 23.9165 46.8864 23.3888 46.306 23.0672C46.154 22.9746 45.9922 22.899 45.8235 22.8419C45.7299 22.8188 45.6349 22.8021 45.5391 22.7918C45.2902 22.7512 45.0424 22.7095 44.7925 22.6723C44.283 22.596 43.7775 22.5117 43.2685 22.6215C42.5779 22.7702 42.0466 23.2482 41.6425 23.8101C41.4305 24.1095 41.2339 24.4194 41.0535 24.7388C40.8707 25.0568 40.6552 25.4054 40.5869 25.771C40.5114 26.1764 40.6347 26.5724 41.0209 26.7706C41.1994 26.8515 41.4012 26.8647 41.5887 26.8078C41.7762 26.751 41.9365 26.6279 42.0398 26.4616C42.2576 26.1278 42.4427 25.7738 42.6663 25.4428C42.8828 25.1219 43.1144 24.8112 43.3469 24.5014C43.3873 24.4314 43.3985 24.3482 43.378 24.27C43.3574 24.1918 43.3069 24.1249 43.2373 24.0836C43.1668 24.0447 43.0841 24.0343 43.0062 24.0547C42.9283 24.0751 42.8613 24.1247 42.819 24.1932L42.8202 24.1934Z" fill="#211715"/>
<path d="M41.456 26.3958C41.411 26.5877 41.4362 26.7893 41.527 26.9643C41.6178 27.1392 41.7682 27.276 41.9512 27.3499C42.1168 27.3991 42.293 27.4001 42.4592 27.3528C42.6254 27.3055 42.7746 27.2118 42.8893 27.0827C43.2313 26.6807 43.5075 26.2196 43.8253 25.7987C43.9158 25.6787 44.001 25.5697 44.1147 25.4355C44.2142 25.316 44.3205 25.2022 44.4331 25.0949C44.7204 24.8253 44.2875 24.3942 44.0008 24.6632C43.631 25.0377 43.2983 25.447 43.0074 25.8854C42.8673 26.0806 42.7301 26.2779 42.5898 26.473C42.5643 26.5079 42.5396 26.5426 42.514 26.5771L42.4802 26.6224C42.4405 26.6764 42.5118 26.5858 42.483 26.6189C42.4558 26.6539 42.4247 26.6856 42.3903 26.7136C42.365 26.7299 42.3387 26.7445 42.3115 26.7573C42.2853 26.7681 42.2579 26.7756 42.23 26.7797C42.2027 26.7835 42.1749 26.7813 42.1486 26.7734C42.1605 26.7751 42.1416 26.7716 42.1397 26.7699C42.1015 26.7355 42.0719 26.6927 42.0532 26.6449C42.0596 26.6622 42.035 26.5533 42.0419 26.6128C42.0402 26.5985 42.0397 26.5842 42.0406 26.5698C42.0435 26.5225 42.0225 26.6334 42.0454 26.5591C42.16 26.1825 41.5706 26.0215 41.4559 26.3968L41.456 26.3958Z" fill="#211715"/>
<path d="M42.5524 26.7096C42.5153 26.8835 42.5348 27.0647 42.6081 27.2267C42.6815 27.3887 42.8047 27.523 42.9599 27.61C43.0972 27.6779 43.2485 27.7125 43.4016 27.711C43.5547 27.7094 43.7053 27.6718 43.8412 27.6011C44.0322 27.488 44.1503 27.2271 44.2725 27.0479C44.4254 26.8248 44.5965 26.5823 44.7519 26.3818C44.9335 26.14 45.1366 25.9151 45.3588 25.7099C45.4153 25.6524 45.4469 25.575 45.4466 25.4945C45.4462 25.414 45.4141 25.3368 45.357 25.2799C45.3 25.2229 45.2228 25.1908 45.1421 25.1904C45.0615 25.1901 44.984 25.2216 44.9265 25.2781C44.4669 25.6852 44.1056 26.2124 43.761 26.7156C43.6931 26.8153 43.6257 26.9157 43.5587 27.0166L43.5184 27.0775C43.5104 27.0896 43.4658 27.1362 43.4975 27.1095C43.5055 27.0944 43.5178 27.082 43.5327 27.0738C43.5029 27.0892 43.5045 27.0892 43.5375 27.0738C43.5272 27.077 43.4392 27.0971 43.4704 27.0923C43.5016 27.0874 43.4067 27.0951 43.3953 27.0951C43.3838 27.0951 43.2866 27.0888 43.3234 27.0933C43.3602 27.0977 43.2744 27.0816 43.2657 27.0799C43.2371 27.0704 43.238 27.0714 43.2685 27.0827C43.2559 27.0762 43.2437 27.0689 43.232 27.0607C43.2149 27.0493 43.2159 27.05 43.2352 27.0628C43.2198 27.0488 43.2052 27.034 43.1914 27.0185C43.2158 27.0467 43.1632 26.9732 43.1571 26.9614C43.1477 26.9425 43.147 26.9422 43.1551 26.9602C43.1479 26.94 43.1421 26.9194 43.1375 26.8984C43.1403 26.9271 43.1407 26.9226 43.1388 26.8849C43.1316 26.9134 43.1325 26.9092 43.1414 26.8722C43.163 26.7941 43.1526 26.7107 43.1126 26.6402C43.0725 26.5698 43.0061 26.5181 42.9279 26.4966C42.8497 26.4751 42.7662 26.4855 42.6957 26.5255C42.6252 26.5655 42.5734 26.6318 42.5519 26.7099L42.5524 26.7096Z" fill="#211715"/>
<path d="M15.0519 16.75C15.0902 16.7299 15.1288 16.7107 15.1678 16.6923C15.2343 16.6611 15.1042 16.7145 15.1806 16.6877C15.2089 16.6776 15.2371 16.6675 15.2658 16.6587C15.3437 16.636 15.423 16.6182 15.5032 16.6053C15.4586 16.6132 15.4823 16.6078 15.5134 16.6045C15.5367 16.602 15.56 16.5998 15.5834 16.5981C15.64 16.5939 15.6968 16.5919 15.7534 16.5915C15.8063 16.5915 15.8592 16.5924 15.9119 16.5955C15.9363 16.5969 15.9607 16.5987 15.9849 16.6009C15.9937 16.6017 16.0843 16.6149 16.0115 16.6028C16.0908 16.6149 16.1691 16.6325 16.246 16.6555C16.2779 16.6656 16.3104 16.6829 16.3427 16.6902C16.3337 16.6881 16.28 16.6602 16.3155 16.6793C16.3282 16.6866 16.343 16.692 16.3565 16.6995C16.3762 16.71 16.3957 16.721 16.4146 16.7329C16.4401 16.7489 16.5096 16.8026 16.4146 16.7284C16.4729 16.7837 16.5503 16.8145 16.6307 16.8145C16.7111 16.8145 16.7885 16.7837 16.8468 16.7284C16.9475 16.6189 16.9816 16.4015 16.8468 16.2966C16.5384 16.0766 16.1653 15.9655 15.7866 15.9809C15.4242 15.973 15.0656 16.0561 14.7437 16.2226C14.6742 16.2639 14.6237 16.3308 14.6032 16.409C14.5827 16.4871 14.5938 16.5702 14.6341 16.6402C14.6762 16.7088 14.7432 16.7585 14.8211 16.7789C14.899 16.7993 14.9818 16.7889 15.0522 16.7498L15.0519 16.75Z" fill="#211715"/>
<path d="M15.6127 14.1459C15.6598 14.3158 15.6976 14.4881 15.7257 14.662L15.7147 14.5809C15.7181 14.6045 15.7188 14.6284 15.7167 14.6521L15.7276 14.571C15.726 14.5819 15.7234 14.5926 15.7197 14.603L15.7505 14.53C15.7474 14.5372 15.7436 14.5441 15.7392 14.5506L15.7871 14.4889C15.782 14.495 15.7763 14.5005 15.7701 14.5054L15.832 14.4577C15.8189 14.4659 15.8052 14.4731 15.791 14.4794L15.8641 14.4486C15.842 14.458 15.8188 14.4648 15.7951 14.4687L15.8764 14.4577C15.8549 14.4603 15.8332 14.4603 15.8117 14.4577L15.8929 14.4686C15.8685 14.4652 15.8445 14.4593 15.8201 14.4558C15.7807 14.4432 15.7386 14.4413 15.6982 14.4504C15.6578 14.4522 15.6186 14.4647 15.5846 14.4866C15.5499 14.5068 15.5196 14.5337 15.4953 14.5657C15.471 14.5976 15.4533 14.634 15.4431 14.6728C15.4329 14.7116 15.4305 14.752 15.4359 14.7918C15.4414 14.8315 15.4547 14.8698 15.4749 14.9044C15.4943 14.9388 15.5205 14.969 15.5519 14.993C15.5833 15.0171 15.6192 15.0345 15.6576 15.0443C15.7168 15.0522 15.7742 15.0672 15.8345 15.0698C15.9267 15.0702 16.0177 15.0484 16.0996 15.0062C16.1522 14.9818 16.1987 14.9462 16.2357 14.9018C16.2728 14.8574 16.2996 14.8053 16.3141 14.7493C16.3332 14.6595 16.3323 14.5666 16.3116 14.4772C16.2835 14.3109 16.2451 14.1464 16.2022 13.9831C16.1915 13.9444 16.1733 13.9082 16.1487 13.8766C16.124 13.8449 16.0933 13.8184 16.0584 13.7986C16.0235 13.7788 15.985 13.7661 15.9452 13.7611C15.9053 13.7562 15.8649 13.7591 15.8262 13.7698C15.7488 13.7926 15.6834 13.8445 15.6436 13.9146C15.6038 13.9846 15.5927 14.0674 15.6127 14.1454V14.1459Z" fill="#211715"/>
<path d="M13.0149 12.6536C13.2113 12.6584 13.4078 12.6663 13.6033 12.6878C13.6239 12.69 13.6447 12.6924 13.6653 12.6951C13.731 12.7032 13.5954 12.685 13.6609 12.6943C13.7021 12.7001 13.7431 12.7066 13.784 12.7136C13.8746 12.729 13.9646 12.7471 14.0544 12.7662C14.0931 12.7768 14.1335 12.7798 14.1734 12.7748C14.2132 12.7699 14.2517 12.7572 14.2866 12.7374C14.3215 12.7176 14.3522 12.6911 14.3769 12.6595C14.4016 12.6279 14.4198 12.5917 14.4304 12.553C14.4411 12.5144 14.4441 12.474 14.4391 12.4342C14.4342 12.3944 14.4214 12.356 14.4016 12.3211C14.3818 12.2862 14.3553 12.2556 14.3236 12.2309C14.292 12.2063 14.2558 12.1881 14.2171 12.1774C13.8214 12.0954 13.4189 12.0504 13.0149 12.043C12.934 12.0437 12.8567 12.0761 12.7995 12.1332C12.7424 12.1903 12.7099 12.2675 12.7092 12.3483C12.7108 12.4288 12.7435 12.5055 12.8005 12.5625C12.8574 12.6194 12.9343 12.6521 13.0149 12.6536Z" fill="#211715"/>
<path d="M12.8268 13.8615C13.2496 13.8563 13.6728 13.8505 14.0957 13.8615C14.1765 13.8608 14.2539 13.8285 14.3111 13.7713C14.3682 13.7142 14.4007 13.637 14.4014 13.5562C14.3998 13.4757 14.3672 13.3989 14.3102 13.342C14.2532 13.2851 14.1763 13.2524 14.0957 13.2509C13.6728 13.2399 13.2496 13.2457 12.8268 13.2509C12.7457 13.2509 12.668 13.2831 12.6106 13.3403C12.5533 13.3976 12.5211 13.4753 12.5211 13.5562C12.5211 13.6372 12.5533 13.7149 12.6106 13.7721C12.668 13.8294 12.7457 13.8615 12.8268 13.8615Z" fill="#211715"/>
<path d="M17.5632 12.6183C17.9008 12.6709 18.2349 12.7431 18.5657 12.8281C18.6439 12.8496 18.7275 12.8393 18.798 12.7993C18.8685 12.7593 18.9202 12.6929 18.9418 12.6148C18.9633 12.5367 18.9529 12.4533 18.9129 12.3829C18.8728 12.3124 18.8064 12.2608 18.7283 12.2392C18.3971 12.1543 18.0633 12.082 17.7257 12.0296C17.646 12.0106 17.5621 12.0216 17.49 12.0604C17.4201 12.1012 17.3692 12.1682 17.3486 12.2465C17.3281 12.3248 17.3395 12.4081 17.3804 12.478C17.3999 12.5124 17.4262 12.5425 17.4576 12.5665C17.489 12.5905 17.5249 12.608 17.5632 12.618V12.6183Z" fill="#211715"/>
<path d="M17.6331 13.8474C17.9269 13.861 18.2207 13.8703 18.5144 13.8856C18.5953 13.8851 18.6728 13.8528 18.73 13.7956C18.7872 13.7385 18.8196 13.6611 18.8201 13.5803C18.8183 13.4999 18.7855 13.4232 18.7286 13.3663C18.6717 13.3095 18.5949 13.2767 18.5144 13.275C18.2207 13.2597 17.9269 13.2504 17.6331 13.2368C17.5522 13.2374 17.4747 13.2697 17.4175 13.3269C17.3603 13.384 17.328 13.4613 17.3274 13.5421C17.3291 13.6226 17.3618 13.6992 17.4188 13.7561C17.4758 13.813 17.5525 13.8457 17.6331 13.8474Z" fill="#211715"/>
<path d="M10.2271 11.5473C10.0531 11.3917 9.83721 11.2907 9.60623 11.2568C9.37525 11.2229 9.13938 11.2575 8.92797 11.3564C8.77889 11.4328 8.64855 11.5411 8.5463 11.6737C8.44404 11.8062 8.3724 11.9597 8.3365 12.1231C8.13082 12.8864 8.32593 13.7736 8.76151 14.4257C9.05648 14.8672 9.52351 15.2673 10.0913 15.1923C10.1716 15.1898 10.2478 15.1568 10.3046 15.1001C10.3614 15.0433 10.3944 14.9671 10.397 14.887C10.397 14.7388 10.2562 14.5599 10.0913 14.5817C9.66717 14.6378 9.37946 14.2956 9.19135 13.9564C9.02006 13.6573 8.91349 13.3256 8.87855 12.9827C8.85308 12.6683 8.85461 12.279 9.0496 12.0125C9.06157 11.9955 9.05924 11.9988 9.04259 12.0224C9.05533 12.0076 9.06807 11.9935 9.08233 11.9799C9.08844 11.9746 9.14996 11.9256 9.1213 11.9458C9.18283 11.9034 9.25306 11.8752 9.32686 11.8634C9.40848 11.8455 9.49312 11.8467 9.57421 11.8668C9.6553 11.8869 9.73065 11.9255 9.79441 11.9794C10.0866 12.2411 10.5204 11.8107 10.2267 11.5476L10.2271 11.5473Z" fill="#211715"/>
<path d="M20.6489 11.9794C20.7096 11.9278 20.7809 11.8903 20.8578 11.8694C20.9346 11.8485 21.0151 11.8448 21.0935 11.8585C21.1756 11.869 21.2539 11.8989 21.322 11.9458C21.3034 11.9331 21.4276 12.0552 21.3865 12.0023C21.5903 12.2648 21.5903 12.6683 21.5648 12.9827C21.5307 13.318 21.428 13.6428 21.2629 13.9368C21.0755 14.2824 20.7843 14.6392 20.3521 14.5821C20.2711 14.5825 20.1936 14.6148 20.1364 14.672C20.0791 14.7292 20.0468 14.8066 20.0464 14.8874C20.0484 14.9678 20.0812 15.0443 20.1381 15.1011C20.195 15.1579 20.2716 15.1907 20.3521 15.1927C21.2824 15.3158 21.8549 14.293 22.0797 13.5417C22.2789 12.8763 22.2766 11.8488 21.6306 11.419C21.4127 11.2851 21.1571 11.2253 20.9023 11.2486C20.6474 11.2718 20.407 11.3769 20.2169 11.5481C19.9234 11.8111 20.357 12.2417 20.6492 11.9799L20.6489 11.9794Z" fill="#211715"/>
<path d="M20.0891 14.4123C20.0025 14.7787 19.8843 15.137 19.736 15.4831C19.7188 15.5262 19.7657 15.4211 19.735 15.484C19.7246 15.5055 19.7151 15.5275 19.7049 15.549C19.6795 15.6028 19.6522 15.656 19.6244 15.7088C19.5608 15.8303 19.4917 15.9495 19.4207 16.0667C19.0533 16.6912 18.5834 17.2495 18.0305 17.7182C17.734 17.972 17.383 18.1542 17.0046 18.2507C16.6215 18.3398 16.7837 18.9285 17.1671 18.8396C17.9644 18.6546 18.629 18.0763 19.15 17.471C19.5963 16.9691 19.9696 16.407 20.259 15.8011C20.2788 15.7574 20.2972 15.7131 20.3158 15.6688C20.3211 15.6561 20.3473 15.5925 20.3296 15.634C20.3119 15.6754 20.3313 15.6321 20.3345 15.6251C20.3521 15.5869 20.3682 15.5466 20.3845 15.5073C20.4068 15.4536 20.4284 15.3995 20.4482 15.3451C20.5447 15.0946 20.6215 14.837 20.6781 14.5747C20.7573 14.1913 20.1687 14.0277 20.0886 14.4123H20.0891Z" fill="#211715"/>
<path d="M9.74972 14.5562C9.98738 15.6031 10.478 16.576 11.1787 17.39C11.856 18.1753 12.7291 18.7992 13.7742 18.9547C13.8523 18.9736 13.9346 18.9621 14.0045 18.9225C14.0743 18.8829 14.1264 18.8181 14.1502 18.7415C14.1711 18.6634 14.1605 18.5803 14.1206 18.51C14.0806 18.4397 14.0146 18.388 13.9367 18.366C12.9825 18.2242 12.2301 17.6754 11.611 16.9585C10.9841 16.2202 10.5475 15.34 10.3393 14.3945C10.2522 14.0115 9.66261 14.1735 9.74972 14.5568V14.5562Z" fill="#211715"/>
<path d="M11.3394 14.515C11.3232 14.9763 11.254 15.4996 11.5127 15.9136C11.5737 16.0162 11.6557 16.1049 11.7533 16.1738C11.8509 16.2427 11.962 16.2902 12.0792 16.3134C12.3639 16.362 12.693 16.3093 12.8848 16.0739C13.0955 15.8151 13.1013 15.4896 13.052 15.1746C13.0302 15.0967 12.9785 15.0305 12.908 14.9906C12.8376 14.9506 12.7542 14.9401 12.676 14.9614C12.5991 14.9849 12.5342 15.0369 12.4945 15.1067C12.4548 15.1766 12.4434 15.2589 12.4626 15.3369C12.4711 15.3921 12.457 15.2718 12.4626 15.3425C12.4645 15.3648 12.4668 15.387 12.4679 15.4096C12.4699 15.4562 12.4694 15.5029 12.4665 15.5495C12.4628 15.6239 12.4792 15.4972 12.4674 15.5481C12.4631 15.5678 12.4595 15.5877 12.4547 15.6072C12.4472 15.6254 12.4411 15.6441 12.4363 15.6632C12.4422 15.6089 12.4618 15.6099 12.4473 15.6355C12.4418 15.6448 12.4372 15.6547 12.4316 15.664C12.4249 15.6724 12.419 15.6815 12.4142 15.6911C12.4156 15.6848 12.4651 15.6351 12.4319 15.667C12.4189 15.6768 12.4073 15.6882 12.3972 15.701C12.4138 15.6659 12.4498 15.6661 12.4196 15.6834C12.4098 15.689 12.4005 15.6955 12.3906 15.701C12.3832 15.7052 12.3742 15.7082 12.3672 15.713C12.3435 15.729 12.4367 15.6932 12.3807 15.7054C12.3584 15.7104 12.3356 15.7164 12.3134 15.7219C12.2788 15.7303 12.3436 15.7163 12.3421 15.7182C12.3276 15.7207 12.3129 15.7217 12.2983 15.7212C12.2743 15.7221 12.2506 15.7212 12.2267 15.7212C12.1554 15.7201 12.2815 15.7371 12.2148 15.7203C12.1952 15.7155 12.1754 15.7114 12.156 15.7052C12.1481 15.7027 12.1403 15.6991 12.1323 15.6971C12.0963 15.6874 12.1909 15.7292 12.1606 15.7088C12.1457 15.6987 12.128 15.6921 12.1126 15.6826C12.0522 15.6444 12.1453 15.7165 12.1135 15.686C12.1007 15.674 12.0564 15.6159 12.0421 15.6133C12.0458 15.614 12.0871 15.6791 12.0639 15.6412C12.0602 15.6352 12.0558 15.6296 12.0519 15.6238C12.0415 15.6083 12.0318 15.5924 12.0228 15.5761C12.0149 15.5621 12.0081 15.5477 12.0006 15.5335C11.9715 15.478 12.0102 15.5608 12.0072 15.5514C11.9978 15.5212 11.9853 15.4921 11.9763 15.4623C11.962 15.4122 11.9506 15.3612 11.9422 15.3097C11.9374 15.2831 11.9411 15.2872 11.9422 15.3153C11.9405 15.2803 11.9353 15.2453 11.9331 15.2102C11.929 15.1392 11.9285 15.0681 11.9298 14.997C11.9329 14.8365 11.9445 14.6762 11.9502 14.5158C11.9496 14.435 11.9171 14.3577 11.86 14.3006C11.8028 14.2435 11.7254 14.2111 11.6445 14.2104C11.564 14.212 11.4871 14.2447 11.4301 14.3016C11.3732 14.3586 11.3404 14.4353 11.3389 14.5158L11.3394 14.515Z" fill="#211715"/>
<path d="M18.8975 4.04398C17.9425 3.4361 16.8525 3.07216 15.7235 2.98424C14.5945 2.89633 13.4612 3.08713 12.4234 3.53984C11.581 3.9229 10.827 4.4757 10.2086 5.16355C9.59015 5.85141 9.12071 6.65949 8.82969 7.53711C8.42222 8.82878 8.39195 10.2097 8.74245 11.518C8.83988 11.8985 9.42956 11.7373 9.33187 11.3556C8.8358 9.4187 9.19178 7.30914 10.499 5.76058C11.0862 5.04254 11.8331 4.47126 12.6802 4.09218C13.5273 3.71311 14.4512 3.5367 15.3786 3.57698C16.5207 3.60189 17.633 3.94638 18.5889 4.57127C18.92 4.78588 19.2267 4.25744 18.8975 4.04398Z" fill="#211715"/>
<path d="M21.6749 11.5184C21.8168 10.9754 21.8993 10.4186 21.9209 9.85776C21.9312 9.31187 21.8811 8.76651 21.7716 8.2316C21.5928 7.3283 21.2211 6.47412 20.6819 5.7273C20.4175 5.36344 20.1166 5.02744 19.784 4.72448C19.4935 4.46077 19.0598 4.89138 19.3517 5.15624C20.6167 6.30446 21.2809 7.90975 21.3103 9.60969C21.3113 10.1991 21.2357 10.7861 21.0854 11.3561C20.9919 11.7377 21.5813 11.9005 21.6749 11.5184Z" fill="#211715"/>
<path d="M17.0003 8.82164C17.507 9.05365 17.9619 9.38473 18.3384 9.79532C18.7463 10.1961 19.0763 10.6691 19.3115 11.1901C19.3352 11.2668 19.3873 11.3316 19.4572 11.3712C19.527 11.4108 19.6094 11.4223 19.6875 11.4033C19.7654 11.3813 19.8314 11.3296 19.8714 11.2593C19.9113 11.189 19.922 11.1058 19.901 11.0278C19.6395 10.42 19.2666 9.86651 18.8014 9.39575C18.3829 8.93209 17.8751 8.55745 17.3084 8.29421C17.2378 8.25584 17.1553 8.24581 17.0776 8.26616C16.9999 8.28652 16.9329 8.33573 16.8903 8.40374C16.8499 8.47378 16.8388 8.55687 16.8593 8.63504C16.8798 8.7132 16.9303 8.78015 16.9999 8.82138L17.0003 8.82164Z" fill="#211715"/>
<path d="M11.0597 11.2806C11.6745 10.5693 12.3741 9.9357 13.1429 9.39392C13.222 9.34088 13.3025 9.28986 13.3849 9.24216C13.4083 9.23232 13.4306 9.21976 13.4511 9.20476C13.4985 9.15782 13.452 9.21188 13.4549 9.19827L13.298 9.16011L13.2952 9.15655C13.2891 9.17868 13.3054 9.20285 13.3087 9.22562C13.3253 9.34011 13.2948 9.4546 13.3184 9.5691C13.331 9.63579 13.357 9.69924 13.3948 9.75561C13.4326 9.81198 13.4815 9.8601 13.5385 9.89705C13.7789 10.0475 13.997 9.9361 14.2155 9.81105C14.4175 9.69529 14.618 9.57698 14.8195 9.46007C15.2878 9.17526 15.7733 8.91947 16.2731 8.69413C16.3427 8.65294 16.3933 8.58597 16.4138 8.50775C16.4344 8.42954 16.4232 8.34639 16.3827 8.27636C16.3404 8.20803 16.2734 8.15856 16.1956 8.13818C16.1177 8.11779 16.035 8.12805 15.9646 8.16683C15.517 8.3671 15.0817 8.5939 14.6612 8.84602C14.4508 8.967 14.2416 9.09014 14.0318 9.21188C13.9516 9.25832 13.8715 9.30449 13.7908 9.34991C13.7689 9.3592 13.7482 9.37084 13.7289 9.38464L13.8616 9.38069L13.9147 9.44621C13.9305 9.43858 13.9263 9.34444 13.9262 9.32307C13.9245 9.05592 13.8498 8.74247 13.578 8.6304C13.336 8.53079 13.1195 8.68128 12.9222 8.80849C12.52 9.07435 12.1397 9.37183 11.7848 9.69809C11.3785 10.0605 10.9921 10.4445 10.6271 10.8485C10.3644 11.1398 10.7954 11.5736 11.0594 11.2802L11.0597 11.2806Z" fill="#211715"/>
<path d="M32.3024 25.5826C32.8059 25.2418 33.4118 25.0853 34.0176 25.1394C34.235 25.1583 34.6312 25.1879 34.7398 25.4065C34.7815 25.508 34.8042 25.6163 34.8066 25.7261C34.8147 25.8266 34.8599 25.998 34.7524 26.0568C34.7046 26.0737 34.6534 26.0789 34.6031 26.0718C34.5528 26.0648 34.505 26.0457 34.4637 26.0162C34.2906 25.9216 34.1453 25.83 33.9381 25.8699C33.7827 25.9128 33.6353 25.9803 33.5014 26.0699C33.3358 26.1633 33.1702 26.2579 33.0083 26.3577C32.7141 26.5386 32.4511 26.7737 32.1512 26.9428C31.936 27.0641 31.5623 27.1246 31.3304 27.0076C31.0746 26.8787 31.3618 26.4951 31.4647 26.3513C31.6667 26.0725 31.9126 25.8282 32.1928 25.628C32.2611 25.5856 32.3106 25.5187 32.331 25.441C32.3514 25.3633 32.3412 25.2808 32.3025 25.2103C32.2612 25.1409 32.1941 25.0904 32.1159 25.0699C32.0376 25.0494 31.9544 25.0605 31.8843 25.1008C31.5403 25.3452 31.2364 25.6416 30.9836 25.9792C30.7501 26.2924 30.5257 26.7027 30.6569 27.1036C30.7935 27.521 31.2238 27.6603 31.6241 27.6674C31.8423 27.6746 32.0598 27.6388 32.2642 27.562C32.472 27.4676 32.6665 27.3467 32.843 27.2021C33.1996 26.9429 33.5755 26.7113 33.9672 26.509C34.0657 26.4582 34.0326 26.4725 34.1328 26.5308C34.2152 26.5796 34.3029 26.6187 34.3943 26.6475C34.504 26.6822 34.6196 26.6944 34.7342 26.6835C34.8488 26.6726 34.96 26.6387 35.0611 26.5839C35.4687 26.3498 35.4546 25.8879 35.3892 25.4796C35.3631 25.2747 35.274 25.083 35.134 24.9309C34.994 24.7789 34.8102 24.674 34.608 24.6309C34.1673 24.5106 33.706 24.4862 33.255 24.5592C32.8041 24.6322 32.3741 24.801 31.994 25.0541C31.6695 25.2727 31.9751 25.8019 32.3025 25.5814L32.3024 25.5826Z" fill="#211715"/>
</g>
<defs>
<clipPath id="clip0_492_271">
<rect width="58" height="45" fill="white"/>
</clipPath>
</defs>
</svg>
