<svg width="48" height="30" viewBox="0 0 48 30" fill="none" xmlns="http://www.w3.org/2000/svg">
<path d="M38.9565 17.1763L39.0627 17.1201C38.1844 14.7396 35.8917 8.51617 34.9289 5.90268L34.181 5.80083C32.6022 5.58521 27.7765 4.9258 25.6515 4.69977C23.1997 4.54685 20.8383 5.74945 18.8997 6.67557C18.1993 6.97607 17.5753 7.4269 17.0732 7.99531C16.9256 8.19574 16.8121 8.41856 16.737 8.65503C16.2615 8.60793 15.7123 8.53086 15.2789 8.45133L13.1273 8.17148L8.65613 20.3098L9.6056 20.4795L11.182 20.8065C10.9874 21.0792 10.8704 21.3984 10.8432 21.731C10.816 22.0635 10.8795 22.3972 11.0272 22.6972C11.3197 23.338 12.185 23.6279 13.0846 23.4765C13.8624 23.3075 14.6063 23.0115 15.2857 22.6009L15.5971 22.4333L14.7371 23.3138C14.4307 23.6107 14.2384 24.0037 14.1932 24.4254C14.148 24.8471 14.2528 25.2711 14.4895 25.6248C14.8532 26.1986 15.7176 26.3638 16.5562 26.1029C17.2764 25.8411 17.9474 25.4624 18.5415 24.9826L18.6715 25.7594C18.3804 26.0236 18.1914 26.3797 18.1369 26.7665C18.0825 27.1534 18.166 27.5469 18.3731 27.8796C18.6907 28.4185 19.4814 28.5962 20.2615 28.3809C20.9324 28.161 21.5615 27.8323 22.123 27.4083C22.3392 27.2302 22.5057 27.0006 22.6069 26.7412L23.0041 26.962C23.7226 27.3441 24.4663 27.6779 25.2302 27.9612C25.8357 28.1627 26.4873 28.1873 27.1066 28.0319C27.3419 27.9766 27.5536 27.8492 27.7112 27.6679C27.8689 27.4867 27.9646 27.2608 27.9845 27.0226V26.8106C28.5108 27.0247 29.6779 27.2211 30.485 26.5525C30.6786 26.3711 30.8199 26.1422 30.8946 25.8891C30.9693 25.6361 30.9746 25.368 30.91 25.1122C30.91 25.1122 30.8871 25.0511 30.8521 24.9593C31.3197 25.2114 31.8598 25.3002 32.3848 25.2114C32.9099 25.1226 33.3893 24.8614 33.7454 24.4699C34.1866 23.9439 34.0695 22.9049 33.3913 22.31L33.4814 22.3712C34.6088 22.7336 35.6484 22.2213 35.9917 21.6512C36.2261 21.285 36.3164 20.8466 36.2455 20.419C36.1747 19.9914 35.9476 19.6043 35.6072 19.331C35.5366 19.2726 35.466 19.2142 35.3945 19.1567C36.8328 18.3276 37.9845 17.6935 38.9565 17.1763Z" fill="white"/>
<path d="M46.77 16.0669L40.1968 18.4305C40.1211 18.4577 40.0408 18.4699 39.9604 18.4665C39.88 18.463 39.801 18.444 39.7281 18.4104C39.6551 18.3768 39.5895 18.3293 39.5352 18.2707C39.4808 18.212 39.4386 18.1434 39.4111 18.0687L34.4934 4.71984C34.4378 4.56888 34.4451 4.40227 34.5138 4.25664C34.5825 4.11102 34.7069 3.9983 34.8597 3.94328L41.2595 1.64206C41.411 1.58751 41.5782 1.59417 41.7248 1.66058C41.8713 1.727 41.9855 1.84782 42.0425 1.99685L47.1337 15.2833C47.1625 15.3583 47.1759 15.4382 47.1732 15.5184C47.1705 15.5985 47.1516 15.6774 47.1178 15.7503C47.0839 15.8232 47.0358 15.8887 46.9761 15.9431C46.9164 15.9974 46.8463 16.0395 46.77 16.0669Z" fill="#54D8CE"/>
<path d="M1.14078 18.7323L7.71402 21.0963C7.78967 21.1235 7.87001 21.1357 7.95045 21.1322C8.03088 21.1287 8.10984 21.1096 8.1828 21.076C8.25576 21.0424 8.32131 20.9949 8.37568 20.9362C8.43006 20.8776 8.47221 20.8089 8.49972 20.7341L13.4173 7.38528C13.4449 7.31056 13.4573 7.23119 13.4539 7.15173C13.4504 7.07227 13.4311 6.99426 13.3971 6.92217C13.3631 6.85007 13.315 6.78531 13.2556 6.73158C13.1963 6.67785 13.1268 6.63621 13.0511 6.60903L6.65124 4.30751C6.49974 4.25304 6.33262 4.25973 6.18608 4.32614C6.03953 4.39254 5.92537 4.51332 5.86832 4.66229L0.777031 17.9487C0.748283 18.0237 0.734899 18.1036 0.737659 18.1838C0.740418 18.264 0.759266 18.3428 0.793106 18.4157C0.826947 18.4886 0.875107 18.5541 0.934791 18.6085C0.994475 18.6628 1.0645 18.7049 1.14078 18.7323Z" fill="#54D8CE"/>
<path d="M46.5723 15.3585L42.2506 16.9125C41.5504 17.1645 40.8337 17.3914 40.1437 17.6701C39.8607 17.7845 40.1814 17.678 40.1245 17.8646C40.1415 17.8083 40.0353 17.6233 40.0161 17.5704L36.4145 7.79539L35.6037 5.59326L35.3483 4.89959C35.3195 4.82191 35.2846 4.60689 35.2202 4.55184C35.2047 4.53869 34.9552 4.68458 35.1421 4.61943C35.3951 4.53104 35.6464 4.43806 35.8984 4.34723L38.6199 3.3685L41.0606 2.49071C41.1123 2.47236 41.4414 2.39223 41.4538 2.34329C41.4318 2.43168 41.3383 2.14724 41.333 2.20841C41.3299 2.239 41.369 2.30231 41.3804 2.33075C41.8526 3.56027 42.3239 4.7901 42.7942 6.02023L44.9864 11.7415L45.8841 14.0843C46.014 14.5228 46.178 14.9507 46.3745 15.3643C46.3894 15.3962 46.402 15.4291 46.4123 15.4628C46.4178 15.4762 46.6166 15.3294 46.3949 15.43C46.226 15.5294 46.1033 15.6904 46.0535 15.8783C46.0036 16.0662 46.0305 16.266 46.1284 16.4344C46.231 16.5991 46.394 16.7183 46.5833 16.7674C46.7726 16.8164 46.9738 16.7915 47.145 16.6978C47.4425 16.5548 47.6771 16.3098 47.8051 16.0085C47.9331 15.7072 47.9457 15.3701 47.8407 15.0603C47.7998 14.9333 47.7444 14.8088 47.6964 14.6844L47.0079 12.8872L44.7743 7.05798L42.9614 2.32922C42.736 1.74077 42.5364 1.11255 41.8346 0.919559C41.1891 0.742472 40.4269 1.16118 39.8353 1.37405C38.1327 1.98575 36.4225 2.57574 34.7298 3.20916C34.5409 3.26712 34.3664 3.36345 34.2174 3.49197C34.0684 3.62048 33.9483 3.77834 33.8647 3.95542C33.7811 4.13251 33.7359 4.32489 33.732 4.52025C33.728 4.71561 33.7655 4.90962 33.8419 5.08983L34.4159 6.64722L38.38 17.408C38.4918 17.7573 38.6218 18.1007 38.7695 18.4368C38.9157 18.7305 39.1646 18.9618 39.4702 19.0879C39.7759 19.214 40.1174 19.2265 40.4316 19.1229C40.6625 19.0525 40.8885 18.9586 41.1154 18.8782L46.5457 16.9253L46.9673 16.7739C47.1546 16.7178 47.3128 16.5928 47.4094 16.4248C47.5061 16.2567 47.5336 16.0584 47.4865 15.8708C47.4326 15.684 47.3065 15.5256 47.1355 15.4298C46.9645 15.3339 46.7623 15.3083 46.5723 15.3585Z" fill="#211715"/>
<path d="M0.94338 19.4401L5.57154 21.1042C6.20648 21.3324 6.83895 21.596 7.48503 21.7924C7.83055 21.9012 8.2055 21.8717 8.52924 21.7103C8.85298 21.5488 9.09965 21.2683 9.21619 20.929C9.24714 20.851 9.27438 20.7715 9.30318 20.6932L13.0655 10.4814L13.8601 8.32457C14.034 7.96844 14.1481 7.58676 14.1979 7.19445C14.2072 6.13865 13.2072 5.88633 12.4076 5.59822L9.47004 4.54181L7.07825 3.68176C6.89381 3.59963 6.69386 3.55699 6.49155 3.55664C6.28924 3.55629 6.08915 3.59824 5.90442 3.67973C5.71969 3.76122 5.5545 3.88041 5.41971 4.02946C5.28492 4.17852 5.18358 4.35406 5.12235 4.54456C4.63105 5.79121 4.16266 7.04734 3.68406 8.29827L1.38081 14.3088C0.947403 15.4435 0.433198 16.5761 0.0678977 17.7344C-0.0347632 18.0437 -0.0206225 18.3792 0.107705 18.679C0.236032 18.9788 0.46987 19.2225 0.765994 19.3652C0.937445 19.4578 1.13827 19.4822 1.32731 19.4332C1.51634 19.3842 1.67926 19.2657 1.78264 19.1018C1.88059 18.9334 1.90754 18.7336 1.85767 18.5457C1.8078 18.3577 1.68511 18.1967 1.5161 18.0974C1.29444 17.9968 1.49226 18.1457 1.49876 18.1301C1.51424 18.0928 1.52508 18.0534 1.5421 18.0167C1.61671 17.8573 1.66964 17.6839 1.73249 17.52L2.45411 15.6365L4.59669 10.0456L6.34022 5.49515L6.5368 4.98223C6.6436 4.70452 6.48077 5.0639 6.45414 5.01435C6.48944 5.08011 6.821 5.14617 6.88755 5.17033L7.92185 5.54225C9.54 6.12336 11.1532 6.7213 12.7766 7.28804C12.9416 7.34554 12.7125 7.20668 12.6887 7.22106C12.629 7.25715 12.5754 7.52875 12.5522 7.59144L11.9271 9.288L8.12586 19.6095L7.88625 20.2601C7.8686 20.3078 7.77077 20.4797 7.78625 20.5311C7.73115 20.3503 8.05497 20.4393 7.74291 20.328L6.91139 20.0289L1.72289 18.1632L1.3384 18.0249C1.14843 17.975 0.946198 18.0007 0.775228 18.0966C0.604259 18.1924 0.478214 18.3508 0.42422 18.5375C0.376138 18.7251 0.403316 18.9237 0.500074 19.092C0.596832 19.2602 0.755676 19.3849 0.94338 19.4401Z" fill="#211715"/>
<path d="M24.1136 12.0136C24.2709 12.0717 23.9393 11.9182 24.1226 12.0188C24.1771 12.0494 24.234 12.0748 24.2885 12.1044C24.4414 12.1879 24.5894 12.28 24.7359 12.3739C25.1745 12.6544 25.6005 12.955 26.0271 13.2526C27.4446 14.2423 28.8718 15.2186 30.2838 16.2157C31.9476 17.3419 33.5494 18.5551 35.0822 19.8501C35.2948 20.0131 35.4472 20.2407 35.5156 20.4979C35.5519 20.7437 35.5078 20.9946 35.3896 21.2139C35.2106 21.4516 34.9594 21.6266 34.6727 21.7133C34.3859 21.8001 34.0786 21.7941 33.7956 21.6962C33.4762 21.5178 33.1731 21.3126 32.8895 21.0827C32.5285 20.8368 32.1683 20.5901 31.8087 20.3425C31.1642 19.8994 30.5209 19.4543 29.8788 19.0072C29.7083 18.9106 29.5062 18.8841 29.3161 18.9333C29.126 18.9826 28.9631 19.1037 28.8625 19.2705C28.7671 19.4396 28.7416 19.6385 28.7913 19.8257C28.8409 20.0129 28.962 20.1739 29.129 20.2749C30.42 21.1769 31.6964 22.1489 33.0455 22.964C33.9005 23.4805 35.2401 23.2334 36.0085 22.6743C36.3346 22.434 36.5963 22.1183 36.7706 21.7551C36.9449 21.3918 37.0265 20.9919 37.0084 20.5903C36.9545 19.4626 36.1793 18.8377 35.3574 18.1792C34.4541 17.4556 33.5341 16.7529 32.5975 16.071C30.9302 14.8476 29.217 13.6909 27.5233 12.5057C26.5775 11.8439 25.6101 11.0043 24.5105 10.5978C24.3205 10.5477 24.1182 10.5734 23.9472 10.6692C23.7762 10.7651 23.6502 10.9236 23.5963 11.1104C23.5483 11.2981 23.5755 11.4968 23.6722 11.6651C23.769 11.8334 23.9278 11.9582 24.1155 12.0136H24.1136Z" fill="#211715"/>
<path d="M22.6283 27.596C23.0425 27.8239 23.4743 28.0242 23.9071 28.2144C24.4021 28.4611 24.9243 28.6503 25.4634 28.7784C26.1978 28.9479 26.9676 28.8847 27.6635 28.5977C27.9669 28.4527 28.2255 28.2301 28.4124 27.9531C28.5993 27.676 28.7078 27.3546 28.7266 27.0222C28.726 26.8277 28.6475 26.6414 28.5083 26.5039C28.3691 26.3664 28.1805 26.2888 27.9836 26.2882C27.7881 26.2931 27.602 26.372 27.4637 26.5086C27.3255 26.6452 27.2456 26.8291 27.2407 27.0222C27.2496 26.9253 27.2521 26.9396 27.2348 27.0274C27.2252 27.0742 27.1657 27.1721 27.2382 27.0455C27.2184 27.0803 27.1982 27.1158 27.1793 27.1507C27.0945 27.3076 27.2298 27.099 27.1595 27.173C27.1239 27.2109 27.0509 27.2672 27.1335 27.2079C27.0851 27.2424 27.0339 27.273 26.9806 27.2996C26.8763 27.3525 27.1252 27.2651 26.9082 27.3253C26.8574 27.3394 26.8069 27.3538 26.7555 27.3651C26.7521 27.3651 26.5698 27.3957 26.6138 27.3917C26.6679 27.3859 26.4837 27.399 26.4633 27.3996C26.3214 27.4041 26.1794 27.4007 26.0379 27.3895C25.9498 27.3828 25.8624 27.3689 25.7767 27.3479C25.651 27.3214 25.527 27.2879 25.4052 27.2476C25.2383 27.1923 25.0752 27.1253 24.9126 27.0598C25.0464 27.1149 24.8021 27.0118 24.752 26.9901C24.6452 26.9436 24.539 26.8959 24.4328 26.8479C24.0765 26.6855 23.7208 26.5185 23.3778 26.3298C23.2935 26.2811 23.2004 26.2494 23.1037 26.2363C23.007 26.2232 22.9087 26.2291 22.8143 26.2535C22.7199 26.278 22.6313 26.3206 22.5536 26.3789C22.4758 26.4372 22.4105 26.51 22.3613 26.5933C22.312 26.6765 22.2799 26.7685 22.2666 26.864C22.2534 26.9595 22.2593 27.0567 22.2841 27.15C22.3089 27.2432 22.352 27.3307 22.411 27.4075C22.47 27.4843 22.5437 27.5489 22.628 27.5975L22.6283 27.596Z" fill="#211715"/>
<path d="M16.7348 7.92094C16.5299 7.90076 16.3256 7.87629 16.1216 7.84937L16.3191 7.87568C16.0374 7.83775 15.756 7.79493 15.4761 7.74385C15.2827 7.69698 15.0784 7.72338 14.9037 7.81787C14.7336 7.91611 14.6099 8.07708 14.56 8.26539C14.51 8.45369 14.5377 8.6539 14.6372 8.82198C14.6851 8.90415 14.749 8.97617 14.8252 9.0339C14.9014 9.09164 14.9883 9.13395 15.0811 9.15841C15.6281 9.25843 16.1813 9.33305 16.7348 9.38811C16.8325 9.38834 16.9293 9.36956 17.0196 9.33282C17.1099 9.29608 17.192 9.24212 17.2611 9.17401C17.4005 9.03635 17.4787 8.84965 17.4787 8.65498C17.4787 8.46031 17.4005 8.27361 17.2611 8.13595L17.1107 8.02126C16.9969 7.95557 16.8675 7.92095 16.7358 7.92094H16.7348Z" fill="#211715"/>
<path d="M38.2031 16.7448C37.1321 17.3206 36.071 17.9131 35.0197 18.5224C34.8495 18.6206 34.7258 18.7816 34.6758 18.9699C34.6258 19.1583 34.6536 19.3585 34.753 19.5266C34.8524 19.6948 35.0154 19.817 35.206 19.8664C35.3966 19.9158 35.5993 19.8884 35.7695 19.7901C36.822 19.1836 37.8823 18.5881 38.9529 18.0125C39.1217 17.9131 39.2442 17.752 39.2941 17.5642C39.3439 17.3763 39.3171 17.1766 39.2194 17.0081C39.1172 16.8431 38.9543 16.7235 38.7649 16.6744C38.5754 16.6253 38.3741 16.6505 38.2031 16.7448Z" fill="#211715"/>
<path d="M32.8625 22.8272C33.0002 22.9432 33.1092 23.0887 33.1811 23.2527C33.2249 23.3708 33.2522 23.4943 33.2622 23.6197C33.2768 23.7366 33.2558 23.8552 33.2019 23.9603C33.1479 24.0654 33.0635 24.1522 32.9594 24.2097C32.6962 24.4088 32.3723 24.5135 32.0409 24.5066C31.9457 24.5085 31.8505 24.5045 31.7558 24.4947C31.7022 24.4898 31.7022 24.4898 31.7558 24.4947C31.7047 24.4858 31.6539 24.4754 31.6032 24.4641C31.5179 24.4439 31.4338 24.4188 31.3515 24.3889C31.3017 24.3705 31.3054 24.3724 31.3623 24.395C31.3211 24.3758 31.2798 24.3555 31.2385 24.3338C30.5457 23.9512 29.885 23.4961 29.217 23.0737C28.635 22.7067 28.0523 22.3382 27.4768 21.9601C27.3926 21.9107 27.2992 21.8782 27.2022 21.8645C27.1052 21.8508 27.0063 21.8563 26.9114 21.8805C26.8165 21.9047 26.7274 21.9473 26.6493 22.0057C26.5711 22.0641 26.5054 22.1372 26.4559 22.2208C26.4064 22.3044 26.3742 22.3969 26.3611 22.4928C26.3479 22.5888 26.3541 22.6864 26.3794 22.78C26.4046 22.8735 26.4483 22.9613 26.5079 23.0381C26.5676 23.1149 26.6421 23.1793 26.727 23.2276C27.8886 23.9922 29.069 24.7299 30.2531 25.4603C30.8804 25.8623 31.6297 26.036 32.3725 25.9515C33.2607 25.8438 34.2061 25.36 34.5733 24.5109C34.7515 24.0444 34.7838 23.5357 34.6659 23.0509C34.5481 22.566 34.2855 22.1273 33.9123 21.7916C33.2136 21.1475 32.1607 22.1834 32.8616 22.8297L32.8625 22.8272Z" fill="#211715"/>
<path d="M24.602 25.5656C25.2608 25.9937 25.9211 26.4219 26.5873 26.8391C27.0957 27.2168 27.6717 27.4962 28.2851 27.6625C29.1152 27.8614 29.9912 27.7272 30.7214 27.2893C31.1027 27.0354 31.3945 26.6705 31.5565 26.2454C31.7186 25.8203 31.7427 25.3559 31.6257 24.9165C31.3393 24.0186 29.9041 24.4021 30.1927 25.3068C30.2182 25.3959 30.2246 25.4893 30.2114 25.581C30.1983 25.6727 30.1658 25.7607 30.1162 25.8393C30.0106 26.001 29.8525 26.1225 29.6679 26.184C29.1417 26.3602 28.825 26.2641 28.2748 26.1378C28.1361 26.1072 28.3897 26.2121 28.2748 26.1399C28.2439 26.1204 28.2083 26.1051 28.1761 26.087C28.0721 26.0286 27.9708 25.9629 27.869 25.9008C27.5904 25.7301 27.3118 25.5558 27.0331 25.3808C26.4697 25.0242 25.909 24.6633 25.3509 24.2981C25.2666 24.2495 25.1735 24.2177 25.0768 24.2046C24.9801 24.1915 24.8818 24.1973 24.7874 24.2218C24.693 24.2462 24.6044 24.2888 24.5266 24.3471C24.4489 24.4054 24.3835 24.4782 24.3343 24.5614C24.285 24.6447 24.2528 24.7367 24.2396 24.8322C24.2263 24.9278 24.2322 25.0249 24.257 25.1182C24.2817 25.2115 24.3248 25.299 24.3838 25.3758C24.4428 25.4526 24.5165 25.5172 24.6008 25.5659L24.602 25.5656Z" fill="#211715"/>
<path d="M24.23 9.66446C23.631 9.79628 23.0372 9.95165 22.4487 10.1217C21.789 10.3122 21.1834 10.4618 20.7745 11.0478C20.1092 12.0015 19.4774 12.9783 18.8149 13.9341C18.7119 14.1036 18.5578 14.2369 18.3741 14.3153C18.1905 14.3936 17.9866 14.4131 17.7911 14.3709C17.5818 14.3342 17.3951 14.2186 17.2704 14.0485C17.1769 13.9365 17.1299 13.7937 17.1388 13.6488C17.1243 12.5566 17.158 11.4589 17.2379 10.3694C17.2471 9.92192 17.2996 9.4763 17.3949 9.03869C17.5358 8.55578 17.8513 8.1408 18.2815 7.87248C18.8079 7.53523 19.3613 7.24094 19.9362 6.99255C20.4823 6.73227 21.0305 6.4726 21.593 6.24872C22.7852 5.72207 24.0736 5.44108 25.3794 5.42292C26.268 5.47611 27.1533 5.57463 28.0316 5.71807C30.0172 5.96917 32.0007 6.23801 33.9835 6.50869C34.1733 6.55391 34.3734 6.5261 34.5431 6.4309C34.7129 6.3357 34.8397 6.18024 34.8977 5.99608C34.9487 5.80838 34.9228 5.60836 34.8257 5.43937C34.7285 5.27037 34.5678 5.14601 34.3785 5.09321C32.3997 4.82315 30.4206 4.55492 28.4393 4.30167C27.4923 4.17933 26.5366 4.02365 25.5834 3.96279C24.1099 3.86889 22.6155 4.27415 21.2596 4.80938C20.5949 5.0715 19.9442 5.36573 19.2991 5.67188C18.6856 5.93593 18.0946 6.24818 17.5317 6.60564C16.9487 6.96618 16.4774 7.47833 16.1696 8.08596C15.939 8.66964 15.8105 9.28781 15.7897 9.91403C15.6944 11.0359 15.6603 12.1593 15.655 13.2848C15.6254 13.6154 15.6632 13.9486 15.7661 14.2645C15.869 14.5805 16.0349 14.8729 16.2541 15.1245C16.4844 15.3676 16.7649 15.5589 17.0767 15.6855C17.3884 15.8122 17.724 15.8712 18.0608 15.8585C19.6953 15.8145 20.4024 14.2357 21.1989 13.0615C21.3888 12.782 21.5782 12.5021 21.767 12.222C21.858 12.0473 21.9683 11.8832 22.0961 11.7326C22.0729 11.7534 21.9908 11.8057 22.063 11.7767C22.1657 11.7351 22.2775 11.7081 22.3837 11.6757C23.122 11.4485 23.8696 11.2475 24.625 11.0815C25.5578 10.8759 25.1631 9.46045 24.23 9.66568V9.66446Z" fill="#211715"/>
<path d="M18.1456 25.2399C17.6895 25.6819 17.4161 26.2759 17.3788 26.9061C17.3633 27.2183 17.4118 27.5303 17.5214 27.8235C17.6309 28.1167 17.7994 28.3849 18.0165 28.6122C18.9128 29.4814 20.2817 29.2493 21.3021 28.7608C21.5298 28.6497 21.7512 28.5262 21.9652 28.391C22.2699 28.2235 22.5514 28.0179 22.8029 27.7793C23.0901 27.4766 23.291 27.104 23.385 26.6996C23.479 26.2951 23.4628 25.8733 23.338 25.4771C23.2133 25.0808 22.9844 24.7244 22.6748 24.444C22.3651 24.1636 21.9858 23.9693 21.5754 23.881C20.9015 23.7473 20.3062 23.9599 19.6941 24.2247C19.1224 24.4721 18.5986 24.8159 18.1462 25.2408C18.0085 25.3793 17.9313 25.5656 17.9313 25.7598C17.9313 25.954 18.0085 26.1404 18.1462 26.2788C18.2874 26.413 18.4757 26.4879 18.6716 26.4879C18.8675 26.4879 19.0558 26.413 19.1969 26.2788C19.2691 26.2106 19.3428 26.1446 19.4195 26.0813C19.4344 26.0693 19.5434 25.9843 19.4756 26.0357C19.3923 26.0969 19.5715 25.969 19.5635 25.9745C19.7334 25.8579 19.9106 25.7522 20.0941 25.658C20.1774 25.6148 20.2622 25.5751 20.3473 25.5356C20.4789 25.4744 20.3956 25.5127 20.3659 25.5252C20.4099 25.5066 20.4548 25.4894 20.4993 25.4723C20.6012 25.4332 20.7043 25.3971 20.8089 25.3634C20.8529 25.3491 20.8968 25.3344 20.9414 25.3221C20.9668 25.3151 21.151 25.2857 21.0358 25.2964C20.9281 25.3065 21.1597 25.2995 21.1869 25.2998H21.2148C21.2994 25.308 21.2891 25.3065 21.1838 25.2955C21.2209 25.2995 21.2573 25.3077 21.2925 25.32C21.359 25.3377 21.5197 25.4117 21.3776 25.3408C21.4618 25.3836 21.542 25.4286 21.6219 25.4787C21.7336 25.5491 21.6256 25.483 21.6064 25.4653C21.6342 25.4907 21.6633 25.5142 21.6906 25.5399C21.72 25.5764 21.7526 25.6102 21.7881 25.6408C21.867 25.6888 21.7299 25.543 21.7773 25.6228C21.82 25.695 21.8664 25.7641 21.9082 25.8369C21.9352 25.8837 21.929 25.9436 21.8999 25.8149C21.9098 25.8589 21.9268 25.9048 21.941 25.9479C21.9553 25.991 21.9698 26.1229 21.9497 25.9458C21.9547 25.988 21.9578 26.0302 21.9599 26.0724C21.9643 26.1547 21.9599 26.2363 21.9574 26.3171C21.9509 26.4575 21.9534 26.3272 21.9605 26.3006C21.9503 26.3388 21.9444 26.3782 21.9339 26.4165C21.9339 26.4165 21.8757 26.6046 21.9126 26.4978C21.9454 26.4033 21.8816 26.5556 21.8717 26.5749C21.8457 26.6208 21.815 26.663 21.7866 26.7076C21.7308 26.7954 21.8621 26.6437 21.7785 26.7134C21.7432 26.744 21.7144 26.782 21.681 26.8138C21.5881 26.9019 21.8222 26.7281 21.6141 26.8648C21.42 26.9924 21.2268 27.1202 21.0259 27.2383C20.8625 27.3349 20.6956 27.4258 20.5235 27.5068C20.5325 27.5025 20.3263 27.5928 20.4241 27.5524C20.5046 27.5194 20.373 27.5711 20.3548 27.5778C20.2489 27.6166 20.1412 27.6515 20.0316 27.6799C19.9857 27.6919 19.9402 27.7026 19.8938 27.7105C19.8563 27.7182 19.7053 27.7347 19.8523 27.7209C19.7634 27.7296 19.6742 27.7334 19.5849 27.7322C19.5415 27.7322 19.4982 27.7286 19.4548 27.7261C19.309 27.7176 19.4359 27.7212 19.4641 27.728C19.3647 27.7041 19.2691 27.6796 19.1719 27.6481C19.3143 27.6943 19.2245 27.6729 19.1908 27.6509C19.1434 27.6203 19.0939 27.5937 19.0468 27.5625C19.1781 27.6497 19.0945 27.6016 19.07 27.5714C19.0501 27.5526 19.0312 27.5328 19.0134 27.512C18.9781 27.4712 18.989 27.4847 19.0462 27.5524C19.0257 27.5118 19.0025 27.4726 18.9768 27.435C18.8772 27.2594 18.9877 27.5108 18.9282 27.3279C18.9131 27.2814 18.8973 27.2361 18.8868 27.1875C18.8778 27.1517 18.8716 26.9704 18.8691 27.1062C18.8691 27.0609 18.8648 27.0144 18.8651 26.9704C18.8651 26.9315 18.896 26.744 18.8651 26.9015C18.8861 26.806 18.9125 26.7118 18.9443 26.6192C18.9784 26.5134 18.8589 26.7483 18.9632 26.5887C18.9926 26.5434 19.0165 26.4948 19.0465 26.4498C19.0669 26.4192 19.1576 26.3125 19.0663 26.4171C19.109 26.3681 19.1536 26.3213 19.1997 26.2755C19.2697 26.2075 19.3253 26.1266 19.3633 26.0373C19.4014 25.948 19.4212 25.8521 19.4216 25.7552C19.422 25.6583 19.403 25.5623 19.3657 25.4727C19.3283 25.3831 19.2734 25.3017 19.204 25.2332C19.1347 25.1647 19.0523 25.1104 18.9616 25.0735C18.8709 25.0366 18.7737 25.0178 18.6756 25.0182C18.5776 25.0186 18.4805 25.0382 18.3902 25.0758C18.2998 25.1134 18.2178 25.1683 18.149 25.2374L18.1456 25.2399Z" fill="#211715"/>
<path d="M14.2108 22.7943C13.7499 23.2648 13.4761 23.8838 13.4397 24.5376C13.4144 25.1995 13.6559 25.8443 14.1111 26.3305C15.0495 27.2762 16.546 26.9988 17.6094 26.4571C17.8646 26.3244 18.1117 26.1769 18.3492 26.0152C18.67 25.8267 18.9652 25.5985 19.2275 25.3362C19.6496 24.8734 19.8791 24.2701 19.8699 23.6473C19.86 23.0834 19.6574 22.5393 19.295 22.1036C18.9326 21.6678 18.4317 21.3659 17.8737 21.247C17.1527 21.1075 16.5292 21.3366 15.8816 21.6357C15.2593 21.9205 14.6932 22.3125 14.2099 22.7933C14.0703 22.931 13.9918 23.1178 13.9916 23.3126C13.9915 23.5075 14.0696 23.6944 14.209 23.8323C14.3483 23.9702 14.5374 24.0478 14.7346 24.0479C14.9318 24.0481 15.121 23.9709 15.2606 23.8332C15.3364 23.7568 15.4154 23.6824 15.4949 23.6112C15.5311 23.5792 15.5678 23.5479 15.6052 23.5173C15.6268 23.4995 15.7497 23.4053 15.6562 23.4748C15.8361 23.3421 16.0246 23.2212 16.2206 23.113C16.3856 23.0212 16.6373 22.8989 16.7555 22.8478C16.945 22.7658 17.142 22.7019 17.3437 22.6569C17.1815 22.6875 17.3747 22.6624 17.4413 22.6646C17.4806 22.6661 17.5199 22.6692 17.5589 22.6731C17.3858 22.6557 17.5211 22.6695 17.5654 22.6826C17.5942 22.6912 17.8112 22.7572 17.7307 22.7282C17.6242 22.6897 17.8 22.7634 17.8047 22.7658C17.849 22.7891 17.8908 22.816 17.9341 22.8407C17.9694 22.8606 18.0756 22.9444 17.9545 22.8472C17.9855 22.8722 18.0164 22.8979 18.0455 22.9249C18.1047 22.9787 18.1561 23.0389 18.2112 23.0967C18.1155 22.997 18.1827 23.0564 18.2028 23.09C18.2282 23.1322 18.2548 23.1744 18.2808 23.2163C18.2929 23.2356 18.3533 23.3478 18.3087 23.2613C18.2641 23.1747 18.3365 23.3442 18.3434 23.368C18.3507 23.4071 18.3602 23.4457 18.3718 23.4836C18.4112 23.5754 18.3678 23.3179 18.3765 23.5142C18.3802 23.6035 18.3864 23.6919 18.3824 23.7815C18.3805 23.8241 18.3783 23.869 18.3721 23.9115C18.3938 23.7614 18.3743 23.8809 18.3653 23.9072C18.3473 23.9582 18.3321 24.01 18.3198 24.0626C18.3043 24.133 18.3703 23.988 18.3031 24.099C18.2737 24.148 18.2455 24.1975 18.2158 24.2461C18.1539 24.3455 18.2799 24.1755 18.2025 24.2697C18.1502 24.3383 18.0891 24.4 18.0208 24.4532C17.8236 24.6061 17.6081 24.745 17.3967 24.8792C17.2109 24.9961 17.023 25.1065 16.8274 25.2047C16.7719 25.2325 16.7159 25.2582 16.6599 25.2848C16.6435 25.2927 16.5286 25.3389 16.6339 25.297C16.5194 25.343 16.4025 25.383 16.2837 25.4166C16.1865 25.4442 16.0877 25.4661 15.9878 25.4821C16.1091 25.4631 15.9878 25.4821 15.9658 25.4821C15.9061 25.4839 15.8466 25.4885 15.7866 25.4885C15.7398 25.4885 15.6937 25.4885 15.646 25.4839C15.6237 25.4839 15.4823 25.4607 15.5748 25.4784C15.6841 25.4992 15.4733 25.4521 15.4773 25.4533C15.425 25.4399 15.3748 25.4206 15.3225 25.4053C15.2197 25.3747 15.4491 25.4919 15.2999 25.3903C15.2844 25.3796 15.138 25.2934 15.2225 25.349C15.3135 25.4102 15.164 25.2931 15.1606 25.2909C15.0628 25.2123 15.1755 25.3414 15.1451 25.2787C15.1173 25.2209 15.0755 25.1628 15.043 25.1071L15.0058 25.0337C15.0219 25.0747 15.0213 25.0719 15.004 25.0257C14.9819 24.9656 14.9631 24.9044 14.9479 24.8422C14.9433 24.8239 14.917 24.6401 14.9228 24.7226C14.9312 24.8248 14.9228 24.5936 14.9228 24.6058C14.9228 24.5881 14.9355 24.403 14.925 24.4945C14.9132 24.5994 14.9507 24.3822 14.9492 24.3883C14.9631 24.3327 14.9801 24.2785 14.9993 24.2244C15.0386 24.1079 14.9157 24.362 15.0185 24.1801C15.0467 24.1305 15.0724 24.0801 15.1027 24.0317C15.1321 23.9831 15.1641 23.936 15.1987 23.8907C15.1216 23.9895 15.2395 23.8537 15.2606 23.8317C15.4002 23.694 15.4787 23.5073 15.4789 23.3124C15.479 23.1176 15.4009 22.9306 15.2615 22.7927C15.1222 22.6548 14.9331 22.5773 14.7359 22.5771C14.5387 22.5769 14.3495 22.6542 14.2099 22.7918L14.2108 22.7943Z" fill="#211715"/>
<path d="M11.0872 19.8364C10.5901 20.2364 10.2553 20.7997 10.1437 21.4234C10.0322 22.0472 10.1515 22.6897 10.4798 23.2338C11.2163 24.3544 12.7561 24.4055 13.9189 24.0256C15.1111 23.6366 16.5221 22.9925 16.7757 21.64C16.9053 21.0389 16.8162 20.4119 16.524 19.8694C16.2153 19.3336 15.7271 18.9209 15.1436 18.7023C14.4783 18.4429 13.7842 18.5827 13.1245 18.7858C12.4446 18.9844 11.8058 19.3007 11.2377 19.7199C11.0724 19.8224 10.9528 19.9834 10.9033 20.17C10.8538 20.3565 10.878 20.5547 10.9711 20.7243C11.0714 20.8914 11.2343 21.0128 11.4246 21.0621C11.6148 21.1114 11.8171 21.0846 11.9875 20.9876C12.1559 20.8582 12.3327 20.7397 12.5168 20.6331C12.6227 20.5719 12.7306 20.515 12.8403 20.4622C12.8896 20.4383 12.9394 20.4154 12.9896 20.3924C13.0397 20.3695 13.0397 20.3704 13.0026 20.3848L13.0803 20.3542C13.2915 20.2718 13.507 20.2003 13.7257 20.1401C13.8374 20.1095 13.9498 20.0817 14.0629 20.0566C14.1201 20.0437 14.1774 20.0309 14.235 20.0202C14.0852 20.048 14.2768 20.0184 14.313 20.0181C14.3591 20.0181 14.4059 20.0202 14.4501 20.0229C14.3161 20.0147 14.4223 20.0177 14.4551 20.026C14.5441 20.0459 14.6317 20.0719 14.717 20.104C14.5975 20.0554 14.8058 20.1581 14.8461 20.1832C14.8863 20.2083 14.9244 20.2325 14.9606 20.26C14.8486 20.175 15.0151 20.3166 15.0225 20.3212C15.0557 20.3533 15.2024 20.5352 15.1312 20.4337C15.1828 20.5094 15.2304 20.5877 15.2739 20.6683C15.3436 20.7925 15.2916 20.712 15.281 20.6811C15.2959 20.7243 15.312 20.7674 15.3228 20.8114C15.3337 20.8555 15.3451 20.8998 15.3538 20.9448C15.3256 20.7952 15.3538 21.002 15.3538 21.0237C15.3553 21.1181 15.3501 21.2126 15.3383 21.3063C15.3575 21.158 15.3074 21.4109 15.2975 21.4442C15.2848 21.4867 15.2705 21.5299 15.2541 21.5712C15.3021 21.4516 15.2581 21.5571 15.2445 21.5791C15.2213 21.6177 15.1972 21.6577 15.1749 21.6969C15.0903 21.8452 15.2433 21.6467 15.117 21.7718C14.7586 22.0733 14.348 22.3083 13.905 22.4655C13.7966 22.5123 13.5403 22.6043 13.3682 22.6545C13.2633 22.6851 13.1574 22.7116 13.0502 22.734C12.997 22.7453 12.9434 22.756 12.8899 22.7646C12.9827 22.7499 12.8326 22.7695 12.8029 22.7713C12.6843 22.7773 12.5655 22.7773 12.4469 22.7713C12.4277 22.7713 12.3001 22.7542 12.4159 22.7713C12.367 22.764 12.3178 22.7536 12.2698 22.7426C12.176 22.7219 12.0841 22.6938 11.9949 22.6585C12.033 22.6741 12.0902 22.7147 11.9837 22.6465C11.9367 22.6159 11.8872 22.5909 11.8404 22.5603C11.7475 22.4991 11.9132 22.6328 11.837 22.5542C11.7999 22.5159 11.7596 22.4808 11.7253 22.4398C11.8348 22.5707 11.6689 22.3089 11.6791 22.3343C11.5864 22.1408 11.5551 21.9241 11.5894 21.7128C11.5989 21.5904 11.5664 21.8085 11.5943 21.6901C11.6082 21.6317 11.6253 21.5739 11.6398 21.5155C11.6674 21.3932 11.6578 21.45 11.6398 21.4904C11.6678 21.4251 11.7007 21.3619 11.7383 21.3014C11.7624 21.2604 11.7887 21.2216 11.8147 21.1818C11.9172 21.0258 11.7407 21.2384 11.8766 21.1093C11.9633 21.0267 12.0444 20.9445 12.1382 20.8692C12.2763 20.7309 12.3537 20.5445 12.3537 20.3502C12.3537 20.156 12.2763 19.9695 12.1382 19.8312C11.9961 19.6981 11.8075 19.6244 11.6117 19.6254C11.4159 19.6263 11.228 19.7019 11.0872 19.8364Z" fill="#211715"/>
<path d="M9.40824 21.1868L10.601 21.4342C10.7945 21.4818 10.9991 21.4555 11.1738 21.3605C11.258 21.3118 11.3318 21.2473 11.3908 21.1705C11.4498 21.0937 11.4929 21.0061 11.5177 20.9128C11.5424 20.8196 11.5483 20.7224 11.535 20.6268C11.5218 20.5313 11.4896 20.4393 11.4403 20.3561C11.3423 20.191 11.1829 20.0703 10.9961 20.0196L9.80326 19.7722C9.60985 19.7245 9.40534 19.751 9.23086 19.8462C9.06074 19.9445 8.93709 20.1054 8.8871 20.2937C8.83711 20.482 8.86489 20.6822 8.96431 20.8503C9.06206 21.0155 9.22143 21.1363 9.40824 21.1868Z" fill="#211715"/>
</svg>
