<svg width="30" height="37" viewBox="0 0 30 37" fill="none" xmlns="http://www.w3.org/2000/svg">
<path d="M2.95838 35.9523H26.5252C26.8136 35.9525 27.0991 35.8963 27.3655 35.7869C27.632 35.6775 27.874 35.5171 28.0779 35.3149C28.2818 35.1126 28.4435 34.8724 28.5538 34.6081C28.6641 34.3437 28.7208 34.0604 28.7206 33.7743C28.7206 25.8837 28.7206 14.1618 28.7206 2.97929C28.7208 2.69314 28.6642 2.40977 28.5539 2.14535C28.4437 1.88093 28.2821 1.64066 28.0782 1.43825C27.8744 1.23585 27.6323 1.07529 27.3659 0.965738C27.0995 0.85619 26.8139 0.799805 26.5255 0.799805H2.95838C2.66992 0.799845 2.38429 0.856259 2.1178 0.965826C1.85131 1.07539 1.60918 1.23597 1.40524 1.43838C1.20129 1.64079 1.03953 1.88108 0.929173 2.14552C0.818821 2.40996 0.762045 2.69338 0.762085 2.97959V33.7716C0.761922 34.0579 0.818608 34.3414 0.928905 34.6059C1.0392 34.8705 1.20095 35.1109 1.40491 35.3134C1.60886 35.5159 1.85103 35.6766 2.11758 35.7862C2.38413 35.8958 2.66984 35.9522 2.95838 35.9523Z" fill="white"/>
<path d="M23.511 5.13428H6.02943C5.92096 5.13432 5.81356 5.15557 5.71338 5.19682C5.61319 5.23808 5.52218 5.29852 5.44555 5.37469C5.36892 5.45087 5.30818 5.54128 5.26679 5.64076C5.2254 5.74025 5.20418 5.84685 5.20435 5.95447V10.7628C5.20427 10.8704 5.22554 10.9769 5.26697 11.0764C5.30839 11.1758 5.36915 11.2661 5.44577 11.3422C5.52239 11.4183 5.61337 11.4787 5.71352 11.5199C5.81367 11.5611 5.92101 11.5824 6.02943 11.5824H23.511C23.6194 11.5826 23.7268 11.5615 23.827 11.5204C23.9273 11.4794 24.0183 11.4191 24.0951 11.343C24.1718 11.267 24.2327 11.1767 24.2742 11.0773C24.3157 10.9779 24.337 10.8714 24.337 10.7638C24.337 9.54533 24.337 7.36307 24.337 5.9554C24.3372 5.84763 24.316 5.74087 24.2746 5.64124C24.2332 5.5416 24.1724 5.45106 24.0957 5.37478C24.0189 5.2985 23.9278 5.238 23.8275 5.19673C23.7271 5.15546 23.6196 5.13424 23.511 5.13428Z" fill="#54D8CE"/>
<path d="M23.511 4.3942H7.66376C6.72808 4.3942 5.49542 4.15778 4.82473 4.96257C4.26556 5.63235 4.45878 6.79098 4.45878 7.60223V10.5458C4.43785 10.8089 4.47856 11.0732 4.57772 11.318C4.67688 11.5629 4.83181 11.7816 5.03038 11.9572C5.3938 12.2291 5.84549 12.3586 6.29908 12.3209H22.4529C23.0148 12.3209 23.6663 12.4103 24.1872 12.1649C25.2052 11.6853 25.0838 10.6047 25.0838 9.66829C25.0838 8.67764 25.0838 7.687 25.0838 6.69635C25.0838 6.19517 25.1459 5.65023 24.8853 5.19559C24.7443 4.95686 24.544 4.7579 24.3036 4.61763C24.0633 4.47736 23.7907 4.40044 23.5119 4.3942C22.5535 4.33532 22.5573 5.81482 23.5119 5.87369C23.693 5.88479 23.5923 7.24777 23.5923 7.45521V10.3988C23.6111 10.5201 23.6111 10.6436 23.5923 10.765C23.5237 10.9283 23.1522 10.8414 22.9844 10.8414H6.70634C6.53797 10.8414 6.17357 10.9191 6.03036 10.8414C5.912 10.777 5.95084 10.6466 5.95084 10.4916V6.51542C5.92366 6.32878 5.92366 6.13924 5.95084 5.9526C6.00986 5.79848 6.27702 5.87461 6.43607 5.87461H23.5128C24.4705 5.87369 24.4721 4.3942 23.511 4.3942Z" fill="#211715"/>
<path d="M2.95727 36.6916H24.5226C25.7481 36.6916 27.1802 36.9111 28.2308 36.1476C28.7685 35.7636 29.1628 35.2136 29.352 34.5836C29.4729 34.0062 29.5113 33.4148 29.466 32.8267C29.466 31.5753 29.466 30.3241 29.466 29.0731C29.466 23.0467 29.466 17.0202 29.466 10.9937C29.466 9.37471 29.466 7.75569 29.466 6.13667V3.70999C29.466 2.99336 29.4747 2.32296 29.1503 1.6652C28.8779 1.11952 28.4374 0.674012 27.8928 0.393147C27.3013 0.130182 26.6539 0.0151419 26.0072 0.0581027H4.47355C3.17255 0.0581027 1.82619 -0.0716613 0.843296 0.948573C0.310915 1.51009 0.0150649 2.25233 0.0163457 3.02326C0.0092008 3.50039 0.0163457 3.97876 0.0163457 4.45559V32.9639C-0.0289494 33.5386 0.0200456 34.1167 0.16142 34.6758C0.360436 35.2571 0.73613 35.763 1.23681 36.1238C1.73749 36.4845 2.33854 36.6825 2.95727 36.6904C3.91718 36.7129 3.91687 35.2334 2.95727 35.2109C2.57331 35.2064 2.20643 35.0527 1.93537 34.7828C1.66432 34.513 1.51069 34.1484 1.50747 33.7675C1.50529 33.6624 1.50747 33.5572 1.50747 33.4521V3.69427C1.50747 3.22484 1.44875 2.70147 1.68858 2.28043C2.25986 1.27776 3.56055 1.53883 4.53537 1.53883H25.3614C26.3116 1.53883 27.4666 1.38811 27.8826 2.46598C27.9601 2.70151 27.9917 2.94953 27.9758 3.19679V6.80059C27.9758 12.8045 27.9758 18.8084 27.9758 24.8125C27.9758 27.3763 27.9758 29.9402 27.9758 32.504C27.9758 33.4333 28.1699 34.6021 27.142 35.0793C26.6903 35.2889 26.1439 35.2118 25.6583 35.2118H2.95727C1.99798 35.2121 1.99643 36.6916 2.95727 36.6916Z" fill="#211715"/>
<path d="M23.7186 14.9387H20.8274C20.696 14.9387 20.5642 14.935 20.4328 14.9387C20.1457 14.9422 19.8666 15.0335 19.6337 15.2001C19.4008 15.3668 19.2253 15.6006 19.1312 15.8698C19.0643 16.1154 19.0407 16.3705 19.0613 16.624V17.5093C19.0613 17.7294 19.0551 17.95 19.0613 18.1698C19.0596 18.4257 19.1298 18.677 19.2641 18.8955C19.3984 19.114 19.5914 19.2911 19.8215 19.4067C20.2598 19.6148 20.7994 19.5507 21.2728 19.5507H23.0811C23.6745 19.5507 24.2774 19.5963 24.7229 19.1105C25.2277 18.5603 25.0826 17.668 25.0826 16.98C25.0826 16.7529 25.0895 16.5245 25.0826 16.2976C25.0765 15.9401 24.9309 15.5988 24.6766 15.3454C24.4223 15.092 24.0789 14.9463 23.7186 14.9387C23.5213 14.94 23.3324 15.0184 23.1929 15.1568C23.0534 15.2953 22.9744 15.4826 22.973 15.6784C22.9771 15.8733 23.057 16.0591 23.196 16.197C23.3349 16.3348 23.5221 16.4141 23.7186 16.4181C23.5117 16.408 23.7745 16.449 23.6707 16.4055C23.5729 16.3642 23.7639 16.5165 23.6285 16.3815L23.608 16.3506C23.5769 16.3046 23.5804 16.3117 23.6186 16.3719L23.5903 16.305C23.6075 16.3761 23.6102 16.3836 23.5984 16.3275C23.5959 16.2351 23.5915 16.3747 23.5915 16.3935V17.864C23.5915 17.9504 23.5881 18.0373 23.5915 18.1233C23.5915 18.1433 23.5915 18.1636 23.5915 18.1849C23.5915 18.1886 23.5915 18.1923 23.5915 18.1957C23.5915 18.2219 23.5959 18.1982 23.6055 18.1242L23.5903 18.1831L23.6186 18.1165C23.5804 18.1765 23.5769 18.1835 23.608 18.1374C23.6474 18.1122 23.7155 17.9932 23.6369 18.098C23.64 18.094 23.7975 18.0234 23.645 18.085C23.6677 18.076 23.6919 18.0713 23.7164 18.0712H20.7963C20.7214 18.0712 20.5043 18.0311 20.4375 18.0712C20.4198 18.0817 20.2635 17.995 20.5052 18.0866C20.3614 18.032 20.5164 18.0992 20.5217 18.1063L20.4726 18.0786C20.5397 18.1353 20.554 18.1448 20.5148 18.1075L20.495 18.0881C20.5521 18.1662 20.5592 18.1704 20.5161 18.1008C20.5239 18.1063 20.59 18.2598 20.536 18.1171C20.5981 18.278 20.5413 18.2049 20.5515 18.1757C20.5607 18.1102 20.5607 18.0438 20.5515 17.9784V16.4829C20.5611 16.424 20.5611 16.3639 20.5515 16.305C20.5459 16.2949 20.4975 16.4425 20.5496 16.3174C20.4825 16.4783 20.535 16.3682 20.5441 16.3408L20.495 16.4024C20.5453 16.3556 20.5482 16.3505 20.5037 16.3873L20.4726 16.4117C20.5455 16.3724 20.5377 16.3743 20.4493 16.4172C20.5211 16.4064 20.5254 16.4311 20.4248 16.4191C20.4307 16.4191 20.4391 16.4169 20.4443 16.4191C20.571 16.4383 20.6998 16.4383 20.8264 16.4191H23.7177C23.9154 16.4191 24.105 16.3411 24.2448 16.2024C24.3847 16.0637 24.4632 15.8755 24.4632 15.6793C24.4632 15.4831 24.3847 15.295 24.2448 15.1562C24.105 15.0175 23.9154 14.9396 23.7177 14.9396L23.7186 14.9387Z" fill="#211715"/>
<path d="M23.7184 27.497H20.843C20.7066 27.497 20.5693 27.4927 20.4329 27.497C20.1456 27.4999 19.8663 27.591 19.6332 27.7577C19.4002 27.9244 19.2248 28.1586 19.1313 28.4282C19.0677 28.6685 19.0441 28.9176 19.0614 29.1655V30.068C19.0614 30.2862 19.058 30.5047 19.0614 30.7229C19.0585 30.9773 19.1267 31.2275 19.2582 31.4458C19.3898 31.6641 19.5798 31.8421 19.807 31.9599C20.2481 32.1778 20.8116 32.109 21.291 32.109H23.1005C23.6882 32.109 24.281 32.1504 24.7243 31.6689C25.2284 31.1193 25.084 30.2255 25.084 29.5381C25.084 29.3113 25.0908 29.0829 25.084 28.856C25.078 28.4984 24.9324 28.1569 24.678 27.9035C24.4236 27.6501 24.0801 27.5044 23.7196 27.497C23.5223 27.4984 23.3335 27.5768 23.194 27.7152C23.0544 27.8537 22.9754 28.041 22.9741 28.2368C22.9783 28.4317 23.0582 28.6174 23.1971 28.7553C23.336 28.8931 23.5232 28.9724 23.7196 28.9765C23.513 28.966 23.7758 29.0074 23.6718 28.9636C23.5742 28.9226 23.765 29.0749 23.6298 28.9395C23.6131 28.9229 23.5457 28.8126 23.6199 28.9312C23.5519 28.8224 23.5873 28.8804 23.6069 28.9235C23.5599 28.8199 23.5929 28.8702 23.5929 28.9543V30.4237C23.5929 30.5069 23.5904 30.5904 23.5929 30.6736C23.5929 30.6967 23.5929 30.7202 23.5929 30.7433C23.5929 30.7917 23.6348 30.5645 23.5929 30.7411C23.6239 30.6178 23.6239 30.6844 23.5901 30.7251C23.6044 30.7075 23.7327 30.5322 23.6395 30.6564C23.6395 30.6564 23.801 30.5722 23.6475 30.6434C23.6976 30.62 23.746 30.6296 23.7202 30.6296H21.4988C21.1453 30.6296 20.7914 30.6296 20.4379 30.6296C20.4227 30.6296 20.391 30.6345 20.4618 30.6363L20.4988 30.6434C20.416 30.6194 20.4187 30.6237 20.5069 30.6564C20.5007 30.648 20.3867 30.5389 20.5153 30.6665C20.6439 30.7941 20.5336 30.681 20.5255 30.6749L20.5538 30.7417C20.5366 30.6707 20.5338 30.6633 20.5454 30.7196C20.5482 30.8093 20.5513 30.7319 20.5525 30.7229C20.5667 30.5332 20.5667 30.3427 20.5525 30.153C20.5744 29.721 20.5744 29.2881 20.5525 28.856C20.5547 28.8767 20.5342 28.9815 20.5507 28.8751L20.5171 28.9469C20.5538 28.8887 20.555 28.8825 20.5205 28.9291L20.496 28.9599C20.5556 28.904 20.5482 28.9072 20.4736 28.9694C20.5013 28.9605 20.6125 28.9078 20.4503 28.975C20.5671 28.9269 20.4637 28.9778 20.4258 28.9768C20.4338 28.9761 20.4418 28.9761 20.4497 28.9768C20.5804 28.9907 20.7123 28.9907 20.843 28.9768H23.7184C23.9161 28.9768 24.1057 28.8989 24.2456 28.7602C24.3854 28.6214 24.4639 28.4333 24.4639 28.2371C24.4639 28.0409 24.3854 27.8527 24.2456 27.714C24.1057 27.5753 23.9161 27.497 23.7184 27.497Z" fill="#211715"/>
<path d="M16.4172 27.497H13.5418C13.4051 27.497 13.2678 27.4927 13.1314 27.497C12.8441 27.4999 12.5648 27.591 12.3317 27.7577C12.0986 27.9244 11.9233 28.1586 11.8298 28.4282C11.7662 28.6685 11.7426 28.9176 11.7599 29.1655V30.068C11.7599 30.2862 11.7565 30.5047 11.7599 30.7229C11.757 30.9773 11.8251 31.2275 11.9567 31.4458C12.0883 31.6641 12.2782 31.8421 12.5055 31.9599C12.9469 32.1778 13.5101 32.109 13.9898 32.109H15.7968C16.3846 32.109 16.9773 32.1504 17.4206 31.6692C17.9244 31.1196 17.78 30.2255 17.78 29.5384C17.78 29.3113 17.7868 29.0829 17.78 28.856C17.7741 28.4984 17.6287 28.1569 17.3743 27.9035C17.1199 27.65 16.7764 27.5043 16.4159 27.497C16.2186 27.4983 16.0297 27.5767 15.8902 27.7151C15.7506 27.8536 15.6717 28.041 15.6704 28.2368C15.6746 28.4317 15.7545 28.6174 15.8934 28.7553C16.0323 28.8931 16.2195 28.9724 16.4159 28.9765C16.209 28.966 16.4718 29.0074 16.3681 28.9636C16.2702 28.9226 16.4613 29.0749 16.3262 28.9395C16.3091 28.9229 16.2417 28.8126 16.3159 28.9312C16.2479 28.8224 16.2833 28.8804 16.3029 28.9235C16.2559 28.8196 16.2889 28.8702 16.2889 28.9528V30.424C16.2889 30.5072 16.2864 30.591 16.2889 30.6739C16.2889 30.6974 16.2889 30.7205 16.2889 30.7439C16.2889 30.7923 16.3308 30.5651 16.2889 30.7417C16.3199 30.6185 16.3199 30.6844 16.2864 30.7254C16.3004 30.7082 16.4299 30.5322 16.3358 30.6564C16.3358 30.6564 16.497 30.5725 16.3439 30.6434C16.3951 30.6197 16.4426 30.6296 16.4169 30.6296H14.1976C13.8437 30.6296 13.4902 30.6296 13.1364 30.6296C13.1212 30.6296 13.0895 30.6345 13.1603 30.6363L13.1973 30.6434C13.1144 30.6194 13.1171 30.6237 13.2054 30.6564C13.1991 30.648 13.0851 30.5389 13.2137 30.6665C13.3424 30.7941 13.2324 30.681 13.224 30.6749L13.2523 30.7417C13.2353 30.6707 13.2326 30.6633 13.2442 30.7196C13.2467 30.8093 13.2498 30.7319 13.251 30.7229C13.2652 30.5332 13.2652 30.3427 13.251 30.153C13.2729 29.721 13.2729 29.2881 13.251 28.856C13.2532 28.8767 13.2327 28.9815 13.2492 28.8751L13.2159 28.9469C13.2523 28.8887 13.2535 28.8825 13.219 28.9291L13.1948 28.9599C13.2542 28.904 13.2467 28.9072 13.1721 28.9694C13.2001 28.9605 13.311 28.9078 13.1488 28.975C13.2656 28.9269 13.1622 28.9778 13.1243 28.9768C13.1322 28.9761 13.1402 28.9761 13.1482 28.9768C13.279 28.9907 13.411 28.9907 13.5418 28.9768H16.4172C16.6149 28.9768 16.8045 28.8989 16.9444 28.7602C17.0842 28.6214 17.1627 28.4333 17.1627 28.2371C17.1627 28.0409 17.0842 27.8527 16.9444 27.714C16.8045 27.5753 16.6149 27.497 16.4172 27.497Z" fill="#211715"/>
<path d="M9.11566 27.497H6.24028C6.1036 27.497 5.9666 27.4927 5.82991 27.497C5.54261 27.4999 5.26324 27.591 5.03019 27.7577C4.79713 27.9244 4.6218 28.1586 4.52829 28.4282C4.46477 28.6685 4.44127 28.9176 4.4587 29.1655V30.068C4.4587 30.2862 4.45498 30.5047 4.4587 30.7229C4.45585 30.9773 4.52398 31.2275 4.65557 31.4458C4.78716 31.6641 4.97706 31.842 5.20426 31.9599C5.6457 32.1778 6.20891 32.109 6.68855 32.109H8.49684C9.08459 32.109 9.67731 32.1504 10.1203 31.6692C10.6242 31.1196 10.4797 30.2255 10.4797 29.5384C10.4797 29.3113 10.4869 29.0829 10.4797 28.856C10.4738 28.4984 10.3284 28.1569 10.074 27.9035C9.81963 27.65 9.47609 27.5043 9.11566 27.497C8.91833 27.4983 8.72944 27.5767 8.58991 27.7151C8.45037 27.8536 8.3714 28.041 8.3701 28.2368C8.3743 28.4317 8.4542 28.6174 8.59312 28.7553C8.73203 28.8931 8.91924 28.9724 9.11566 28.9765C8.90876 28.966 9.17188 29.0074 9.06782 28.9636C8.96996 28.9226 9.16101 29.0749 9.02588 28.9395C9.00879 28.9229 8.94138 28.8126 9.01563 28.9312C8.9476 28.8224 8.98456 28.8804 9.00258 28.9235C8.95598 28.8196 8.9886 28.8702 8.9886 28.9528V30.424C8.9886 30.5072 8.98612 30.591 8.9886 30.6739C8.9886 30.6974 8.9886 30.7205 8.9886 30.7439C8.9886 30.7923 9.03085 30.5651 8.9886 30.7417C9.01967 30.6185 9.01967 30.6844 8.98612 30.7254C9.0001 30.7082 9.12964 30.5322 9.03582 30.6564C9.03582 30.6564 9.19705 30.5725 9.04359 30.6434C9.09484 30.6197 9.14268 30.6296 9.11659 30.6296H6.89606C6.54223 30.6296 6.18871 30.6296 5.83488 30.6296C5.81966 30.6296 5.78797 30.6345 5.85911 30.6363L5.89577 30.6434C5.81407 30.6194 5.81655 30.6237 5.90385 30.6564C5.89763 30.648 5.78363 30.5389 5.91223 30.6665C6.04084 30.7941 5.93087 30.681 5.92249 30.6749L5.95076 30.7417C5.93357 30.6707 5.93087 30.6633 5.94268 30.7196C5.94516 30.8093 5.94827 30.7319 5.94982 30.7229C5.96396 30.5332 5.96396 30.3427 5.94982 30.153C5.94982 29.7283 5.99331 29.2789 5.94982 28.856C5.95169 28.8767 5.93118 28.9815 5.94765 28.8751L5.91441 28.9469C5.95107 28.8887 5.952 28.8825 5.91752 28.9291L5.89328 28.9599C5.95272 28.904 5.94527 28.9072 5.87092 28.9694C5.89857 28.9605 6.00947 28.9078 5.84731 28.975C5.96411 28.9269 5.86098 28.9778 5.82277 28.9768C5.83083 28.9761 5.83894 28.9761 5.847 28.9768C5.97772 28.9907 6.10956 28.9907 6.24028 28.9768L9.11566 28.9765C9.31339 28.9765 9.50303 28.8989 9.64285 28.7602C9.78267 28.6214 9.86122 28.4333 9.86122 28.2371C9.86122 28.0409 9.78267 27.8527 9.64285 27.714C9.50303 27.5753 9.31339 27.497 9.11566 27.497Z" fill="#211715"/>
<path d="M23.7186 21.2179H20.8581C20.7165 21.2179 20.5739 21.2133 20.4322 21.2179C20.1369 21.2202 19.8501 21.3159 19.6133 21.4911C19.3766 21.6662 19.2022 21.9117 19.1157 22.1919C19.0649 22.4252 19.0466 22.6644 19.0613 22.9026V23.7876C19.0613 24.0095 19.0551 24.2327 19.0613 24.4543C19.0617 24.7391 19.1507 25.0168 19.3162 25.2495C19.4818 25.4822 19.7158 25.6584 19.9862 25.7541C20.4143 25.8479 20.8547 25.8731 21.2909 25.8287H23.116C23.6984 25.8287 24.284 25.866 24.7217 25.3888C25.2259 24.8389 25.0814 23.9454 25.0814 23.258C25.0814 23.0309 25.0883 22.8028 25.0814 22.5756C25.0754 22.218 24.9299 21.8767 24.6755 21.6234C24.4212 21.37 24.0777 21.2243 23.7174 21.217C23.52 21.2182 23.3312 21.2966 23.1916 21.435C23.0521 21.5735 22.9731 21.7609 22.9718 21.9567C22.9759 22.1516 23.0558 22.3374 23.1947 22.4752C23.3337 22.6131 23.5209 22.6924 23.7174 22.6964C23.5105 22.686 23.7733 22.7273 23.6695 22.6835C23.5717 22.6425 23.7627 22.7948 23.6273 22.6595C23.6105 22.6425 23.5431 22.5322 23.6173 22.6511C23.549 22.5417 23.5847 22.6006 23.6043 22.6431C23.5565 22.5386 23.5903 22.5898 23.5903 22.6739V24.1448C23.5903 24.2277 23.5875 24.3116 23.5903 24.3948C23.587 24.4163 23.587 24.4383 23.5903 24.4598C23.6173 24.5165 23.6242 24.2986 23.5903 24.4623C23.6158 24.3439 23.6214 24.4028 23.5875 24.4463C23.5999 24.4308 23.7366 24.3245 23.6624 24.3621C23.5537 24.417 23.8255 24.2838 23.645 24.3646C23.645 24.3646 23.7205 24.3504 23.7177 24.3504H20.8119C20.6902 24.3314 20.5663 24.3314 20.4447 24.3504C20.44 24.3529 20.4307 24.3504 20.4251 24.3504L20.4987 24.3646L20.4394 24.3495L20.5068 24.3775C20.4463 24.3397 20.4392 24.3362 20.4854 24.367C20.5108 24.4059 20.6311 24.4746 20.5254 24.396C20.5292 24.3988 20.6015 24.5554 20.5385 24.404C20.5916 24.5316 20.5431 24.4876 20.5525 24.4555C20.5747 24.2762 20.5747 24.0948 20.5525 23.9155C20.5525 23.4741 20.5786 23.0241 20.5525 22.5833C20.549 22.5263 20.5133 22.7109 20.5459 22.6141C20.5786 22.5174 20.4459 22.7374 20.5562 22.6009C20.5276 22.6386 20.4938 22.6723 20.4559 22.7008C20.5615 22.6148 20.4748 22.7038 20.4394 22.698C20.2247 22.6638 20.8855 22.698 20.4254 22.698C20.4347 22.6971 20.4441 22.6971 20.4534 22.698C20.5876 22.7113 20.7229 22.7113 20.8572 22.698H23.7177C23.9154 22.698 24.1051 22.62 24.2449 22.4813C24.3847 22.3426 24.4632 22.1544 24.4632 21.9582C24.4632 21.762 24.3847 21.5739 24.2449 21.4352C24.1051 21.2964 23.9154 21.2185 23.7177 21.2185L23.7186 21.2179Z" fill="#211715"/>
<path d="M16.4172 21.2179H13.5568C13.4151 21.2179 13.2725 21.2133 13.1309 21.2179C12.8356 21.2202 12.5488 21.3159 12.3121 21.4911C12.0754 21.6663 11.9011 21.9117 11.8146 22.1919C11.7636 22.4252 11.7452 22.6644 11.76 22.9026V23.7876C11.76 24.0095 11.7538 24.2327 11.76 24.4543C11.7604 24.7391 11.8494 25.0168 12.015 25.2494C12.1805 25.4821 12.4144 25.6584 12.6848 25.7541C13.1129 25.8479 13.5534 25.8731 13.9895 25.8287H15.8146C16.397 25.8287 16.9826 25.8663 17.4203 25.3888C17.9242 24.8392 17.7797 23.9454 17.7797 23.2583C17.7797 23.0312 17.7869 22.8028 17.7797 22.5756C17.7737 22.218 17.6282 21.8767 17.3739 21.6234C17.1195 21.37 16.776 21.2243 16.4157 21.217C16.2183 21.2182 16.0295 21.2966 15.8899 21.435C15.7504 21.5735 15.6714 21.7609 15.6701 21.9567C15.6744 22.1516 15.7543 22.3373 15.8932 22.4751C16.0321 22.6129 16.2193 22.6922 16.4157 22.6964C16.2088 22.686 16.4716 22.7273 16.3678 22.6835C16.27 22.6425 16.461 22.7948 16.3259 22.6595C16.3088 22.6425 16.2414 22.5322 16.3156 22.6511C16.2473 22.5417 16.283 22.6006 16.3026 22.6431C16.2548 22.5386 16.2886 22.5898 16.2886 22.6739V24.1451C16.2886 24.2283 16.2861 24.3119 16.2886 24.3951C16.2855 24.4167 16.2855 24.4386 16.2886 24.4601C16.3156 24.5171 16.3225 24.2992 16.2886 24.4626C16.3141 24.3439 16.3197 24.4031 16.2861 24.4466C16.2983 24.4312 16.4352 24.3233 16.361 24.3621C16.2523 24.4173 16.5241 24.2841 16.3436 24.3646C16.3436 24.3646 16.4194 24.3504 16.4166 24.3504H13.5105C13.3889 24.3314 13.2651 24.3314 13.1436 24.3504C13.1386 24.3529 13.1293 24.3504 13.1237 24.3504L13.1973 24.3646L13.138 24.3495L13.2054 24.3775C13.1447 24.3397 13.1376 24.3362 13.184 24.367C13.2095 24.4059 13.3297 24.4746 13.2241 24.396C13.2278 24.3988 13.3002 24.5554 13.2371 24.404C13.2902 24.5316 13.2418 24.4876 13.2511 24.4555C13.2733 24.2762 13.2733 24.0948 13.2511 23.9155C13.2511 23.4741 13.2772 23.0241 13.2511 22.5833C13.248 22.5263 13.2123 22.7109 13.2449 22.6141C13.2775 22.5174 13.1445 22.7374 13.2548 22.6009C13.2263 22.6387 13.1925 22.6723 13.1545 22.7008C13.2601 22.6148 13.1737 22.7038 13.138 22.698C12.9234 22.6638 13.5844 22.698 13.124 22.698C13.1333 22.6971 13.1427 22.6971 13.152 22.698C13.2863 22.7113 13.4216 22.7113 13.5558 22.698H16.4163C16.614 22.698 16.8037 22.62 16.9435 22.4813C17.0833 22.3426 17.1619 22.1544 17.1619 21.9582C17.1619 21.762 17.0833 21.5739 16.9435 21.4352C16.8037 21.2964 16.614 21.2185 16.4163 21.2185L16.4172 21.2179Z" fill="#211715"/>
<path d="M9.11559 21.2177H6.23959C6.10322 21.2177 5.96591 21.2134 5.82922 21.2177C5.53402 21.2204 5.24734 21.3162 5.0107 21.4913C4.77405 21.6664 4.59974 21.9118 4.513 22.1917C4.46043 22.4309 4.44213 22.6762 4.45864 22.9204V23.8309C4.45864 24.0386 4.45273 24.247 4.45864 24.4544C4.45764 24.7094 4.52823 24.9597 4.66249 25.1771C4.79675 25.3945 4.98938 25.5706 5.2188 25.6855C5.66116 25.8957 6.21288 25.8294 6.68972 25.8294H8.49647C9.08421 25.8294 9.67849 25.8711 10.1199 25.3896C10.6241 24.84 10.4797 23.9459 10.4797 23.2588C10.4797 23.032 10.4868 22.8036 10.4797 22.5767C10.4738 22.2191 10.3284 21.8776 10.074 21.6242C9.81956 21.3707 9.47602 21.225 9.11559 21.2177C8.91826 21.219 8.72938 21.2974 8.58984 21.4358C8.4503 21.5743 8.37133 21.7617 8.37003 21.9575C8.37431 22.1523 8.45423 22.338 8.59313 22.4759C8.73204 22.6137 8.9192 22.693 9.11559 22.6972C8.9087 22.6868 9.17182 22.7281 9.06775 22.6843C8.96989 22.6433 9.16095 22.7956 9.02581 22.6602C9.00873 22.6433 8.94132 22.5329 9.01556 22.6519C8.94753 22.5431 8.9845 22.6011 9.00251 22.6442C8.95592 22.5403 8.98853 22.5909 8.98853 22.6735V24.1444C8.98853 24.2273 8.98605 24.3111 8.98853 24.3943C8.98853 24.4175 8.98853 24.4406 8.98853 24.464C8.98853 24.5124 9.03047 24.2852 8.98853 24.4618C9.0196 24.3385 9.0196 24.4048 8.98605 24.4458C9.00034 24.4282 9.12864 24.2526 9.03544 24.3771C9.03544 24.3771 9.19667 24.2926 9.04321 24.3641C9.09353 24.3407 9.142 24.3499 9.1159 24.3499H6.19579C6.11968 24.3499 5.90378 24.3102 5.83668 24.3499C5.8401 24.3481 5.71522 24.3697 5.86433 24.3577L5.90471 24.3654C5.82394 24.3421 5.82933 24.3487 5.92087 24.3851C5.90968 24.3697 5.81897 24.2686 5.93391 24.406C5.84072 24.2951 5.9395 24.4162 5.94323 24.4282C5.88763 24.2572 5.98237 24.5321 5.94323 24.4236C5.91217 24.3438 5.92863 24.5195 5.95193 24.4544C5.96032 24.3939 5.96032 24.3325 5.95193 24.272V23.9147C5.95193 23.4706 5.95566 23.0267 5.95193 22.5829C5.95193 22.5382 5.93733 22.6445 5.93764 22.6445C6.02089 22.467 5.88452 22.7351 5.94013 22.6273C5.97803 22.5539 5.87054 22.6889 5.85501 22.7019C5.89632 22.6692 5.96218 22.671 5.83885 22.6991C5.9802 22.6652 5.84848 22.6991 5.82425 22.6991C5.8323 22.6982 5.84043 22.6982 5.84848 22.6991C5.97917 22.7136 6.11108 22.7136 6.24177 22.6991H9.11777C9.3155 22.6991 9.50514 22.6211 9.64496 22.4824C9.78478 22.3437 9.86332 22.1555 9.86332 21.9593C9.86332 21.7631 9.78478 21.575 9.64496 21.4363C9.50514 21.2975 9.3155 21.2196 9.11777 21.2196L9.11559 21.2177Z" fill="#211715"/>
<path d="M16.4172 14.9389H13.5568C13.4151 14.9389 13.2725 14.9346 13.1309 14.9389C12.8356 14.9414 12.5488 15.0371 12.3122 15.2123C12.0755 15.3874 11.9012 15.6328 11.8146 15.9129C11.7636 16.1463 11.7452 16.3856 11.76 16.624V17.5099C11.76 17.7318 11.7538 17.9546 11.76 18.1766C11.7604 18.4613 11.8495 18.739 12.015 18.9717C12.1805 19.2044 12.4145 19.3806 12.6848 19.4764C13.1129 19.5702 13.5534 19.5954 13.9895 19.5509H15.8158C16.3983 19.5509 16.9839 19.5882 17.4216 19.1108C17.9257 18.5612 17.7813 17.6677 17.7813 16.9803C17.7813 16.7532 17.7884 16.5248 17.7813 16.2979C17.7753 15.9403 17.6299 15.5989 17.3755 15.3454C17.1211 15.092 16.7776 14.9463 16.4172 14.9389C16.2199 14.9403 16.0311 15.0187 15.8916 15.1571C15.752 15.2955 15.6731 15.4829 15.6717 15.6787C15.6759 15.8736 15.7558 16.0593 15.8947 16.1971C16.0336 16.335 16.2208 16.4143 16.4172 16.4184C16.2103 16.4083 16.4731 16.4492 16.3694 16.4058C16.2715 16.3645 16.4626 16.5167 16.3275 16.3817C16.3104 16.3648 16.243 16.2544 16.3172 16.3734C16.2489 16.264 16.2846 16.3229 16.3042 16.3654C16.2563 16.2609 16.2902 16.3121 16.2902 16.3962V17.8668C16.2902 17.95 16.2877 18.0335 16.2902 18.1168C16.2871 18.1383 16.2871 18.1602 16.2902 18.1818C16.3172 18.2388 16.324 18.0209 16.2902 18.1846C16.3156 18.0659 16.3212 18.1251 16.2874 18.1685C16.2998 18.1531 16.4365 18.0453 16.3626 18.0841C16.2535 18.1393 16.5253 18.0061 16.3449 18.0866C16.3449 18.0866 16.4206 18.0727 16.4175 18.0727C16.3865 18.0727 16.3554 18.0727 16.3262 18.0727H13.5117C13.3902 18.0536 13.2664 18.0536 13.1448 18.0727C13.1399 18.0748 13.1306 18.0727 13.125 18.0727L13.1986 18.0866L13.1393 18.0715L13.2067 18.0995C13.1445 18.0619 13.1389 18.0582 13.1852 18.0893C13.2107 18.1279 13.3309 18.1969 13.2253 18.118C13.229 18.1208 13.3014 18.2777 13.2384 18.126C13.2915 18.2539 13.243 18.2098 13.2523 18.1778C13.2745 17.9985 13.2745 17.8171 13.2523 17.6378C13.2523 17.1961 13.2784 16.7464 13.2523 16.3056C13.2492 16.2486 13.2135 16.4329 13.2461 16.3364C13.2787 16.24 13.1458 16.4597 13.2561 16.3232C13.2275 16.361 13.1937 16.3946 13.1557 16.423C13.2613 16.3371 13.175 16.4258 13.1393 16.4203C12.9246 16.3861 13.5857 16.4203 13.1253 16.4203C13.1346 16.4195 13.1439 16.4195 13.1532 16.4203C13.2875 16.4336 13.4228 16.4336 13.5571 16.4203H16.4175C16.5155 16.4203 16.6124 16.4011 16.7029 16.364C16.7933 16.3268 16.8755 16.2723 16.9447 16.2036C17.014 16.1349 17.0689 16.0534 17.1063 15.9636C17.1438 15.8739 17.1631 15.7777 17.1631 15.6805C17.1631 15.5834 17.1438 15.4872 17.1063 15.3974C17.0689 15.3077 17.014 15.2261 16.9447 15.1574C16.8755 15.0888 16.7933 15.0343 16.7029 14.9971C16.6124 14.9599 16.5155 14.9408 16.4175 14.9408L16.4172 14.9389Z" fill="#211715"/>
<path d="M9.11572 14.9389H6.25525C6.1136 14.9389 5.97101 14.9346 5.82935 14.9389C5.53412 14.9414 5.24736 15.0372 5.01069 15.2123C4.77402 15.3875 4.59974 15.6329 4.51313 15.9129C4.46214 16.1464 4.44385 16.3856 4.45877 16.624V17.5099C4.45877 17.7318 4.45224 17.9546 4.45877 18.1766C4.45912 18.4614 4.54815 18.7391 4.7137 18.9718C4.87924 19.2044 5.11321 19.3807 5.38357 19.4764C5.81167 19.5702 6.25217 19.5954 6.6883 19.5509H8.51306C9.09553 19.5509 9.68141 19.5882 10.1188 19.1108C10.623 18.5612 10.4785 17.6677 10.4785 16.9803C10.4785 16.7532 10.4857 16.5248 10.4785 16.2979C10.4727 15.9403 10.3272 15.5988 10.0728 15.3454C9.81845 15.0919 9.47491 14.9462 9.11448 14.9389C8.91717 14.9403 8.72834 15.0187 8.58882 15.1571C8.44929 15.2955 8.3703 15.4829 8.36892 15.6787C8.37312 15.8736 8.45301 16.0593 8.59193 16.1971C8.73085 16.335 8.91806 16.4143 9.11448 16.4184C8.90758 16.4083 9.1707 16.4492 9.06664 16.4058C8.96878 16.3645 9.15983 16.5167 9.0247 16.3817C9.00761 16.3648 8.9402 16.2544 9.01445 16.3734C8.94611 16.264 8.98338 16.3229 9.0014 16.3654C8.95356 16.2609 8.98742 16.3121 8.98742 16.3962V17.8668C8.98742 17.95 8.98494 18.0335 8.98742 18.1168C8.98447 18.1383 8.98447 18.1602 8.98742 18.1818C9.01445 18.2388 9.02128 18.0209 8.98742 18.1846C9.01289 18.0659 9.01849 18.1251 8.98494 18.1685C8.99705 18.1531 9.13374 18.0453 9.0598 18.0841C8.95076 18.1393 9.22258 18.0061 9.0421 18.0866C9.0421 18.0866 9.11789 18.0727 9.11479 18.0727C9.08372 18.0727 9.05266 18.0727 9.02346 18.0727H6.20897C6.08743 18.0536 5.96362 18.0536 5.84209 18.0727C5.83712 18.0748 5.82811 18.0727 5.82221 18.0727L5.89583 18.0866L5.8365 18.0715L5.90391 18.0995C5.84178 18.0619 5.83619 18.0582 5.88278 18.0893C5.90795 18.1279 6.02817 18.1969 5.92255 18.118C5.92628 18.1208 5.99897 18.2777 5.93559 18.126C5.98903 18.2539 5.94025 18.2098 5.94989 18.1778C5.9721 17.9985 5.9721 17.8171 5.94989 17.6378C5.94989 17.1961 5.97598 16.7464 5.94989 16.3056C5.94647 16.2486 5.91074 16.4329 5.94336 16.3364C5.97598 16.24 5.84333 16.4597 5.95361 16.3232C5.92489 16.3609 5.89101 16.3945 5.85296 16.423C5.95858 16.3371 5.87222 16.4258 5.83681 16.4203C5.62215 16.3861 6.2829 16.4203 5.82283 16.4203C5.83203 16.4195 5.84128 16.4195 5.85048 16.4203C5.98476 16.4336 6.12004 16.4336 6.25432 16.4203H9.11479C9.2127 16.4203 9.30965 16.4011 9.4001 16.364C9.49056 16.3268 9.57275 16.2723 9.64198 16.2036C9.71121 16.1349 9.76613 16.0534 9.8036 15.9636C9.84106 15.8739 9.86035 15.7777 9.86035 15.6805C9.86035 15.5834 9.84106 15.4872 9.8036 15.3974C9.76613 15.3077 9.71121 15.2261 9.64198 15.1574C9.57275 15.0888 9.49056 15.0343 9.4001 14.9971C9.30965 14.9599 9.2127 14.9408 9.11479 14.9408L9.11572 14.9389Z" fill="#211715"/>
</svg>
