<svg width="37" height="40" viewBox="0 0 37 40" fill="none" xmlns="http://www.w3.org/2000/svg">
<path d="M29.5946 0.8125H0.823608V38.5906H29.5946V0.8125Z" fill="white"/>
<path d="M22.3719 30.2415L22.6965 26.5386C22.7051 26.4401 22.7244 26.3429 22.7541 26.2485L27.676 29.0685C27.6085 29.1411 27.5332 29.2063 27.4516 29.2629L22.5931 32.6355C22.5523 32.6638 22.5042 32.68 22.4544 32.6821C22.4047 32.6843 22.3554 32.6723 22.3123 32.6476C22.2691 32.6229 22.234 32.5865 22.211 32.5427C22.188 32.4989 22.1781 32.4495 22.1824 32.4002L22.3719 30.2415Z" fill="white"/>
<path d="M31.5296 12.0153C31.3427 12.0486 31.1654 12.122 31.01 12.2303C30.8546 12.3385 30.7249 12.4792 30.63 12.6423L22.8792 25.9623C22.8268 26.0524 22.7848 26.1479 22.7538 26.2471L27.6758 29.0667C27.7469 28.9907 27.8092 28.9069 27.8613 28.817L34.3042 17.745L35.6125 15.4969C35.7858 15.1988 35.8327 14.8446 35.7429 14.5122C35.6531 14.1798 35.4339 13.8964 35.1336 13.7243L32.4155 12.1688C32.1479 12.0151 31.8339 11.9607 31.5296 12.0153Z" fill="#54D8CE"/>
<path d="M22.2525 31.6029L22.4062 29.8491L24.7076 31.169L22.5931 32.6367C22.5523 32.665 22.5042 32.6812 22.4544 32.6834C22.4047 32.6855 22.3554 32.6735 22.3123 32.6488C22.2691 32.6241 22.234 32.5877 22.211 32.5439C22.188 32.5001 22.1781 32.4507 22.1824 32.4015L22.2525 31.6029Z" fill="#211715"/>
<path d="M28.7953 25.8451V38.592L29.5934 37.8H2.00534C1.63387 37.8 1.24276 37.7654 0.872283 37.8C0.855987 37.8 0.839028 37.8 0.823065 37.8L1.62123 38.592V2.35191C1.62123 1.86751 1.66446 1.36199 1.62123 0.877587C1.61923 0.856469 1.62123 0.834361 1.62123 0.811593L0.823065 1.60353H28.4108C28.7826 1.60353 29.1737 1.63818 29.5442 1.60353C29.5606 1.6027 29.577 1.6027 29.5934 1.60353L28.7953 0.811593V14.4243C28.7953 15.4433 30.3916 15.4453 30.3916 14.4243V0.812912C30.3886 0.603807 30.3035 0.404102 30.1545 0.256227C30.0055 0.108352 29.8042 0.0239563 29.5934 0.0209717H4.36491C3.20425 0.0209717 2.03228 -0.0262146 0.872953 0.0209717C0.856324 0.0209717 0.839693 0.0209717 0.823729 0.0209717C0.612981 0.0239563 0.411712 0.108352 0.262675 0.256227C0.113638 0.404102 0.0285788 0.603807 0.0255707 0.812912V33.9473C0.0255707 35.4701 -0.0319634 37.0055 0.0255707 38.5276C0.0255707 38.5491 0.0255707 38.5705 0.0255707 38.592C0.0285788 38.8011 0.113638 39.0008 0.262675 39.1487C0.411712 39.2965 0.612981 39.3809 0.823729 39.3839H26.0519C27.2126 39.3839 28.3849 39.4311 29.5439 39.3839C29.5602 39.3839 29.5771 39.3839 29.5931 39.3839C29.8038 39.3809 30.0051 39.2965 30.1542 39.1487C30.3032 39.0008 30.3883 38.8011 30.3913 38.592V25.8451C30.3913 24.8258 28.7949 24.8241 28.7949 25.8451H28.7953Z" fill="#211715"/>
<path d="M6.90098 10.7377H22.9972C24.0242 10.7377 24.0262 9.15381 22.9972 9.15381H22.5509C21.5239 9.15381 21.5223 10.7377 22.5509 10.7377H22.9972C24.0242 10.7377 24.0262 9.15381 22.9972 9.15381H6.90098C5.87401 9.15381 5.87235 10.7377 6.90098 10.7377Z" fill="#211715"/>
<path d="M6.90098 16.9315H22.9972C24.0242 16.9315 24.0262 15.3477 22.9972 15.3477H22.5509C21.5239 15.3477 21.5223 16.9315 22.5509 16.9315H22.9972C24.0242 16.9315 24.0262 15.3477 22.9972 15.3477H6.90098C5.87401 15.3477 5.87235 16.9315 6.90098 16.9315Z" fill="#211715"/>
<path d="M6.90098 23.1239H15.1995C16.2268 23.1239 16.2285 21.54 15.1995 21.54H14.7535C13.7262 21.54 13.7246 23.1239 14.7535 23.1239H15.1995C16.2268 23.1239 16.2285 21.54 15.1995 21.54H6.90098C5.87401 21.54 5.87235 23.1239 6.90098 23.1239Z" fill="#211715"/>
<path d="M24.9025 30.3642L23.0401 29.298C22.8532 29.1934 22.6326 29.1648 22.4249 29.2182C22.2734 29.2595 22.1376 29.3443 22.0344 29.4619C21.9313 29.5795 21.8654 29.7246 21.8451 29.8792C21.8248 30.0337 21.8508 30.1908 21.9201 30.3308C21.9893 30.4707 22.0986 30.5872 22.2343 30.6658L24.0967 31.7316C24.2834 31.8364 24.5039 31.865 24.7116 31.8114C24.863 31.7701 24.9987 31.6853 25.1018 31.5678C25.2049 31.4503 25.2708 31.3052 25.2912 31.1507C25.3115 30.9962 25.2855 30.8392 25.2164 30.6993C25.1473 30.5594 25.0381 30.4428 24.9025 30.3642Z" fill="#211715"/>
<path d="M34.9943 18.1461C35.4054 17.4399 35.8211 16.7364 36.2271 16.0273C36.3883 15.7712 36.4939 15.4846 36.5372 15.1858C36.5805 14.887 36.5605 14.5825 36.4785 14.2918C36.3965 14.001 36.2543 13.7305 36.061 13.4973C35.8677 13.2642 35.6275 13.0736 35.3558 12.9377C34.548 12.4758 33.7429 12.0072 32.9324 11.5495C32.6871 11.3969 32.4133 11.2946 32.1274 11.249C31.8415 11.2033 31.5493 11.2151 31.2681 11.2836C30.9868 11.3521 30.7224 11.4761 30.4903 11.648C30.2583 11.8199 30.0634 12.0363 29.9173 12.2844C29.2552 13.3542 28.6496 14.4622 28.017 15.5511L24.7206 21.2161L22.3721 25.2527C22.1083 25.6747 21.9436 26.1502 21.8902 26.6439C21.8104 27.4754 21.7438 28.3089 21.671 29.1411L21.4199 32.003C21.3436 32.336 21.3908 32.6851 21.5529 32.9863C22.2989 34.1534 23.6252 32.8837 24.3465 32.3821L27.181 30.4148C27.7031 30.0518 28.2395 29.7344 28.5748 29.1801C28.8189 28.7758 29.05 28.363 29.2875 27.9552L34.8609 18.3767L34.994 18.1457C35.5088 17.2614 34.1293 16.4629 33.6158 17.3462L30.8079 22.1714L27.3074 28.1878C27.2658 28.2591 27.2272 28.3343 27.1816 28.4033C26.9578 28.7435 26.5045 28.9563 26.1716 29.1873L24.147 30.5927L23.1346 31.2952C22.8108 31.5594 22.4628 31.7929 22.095 31.9928L22.4978 31.8845H22.5244L22.8766 32.0881L22.8825 32.1036L22.9916 32.5032C22.9826 32.2075 23.0018 31.9117 23.0488 31.6195L23.2125 29.7575L23.387 27.7645C23.4203 27.3791 23.4226 26.9725 23.4898 26.5927C23.6161 26.2202 23.8015 25.87 24.0389 25.5553L25.5467 22.9637L29.5921 16.0118L30.9949 13.6013C31.2363 13.1862 31.4605 12.5857 32.0434 12.8708C32.5114 13.0998 32.9567 13.3938 33.407 13.6525C33.8393 13.8996 34.3019 14.1233 34.7143 14.4015C35.118 14.6737 34.9803 15.0024 34.7758 15.3515L33.8346 16.9684L33.6145 17.3465C33.1013 18.2309 34.4805 19.0294 34.9943 18.1461Z" fill="#211715"/>
<path d="M22.7046 27.1354L26.9183 29.5491C27.0088 29.6016 27.1088 29.6359 27.2126 29.6501C27.3165 29.6642 27.4221 29.6579 27.5235 29.6316C27.6249 29.6052 27.7201 29.5593 27.8036 29.4964C27.8871 29.4335 27.9573 29.355 28.0103 29.2652C28.0632 29.1754 28.0977 29.0762 28.112 28.9731C28.1262 28.8701 28.1199 28.7653 28.0933 28.6647C28.0667 28.564 28.0205 28.4696 27.9571 28.3868C27.8937 28.3039 27.8146 28.2342 27.7241 28.1817L23.5105 25.768C23.42 25.7155 23.3199 25.6812 23.2161 25.667C23.1122 25.6529 23.0066 25.6592 22.9052 25.6855C22.8038 25.7119 22.7086 25.7578 22.6251 25.8207C22.5416 25.8836 22.4714 25.9621 22.4185 26.0519C22.3656 26.1417 22.331 26.2409 22.3167 26.344C22.3025 26.447 22.3088 26.5518 22.3354 26.6524C22.362 26.7531 22.4083 26.8475 22.4716 26.9303C22.535 27.0132 22.6141 27.0829 22.7046 27.1354Z" fill="#211715"/>
</svg>
