<svg width="42" height="36" viewBox="0 0 42 36" fill="none" xmlns="http://www.w3.org/2000/svg">
<path d="M31.4564 10.9262C28.5698 8.3615 24.4741 6.75168 19.647 6.75168C17.0527 6.72945 14.4816 7.23776 12.0941 8.24492C11.3943 8.57141 11.1678 8.49584 10.9979 8.44902L10.414 8.28755C9.53965 8.02413 8.64788 7.82137 7.74515 7.68076C6.96754 7.55739 6.1811 7.49712 5.39362 7.50056C5.27861 7.50389 5.16606 7.53437 5.0653 7.58949C4.96453 7.6446 4.87846 7.72275 4.81422 7.81746C4.74998 7.91217 4.70942 8.02071 4.6959 8.13408C4.68238 8.24746 4.6963 8.36239 4.7365 8.46936C5.10558 9.48111 6.27565 12.1046 6.27565 12.1046C6.34618 12.2322 6.3757 12.3781 6.36022 12.5227C6.34475 12.6674 6.28502 12.8039 6.18907 12.9139C5.23024 14.0187 3.9303 15.7702 3.66699 16.1629L3.28717 16.729C3.18187 16.885 3.01948 16.9941 2.83444 17.0332C2.51157 17.1017 2.20986 17.1708 1.86649 17.2499C1.67982 17.2786 1.50249 17.3501 1.34866 17.4589C1.18342 17.5917 1.07617 17.7827 1.04923 17.992C0.793733 20.8497 0.541169 23.7541 1.1856 26.5614C1.19864 26.6593 1.24079 26.7512 1.30668 26.8252C1.38652 26.8878 1.48121 26.9291 1.5817 26.945C2.30644 27.123 3.04366 27.2466 3.78709 27.3148C4.03217 27.3374 4.53926 27.3642 4.76123 27.7669L4.78206 27.805C7.158 32.5425 12.5169 35.1133 19.6463 35.1133C31.0824 35.1133 36.0097 29.6319 36.0097 20.8012C36.0004 18.9289 35.5896 17.08 34.8045 15.3774C34.0194 13.6748 32.8781 12.1574 31.4564 10.9262Z" fill="white"/>
<path d="M15.1686 4.06466C14.3504 5.28364 13.9153 6.71619 13.9185 8.18077C13.9166 8.98293 14.05 9.77974 14.3133 10.5382C18.0904 9.69016 23.7949 10.0112 27.8949 11.8848C28.8653 10.2129 29.1423 8.23194 28.667 6.36105C28.1918 4.49016 27.0017 2.87608 25.3485 1.86025C23.6952 0.844427 21.7086 0.506539 19.8088 0.918067C17.909 1.3296 16.245 2.45826 15.1689 4.0653L15.1686 4.06466Z" fill="#54D8CE"/>
<path d="M36.697 18.6058C36.7191 18.5861 36.9498 18.4036 36.8477 18.4766C36.9249 18.4216 37.0051 18.3707 37.0879 18.3242C37.1237 18.3042 37.3765 18.2012 37.1943 18.2651C37.2704 18.2383 37.3459 18.2125 37.4244 18.1928C37.4621 18.1834 37.4999 18.175 37.538 18.1679C37.6262 18.153 37.6135 18.154 37.5002 18.1702C37.5807 18.1516 37.6639 18.1472 37.746 18.1572C37.7961 18.1572 37.8462 18.1608 37.896 18.1656C37.8065 18.1524 37.8055 18.1537 37.8927 18.1689C37.9318 18.1773 37.9702 18.1866 38.0086 18.1976C38.0954 18.2267 38.0767 18.2159 37.9526 18.1653C38.0095 18.2075 38.0716 18.2421 38.1375 18.2683C38.2068 18.3168 38.2026 18.3116 38.1235 18.2531C38.156 18.2796 38.186 18.3071 38.2156 18.3361C38.2454 18.3653 38.2737 18.3961 38.3002 18.4282C38.2416 18.3533 38.236 18.352 38.2833 18.4243C38.2491 18.3313 38.2465 18.3255 38.2748 18.4072C38.2947 18.4947 38.2963 18.4831 38.2794 18.3749C38.2822 18.4126 38.2822 18.4505 38.2794 18.4882C38.2983 18.3754 38.2983 18.3617 38.2794 18.4469C38.2521 18.528 38.2569 18.5173 38.295 18.4146C38.2495 18.4854 38.2577 18.4783 38.3198 18.3933C38.2581 18.451 38.2673 18.4481 38.3471 18.3846C38.2696 18.4276 38.2805 18.4283 38.3796 18.3865C38.2335 18.4291 38.5479 18.4023 38.3471 18.3917C38.2866 18.3885 38.3106 18.3917 38.419 18.4001C38.3373 18.3746 38.3478 18.3817 38.4516 18.422C38.4184 18.4059 38.3866 18.3874 38.3562 18.3665C38.4408 18.4341 38.4527 18.4388 38.3917 18.3807C38.4568 18.4685 38.4676 18.4766 38.4242 18.4049C38.4626 18.4889 38.4662 18.484 38.435 18.3898C38.4408 18.4759 38.4408 18.4734 38.435 18.3823C38.4395 18.2896 38.4373 18.2906 38.4278 18.3846C38.4378 18.3396 38.4507 18.2953 38.4662 18.2519C38.4337 18.3268 38.4369 18.3219 38.4786 18.2373C38.5005 18.1972 38.5248 18.1584 38.5512 18.1211C38.4987 18.1872 38.5018 18.1865 38.5606 18.1191C38.5818 18.1001 38.7917 17.9115 38.6644 18.0116C38.7384 17.9555 38.8152 17.9032 38.8945 17.855C38.9782 17.8017 39.1914 17.6289 39.2955 17.6347C39.1899 17.6778 39.1767 17.6841 39.2561 17.6538C39.2887 17.6418 39.3235 17.6305 39.3574 17.6199C39.4274 17.5983 39.4982 17.5799 39.5696 17.5647C39.6129 17.555 39.8599 17.4894 39.6493 17.545C39.7328 17.53 39.8177 17.5231 39.9025 17.5243C40.0978 17.514 40.2931 17.5169 40.4884 17.5243C40.695 17.5227 40.8928 17.4405 41.0389 17.2955C41.1851 17.1505 41.2679 16.9543 41.2695 16.7492C41.2653 16.545 41.1817 16.3502 41.0361 16.2058C40.8905 16.0613 40.6942 15.9783 40.4884 15.9742C39.6685 15.9065 38.8475 16.0898 38.1359 16.4993C37.7005 16.7391 37.3402 17.0933 37.0944 17.523C36.9546 17.7826 36.8809 18.072 36.8795 18.3663C36.878 18.6606 36.949 18.9507 37.0862 19.2116C37.2212 19.4354 37.4137 19.6196 37.644 19.7454C37.8743 19.8712 38.1341 19.934 38.3969 19.9274C38.6596 19.9208 38.9159 19.8451 39.1395 19.708C39.3632 19.5709 39.546 19.3773 39.6695 19.147C40.1577 18.1424 39.4963 17.1016 38.517 16.7337C37.4827 16.3462 36.3611 16.8222 35.592 17.5088C35.4468 17.6548 35.3655 17.8517 35.3655 18.0568C35.3655 18.2619 35.4468 18.4588 35.592 18.6048C35.7407 18.746 35.9385 18.8247 36.1443 18.8247C36.3501 18.8247 36.5479 18.746 36.6966 18.6048L36.697 18.6058Z" fill="#211715"/>
<path d="M11.227 33.9323C11.265 34.2355 11.4091 34.5158 11.6341 34.7244C11.7492 34.8625 11.8773 34.9892 12.0169 35.1029C12.3512 35.3886 12.7431 35.6002 13.1665 35.7236C13.9342 35.922 14.7439 35.8904 15.4936 35.6328C15.5925 35.6058 15.6851 35.5596 15.766 35.4971C15.847 35.4345 15.9148 35.3568 15.9654 35.2682C16.0161 35.1797 16.0487 35.0821 16.0614 34.9811C16.074 34.88 16.0665 34.7775 16.0392 34.6794C16.012 34.5812 15.9655 34.4894 15.9024 34.409C15.8394 34.3287 15.761 34.2615 15.6718 34.2112C15.5825 34.1609 15.4842 34.1286 15.3824 34.116C15.2805 34.1035 15.1772 34.1109 15.0783 34.138C14.9515 34.182 14.8221 34.2186 14.691 34.2474L14.5894 34.2678C14.5741 34.2704 14.4046 34.2936 14.5383 34.2788C14.66 34.2649 14.536 34.2788 14.5113 34.281C14.4765 34.2846 14.4413 34.2875 14.4062 34.2901C14.2654 34.3006 14.1241 34.3025 13.9831 34.2956C13.9479 34.2936 13.9131 34.2914 13.8783 34.2885C13.8529 34.2865 13.7315 34.2697 13.8526 34.2885C13.9736 34.3072 13.8526 34.2885 13.8288 34.2836C13.7868 34.2765 13.7451 34.2684 13.7035 34.2594C13.6384 34.2448 13.5733 34.2276 13.5082 34.208C13.4757 34.1984 13.446 34.1867 13.4148 34.1758C13.3296 34.1439 13.2353 34.146 13.1516 34.1816C13.068 34.2172 13.0014 34.2835 12.9659 34.3667C12.9304 34.4499 12.9288 34.5435 12.9613 34.6279C12.9938 34.7123 13.0579 34.7809 13.1403 34.8194C13.2226 34.8579 13.3168 34.8633 13.4031 34.8345C13.4893 34.8056 13.561 34.7448 13.6031 34.6647C13.6452 34.5846 13.6544 34.4915 13.6288 34.4048C13.6033 34.3181 13.5449 34.2446 13.4659 34.1996C13.3484 34.1212 13.213 34.066 13.0942 33.9855C12.9933 33.9171 13.1206 33.9855 13.1199 34.0059C13.1199 33.9943 13.0467 33.9442 13.0359 33.9348C12.9748 33.8809 12.9162 33.8241 12.8602 33.7653C12.8117 33.7143 12.7674 33.66 12.7209 33.6074C12.6532 33.5305 12.8042 33.7275 12.7502 33.6439C12.7284 33.61 12.7033 33.5774 12.6809 33.5434L12.7876 33.9348V33.9313C12.7876 33.7257 12.7053 33.5286 12.5588 33.3833C12.4123 33.2379 12.2136 33.1562 12.0065 33.1562C11.7993 33.1562 11.6006 33.2379 11.4541 33.3833C11.3076 33.5286 11.2253 33.7257 11.2253 33.9313L11.227 33.9323Z" fill="#211715"/>
<path d="M25.5194 35.4279C26.4472 35.7985 27.4818 35.8077 28.4161 35.4537C28.8456 35.276 29.2304 35.0068 29.5434 34.6652C29.8563 34.3235 30.0897 33.9178 30.2271 33.4767C30.2802 33.2786 30.2528 33.0677 30.1508 32.8894C30.0488 32.7111 29.8803 32.5797 29.6816 32.5234C29.482 32.4731 29.2705 32.5013 29.0914 32.6022C28.9123 32.7031 28.7795 32.8688 28.7208 33.0647C28.7061 33.1121 28.6882 33.159 28.6736 33.2067C28.6446 33.3098 28.7335 33.0898 28.6853 33.1825C28.6466 33.2578 28.6104 33.333 28.5662 33.4054C28.5424 33.4441 28.5144 33.4803 28.491 33.5193C28.4376 33.6072 28.5828 33.4144 28.5151 33.4906C28.4624 33.55 28.4113 33.6101 28.3546 33.666C28.298 33.7218 28.2388 33.7699 28.1802 33.8213C28.1082 33.8859 28.3126 33.7299 28.1951 33.8084C28.1668 33.8271 28.1392 33.8468 28.1108 33.8652C28.0405 33.9106 27.9684 33.953 27.8944 33.9924C27.8651 34.0079 27.8352 34.0218 27.8062 34.0377C27.6874 34.1022 27.9325 33.9989 27.8387 34.0247C27.6858 34.0677 27.537 34.11 27.3831 34.1452C27.2776 34.1691 27.5315 34.1329 27.4208 34.141C27.372 34.1445 27.3232 34.1507 27.2741 34.1536C27.1826 34.1594 27.0908 34.161 26.999 34.1594C26.9073 34.1578 26.8086 34.1504 26.7133 34.1429C26.6179 34.1355 26.6631 34.1504 26.7263 34.1462C26.6711 34.1426 26.6165 34.1329 26.5636 34.1171C26.3495 34.0737 26.1396 34.0122 25.936 33.9333C25.7363 33.8795 25.5232 33.9061 25.3432 34.0075C25.1633 34.1089 25.031 34.2768 24.9753 34.4746C24.9259 34.6726 24.955 34.8818 25.0565 35.0591C25.158 35.2365 25.3241 35.3685 25.5207 35.4279H25.5194Z" fill="#211715"/>
<path d="M9.57938 15.9443C8.7618 15.9443 8.19678 16.6693 8.19678 17.517C8.19678 18.4987 8.7325 19.1188 9.58068 19.1185C10.4487 19.1185 10.9636 18.4978 10.9633 17.5161C10.963 16.6625 10.3944 15.944 9.57938 15.9443Z" fill="#211715"/>
<path d="M28.4449 9.7285C32.5228 12.0659 35.2557 16.214 35.2278 20.9492C35.2439 22.5738 35.0232 24.1921 34.5726 25.7541C34.4641 26.1175 34.3415 26.476 34.2048 26.8295C34.0849 27.1375 33.9492 27.4393 33.7983 27.7337C33.6282 28.0702 33.4418 28.3982 33.2391 28.7176C33.1456 28.8647 33.0488 29.0094 32.9488 29.1517C32.9026 29.2163 32.8557 29.2814 32.8082 29.347C32.7844 29.3793 32.7604 29.4116 32.7363 29.4439C32.5817 29.6496 32.7779 29.3932 32.6868 29.5085C30.6878 32.0435 27.7253 33.3411 24.5539 33.9327C22.4347 34.3084 20.2778 34.4313 18.1291 34.2986C15.9902 34.2058 13.8796 33.7767 11.8762 33.0275C10.1919 32.3919 8.66395 31.4067 7.39442 30.1379C6.78384 29.5163 6.25309 28.8221 5.81426 28.0711C5.56007 27.6371 5.38464 27.1498 4.94395 26.8608C4.48829 26.5617 3.93889 26.563 3.41586 26.502C3.11448 26.4671 2.81504 26.4171 2.51724 26.3596C2.23738 26.3337 1.96307 26.2661 1.70356 26.159L1.98379 26.4371C1.88341 26.1955 1.82265 25.9395 1.8038 25.6788C1.74847 25.3697 1.70399 25.059 1.67036 24.7469C1.59959 24.0602 1.56364 23.3704 1.56263 22.6801C1.55612 21.3189 1.66027 19.96 1.77874 18.6043C1.77612 18.4225 1.79569 18.241 1.837 18.0637C1.98704 17.9323 2.4414 17.9145 2.63636 17.87C2.933 17.8244 3.22002 17.7306 3.48584 17.5923C3.75926 17.3965 3.9853 17.1428 4.14752 16.8495C4.52572 16.2837 4.93126 15.7383 5.34493 15.1977C5.65847 14.7887 5.97873 14.3841 6.30572 13.9841C6.68457 13.5233 7.13958 13.1012 7.14739 12.4628C7.15455 11.9086 6.74088 11.2356 6.52119 10.7341C6.20483 10.0111 5.90279 9.31902 5.61442 8.58499C5.5748 8.47339 5.52895 8.36407 5.47708 8.25753C5.47708 8.25753 5.46861 8.23913 5.4748 8.24946C5.48098 8.2598 5.40677 8.26981 5.39733 8.27853C5.42988 8.24623 5.65055 8.27594 5.70035 8.27627C6.3418 8.28958 6.98167 8.34503 7.61575 8.44225C8.70054 8.59468 9.73131 8.94248 10.791 9.19695C11.1894 9.29547 11.6087 9.2701 11.992 9.12429C12.7159 8.85884 13.4121 8.54656 14.1519 8.31857C15.1087 8.02341 14.7003 6.52661 13.7366 6.82403C13.2278 6.98065 12.7256 7.15536 12.2326 7.35493C11.995 7.45182 11.7629 7.56484 11.5214 7.64977C11.4586 7.67206 11.3945 7.69046 11.33 7.70726C11.2254 7.72878 11.2207 7.73169 11.3157 7.71597C11.287 7.71791 11.2582 7.71791 11.2295 7.71597C11.1562 7.7544 11.3987 7.76086 11.278 7.72114C11.2509 7.7121 11.2223 7.70693 11.195 7.69821C11.1032 7.6685 11.0078 7.64751 10.915 7.62232C10.572 7.529 10.2296 7.43309 9.88624 7.34202C8.84755 7.06975 7.78803 6.88278 6.71842 6.78302C5.76967 6.69034 4.57552 6.55277 4.07332 7.56C3.71953 8.26851 4.08959 8.9667 4.36429 9.62677C4.63215 10.2726 4.90913 10.9133 5.18936 11.5531C5.27561 11.7504 5.61605 12.3217 5.5949 12.477C5.61377 12.3381 5.38724 12.6607 5.35046 12.705C5.22353 12.857 5.0979 13.0103 4.97357 13.1648C4.67836 13.5307 4.38772 13.9018 4.10196 14.2744C3.73157 14.7556 3.35891 15.2384 3.01553 15.7396C2.91171 15.8914 2.80235 16.1917 2.651 16.2834C2.46805 16.3463 2.27813 16.3871 2.08534 16.4048C1.8328 16.4523 1.58362 16.516 1.33935 16.5954C0.151383 17.0333 0.236008 18.3237 0.151385 19.371C0.0644841 20.4457 -0.00191084 21.523 4.19876e-05 22.6019C-0.00200084 23.7191 0.0886757 24.8345 0.271157 25.9369C0.350898 26.4096 0.39451 27.0135 0.757085 27.3733C1.11966 27.733 1.77223 27.7931 2.25002 27.879C2.75971 27.9717 3.27396 28.0372 3.7895 28.0879C4.02156 28.1105 4.05867 28.0989 4.20187 28.3728C4.52419 28.9845 4.90015 29.567 5.3254 30.1134C9.41495 35.3969 16.9294 36.4283 23.1918 35.6901C25.9606 35.364 28.7522 34.6309 31.0865 33.064C33.1141 31.6978 34.6867 29.7644 35.6047 27.5096C36.6053 24.996 36.9923 22.2832 36.734 19.5928C36.3702 15.9434 34.5998 12.5745 31.7924 10.1893C30.9981 9.51146 30.1414 8.90912 29.2336 8.39026C28.3613 7.89036 27.5737 9.22989 28.4449 9.7285Z" fill="#211715"/>
<path d="M14.8697 9.66461C14.6314 8.63303 14.6445 7.55995 14.9079 6.53439C15.1713 5.50884 15.6773 4.56038 16.384 3.76771C17.0908 2.97504 17.9778 2.36101 18.9716 1.97656C19.9654 1.59211 21.0372 1.44833 22.0982 1.55714C23.1592 1.66595 24.1787 2.02422 25.0722 2.60223C25.9657 3.18024 26.7074 3.96131 27.2358 4.88066C27.7642 5.8 28.064 6.83111 28.1104 7.88843C28.1568 8.94575 27.9484 9.9988 27.5025 10.9602C27.4038 11.139 27.3778 11.3485 27.4299 11.5457C27.482 11.7428 27.6083 11.9127 27.7828 12.0204C27.962 12.1226 28.1746 12.1507 28.3746 12.0987C28.5746 12.0467 28.7459 11.9187 28.8516 11.7424C29.7749 9.84241 29.9257 7.66273 29.2728 5.6554C28.6198 3.64807 27.2132 1.96713 25.3446 0.96122C23.5739 0.0328626 21.5262 -0.234157 19.5739 0.208714C17.6215 0.651586 15.8942 1.77494 14.706 3.3745C14.0125 4.33161 13.5339 5.42505 13.3023 6.58116C13.0707 7.73728 13.0916 8.92922 13.3634 10.0767C13.587 11.049 15.0936 10.6373 14.8697 9.66461Z" fill="#211715"/>
<path d="M23.8995 5.25433L23.9447 5.27306L23.7579 5.19491C23.9523 5.2788 24.1357 5.38583 24.304 5.51365L24.1458 5.39255C24.3368 5.54077 24.5083 5.71206 24.6565 5.90246L24.5345 5.74583C24.7112 5.97745 24.8581 6.23012 24.9716 6.49795L24.8931 6.31258C24.9107 6.35521 24.928 6.39784 24.9446 6.44176C25.0042 6.63363 25.1313 6.79793 25.3026 6.90484C25.485 7.00864 25.7015 7.03672 25.9047 6.98299C26.1006 6.92868 26.2678 6.80142 26.3714 6.62777C26.425 6.53889 26.4597 6.44003 26.4732 6.33732C26.4868 6.23461 26.4789 6.13024 26.4502 6.03066C26.2601 5.51319 25.9729 5.03611 25.604 4.62461C25.4252 4.43571 25.2266 4.26629 25.0116 4.11922C24.7933 3.97356 24.5587 3.85359 24.3125 3.76173C24.212 3.73426 24.107 3.72702 24.0036 3.74044C23.9003 3.75386 23.8007 3.78767 23.7107 3.83988C23.5318 3.9436 23.4018 4.11357 23.3493 4.31239C23.2967 4.51122 23.3259 4.72261 23.4305 4.90007L23.5525 5.05702C23.648 5.15207 23.7668 5.22075 23.8972 5.25627L23.8995 5.25433Z" fill="#211715"/>
<path d="M29.8413 12.0502C27.8513 10.8635 25.6474 10.0728 23.3527 9.72218C21.1017 9.3187 18.8063 9.2166 16.5279 9.41862C15.2751 9.51883 14.0379 9.76055 12.8403 10.1391C11.8922 10.4546 12.2987 11.9524 13.2556 11.6339C15.2087 11.038 17.2508 10.7807 19.2921 10.8731C21.4866 10.9064 23.665 11.251 25.7612 11.8965C26.9185 12.2516 28.0249 12.7531 29.053 13.3888C29.9051 13.9239 30.6895 12.583 29.8413 12.0502Z" fill="#211715"/>
</svg>
