<svg width="46" height="34" viewBox="0 0 46 34" fill="none" xmlns="http://www.w3.org/2000/svg">
<path d="M5.37484 8.59317C5.37484 6.22017 5.37311 4.02126 5.37259 2.34534C5.37236 2.13964 5.41249 1.9359 5.49066 1.74579C5.56884 1.55568 5.68354 1.38292 5.82821 1.23738C5.97288 1.09184 6.14467 0.976388 6.33377 0.897616C6.52287 0.818843 6.72556 0.778298 6.93027 0.778298C13.5966 0.776385 32.6234 0.770471 38.2061 0.768558C38.4109 0.768123 38.6137 0.808302 38.803 0.88679C38.9923 0.965278 39.1643 1.08053 39.3092 1.22595C39.454 1.37137 39.5689 1.54408 39.6472 1.7342C39.7256 1.92432 39.7658 2.1281 39.7656 2.33386C39.7675 7.79991 39.7714 17.5502 39.7733 23.6742C41.3411 26.0989 42.9082 28.5238 44.4748 30.949C44.639 31.2033 44.7264 31.5 44.7262 31.8032C44.7262 32.0044 44.7262 32.2089 44.7262 32.4044C44.7259 32.7158 44.6025 33.0143 44.3832 33.2343C44.1639 33.4543 43.8666 33.5778 43.5568 33.5775H1.59107C1.28138 33.5776 0.984309 33.4542 0.76506 33.2344C0.545812 33.0145 0.422292 32.7163 0.421604 32.4051C0.421604 32.1578 0.4197 31.9336 0.418835 31.6609C0.41765 31.3507 0.507993 31.0471 0.678447 30.7885C2.24662 28.4124 3.81376 26.0366 5.37986 23.6611C5.37917 20.6765 5.37674 14.1563 5.37484 8.59317Z" fill="white"/>
<path d="M34.826 2.94179C27.4639 2.94422 12.3422 2.94996 7.7583 2.95101C7.76038 8.21373 7.76401 14.4697 7.76626 20.1271V21.5496C13.0172 21.5475 32.291 21.5402 37.387 21.5388C37.3848 15.8472 37.381 7.72032 37.3791 2.94092L34.826 2.94179Z" fill="white"/>
<path d="M38.3326 25.8603C37.8862 25.0394 37.444 24.2254 37.1436 23.6724H8.76218C8.18723 24.7653 6.98453 27.059 6.3374 28.2735H39.6443C39.326 27.6888 38.8271 26.7694 38.3326 25.8603Z" fill="#54D8CE"/>
<path d="M16.6055 29.4583C16.4335 30.2445 16.2191 31.236 16.1012 31.8237C18.3842 31.8237 26.4255 31.8237 29.1164 31.8237C28.9261 30.8835 28.4906 28.903 28.3776 28.3957C28.3776 28.3957 28.3675 28.3505 28.3516 28.2739H16.8671L16.8399 28.3957C16.7975 28.5854 16.7092 28.9846 16.6055 29.4583Z" fill="white"/>
<path d="M5.79021 8.59247L5.78813 2.66501C5.78813 2.31281 5.78432 1.99384 5.98907 1.69104C6.07595 1.56429 6.18723 1.45633 6.31634 1.37352C6.44544 1.29071 6.58975 1.23475 6.74073 1.20892C6.96497 1.18564 7.19073 1.18093 7.41573 1.19484H8.0478C10.3475 1.19484 12.6472 1.19414 14.9467 1.19275L23.4721 1.19014L31.74 1.18753L37.7805 1.18527C37.9829 1.17325 38.186 1.17656 38.3879 1.19518C38.6862 1.24519 38.9532 1.41033 39.1321 1.65538C39.3004 1.91558 39.377 2.22493 39.3498 2.53404C39.3498 2.86925 39.3498 3.20434 39.3498 3.53932C39.3498 5.06462 39.3504 6.58998 39.3515 8.1154C39.3529 11.579 39.3543 15.0427 39.3555 18.5066L39.3571 23.2199C39.3386 23.4077 39.3436 23.5972 39.3721 23.7838C39.4242 23.9132 39.4949 24.0344 39.5819 24.1433L39.8458 24.5514C40.1343 24.9968 40.4222 25.4422 40.7097 25.8875L42.5096 28.6703L43.3968 30.0443C43.5408 30.2669 43.6847 30.4896 43.8285 30.7125C43.989 30.925 44.1265 31.154 44.2388 31.3957C44.3034 31.6111 44.3278 31.8366 44.3108 32.0609C44.3319 32.2686 44.3143 32.4784 44.2589 32.6796C44.2065 32.8108 44.1188 32.9248 44.0058 33.009C43.8928 33.0932 43.7587 33.1443 43.6185 33.1566C43.4908 33.1672 43.3589 33.1584 43.2314 33.1584H2.98033C2.51839 33.1584 2.05525 33.1686 1.59348 33.1584C1.39361 33.158 1.2019 33.0786 1.05972 32.9375C0.793009 32.6716 0.836797 32.3168 0.83472 31.9689C0.818888 31.7499 0.835688 31.5298 0.884566 31.3158C0.982443 31.0696 1.11549 30.839 1.27952 30.6313C1.5786 30.1783 1.87784 29.7253 2.17726 29.2724C2.78372 28.3546 3.39006 27.4367 3.99628 26.5187C4.28728 26.0781 4.57793 25.6371 4.86823 25.1958C5.01339 24.9755 5.15848 24.7548 5.30352 24.5337C5.38429 24.4112 5.46506 24.2885 5.54582 24.1659C5.6434 24.047 5.72269 23.9141 5.78103 23.7716C5.80492 23.6227 5.80986 23.4713 5.79574 23.3211V22.8834C5.79574 22.566 5.79574 22.2485 5.79574 21.931C5.79574 21.1715 5.79546 20.412 5.79488 19.6526L5.7928 14.2043C5.79211 12.3337 5.79147 10.463 5.7909 8.59229C5.7909 8.05522 4.96014 8.05435 4.96014 8.59229C4.96152 12.8012 4.96302 17.0102 4.96464 21.2191L4.96568 23.6606L5.02262 23.45C3.65406 25.5353 2.28065 27.6173 0.902392 29.6959C0.585319 30.1758 0.164054 30.6655 0.0474015 31.2438C0.00597285 31.508 -0.00829442 31.7758 0.004825 32.043C-0.00987048 32.3029 0.00903703 32.5635 0.0610744 32.8185C0.156437 33.1555 0.358007 33.4522 0.635511 33.6642C0.913015 33.8762 1.25147 33.992 1.60006 33.9942C2.21949 34.0066 2.84066 33.9942 3.46027 33.9942H43.3761C43.4332 33.9942 43.4905 33.9953 43.5476 33.9942C43.8863 33.9918 44.2156 33.8824 44.489 33.6815C44.7623 33.4805 44.9658 33.1982 45.0706 32.8745C45.1318 32.6377 45.1558 32.3927 45.1418 32.1484C45.1594 31.8454 45.1329 31.5414 45.0632 31.2461C44.969 30.9718 44.8352 30.7129 44.6662 30.4777L44.1386 29.6603C43.4591 28.6086 42.7796 27.557 42.1 26.5053C41.4441 25.4907 40.7883 24.4762 40.1325 23.4616L40.1892 23.6723C40.1885 21.2598 40.1877 18.8474 40.1866 16.4348C40.1858 13.818 40.1848 11.2011 40.1837 8.58429C40.1837 7.39084 40.1832 6.19738 40.1823 5.00392V3.37513C40.1823 2.86606 40.2469 2.29994 40.1113 1.80496C40.0295 1.51299 39.8825 1.24359 39.6816 1.01722C39.4807 0.790841 39.2311 0.613431 38.9517 0.49845C38.5691 0.340354 38.1729 0.350094 37.7677 0.350267H35.8713L30.7191 0.352876L24.4908 0.354789L17.9486 0.356876L11.9629 0.35879L7.29821 0.360181C6.8091 0.360181 6.34093 0.380878 5.90928 0.64611C5.65423 0.803366 5.43775 1.01639 5.27594 1.26933C5.11413 1.52226 5.01116 1.80861 4.97468 2.10706C4.95004 2.4146 4.94426 2.72338 4.95737 3.03163V4.02299C4.95737 4.75625 4.95737 5.48945 4.95737 6.2226C4.95737 7.01302 4.95766 7.80344 4.95823 8.59386C4.95962 9.12972 5.79038 9.13058 5.79021 8.59247Z" fill="#211715"/>
<path d="M42.0086 31.4062H4.71317C4.20952 31.4062 3.70449 31.3953 3.20101 31.4062C3.17938 31.4062 3.15774 31.4062 3.13628 31.4062C2.60165 31.4062 2.60079 32.2411 3.13628 32.2411H40.4322C40.9359 32.2411 41.4409 32.2522 41.9444 32.2411C41.966 32.2411 41.9875 32.2411 42.0091 32.2411C42.5436 32.2411 42.5444 31.4062 42.0091 31.4062H42.0086Z" fill="#211715"/>
<path d="M38.6912 25.6499C38.2948 24.9207 37.8984 24.1913 37.5022 23.4617C37.4656 23.3988 37.4132 23.3467 37.3503 23.3104C37.2874 23.2742 37.2161 23.2551 37.1436 23.2551H12.2646C11.1154 23.2551 9.96111 23.2238 8.81207 23.2551C8.79476 23.2551 8.77884 23.2551 8.76222 23.2551C8.68967 23.2549 8.61834 23.2739 8.55539 23.3102C8.49245 23.3465 8.4401 23.3987 8.40361 23.4617C7.59639 24.9961 6.79401 26.5329 5.97883 28.063C5.94331 28.1267 5.92482 28.1985 5.92518 28.2714C5.92553 28.3444 5.94471 28.416 5.98084 28.4793C6.01698 28.5426 6.06883 28.5954 6.13133 28.6325C6.19383 28.6696 6.26485 28.6898 6.33744 28.6911H38.2857C38.7196 28.6911 39.1549 28.7019 39.5886 28.6911C39.6071 28.6911 39.6258 28.6911 39.6444 28.6911C39.717 28.6898 39.788 28.6696 39.8505 28.6325C39.9131 28.5954 39.9649 28.5427 40.0011 28.4794C40.0372 28.4161 40.0564 28.3444 40.0568 28.2715C40.0572 28.1985 40.0387 28.1267 40.0031 28.063C39.5662 27.2585 39.1289 26.4541 38.6912 25.6499C38.4347 25.1782 37.7172 25.5991 37.9738 26.0711C38.4111 26.8756 38.8484 27.68 39.2857 28.4845L39.6444 27.8563H7.69608C7.2646 27.8563 6.8243 27.8309 6.39317 27.8563C6.37465 27.8573 6.35596 27.8563 6.33744 27.8563L6.69605 28.4845C7.51124 26.9539 8.31378 25.4175 9.12101 23.8832L8.76222 24.09H35.9802C36.3488 24.09 36.7256 24.1127 37.0937 24.09C37.1102 24.0889 37.127 24.09 37.1436 24.09L36.7848 23.8832C37.1808 24.6127 37.5771 25.342 37.9738 26.0711C38.2303 26.5435 38.9479 26.1219 38.6912 25.6499Z" fill="#211715"/>
<path d="M16.5019 31.9335C16.7327 30.7877 16.9865 29.6462 17.2407 28.5055C17.2675 28.3988 17.2523 28.2858 17.1982 28.1902C17.1441 28.0945 17.0554 28.0235 16.9505 27.992C16.8443 27.9638 16.7313 27.9785 16.6358 28.033C16.5403 28.0875 16.4699 28.1775 16.4396 28.2835C16.1855 29.4243 15.9318 30.5658 15.7007 31.7116C15.6742 31.8182 15.6895 31.9311 15.7436 32.0267C15.7976 32.1222 15.8862 32.1933 15.9909 32.225C16.0971 32.2533 16.2101 32.2387 16.3057 32.1842C16.4012 32.1297 16.4717 32.0396 16.5019 31.9335Z" fill="#211715"/>
<path d="M27.9771 28.506C28.2312 29.6469 28.4827 30.7887 28.7158 31.934C28.7451 32.0408 28.8154 32.1315 28.9112 32.1861C29.007 32.2408 29.1205 32.255 29.2268 32.2256C29.333 32.1961 29.4233 32.1255 29.4777 32.0292C29.5321 31.9329 29.5462 31.8188 29.517 31.7121C29.2838 30.5668 29.0323 29.425 28.7781 28.2841C28.7488 28.1773 28.6785 28.0866 28.5827 28.032C28.4869 27.9773 28.3734 27.9631 28.2672 27.9926C28.161 28.022 28.0707 28.0926 28.0163 28.1889C27.9619 28.2852 27.9478 28.3992 27.9771 28.506Z" fill="#211715"/>
<path d="M34.8263 2.52497L29.7629 2.52671L23.742 2.5288L17.5805 2.53106L12.0953 2.5328L8.11817 2.53401H7.75852C7.64883 2.53554 7.54406 2.58001 7.46648 2.65796C7.38891 2.73591 7.34466 2.8412 7.34314 2.95143C7.34418 5.64294 7.34539 8.33434 7.34677 11.0256C7.34839 13.836 7.34977 16.6465 7.35093 19.457C7.35093 20.1546 7.35093 20.8523 7.35093 21.55C7.35254 21.6602 7.39682 21.7655 7.47437 21.8434C7.55192 21.9213 7.65664 21.9658 7.76631 21.9674L12.2522 21.9657L18.6406 21.9633L25.767 21.9607L32.2734 21.9582L36.9983 21.9567H37.3878C37.4974 21.955 37.6021 21.9105 37.6797 21.8326C37.7573 21.7547 37.8015 21.6494 37.8031 21.5392L37.8 14.1183C37.7989 11.5895 37.7978 9.06064 37.7967 6.5318L37.7952 2.94134C37.7936 2.83112 37.7494 2.72587 37.6718 2.64792C37.5942 2.56998 37.4895 2.5255 37.3798 2.52393L34.8263 2.52497C34.2918 2.52497 34.2909 3.3598 34.8263 3.3598H37.3793L36.9639 2.94238C36.9648 5.19909 36.9658 7.4558 36.9668 9.7125C36.9679 12.3015 36.969 14.8905 36.9701 17.4794C36.9701 18.8331 36.9707 20.1867 36.9719 21.5403L37.3872 21.1229L32.9738 21.1243L26.623 21.1265L19.4987 21.1291L12.9593 21.1316L8.16628 21.1335H7.76648L8.18186 21.5509C8.1799 19.6468 8.17927 17.7427 8.17996 15.8386L8.1758 7.41516C8.17511 5.92754 8.17448 4.43992 8.1739 2.9523L7.75852 3.36971L11.513 3.36728L16.8598 3.36536L22.9827 3.36328L29.0646 3.36102L34.2664 3.35928H34.8271C35.3609 3.3598 35.3617 2.52497 34.8263 2.52497Z" fill="#211715"/>
</svg>
