<svg width="42" height="40" viewBox="0 0 42 40" fill="none" xmlns="http://www.w3.org/2000/svg">
<g clip-path="url(#clip0_492_96)">
<path d="M22.6095 25.8999C22.2572 25.1588 21.9431 24.3998 21.6686 23.6261C21.2179 22.3144 20.1148 18.9047 19.8669 15.5795L19.946 15.5492C19.946 15.5492 20.1417 15.4189 20.351 15.2801C20.7306 15.3462 21.1167 15.366 21.5009 15.339C21.7041 15.3263 21.9004 15.3035 22.0925 15.2717C22.653 15.1602 23.1998 14.9876 23.7233 14.7571C24.0634 14.5899 24.3894 14.395 24.6979 14.1743L26.0847 14.263C26.3718 14.2825 26.6601 14.2756 26.946 14.2423C26.8911 14.5359 26.8417 14.8021 26.8417 14.8021C26.5628 16.0193 26.1547 17.0872 25.8154 18.1292C25.03 20.5428 23.3662 24.6094 22.8137 25.8477L22.6095 25.8999Z" fill="white"/>
<path d="M2.87489 17.4743C2.78013 17.423 2.70878 17.3367 2.67577 17.2336C2.47949 16.6761 2.33723 16.1008 2.25098 15.5158C2.25098 15.5158 2.254 15.4524 2.2579 15.3648C2.99251 15.3214 3.72089 15.2034 4.43196 15.0127C4.47438 15.0887 4.50648 15.1452 4.50648 15.1452C4.61409 15.2236 4.78262 16.284 4.81434 16.7395C4.82007 16.8198 4.81336 16.9005 4.79446 16.9787C4.73823 17.1104 4.64228 17.2209 4.5202 17.2947C4.12594 17.4005 3.7241 17.4754 3.31831 17.5185C3.17518 17.543 3.02825 17.5308 2.891 17.4832C2.88546 17.48 2.88018 17.4771 2.87489 17.4743Z" fill="white"/>
<path d="M23.7228 14.7571C23.1993 14.9876 22.6525 15.1602 22.0919 15.2717C21.9004 15.3035 21.704 15.326 21.5004 15.339C20.233 15.4198 19.193 15.0594 18.225 14.2206C17.3017 13.4205 16.9218 12.1859 16.8076 10.8284C16.7384 10.0058 16.6834 9.10858 16.5845 8.21464C17.5771 7.88478 18.5438 7.48051 19.4765 7.00525C21.075 6.18986 21.7788 5.58631 22.7549 4.43164C23.5277 5.34002 24.6919 7.00474 25.3175 8.39378C25.4104 8.60167 25.5655 8.77514 25.7611 8.88994C25.9567 9.00475 26.1831 9.05514 26.4086 9.03408L27.2368 8.95693C27.4205 8.83828 27.6423 8.7949 27.8568 8.83568C27.9928 8.84945 28.1228 8.89935 28.2334 8.98027C28.3439 9.06118 28.4312 9.17022 28.4861 9.29621C28.6623 9.71429 28.5515 10.4211 28.3332 10.8375C28.1466 11.2439 27.8437 11.5851 27.4635 11.8174C27.1896 11.9532 26.8832 12.0087 26.5794 11.9776C26.5375 12.0596 26.5107 12.1124 26.5107 12.1124C26.409 12.3131 26.1708 12.6629 26.1708 12.6629C25.9269 13.0138 25.6524 13.3422 25.3506 13.644C24.8632 14.0914 24.3147 14.4663 23.7218 14.7571" fill="white"/>
<path d="M26.8092 11.9887C26.7418 11.9862 26.6746 11.9974 26.6115 12.0216C26.5485 12.0458 26.491 12.0824 26.4423 12.1294C26.3936 12.1764 26.3548 12.2328 26.3282 12.2952C26.3016 12.3576 26.2877 12.4247 26.2874 12.4926C26.2894 12.5616 26.3056 12.6294 26.3351 12.6917C26.3645 12.754 26.4065 12.8095 26.4584 12.8547C26.5102 12.8998 26.5709 12.9336 26.6364 12.9539C26.7019 12.9743 26.7709 12.9807 26.839 12.9727C27.1636 12.9627 27.3694 12.7518 27.3605 12.4596C27.356 12.3919 27.3381 12.3258 27.3078 12.2651C27.2774 12.2045 27.2353 12.1506 27.1839 12.1067C27.1325 12.0628 27.0728 12.0297 27.0084 12.0094C26.9441 11.9892 26.8763 11.9821 26.8092 11.9887Z" fill="white"/>
<path d="M3.6313 10.2321C3.7087 10.2562 3.788 10.2847 3.86868 10.3184C4.29991 10.489 4.67493 10.778 4.95112 11.1525C5.1942 11.4953 5.34776 11.8941 5.39769 12.3122C5.45155 12.7148 5.4242 13.1241 5.31726 13.5158C5.24707 13.8135 5.1376 14.1004 4.99177 14.3689C4.8706 14.5881 4.72472 14.7924 4.55703 14.9779C3.75367 15.2071 2.926 15.339 2.09159 15.3707C1.5797 15.263 0.982343 14.6286 0.765729 14.2202C0.599145 13.9258 0.477099 13.6081 0.403616 13.2775C0.332882 12.9092 0.334079 12.5305 0.40714 12.1626C0.490283 11.6658 0.721632 11.2063 1.07045 10.845C1.32973 10.5955 1.63859 10.4041 1.97668 10.2834C2.14605 10.2162 2.32215 10.1678 2.50191 10.1388C2.88059 10.0856 3.2663 10.1174 3.6313 10.2321Z" fill="#54D8CE"/>
<path d="M23.7529 17.8624C23.7151 17.8676 23.6767 17.8727 23.6386 17.8774C22.7444 18.0396 21.8281 18.0332 20.9363 17.8584L20.18 17.747L20.1348 17.7404C20.4901 19.7402 21.003 21.7084 21.6686 23.6264C21.9416 24.3962 22.2539 25.1514 22.6044 25.8888L22.8132 25.8481C23.3657 24.6099 25.0295 20.5433 25.8149 18.1297C25.9264 17.7877 26.0453 17.4422 26.1647 17.0898C25.4119 17.4876 24.5956 17.749 23.7529 17.8624Z" fill="#54D8CE"/>
<path d="M29.8969 10.374C29.7231 9.29426 29.4564 8.41439 29.2117 7.13176C29.0055 6.05134 28.9186 4.67028 28.4847 3.72985C28.1597 3.02671 27.4787 1.9378 26.4079 1.42141L25.7276 1.01599L25.5799 0.927309C24.6663 0.52247 23.6798 0.311159 22.6816 0.306522C20.6776 0.265854 19.0012 1.15459 18.1929 1.90017C17.2886 2.83173 16.9041 3.77292 16.4518 5.55243C16.1581 6.71723 15.8589 8.13339 15.6227 9.30971C15.4203 10.3232 15.3804 11.3448 15.8647 12.2562C16.246 12.9683 16.8657 13.4362 17.7384 13.7274L17.7635 13.729C17.1696 12.9551 16.901 11.9324 16.8081 10.8277C16.7389 10.0051 16.6839 9.1079 16.5849 8.21396C17.5776 7.88409 18.5443 7.47983 19.4769 7.00457C21.0754 6.18918 21.7793 5.58562 22.7553 4.43096C23.5282 5.33934 24.6924 7.00406 25.318 8.3931C25.4108 8.60099 25.5659 8.77446 25.7616 8.88926C25.9572 9.00406 26.1836 9.05446 26.4091 9.0334L27.2373 8.95625C27.4209 8.83754 27.6428 8.79415 27.8573 8.835C27.9933 8.84877 28.1232 8.89867 28.2338 8.97958C28.3444 9.0605 28.4316 9.16953 28.4866 9.29552C28.6628 9.71361 28.5519 10.4204 28.3337 10.8369C28.147 11.2433 27.8442 11.5844 27.4639 11.8167C27.19 11.9524 26.8837 12.008 26.5799 11.9769C26.5614 12.0129 26.5466 12.0421 26.5351 12.0647C26.6186 12.0172 26.7126 11.9911 26.8086 11.9887C26.8757 11.9821 26.9434 11.9892 27.0078 12.0094C27.0722 12.0297 27.1318 12.0628 27.1833 12.1067C27.2347 12.1506 27.2768 12.2045 27.3071 12.2651C27.3375 12.3258 27.3554 12.3919 27.3599 12.4596C27.3688 12.7518 27.163 12.9627 26.8384 12.9727C26.7703 12.9807 26.7013 12.9743 26.6358 12.9539C26.5702 12.9336 26.5096 12.8998 26.4578 12.8547C26.4059 12.8095 26.3639 12.754 26.3345 12.6917C26.305 12.6294 26.2888 12.5616 26.2867 12.4926C26.2867 12.4911 26.2867 12.4895 26.2867 12.4879C26.2222 12.5879 26.1714 12.6627 26.1714 12.6627C25.9275 13.0136 25.653 13.342 25.3512 13.6438C25.1454 13.8355 24.9267 14.0126 24.6967 14.174L26.084 14.2627C27.6213 14.3609 28.7439 13.7701 29.4018 12.7224C29.8423 12.0252 30.0181 11.1913 29.8969 10.374Z" fill="#54D8CE"/>
<path d="M19.9043 16.0175C20.2104 19.2 21.2376 22.3719 21.6685 23.626C21.9416 24.3958 22.2539 25.151 22.6043 25.8884L22.8132 25.8478C23.3657 24.6095 25.0295 20.5429 25.8149 18.1293C26.1693 17.0404 26.5992 15.9231 26.8781 14.6367L27.2237 14.8022L28.4635 15.3951C30.4388 15.9757 32.0783 16.7085 33.2015 18.3404C34.221 19.8214 34.8653 22.4631 35.1537 23.5373C35.4509 24.6442 35.7605 25.7658 35.979 27.0474C36.0988 27.7133 36.3216 29.0666 36.336 29.5673C36.3475 29.9683 36.2793 30.866 36.1665 31.229C35.9505 31.999 35.4959 32.6794 34.8689 33.1712C33.743 34.0808 31.9299 34.8397 30.9431 35.1905H22.0067L16.3283 30.4963L12.5375 27.3627C12.0643 26.1055 11.6527 24.7149 11.2925 23.4421L15.2273 19.2993C15.3794 18.8939 15.6755 18.4342 15.8404 18.1282C16.087 17.7183 16.4094 17.3597 16.79 17.0717C17.5787 16.491 18.9094 15.947 19.8673 15.579C19.8882 15.8324 19.9043 16.0175 19.9043 16.0175Z" fill="white"/>
<path d="M14.912 19.0068C15.0107 19.8516 14.8293 20.7056 14.3959 21.436C14.5671 21.9041 14.4686 21.6046 14.5509 22.0228L14.5598 22.0683C13.7417 22.3625 12.4186 22.7481 11.4828 23.027L11.4292 22.7736C11.4112 22.5668 11.3453 22.3672 11.2367 22.1908C11.0854 21.9738 10.9074 21.7769 10.7071 21.6048C10.3743 21.2699 10.0615 20.9157 9.77002 20.5438C9.60639 20.3512 9.4619 19.8663 9.52131 19.5953C9.56602 19.279 9.70522 18.9839 9.92043 18.7491C9.9809 18.6966 10.0518 18.6577 10.1284 18.635C10.205 18.6123 10.2855 18.6063 10.3646 18.6175C10.3506 18.5896 10.3417 18.5713 10.3417 18.5713C10.2828 18.4866 10.243 18.39 10.2249 18.2882C10.2068 18.1864 10.2109 18.0819 10.2369 17.9818C10.3192 17.7139 10.4458 17.6632 10.6721 17.6176C10.7142 17.6104 10.7571 17.6086 10.7997 17.612C10.6171 17.3713 10.7228 17.1119 10.8941 16.9446C11.0299 16.8067 11.2118 16.7245 11.4045 16.714C11.5141 16.7066 11.6241 16.7079 11.7335 16.7177L11.6244 16.4306C11.4199 15.8675 11.2157 15.3043 11.0118 14.7408C10.9572 14.6036 10.9158 14.4613 10.8883 14.316C10.8658 14.1976 10.8682 14.0757 10.8955 13.9583C10.9228 13.8408 10.9744 13.7305 11.0468 13.6344C11.1907 13.4657 11.4671 13.4624 11.6772 13.5546C11.9078 13.656 12.0285 13.8503 12.1631 14.095C12.6001 14.8892 13.1486 16.4579 13.3743 17.3409L13.4318 17.5658C13.7339 17.4732 14.0543 17.4337 14.3145 17.5962C14.5329 17.7328 14.6529 17.9825 14.7366 18.2271C14.8227 18.4799 14.8815 18.7413 14.912 19.0068Z" fill="white"/>
<path d="M28.9332 34.9785L22.9578 34.7051C23.4445 36.2656 23.9053 37.7456 24.2233 38.7691C24.2732 38.9293 24.2654 39.1022 24.2013 39.2572C24.1371 39.4123 24.0207 39.5396 23.8726 39.6169L23.8011 39.6545L23.9028 39.6118C25.4237 38.973 30.3479 36.7708 31.2816 36.3389L30.7069 34.6655C30.1462 34.9015 29.5402 35.0085 28.9332 34.9785Z" fill="white"/>
<path d="M4.05755 27.5143C7.93281 27.5791 16.7791 27.5993 19.9377 27.6206C20.1717 27.622 20.3992 27.698 20.5876 27.8378C20.776 27.9776 20.9154 28.1739 20.986 28.3984C21.7377 30.7911 23.4278 36.208 24.2231 38.7688C24.2565 38.8759 24.2642 38.9894 24.2458 39.1001C24.2274 39.2108 24.1832 39.3156 24.117 39.4059C24.0508 39.4963 23.9644 39.5696 23.8647 39.62C23.765 39.6703 23.655 39.6964 23.5435 39.6959C20.1207 39.6832 10.8988 39.6503 7.3532 39.5779C7.20434 39.5751 7.06017 39.525 6.94123 39.4349C6.82229 39.3447 6.73464 39.2191 6.69077 39.0759C5.99122 36.8001 4.19613 31.0645 3.36895 28.4451C3.3348 28.337 3.32671 28.2223 3.34534 28.1105C3.36397 27.9986 3.40878 27.8928 3.47607 27.8019C3.54335 27.7109 3.63119 27.6374 3.7323 27.5874C3.83342 27.5374 3.94491 27.5123 4.05755 27.5143Z" fill="white"/>
<path d="M27.7982 35.8664C27.2753 36.2894 26.8805 36.8635 26.3393 37.4312C26.2615 37.5128 25.9428 37.7268 25.6974 37.536C25.5357 37.4107 25.5125 37.0956 25.5709 36.967C25.8891 36.2669 26.0193 36.0548 26.2558 35.5646C25.9677 35.8702 25.7429 36.1264 25.4016 36.4735L25.0538 36.8275L24.6169 37.2719C24.6169 37.2719 24.3081 37.6039 23.9733 37.9642C23.6172 36.8194 23.1598 35.3517 22.698 33.8714C23.1157 33.344 23.4835 32.7493 23.9937 32.2982C24.3484 31.9632 24.7992 31.7497 25.2818 31.6883C25.4812 31.6761 25.6813 31.683 25.8795 31.7087C26.2576 31.7476 26.6344 31.7972 27.01 31.8574C27.6924 31.967 28.4568 32.0955 29.0032 31.6304C29.7106 32.2605 30.3527 33.5041 30.7073 34.6649C30.5798 34.7272 30.4572 34.7992 30.3405 34.8803C30.2616 34.9346 30.0076 35.161 29.9237 35.207C29.2763 35.5537 28.5695 35.7735 27.8407 35.8548" fill="white"/>
<path d="M36.0374 32.6802C36.6715 32.6802 37.3055 32.6792 37.9396 32.6772L40.9459 32.6722C41.2001 32.6722 41.4542 32.6719 41.7083 32.6711C42.097 32.6711 42.0976 32.063 41.7083 32.063C41.0529 32.063 40.3975 32.064 39.742 32.066L36.7535 32.071C36.5148 32.071 36.2762 32.0713 36.0374 32.0721C35.6486 32.0721 35.648 32.6802 36.0374 32.6802Z" fill="#211715"/>
<path d="M0.881705 32.6811C1.89895 32.6811 2.91619 32.6752 3.9333 32.6724C4.10637 32.6724 4.2793 32.6711 4.45224 32.6711C4.84104 32.6711 4.84167 32.063 4.45224 32.063C3.41788 32.063 2.38353 32.0688 1.34917 32.0717C1.19335 32.0717 1.03753 32.073 0.881705 32.073C0.493034 32.073 0.492405 32.6811 0.881705 32.6811Z" fill="#211715"/>
<path d="M3.55106 10.5252C3.61474 10.5456 3.67793 10.5671 3.73985 10.5918C3.76184 10.6003 3.78374 10.6093 3.80556 10.6188C3.76553 10.6019 3.76184 10.6005 3.79448 10.6145C3.8666 10.6477 3.93809 10.6816 4.00757 10.72C4.18593 10.8171 4.34971 10.9392 4.49404 11.0826C4.82611 11.4246 5.03823 11.8664 5.09819 12.3408C5.15051 12.7752 5.11022 13.2159 4.98 13.6334C4.84978 14.0509 4.63262 14.4357 4.343 14.7621L4.47629 14.6839C3.83793 14.8732 3.1816 14.9945 2.51808 15.0458C2.36701 15.0755 2.21164 15.0755 2.06056 15.0458C1.92428 14.9923 1.79714 14.9177 1.68372 14.8247C1.4391 14.6362 1.23073 14.4044 1.06887 14.1406C0.710858 13.5607 0.58204 12.8667 0.707893 12.1959C0.763066 11.8784 0.889768 11.5778 1.07828 11.3172C1.26679 11.0567 1.51209 10.8431 1.79537 10.6928C2.04867 10.5632 2.32042 10.474 2.6009 10.4283C2.51103 10.4432 2.64999 10.4243 2.69127 10.4217C2.76453 10.4171 2.83816 10.416 2.91154 10.4179C3.12837 10.4253 3.34327 10.4615 3.55068 10.5256C3.92425 10.6367 4.08384 10.05 3.71128 9.9391C2.58806 9.60502 1.30449 9.97635 0.595496 10.9372C0.300631 11.3607 0.119884 11.854 0.0708909 12.3688C-0.000583751 13.0776 0.157045 13.7907 0.520355 14.4022C0.815212 14.9336 1.27288 15.3548 1.82507 15.603C2.10625 15.717 2.42192 15.6663 2.71657 15.6357C3.0593 15.6002 3.40077 15.5482 3.73922 15.4836C3.99977 15.4329 4.25955 15.3767 4.51543 15.3063C4.65356 15.2746 4.77669 15.1962 4.86421 15.084C4.97869 14.9469 5.08342 14.8018 5.17761 14.6499C5.46122 14.1711 5.64031 13.6371 5.70297 13.0833C5.79797 12.3724 5.63605 11.6508 5.24671 11.0499C4.8726 10.5174 4.33195 10.1265 3.71116 9.93961C3.34023 9.81988 3.18127 10.4067 3.55106 10.5252Z" fill="#211715"/>
<path d="M2.70711 16.759C3.36399 16.6707 4.01569 16.547 4.6594 16.3884C4.7362 16.3663 4.80132 16.3147 4.84077 16.2448C4.88021 16.1749 4.89083 16.0922 4.87035 16.0144C4.84767 15.9376 4.79629 15.8725 4.727 15.8329C4.6577 15.7933 4.57587 15.7823 4.49867 15.8021C4.19999 15.876 3.89892 15.9406 3.59684 15.9992C3.43851 16.03 3.27983 16.0589 3.12082 16.086C3.04396 16.0991 2.96697 16.1118 2.88986 16.124C2.85009 16.1301 2.81044 16.1367 2.77067 16.142C2.75959 16.1435 2.64241 16.16 2.70711 16.1513C2.62767 16.1534 2.55209 16.1862 2.4959 16.2427C2.43971 16.2993 2.40719 16.3754 2.40503 16.4553C2.41157 16.6019 2.53933 16.7821 2.70711 16.7594V16.759Z" fill="#211715"/>
<path d="M1.94885 15.5165C1.96162 15.6937 1.98967 15.8694 2.03268 16.0416C2.08302 16.2807 2.14092 16.5182 2.20637 16.7539C2.26189 16.9761 2.33401 17.1937 2.4221 17.405C2.55804 17.7105 2.85823 17.8381 3.17729 17.833C3.4357 17.8184 3.69271 17.7849 3.94633 17.733C4.1652 17.7057 4.38116 17.6584 4.59151 17.5917C4.71957 17.5406 4.83308 17.4583 4.92195 17.3524C5.01081 17.2464 5.07228 17.12 5.10089 16.9843C5.12311 16.7292 5.10887 16.4721 5.0586 16.221C5.02436 15.9676 4.98446 15.7157 4.93072 15.4662C4.89434 15.2977 4.85822 15.0498 4.7204 14.9307C4.66277 14.8755 4.58628 14.8447 4.50674 14.8447C4.42721 14.8447 4.35072 14.8755 4.29309 14.9307C4.23711 14.988 4.20575 15.0653 4.20575 15.1457C4.20575 15.2261 4.23711 15.3033 4.29309 15.3607C4.30001 15.3666 4.23922 15.2815 4.27811 15.3469C4.2479 15.2962 4.26149 15.301 4.27635 15.349C4.29925 15.423 4.31889 15.4979 4.33613 15.5735C4.37993 15.7663 4.41354 15.9618 4.4435 16.1573C4.45012 16.2005 4.45654 16.2437 4.46275 16.2872C4.46149 16.2779 4.47534 16.3831 4.47056 16.3421C4.46577 16.3012 4.47823 16.4026 4.47723 16.3947C4.48818 16.4825 4.49825 16.5704 4.50605 16.6586C4.5097 16.6995 4.51373 16.7406 4.51411 16.7815C4.51411 16.8068 4.50857 16.8394 4.51121 16.8654C4.50756 16.8295 4.50102 16.922 4.517 16.8628C4.5311 16.8113 4.50643 16.8807 4.50114 16.8893C4.49044 16.9067 4.48037 16.9244 4.46879 16.9414C4.43267 16.9942 4.44727 16.9709 4.4552 16.9612C4.45231 16.9646 4.40221 17.0372 4.41971 17.0046L4.39453 17.0204C4.42562 17.0078 4.43141 17.0051 4.41203 17.0121C4.39265 17.0191 4.37553 17.0237 4.35728 17.0291C4.32254 17.0392 4.28755 17.0479 4.25243 17.0564C4.1452 17.0818 4.03683 17.1028 3.92833 17.1222C3.82223 17.1412 3.71574 17.1583 3.60914 17.1744C3.55313 17.1829 3.49712 17.1908 3.44111 17.1988C3.43356 17.2 3.38006 17.2072 3.42852 17.2007C3.40058 17.2044 3.37251 17.2082 3.34457 17.2116C3.25292 17.2253 3.16003 17.2286 3.06767 17.2213C3.03876 17.2178 3.01142 17.2062 2.98887 17.1877C3.00838 17.204 2.96282 17.1388 2.98296 17.1767C2.9778 17.1668 2.9384 17.0816 2.95879 17.1318C2.89365 16.9608 2.83851 16.7861 2.79366 16.6086C2.73114 16.3823 2.67497 16.1543 2.62512 15.9244C2.60473 15.8306 2.58535 15.7366 2.56899 15.6419C2.56295 15.6072 2.55779 15.5725 2.55237 15.5376C2.56798 15.639 2.55414 15.5409 2.55326 15.5164C2.54067 15.126 1.93652 15.1243 1.9491 15.5164L1.94885 15.5165Z" fill="#211715"/>
<path d="M3.88599 7.8816C3.78479 8.14107 3.68208 8.40003 3.57787 8.65848C3.56716 8.69759 3.56434 8.73847 3.56957 8.7787C3.5748 8.81893 3.58798 8.8577 3.60833 8.89273C3.62834 8.92722 3.65492 8.9574 3.68653 8.98155C3.71813 9.00569 3.75416 9.02334 3.79255 9.03347C3.83093 9.0436 3.87092 9.04602 3.91024 9.04058C3.94955 9.03515 3.98741 9.02198 4.02167 9.00181L4.08271 8.9543C4.11974 8.91711 4.14655 8.87088 4.1605 8.82013C4.26455 8.56168 4.36725 8.30273 4.46861 8.04326C4.47925 8.00412 4.48204 7.96323 4.47681 7.92299C4.47158 7.88275 4.45844 7.84396 4.43816 7.80888C4.41814 7.7744 4.39157 7.74421 4.35996 7.72007C4.32835 7.69592 4.29232 7.67827 4.25394 7.66814C4.21555 7.65801 4.17556 7.6556 4.13625 7.66103C4.09693 7.66646 4.05907 7.67964 4.02481 7.6998L3.96377 7.74744C3.92669 7.78459 3.89988 7.83083 3.88599 7.8816Z" fill="#211715"/>
<path d="M2.53919 8.40522C2.51519 8.27296 2.49421 8.14023 2.47626 8.00703L2.48696 8.08786C2.47294 7.98228 2.4609 7.87641 2.45083 7.77025C2.44858 7.69003 2.41724 7.61342 2.36273 7.55487C2.30608 7.49785 2.22925 7.46582 2.14913 7.46582C2.06902 7.46582 1.99219 7.49785 1.93554 7.55487C1.90718 7.58293 1.88476 7.61648 1.86962 7.65349C1.85447 7.69051 1.84693 7.73022 1.84744 7.77025C1.87261 8.03706 1.90936 8.30324 1.95719 8.56688C1.97828 8.64318 2.0279 8.70829 2.09564 8.74856C2.12989 8.76872 2.16776 8.7819 2.20707 8.78733C2.24639 8.79276 2.28638 8.79034 2.32476 8.78021C2.36315 8.77008 2.39918 8.75244 2.43078 8.72829C2.46239 8.70414 2.48896 8.67396 2.50898 8.63947C2.54645 8.56751 2.55725 8.48447 2.53944 8.40522H2.53919Z" fill="#211715"/>
<path d="M1.0686 8.96759C0.892386 8.74803 0.710386 8.53215 0.515924 8.32843C0.458668 8.27214 0.381984 8.24036 0.301954 8.23975C0.221879 8.24014 0.145114 8.27195 0.0879834 8.32843C0.0315418 8.38571 -0.000125976 8.46313 -0.00012207 8.54381C0.00152255 8.62415 0.0329481 8.70097 0.0879834 8.75918C0.2832 8.96214 0.465704 9.17802 0.641915 9.39758C0.67004 9.42579 0.703414 9.44814 0.740129 9.46336C0.776844 9.47858 0.81618 9.48636 0.855885 9.48626C0.935971 9.48593 1.01276 9.4541 1.06986 9.39758C1.12633 9.34032 1.15801 9.26289 1.15796 9.1822L1.14714 9.10137C1.13322 9.05064 1.10646 9.00441 1.06948 8.96721L1.0686 8.96759Z" fill="#211715"/>
<path d="M4.41606 12.9377C4.24433 12.6897 3.99299 12.5087 3.70429 12.4253C3.41367 12.3301 3.06238 12.2559 2.77138 12.3784C2.64688 12.4331 2.53535 12.5139 2.44421 12.6153C2.35307 12.7167 2.2844 12.8365 2.24275 12.9666C2.19168 13.136 2.19515 13.3173 2.25266 13.4845C2.31018 13.6518 2.41879 13.7965 2.56295 13.8978C2.69137 13.9858 2.84097 14.0373 2.99601 14.0469C3.15105 14.0565 3.30581 14.0239 3.444 13.9525C3.73349 13.8203 3.86817 13.4918 3.87622 13.1848C3.89234 12.5759 3.33866 12.2384 2.80386 12.1704C2.47223 12.1193 2.13362 12.1948 1.85446 12.3821C1.5155 12.6246 1.3661 12.9992 1.31714 13.4022C1.31757 13.4827 1.34953 13.5598 1.40609 13.6167C1.46265 13.6736 1.53923 13.7058 1.61921 13.7062C1.69873 13.7043 1.77445 13.6717 1.83069 13.6151C1.88693 13.5584 1.91937 13.4822 1.92129 13.4022C1.93093 13.2297 2.00579 13.0674 2.13051 12.9487C2.25523 12.8299 2.42036 12.7637 2.59202 12.7637C2.63218 12.7637 2.67245 12.7651 2.71248 12.7684C2.73274 12.7699 2.75326 12.7716 2.7734 12.7744C2.7593 12.7725 2.72406 12.7657 2.78435 12.7777C2.86482 12.7922 2.94367 12.8147 3.01971 12.8449C2.97402 12.8257 3.07333 12.8738 3.08189 12.8787C3.09976 12.889 3.15892 12.9294 3.14734 12.9197C3.12129 12.8991 3.16597 12.9369 3.17113 12.9419C3.18447 12.9552 3.19769 12.9685 3.2104 12.9823C3.24262 13.0172 3.1885 12.9476 3.2148 12.987C3.2278 13.0065 3.23974 13.0266 3.25055 13.0473C3.22538 13.0001 3.26502 13.0945 3.26867 13.1107C3.27081 13.1202 3.27446 13.1674 3.27081 13.1207C3.27209 13.1367 3.27256 13.1528 3.2722 13.169C3.2722 13.1764 3.2683 13.2443 3.2722 13.2091C3.2761 13.1739 3.26641 13.2374 3.26477 13.244C3.25949 13.2654 3.25395 13.2865 3.2474 13.3073C3.24539 13.3135 3.22311 13.3706 3.23406 13.3471C3.2182 13.3819 3.17868 13.4184 3.23092 13.3795C3.20902 13.3953 3.18493 13.4076 3.15942 13.4163C3.09953 13.446 3.03078 13.4522 2.9666 13.4336C2.92272 13.4185 2.88458 13.39 2.85747 13.3521C2.83823 13.3296 2.82394 13.3032 2.81554 13.2747C2.80715 13.2461 2.80484 13.2162 2.80876 13.1867C2.81153 13.17 2.84086 13.0909 2.82739 13.1208C2.81053 13.1588 2.83482 13.1081 2.83998 13.1002C2.84929 13.0846 2.8581 13.0689 2.86779 13.0535C2.89592 13.0082 2.93566 12.9714 2.98284 12.9469C3.00656 12.9311 3.03401 12.922 3.06238 12.9204C3.02727 12.9262 3.08466 12.9204 3.0868 12.9204C3.11281 12.9207 3.13878 12.9225 3.16458 12.9258C3.27494 12.9401 3.38396 12.9634 3.49057 12.9954C3.57842 13.0174 3.6623 13.0531 3.73916 13.1012C3.79994 13.1379 3.85265 13.1867 3.8941 13.2446C3.93581 13.3128 4.00205 13.3622 4.07904 13.3825C4.15603 13.4029 4.23783 13.3925 4.30744 13.3537C4.37605 13.3125 4.42584 13.2458 4.44611 13.168C4.46637 13.0902 4.45549 13.0075 4.41581 12.9377H4.41606Z" fill="#211715"/>
<path d="M29.2831 30.7033C29.9032 30.4386 30.4991 30.1301 31.1047 29.8348C31.1736 29.7938 31.2236 29.7271 31.2439 29.6493C31.2642 29.5714 31.2531 29.4886 31.2131 29.4189C31.1713 29.3508 31.1051 29.3015 31.0281 29.2812C30.9512 29.2609 30.8695 29.2711 30.7999 29.3098C30.1942 29.6051 29.5982 29.9135 28.9781 30.1783C28.9091 30.2191 28.859 30.2858 28.8386 30.3637C28.8183 30.4416 28.8295 30.5245 28.8697 30.5942C28.9119 30.6619 28.9781 30.7109 29.0549 30.7312C29.1317 30.7515 29.2133 30.7415 29.2831 30.7033Z" fill="#211715"/>
<path d="M29.6837 24.9744L30.6048 28.368C30.7071 28.745 31.2902 28.5849 31.1873 28.2063L30.2662 24.8128C30.1639 24.4356 29.5809 24.5957 29.6837 24.9744Z" fill="#211715"/>
<path d="M28.7342 31.4561C28.305 31.7318 27.7723 31.6703 27.2925 31.5966C26.6991 31.5054 26.0923 31.3861 25.4905 31.3777C24.2637 31.3606 23.4582 32.3453 22.7915 33.2485C22.7515 33.3183 22.7405 33.4011 22.7608 33.4789C22.7811 33.5568 22.831 33.6235 22.8998 33.6646C22.9694 33.7034 23.0512 33.7137 23.1281 33.6934C23.2051 33.6731 23.2713 33.6237 23.313 33.5555C23.6277 33.1289 23.9543 32.6774 24.3897 32.3662C24.591 32.2166 24.8173 32.1047 25.058 32.0358C25.318 31.9792 25.5861 31.9704 25.8492 32.0098C26.4098 32.0658 26.9624 32.1718 27.5215 32.2365C28.0412 32.2967 28.5859 32.2724 29.039 31.9811C29.3663 31.7712 29.0631 31.2446 28.7342 31.4561Z" fill="#211715"/>
<path d="M24.0697 33.6699L23.1459 34.5917C23.1175 34.6199 23.0949 34.6534 23.0794 34.6904C23.0639 34.7274 23.0558 34.7671 23.0557 34.8072C23.0555 34.8474 23.0632 34.8871 23.0784 34.9243C23.0936 34.9614 23.1159 34.9951 23.1441 35.0235C23.1723 35.0519 23.2058 35.0743 23.2427 35.0896C23.2796 35.1049 23.3191 35.1127 23.359 35.1125C23.3988 35.1124 23.4383 35.1043 23.475 35.0887C23.5118 35.0731 23.5451 35.0503 23.5731 35.0217L24.4969 34.0999C24.5253 34.0718 24.548 34.0382 24.5634 34.0012C24.5789 33.9642 24.587 33.9245 24.5871 33.8844C24.5873 33.8443 24.5796 33.8045 24.5644 33.7674C24.5492 33.7303 24.5269 33.6965 24.4987 33.6682C24.4705 33.6398 24.437 33.6173 24.4001 33.602C24.3632 33.5867 24.3237 33.5789 24.2838 33.5791C24.244 33.5793 24.2045 33.5874 24.1678 33.603C24.131 33.6185 24.0977 33.6413 24.0697 33.6699Z" fill="#211715"/>
<path d="M24.1554 36.3156C24.6211 35.7676 25.1316 35.258 25.6406 34.7512C25.6965 34.694 25.7277 34.6169 25.7274 34.5367C25.727 34.4565 25.6952 34.3797 25.6389 34.3229C25.5825 34.2662 25.5062 34.2342 25.4265 34.2339C25.3468 34.2336 25.2702 34.2649 25.2134 34.3212C24.7039 34.828 24.1939 35.3376 23.7282 35.8856C23.6723 35.9428 23.6412 36.0199 23.6415 36.1001C23.6418 36.1803 23.6736 36.2571 23.73 36.3138C23.7863 36.3705 23.8626 36.4026 23.9423 36.4029C24.022 36.4032 24.0986 36.3718 24.1554 36.3156Z" fill="#211715"/>
<path d="M24.8301 37.4869C25.1732 37.1379 25.5207 36.7925 25.8574 36.4371C26.1548 36.1231 26.443 35.8006 26.7459 35.4918C26.7739 35.4636 26.7962 35.4301 26.8114 35.3932C26.8266 35.3563 26.8344 35.3167 26.8344 35.2768C26.8344 35.2369 26.8266 35.1973 26.8114 35.1604C26.7962 35.1235 26.774 35.09 26.7459 35.0618C26.7179 35.0335 26.6846 35.0111 26.6479 34.9958C26.6113 34.9805 26.572 34.9727 26.5323 34.9727C26.4927 34.9727 26.4534 34.9805 26.4167 34.9958C26.3801 35.0111 26.3468 35.0335 26.3187 35.0617C26.0159 35.3706 25.7271 35.693 25.4301 36.0071C25.0935 36.3626 24.746 36.7079 24.4029 37.057C24.347 37.1141 24.3158 37.1912 24.3162 37.2714C24.3165 37.3516 24.3483 37.4285 24.4046 37.4852C24.461 37.5419 24.5373 37.5739 24.617 37.5743C24.6967 37.5746 24.7733 37.5432 24.8301 37.4869Z" fill="#211715"/>
<path d="M27.8403 36.1588C28.4571 36.0867 29.0607 35.9272 29.6332 35.6852C29.8742 35.5876 30.1005 35.4566 30.3055 35.2959C30.3469 35.2622 30.3879 35.2279 30.4292 35.1938C30.4494 35.1772 30.4696 35.1605 30.49 35.144C30.5289 35.1128 30.4562 35.1681 30.4852 35.148C30.6055 35.0655 30.7312 34.9914 30.8615 34.9261C30.9307 34.8854 30.981 34.8187 31.0013 34.7406C31.0216 34.6626 31.0103 34.5797 30.9699 34.51C30.9295 34.4404 30.8632 34.3898 30.7857 34.3693C30.7082 34.3489 30.6257 34.3602 30.5566 34.4009C30.3492 34.5071 30.1542 34.6363 29.9752 34.786C29.9178 34.8368 29.8578 34.8846 29.7955 34.929C29.6773 35.0005 29.554 35.0632 29.4267 35.1165C28.9222 35.3392 28.3878 35.4855 27.8408 35.5507C27.7614 35.5531 27.686 35.586 27.6299 35.6425C27.5738 35.699 27.5412 35.7749 27.5387 35.8547C27.5391 35.9352 27.5711 36.0123 27.6276 36.0693C27.6842 36.1262 27.7608 36.1584 27.8408 36.1588H27.8403Z" fill="#211715"/>
<path d="M28.6792 31.7535C29.1659 32.119 29.5201 32.7049 29.8021 33.2441C30.1369 33.8854 30.3906 34.5664 30.5573 35.2712C30.6474 35.6513 31.2302 35.4906 31.1399 35.1095C30.955 34.3375 30.6727 33.5924 30.2999 32.8924C29.9675 32.2663 29.5544 31.6568 28.9837 31.2284C28.9145 31.1882 28.8322 31.1771 28.7549 31.1975C28.6775 31.2179 28.6113 31.2682 28.5705 31.3374C28.5319 31.4075 28.5217 31.4898 28.5418 31.5673C28.562 31.6448 28.6111 31.7115 28.6789 31.7535H28.6792Z" fill="#211715"/>
<path d="M25.9042 35.5963C25.7807 35.8445 25.6525 36.0904 25.5315 36.3395C25.4355 36.5194 25.35 36.7049 25.2757 36.8949C25.2276 37.0558 25.2261 37.2273 25.2716 37.389C25.2957 37.4869 25.3408 37.5784 25.4036 37.657C25.4664 37.7356 25.5455 37.7995 25.6353 37.8442C25.7252 37.889 25.8237 37.9134 25.9239 37.916C26.0241 37.9185 26.1236 37.899 26.2156 37.8589C26.5786 37.7137 26.8178 37.3611 27.0648 37.0723C27.3508 36.7146 27.6679 36.3831 28.0122 36.0819C28.0683 36.0246 28.0998 35.9474 28.0998 35.8669C28.0998 35.7865 28.0683 35.7092 28.0122 35.6519C27.9546 35.5964 27.8779 35.5654 27.7982 35.5654C27.7185 35.5654 27.6418 35.5964 27.5842 35.6519C27.0275 36.108 26.6215 36.7107 26.1204 37.2218C26.1125 37.2297 26.0694 37.2629 26.1033 37.2382C26.1394 37.2118 26.0639 37.2617 26.0555 37.2665C26.0414 37.2745 25.9837 37.3006 26.0279 37.2832C26.0102 37.2902 25.9383 37.311 25.9545 37.3085C25.9417 37.3137 25.9278 37.3151 25.9142 37.3127C25.9007 37.3102 25.8881 37.304 25.8779 37.2947C25.9071 37.312 25.861 37.2657 25.8881 37.3068C25.8783 37.2917 25.8693 37.276 25.8614 37.2598C25.8755 37.2878 25.8671 37.2792 25.8614 37.255C25.8552 37.2275 25.8469 37.2007 25.8421 37.1729C25.8519 37.2305 25.8441 37.1512 25.8433 37.1318C25.8433 37.1191 25.8458 37.1065 25.8445 37.0938C25.8445 37.1004 25.8295 37.1445 25.8414 37.1162C25.8453 37.1069 25.8453 37.0947 25.8486 37.0849C25.8635 37.0402 25.8348 37.112 25.858 37.0625C25.9248 36.9192 25.9907 36.7757 26.0594 36.6334C26.1781 36.3886 26.3041 36.1477 26.4251 35.9043C26.4637 35.8342 26.4739 35.7519 26.4537 35.6744C26.4336 35.597 26.3845 35.5303 26.3168 35.4882C26.2474 35.4483 26.1653 35.4374 26.088 35.4578C26.0107 35.4782 25.9445 35.5283 25.9036 35.5973L25.9042 35.5963Z" fill="#211715"/>
<path d="M23.9831 39.9043C24.9686 39.49 25.9456 39.0555 26.9231 38.6222C28.0517 38.1225 29.179 37.6194 30.3047 37.1131C30.6823 36.9434 31.0589 36.7743 31.4342 36.6009C31.5029 36.5597 31.5528 36.493 31.573 36.4152C31.5933 36.3373 31.5824 36.2546 31.5426 36.1848C31.5009 36.1165 31.4346 36.0671 31.3576 36.0468C31.2806 36.0265 31.1988 36.0368 31.1292 36.0757C29.1596 36.9861 27.1712 37.8586 25.1839 38.7293C24.9176 38.8458 24.6512 38.9619 24.3846 39.0774C24.2731 39.1256 24.1616 39.1736 24.05 39.2215C24.0248 39.2321 23.879 39.2942 23.9543 39.2623C23.9103 39.2809 23.8664 39.2995 23.8225 39.3179C23.7467 39.3415 23.6826 39.3934 23.6435 39.4629C23.6043 39.5324 23.5929 39.6143 23.6116 39.692C23.6333 39.7695 23.6844 39.8352 23.754 39.875C23.8236 39.9148 23.9059 39.9253 23.9831 39.9043Z" fill="#211715"/>
<path d="M4.05745 27.8186C5.86739 27.8488 7.67758 27.8604 9.48777 27.8722C11.6023 27.8859 13.7168 27.8968 15.8314 27.9048C16.7208 27.9088 17.6103 27.9128 18.4997 27.9168C18.8471 27.9186 19.1945 27.9204 19.5419 27.9224C19.928 27.9247 20.325 27.9012 20.5802 28.2546C20.6832 28.4291 20.7577 28.6191 20.8009 28.8173L20.9787 29.3848C21.1202 29.8363 21.2616 30.2878 21.4028 30.7394C21.731 31.7887 22.0589 32.8382 22.3863 33.8879C22.709 34.9221 23.0314 35.9564 23.3536 36.9906C23.4894 37.4267 23.6252 37.863 23.7609 38.2993C23.8585 38.6135 24.145 39.1586 23.7199 39.3543C23.5768 39.4203 23.3927 39.3915 23.2381 39.391L22.7378 39.3892L21.5835 39.3848C20.6636 39.3812 19.7437 39.3774 18.8238 39.3731C16.731 39.3634 14.6382 39.3508 12.5454 39.3351C10.8475 39.3218 9.14919 39.309 7.45152 39.2757C7.26197 39.2719 7.08299 39.2267 6.99627 39.0363C6.93595 38.8782 6.88551 38.7165 6.84523 38.552C6.72407 38.1591 6.6024 37.7663 6.48022 37.3738C6.17546 36.3925 5.86982 35.4117 5.5633 34.4312C4.96116 32.5039 4.35701 30.5773 3.75084 28.6514C3.69785 28.4834 3.5998 28.2892 3.65342 28.1142C3.67956 28.0273 3.73318 27.9514 3.80614 27.898C3.8791 27.8446 3.9674 27.8167 4.05757 27.8185C4.44612 27.8134 4.44713 27.2053 4.05757 27.2104C3.90649 27.2108 3.75736 27.2449 3.62091 27.3102C3.48446 27.3755 3.36406 27.4704 3.26835 27.5881C3.17264 27.7058 3.10399 27.8433 3.06733 27.9909C3.03068 28.1384 3.02691 28.2923 3.05632 28.4414C3.10608 28.6395 3.16591 28.8349 3.23555 29.0268C3.3015 29.2361 3.36742 29.4454 3.43328 29.6548C3.74837 30.6561 4.06265 31.6575 4.37614 32.6591C4.99766 34.6434 5.61641 36.6285 6.23239 38.6145C6.37085 39.0639 6.46512 39.56 6.93246 39.7815C7.28563 39.9489 7.75561 39.8902 8.1395 39.8962C9.00117 39.9098 9.86284 39.9204 10.7245 39.9278C12.8531 39.9485 14.9816 39.9634 17.1103 39.9726C18.9956 39.9825 20.8809 39.9907 22.7661 39.9972L23.276 39.9991C23.4917 40.0175 23.7089 39.9933 23.9154 39.9279C24.0584 39.8706 24.1867 39.7817 24.2909 39.6676C24.395 39.5536 24.4723 39.4174 24.5169 39.2691C24.5991 38.997 24.5315 38.7428 24.4505 38.4821C24.1596 37.5461 23.8683 36.6102 23.5765 35.6744C22.9201 33.5683 22.2625 31.4628 21.6035 29.3578C21.476 28.9505 21.3795 28.5063 21.199 28.1191C20.9432 27.5706 20.4001 27.3192 19.823 27.3155C19.0706 27.3107 18.3182 27.3068 17.5657 27.3039C15.4763 27.2944 13.3871 27.2846 11.2982 27.2744C9.2602 27.2631 7.2222 27.2511 5.18432 27.2261C4.80874 27.2214 4.43316 27.2161 4.05757 27.21C3.66853 27.204 3.66853 27.8122 4.05745 27.8186Z" fill="#211715"/>
<path d="M11.0006 23.5232C11.3744 24.8426 11.7639 26.1597 12.2458 27.4438C12.2689 27.5204 12.3204 27.5851 12.3895 27.6246C12.4586 27.6641 12.5401 27.6755 12.6173 27.6563C12.6942 27.6343 12.7594 27.5827 12.7989 27.5127C12.8384 27.4427 12.8489 27.3599 12.8283 27.2822C12.3473 25.998 11.9572 24.681 11.5837 23.362C11.4772 22.9862 10.8941 23.1466 11.0011 23.5236L11.0006 23.5232Z" fill="#211715"/>
<path d="M20.9382 25.3591C20.003 23.7164 19.1543 22.0253 18.3957 20.2928C18.3407 20.1424 18.2766 19.9955 18.2039 19.8529C18.1913 19.8317 18.1746 19.7447 18.1762 19.8379C18.1777 19.9205 18.2043 19.8387 18.2308 19.8047C18.2765 19.7463 18.3229 19.6885 18.3702 19.6313C18.5523 19.4107 18.7484 19.2022 18.9572 19.007C19.0134 18.9497 19.0449 18.8725 19.0449 18.792C19.0449 18.7115 19.0134 18.6342 18.9572 18.577L18.2005 17.9402C18.1428 17.8852 18.0664 17.8545 17.9869 17.8545C17.9074 17.8545 17.831 17.8852 17.7733 17.9402C17.7173 17.9976 17.6859 18.0748 17.6859 18.1552C17.6859 18.2357 17.7173 18.3129 17.7733 18.3702L18.5299 19.007V18.577C18.3343 18.7598 18.15 18.9544 17.978 19.1598C17.7997 19.3722 17.5207 19.6255 17.5904 19.9316C17.6333 20.0684 17.6884 20.201 17.7551 20.3279C17.8177 20.4719 17.8807 20.6158 17.9439 20.7594C18.0554 21.0122 18.1683 21.2642 18.2827 21.5156C18.6892 22.4086 19.1193 23.2903 19.5806 24.1561C19.8512 24.664 20.1314 25.1667 20.4166 25.6665C20.6103 26.0058 21.1325 25.6998 20.9383 25.3595L20.9382 25.3591Z" fill="#211715"/>
<path d="M26.5499 14.7216C26.3224 15.705 25.9907 16.6563 25.6689 17.6113C25.4277 18.3268 25.1892 19.0421 24.9293 19.7511C24.3926 21.2152 23.819 22.6659 23.2253 24.1075C23.0031 24.6472 22.795 25.1499 22.5522 25.6946C22.5142 25.7648 22.5042 25.8469 22.5243 25.9243C22.5445 26.0016 22.5932 26.0683 22.6606 26.1106C22.7299 26.1507 22.8121 26.1617 22.8894 26.1413C22.9668 26.1209 23.033 26.0707 23.0739 26.0016C23.5863 24.8518 24.0547 23.6808 24.518 22.5104C25.0903 21.0649 25.6465 19.6114 26.1313 18.1335C26.4851 17.0555 26.8762 15.9908 27.1324 14.8832C27.2205 14.5024 26.6382 14.3399 26.5499 14.7216Z" fill="#211715"/>
<path d="M11.9156 16.3498C11.7079 15.7779 11.499 15.2066 11.2937 14.6339C11.2164 14.4185 11.1301 14.184 11.2087 13.9557C11.2672 13.7877 11.3968 13.7638 11.5567 13.8318C11.7309 13.9058 11.8256 14.1075 11.9105 14.2638C12.0012 14.4303 12.0827 14.6017 12.1603 14.7747C12.3453 15.1879 12.505 15.6127 12.6548 16.0399C12.8143 16.4949 12.9626 16.9549 13.0827 17.4219C13.1803 17.8004 13.7632 17.64 13.6652 17.2602C13.4078 16.2613 13.061 15.2879 12.629 14.352C12.4179 13.8959 12.1676 13.3465 11.6334 13.2202C11.4909 13.1781 11.3397 13.176 11.1962 13.2142C11.0526 13.2524 10.9222 13.3295 10.819 13.4369C10.7244 13.5558 10.6546 13.6928 10.614 13.8396C10.5733 13.9864 10.5627 14.1399 10.5827 14.291C10.6247 14.6655 10.7935 15.0241 10.9206 15.3753C11.0578 15.7541 11.1952 16.1328 11.3327 16.5115C11.3559 16.5881 11.4074 16.6527 11.4766 16.6922C11.5459 16.7316 11.6275 16.7427 11.7046 16.7233C11.7815 16.7013 11.8467 16.6497 11.8861 16.5798C11.9256 16.5098 11.9362 16.427 11.9156 16.3493V16.3498Z" fill="#211715"/>
<path d="M11.14 20.5992C11.4565 20.8446 11.8249 21.0786 12.2234 20.8449C12.397 20.7294 12.5227 20.554 12.5768 20.3517C12.6308 20.1494 12.6095 19.9342 12.5168 19.7466C12.3591 19.512 12.1703 19.3003 11.9556 19.1172C11.7396 18.8913 11.4865 18.7047 11.2074 18.5656C10.855 18.4027 10.4864 18.2603 10.0924 18.3341C9.73432 18.4014 9.49341 18.7437 9.35332 19.0608C9.17862 19.4108 9.14415 19.8149 9.25704 20.1898C9.38026 20.5741 9.63098 20.8467 9.88233 21.151C10.167 21.4956 10.4913 21.7918 10.7959 22.1164C11.0544 22.3919 11.1231 22.7143 11.2422 23.0973C11.265 23.1741 11.3164 23.239 11.3856 23.2785C11.4548 23.3181 11.5366 23.3292 11.6137 23.3097C12.71 23.0553 13.7653 22.647 14.7487 22.0968C14.8059 22.0628 14.8505 22.0107 14.8755 21.9487C14.9005 21.8867 14.9046 21.8181 14.8871 21.7535C14.8258 21.6039 14.7738 21.4502 14.7212 21.2974L14.6908 21.5317C15.3033 20.4532 15.4432 19.0384 14.9266 17.8913C14.8662 17.7419 14.7757 17.6066 14.6607 17.4941C14.5458 17.3817 14.4089 17.2944 14.2588 17.2379C13.9576 17.1552 13.6385 17.1681 13.3449 17.2746C12.7543 17.4555 12.0937 17.7445 11.857 18.365C11.7947 18.5266 11.7767 18.702 11.8049 18.873C11.8331 19.044 11.9064 19.2042 12.0171 19.3369C12.2754 19.6455 12.6453 19.6536 13.0068 19.5583C13.3825 19.4589 13.2232 18.8722 12.8462 18.972C12.6588 19.0217 12.4895 19.048 12.4123 18.8326C12.343 18.6391 12.4714 18.437 12.6052 18.3073C12.8041 18.14 13.0343 18.0145 13.2822 17.9383C13.504 17.8543 13.762 17.7546 14.0033 17.7972C14.2276 17.8367 14.3447 18.0413 14.4204 18.2391C14.5124 18.4827 14.5755 18.7365 14.6082 18.9951C14.6745 19.5273 14.6229 20.0678 14.4571 20.5776C14.4146 20.7112 14.3632 20.8418 14.3033 20.9685C14.2308 21.1206 14.0954 21.2816 14.1385 21.4587C14.1826 21.6146 14.2381 21.7671 14.3045 21.9148L14.4429 21.5713C13.5053 22.0948 12.499 22.4826 11.4538 22.7233L11.8254 22.9357C11.7462 22.6541 11.6487 22.3781 11.5337 22.1094C11.3975 21.8138 11.1284 21.592 10.9006 21.3699C10.6714 21.1421 10.4548 20.9017 10.2517 20.65C10.0568 20.4134 9.89379 20.2468 9.81462 19.9406C9.7882 19.8173 9.78657 19.69 9.80983 19.5661C9.83309 19.4423 9.88077 19.3243 9.95005 19.2193C10.0019 19.1181 10.0703 19.0264 10.1524 18.9481C10.235 18.9193 10.3231 18.9108 10.4096 18.9235C10.6826 18.9711 10.942 19.0777 11.1701 19.236C11.3427 19.3611 11.502 19.5039 11.6453 19.6621C11.7497 19.7666 11.8533 19.8725 11.9483 19.9858C11.9533 19.9917 11.9853 20.0342 11.9568 19.9948C11.9721 20.0127 11.9852 20.0324 11.9957 20.0536C12.0005 20.0948 12.0005 20.1365 11.9957 20.1777C11.937 20.5259 11.5869 20.1834 11.4461 20.0742C11.3768 20.034 11.2945 20.0229 11.2172 20.0433C11.1398 20.0637 11.0735 20.114 11.0327 20.1833C10.9943 20.2534 10.9841 20.3357 11.0043 20.4131C11.0245 20.4906 11.0734 20.5573 11.1411 20.5994L11.14 20.5992Z" fill="#211715"/>
<path d="M10.6025 18.418C10.5888 18.3993 10.5762 18.3799 10.5647 18.3598C10.5562 18.3445 10.5337 18.2875 10.5506 18.3345C10.5405 18.3067 10.5318 18.2783 10.5247 18.2496C10.5227 18.2412 10.5121 18.1572 10.5157 18.207C10.513 18.1749 10.513 18.1426 10.5157 18.1105C10.5116 18.1561 10.5274 18.0656 10.5282 18.0626C10.531 18.0532 10.566 17.9724 10.5359 18.0331C10.5464 18.0121 10.5578 17.9923 10.5688 17.9716C10.6031 17.9064 10.5384 18.0281 10.5715 17.9687C10.5781 17.9618 10.585 17.9552 10.5923 17.9491C10.6096 17.9341 10.6016 17.9405 10.5684 17.9681C10.5836 17.9568 10.6002 17.9476 10.6179 17.9406C10.5783 17.9566 10.5694 17.9606 10.5912 17.9526C10.6007 17.9491 10.6104 17.9458 10.6202 17.9429C10.6633 17.9284 10.7076 17.9176 10.7525 17.9108C10.687 17.9191 10.782 17.915 10.788 17.9153C10.8177 17.9165 10.8474 17.9196 10.877 17.923C10.8896 17.9244 10.9651 17.9369 10.9068 17.9265C10.9415 17.9326 10.9757 17.9392 11.0098 17.9474C11.078 17.9639 11.1451 17.9854 11.2121 18.0062C11.2692 18.0241 11.3263 18.0422 11.3829 18.062C11.4112 18.072 11.4393 18.0826 11.4673 18.0933C11.525 18.1149 11.4454 18.0792 11.5051 18.1097C11.5581 18.137 11.6087 18.1652 11.659 18.1971C11.7019 18.2244 11.657 18.1925 11.6791 18.2125C11.7013 18.2325 11.7221 18.253 11.7421 18.2747C11.7555 18.2906 11.7555 18.2893 11.7421 18.2706C11.7509 18.2825 11.7592 18.2947 11.7673 18.3074C11.7833 18.3324 11.7979 18.3583 11.8109 18.385C11.82 18.4043 11.8196 18.4028 11.8097 18.3806C11.8148 18.3945 11.8195 18.4087 11.8236 18.423C11.8334 18.4563 11.8411 18.4902 11.8465 18.5244C11.8681 18.602 11.9193 18.6679 11.9889 18.7076C12.0586 18.7474 12.141 18.7579 12.2182 18.7367C12.2943 18.7134 12.3585 18.6616 12.3978 18.5921C12.437 18.5225 12.4483 18.4404 12.4292 18.3627C12.3935 18.188 12.316 18.0246 12.2034 17.8868C12.0908 17.7491 11.9465 17.6411 11.783 17.5722C11.4713 17.421 11.1338 17.331 10.7887 17.3071C10.6413 17.297 10.4939 17.3265 10.3617 17.3927C10.2295 17.459 10.1172 17.5595 10.0364 17.6839C9.9475 17.8446 9.90469 18.027 9.91269 18.2108C9.92069 18.3945 9.97919 18.5724 10.0817 18.7247C10.1233 18.7929 10.1896 18.8424 10.2665 18.8627C10.3435 18.883 10.4253 18.8726 10.4949 18.8338C10.5634 18.7925 10.6131 18.7258 10.6334 18.6481C10.6536 18.5703 10.6428 18.4877 10.6033 18.4178L10.6025 18.418Z" fill="#211715"/>
<path d="M11.0064 17.3567V17.3234C11.0026 17.3442 11.003 17.3439 11.0076 17.3228C11.0091 17.3159 11.0297 17.2559 11.0163 17.2865C11.0259 17.2664 11.0368 17.2469 11.0489 17.2281C11.0684 17.1958 11.0579 17.213 11.073 17.1961C11.1015 17.1645 11.1322 17.1351 11.1648 17.108C11.1314 17.136 11.1597 17.1118 11.1794 17.0995C11.1954 17.0896 11.2113 17.0796 11.2278 17.0706C11.2417 17.0629 11.2873 17.0428 11.2499 17.058C11.2749 17.0484 11.3005 17.0403 11.3264 17.0338C11.3638 17.0226 11.4025 17.0167 11.4415 17.0163C11.5591 17.0107 11.677 17.0147 11.7939 17.0283C11.8512 17.0344 11.7616 17.0227 11.8152 17.0307C11.8409 17.0347 11.8667 17.0389 11.8925 17.0434C11.9436 17.0532 11.9947 17.0644 12.0454 17.0761C12.1443 17.0955 12.2406 17.1264 12.3325 17.1679C12.3984 17.198 12.4549 17.2454 12.4961 17.3053C12.546 17.3734 12.5693 17.4575 12.5616 17.5418C12.5616 17.6224 12.5934 17.6998 12.65 17.7568C12.7067 17.8138 12.7835 17.8459 12.8636 17.8459C12.9438 17.8459 13.0206 17.8138 13.0772 17.7568C13.1339 17.6998 13.1657 17.6224 13.1657 17.5418C13.1689 17.3697 13.1276 17.1997 13.046 17.0485C12.9644 16.8972 12.8452 16.7699 12.7 16.6789C12.4214 16.5253 12.112 16.4365 11.7948 16.4192C11.4841 16.3653 11.1645 16.417 10.8863 16.5662C10.7461 16.6464 10.6283 16.7608 10.5436 16.899C10.459 17.0372 10.4104 17.1946 10.4022 17.3567C10.4022 17.4373 10.434 17.5147 10.4907 17.5717C10.5473 17.6287 10.6242 17.6608 10.7043 17.6608C10.7844 17.6608 10.8612 17.6287 10.9179 17.5717C10.9745 17.5147 11.0064 17.4373 11.0064 17.3567Z" fill="#211715"/>
<path d="M21.9886 9.83126C21.9213 9.55254 22.013 8.92782 22.5298 8.90527C23.2095 8.95025 23.2003 9.7123 22.9503 10.0558C22.7467 10.3364 22.1887 10.4249 21.9886 9.83126Z" fill="#211715"/>
<path d="M17.9466 9.71545C17.8857 9.43673 17.9718 8.8091 18.4451 8.78516C19.0671 8.82861 19.0572 9.59307 18.8273 9.93805C18.6393 10.2208 18.128 10.311 17.9466 9.71545Z" fill="#211715"/>
<path d="M19.9983 10.3962C19.9079 10.5409 19.8202 10.6883 19.7429 10.8405C19.7077 10.9014 19.6818 10.9672 19.666 11.0359C19.6512 11.106 19.6531 11.1787 19.6714 11.2479C19.6924 11.3172 19.7315 11.3794 19.7847 11.4281C19.8511 11.4918 19.9309 11.5395 20.0183 11.5674C20.0772 11.5823 20.1373 11.5916 20.1978 11.5953L20.1175 11.5846C20.122 11.5846 20.1264 11.5858 20.1309 11.5867C20.2095 11.6058 20.2924 11.5949 20.3636 11.556C20.3978 11.5359 20.4278 11.5091 20.4518 11.4773C20.4758 11.4455 20.4933 11.4093 20.5034 11.3706C20.5135 11.332 20.5159 11.2917 20.5105 11.2522C20.5051 11.2126 20.492 11.1745 20.4719 11.14C20.4526 11.1059 20.4266 11.076 20.3956 11.052C20.3646 11.0281 20.3292 11.0106 20.2915 11.0006C20.2461 10.9928 20.2003 10.988 20.1546 10.9825L20.2349 10.9934C20.2099 10.9902 20.1853 10.984 20.1617 10.975L20.2339 11.0057C20.2111 10.9959 20.1897 10.9831 20.1701 10.9677L20.2312 11.0152C20.2145 11.0017 20.1992 10.9866 20.1855 10.9701L20.2327 11.0317C20.2288 11.0261 20.2256 11.0201 20.2231 11.0138L20.2536 11.0864C20.2512 11.0802 20.2495 11.0737 20.2485 11.0671L20.2594 11.148C20.2585 11.1376 20.2585 11.1273 20.2594 11.1169L20.2485 11.1978C20.252 11.1755 20.2581 11.1537 20.2667 11.1329L20.2362 11.2056C20.2782 11.1148 20.3254 11.0265 20.3774 10.9412C20.4236 10.8611 20.4711 10.7819 20.5199 10.7034C20.5596 10.6336 20.5705 10.5509 20.5502 10.4731C20.5299 10.3953 20.4801 10.3286 20.4115 10.2874C20.342 10.2483 20.2601 10.2379 20.1831 10.2582C20.106 10.2785 20.0398 10.3281 19.9982 10.3964L19.9983 10.3962Z" fill="#211715"/>
<path d="M27.3898 9.21946C27.4748 9.16601 27.5716 9.1343 27.6716 9.12708C27.7717 9.11986 27.8719 9.13735 27.9637 9.17803C28.0195 9.1967 28.0705 9.22756 28.1131 9.26841C28.1557 9.30926 28.1887 9.35909 28.2099 9.41431C28.2214 9.43965 28.2211 9.43877 28.209 9.41165C28.2174 9.43547 28.2253 9.45967 28.2327 9.48425C28.2443 9.52291 28.2536 9.56226 28.2604 9.60207C28.2733 9.70368 28.2763 9.80633 28.2693 9.90854C28.2577 10.1295 28.2113 10.3472 28.132 10.5535C27.9997 10.9048 27.7747 11.2131 27.4811 11.445C27.3463 11.5548 27.1852 11.6271 27.0139 11.6546C26.8242 11.7079 26.6224 11.6976 26.4391 11.6252C26.3694 11.5866 26.2877 11.5764 26.2108 11.5967C26.1339 11.617 26.0676 11.6662 26.0258 11.7343C25.9861 11.8041 25.9752 11.8868 25.9954 11.9646C26.0157 12.0424 26.0655 12.1091 26.1341 12.1503C26.3412 12.2424 26.565 12.2905 26.7914 12.2915C27.0178 12.2924 27.242 12.2463 27.4499 12.156C27.8706 11.9657 28.2212 11.647 28.4519 11.245C28.6823 10.8753 28.8237 10.4565 28.8649 10.0221C28.9038 9.62564 28.85 9.18589 28.5745 8.88044C28.3827 8.68608 28.1317 8.56211 27.8616 8.52836C27.5915 8.49462 27.318 8.55306 27.0848 8.69433C26.7567 8.90235 27.0596 9.42914 27.3898 9.21946Z" fill="#211715"/>
<path d="M20.0523 13.046C20.3304 13.1857 20.6386 13.2537 20.9493 13.2439C21.1015 13.2432 21.2531 13.2235 21.4005 13.1851C21.5669 13.1279 21.7287 13.0577 21.8842 12.9752C21.9532 12.9343 22.0033 12.8676 22.0236 12.7896C22.0439 12.7117 22.0327 12.6288 21.9926 12.5591C21.9506 12.4913 21.8843 12.4421 21.8075 12.4219C21.7306 12.4016 21.649 12.4117 21.5792 12.45C21.513 12.4798 21.4486 12.5134 21.3833 12.5444L21.3358 12.567C21.2633 12.6013 21.3692 12.5573 21.3275 12.5704C21.3015 12.5785 21.276 12.5884 21.2497 12.5957C21.2234 12.6031 21.196 12.6099 21.1688 12.6155C21.1547 12.6184 21.1407 12.6211 21.1266 12.6236C21.118 12.625 21.0684 12.6322 21.1125 12.6264C21.1567 12.6206 21.1061 12.6264 21.0974 12.6275C21.0825 12.6289 21.0675 12.6302 21.0525 12.6313C21.0181 12.6337 20.9837 12.6351 20.9493 12.6356C20.8874 12.6365 20.8252 12.6342 20.7634 12.6289C20.748 12.6277 20.7326 12.626 20.7172 12.6245C20.6661 12.6197 20.727 12.6212 20.7287 12.6266C20.6992 12.6191 20.6691 12.6139 20.6388 12.6112C20.5779 12.5992 20.5179 12.5835 20.4589 12.5642C20.4463 12.5599 20.4326 12.5553 20.4195 12.5505C20.409 12.5466 20.3669 12.5378 20.4085 12.5471C20.4475 12.5556 20.4116 12.5486 20.3995 12.5424C20.3854 12.5352 20.3712 12.5282 20.3572 12.5207C20.323 12.5006 20.2851 12.4874 20.2458 12.482C20.2065 12.4766 20.1665 12.479 20.1281 12.4891C20.0897 12.4992 20.0537 12.5169 20.0221 12.541C19.9905 12.5652 19.9639 12.5953 19.9439 12.6298C19.9239 12.6643 19.9108 12.7024 19.9054 12.742C19.9 12.7815 19.9024 12.8218 19.9125 12.8604C19.9225 12.8991 19.9401 12.9353 19.964 12.9671C19.988 12.999 20.018 13.0258 20.0523 13.046Z" fill="#211715"/>
<path d="M23.8752 15.0191C24.4442 14.738 24.974 14.383 25.4512 13.9631C25.8746 13.5751 26.2435 13.1307 26.5474 12.6422C26.5879 12.5726 26.5992 12.4896 26.5789 12.4116C26.5585 12.3336 26.5083 12.2668 26.4391 12.2261C26.3699 12.1854 26.2875 12.1741 26.21 12.1945C26.1324 12.215 26.0662 12.2656 26.0257 12.3352C25.7478 12.7787 25.4107 13.1817 25.024 13.5331C24.5829 13.9155 24.0942 14.2385 23.5702 14.4939C23.5016 14.5352 23.4519 14.6019 23.4316 14.6797C23.4113 14.7575 23.4222 14.8402 23.4619 14.91C23.5035 14.9783 23.5697 15.0279 23.6467 15.0482C23.7238 15.0685 23.8056 15.0581 23.8752 15.0191Z" fill="#211715"/>
<path d="M16.297 8.34471C16.3963 9.29135 16.427 10.2465 16.5433 11.1908C16.6396 11.9724 16.8249 12.7498 17.2122 13.4409C17.9807 14.8127 19.552 15.6326 21.0922 15.6538C22.0639 15.6665 22.9894 15.4024 23.8753 15.0203C23.9441 14.9793 23.9941 14.9126 24.0143 14.8348C24.0346 14.7569 24.0236 14.6741 23.9837 14.6044C23.9418 14.5363 23.8756 14.4871 23.7987 14.4668C23.7217 14.4465 23.64 14.4567 23.5704 14.4953C22.2468 15.0668 20.6942 15.3141 19.3616 14.6323C18.7339 14.3287 18.1998 13.8594 17.8163 13.2744C17.4596 12.6576 17.2351 11.9724 17.157 11.263C17.0239 10.2973 17.0028 9.31441 16.9011 8.34459C16.899 8.26464 16.8664 8.18858 16.8102 8.13203C16.7541 8.07547 16.6785 8.04273 16.5991 8.04053C16.5191 8.04106 16.4426 8.07326 16.3861 8.13017C16.3295 8.18708 16.2975 8.26424 16.297 8.34471Z" fill="#211715"/>
<path d="M22.5424 4.21669C22.0303 4.85051 21.4379 5.41403 20.7803 5.89281C19.9455 6.45229 19.0569 6.92591 18.1281 7.30656C17.6372 7.51649 17.1337 7.6993 16.6303 7.87667C16.5541 7.89977 16.4897 7.95151 16.4504 8.02115C16.4111 8.09079 16.4 8.17298 16.4193 8.25067C16.4412 8.32818 16.4926 8.39391 16.5622 8.43364C16.6319 8.47337 16.7143 8.48392 16.7916 8.463C17.7805 8.12127 18.7455 7.71322 19.6801 7.24157C20.505 6.83935 21.2723 6.32728 21.9615 5.71912C22.319 5.383 22.6553 5.02474 22.9684 4.64642C23.0232 4.58841 23.0537 4.51145 23.0537 4.43143C23.0537 4.35141 23.0232 4.27445 22.9684 4.21643C22.9115 4.16003 22.8348 4.12842 22.7548 4.12842C22.6749 4.12842 22.5982 4.16003 22.5413 4.21643L22.5424 4.21669Z" fill="#211715"/>
<path d="M22.5424 4.64642C23.0114 5.20679 23.4468 5.79484 23.8461 6.40743C24.3055 7.08729 24.7107 7.80272 25.0578 8.547C25.0987 8.61618 25.1649 8.66641 25.2422 8.68682C25.3195 8.70724 25.4017 8.69619 25.471 8.65608C25.5388 8.61413 25.588 8.54748 25.6081 8.47C25.6283 8.39252 25.618 8.31018 25.5794 8.24015C25.2248 7.48011 24.81 6.75004 24.339 6.057C23.9186 5.41711 23.4614 4.80253 22.9696 4.21643C22.9126 4.16003 22.8359 4.12842 22.756 4.12842C22.6761 4.12842 22.5994 4.16003 22.5424 4.21643C22.4872 4.27423 22.4564 4.35127 22.4564 4.43143C22.4564 4.51158 22.4872 4.58863 22.5424 4.64642Z" fill="#211715"/>
<path d="M17.8188 13.4342C17.2368 13.2367 16.6734 12.9169 16.3108 12.4034C15.8806 11.7934 15.7508 11.0571 15.7901 10.3218C15.831 9.55353 16.0335 8.7911 16.1928 8.04134C16.3583 7.26168 16.5309 6.48303 16.7242 5.71022C17.015 4.54681 17.3494 3.33906 18.1378 2.41143C18.9002 1.51445 20.0959 0.986785 21.2393 0.745311C22.0659 0.577138 22.916 0.561384 23.7482 0.698816C24.3622 0.797001 25.0365 0.956759 25.5758 1.27868C25.9111 1.4786 26.2153 0.953212 25.8808 0.753546C25.3416 0.458788 24.7573 0.256764 24.152 0.155816C23.3395 -0.00924641 22.5059 -0.0421814 21.6829 0.0582642C20.918 0.157454 20.173 0.375418 19.4745 0.70439C18.9269 0.947907 18.4219 1.27901 17.9794 1.68485C17.0534 2.58082 16.6037 3.82074 16.2738 5.03901C16.0546 5.84793 15.871 6.66699 15.6948 7.48605C15.5163 8.31132 15.3076 9.14469 15.2145 9.98504C15.1138 10.8957 15.2279 11.8593 15.7405 12.6376C16.1955 13.3285 16.8899 13.7592 17.6588 14.0202C18.0281 14.1455 18.1864 13.5584 17.8194 13.4337L17.8188 13.4342Z" fill="#211715"/>
<path d="M26.5883 1.86964C27.3501 2.3933 27.9375 3.13579 28.274 4.00034C28.6663 4.98663 28.7145 6.08289 28.9033 7.11821C29.0977 8.18622 29.3971 9.23205 29.5807 10.3021C29.6672 10.7837 29.6419 11.2788 29.507 11.749C29.3721 12.2192 29.1312 12.6516 28.803 13.0126C28.0964 13.7728 27.0904 14.0186 26.0843 13.9593C25.696 13.9364 25.6973 14.5445 26.0843 14.5674C27.1095 14.6278 28.1352 14.3888 28.9369 13.7206C29.35 13.3645 29.6806 12.9215 29.9054 12.423C30.1302 11.9245 30.2438 11.3824 30.2381 10.835C30.2317 10.2895 30.0948 9.73971 29.9775 9.20976C29.8528 8.64649 29.7155 8.08626 29.5975 7.52159C29.3629 6.39936 29.3057 5.22557 28.9592 4.12956C28.6028 2.99304 27.8747 2.01142 26.8934 1.3445C26.5661 1.13204 26.2623 1.65819 26.5885 1.86964H26.5883Z" fill="#211715"/>
<path d="M26.8093 11.6847C26.6351 11.6856 26.4654 11.741 26.3238 11.8431C26.1822 11.9452 26.0755 12.0891 26.0186 12.2548C25.9709 12.4104 25.9731 12.5771 26.0248 12.7313C26.0819 12.8987 26.192 13.0427 26.338 13.1413C26.4784 13.2278 26.6391 13.2753 26.8037 13.279C26.9682 13.2826 27.1308 13.2423 27.2749 13.162C27.4184 13.0769 27.5315 12.9481 27.5977 12.7942C27.664 12.6403 27.6801 12.4692 27.6438 12.3055C27.5682 11.9183 27.1837 11.6781 26.8093 11.6847C26.7292 11.6847 26.6523 11.7167 26.5957 11.7738C26.539 11.8308 26.5072 11.9081 26.5072 11.9888C26.5072 12.0694 26.539 12.1467 26.5957 12.2038C26.6523 12.2608 26.7292 12.2928 26.8093 12.2928C26.8462 12.292 26.8831 12.294 26.9197 12.2988L26.8394 12.288C26.8665 12.292 26.8933 12.2978 26.9197 12.3054C26.9312 12.3088 26.9426 12.3131 26.9542 12.3166C27.006 12.3323 26.8876 12.2821 26.9343 12.3082C26.9545 12.3194 26.9749 12.3297 26.9943 12.3426C27.0212 12.3605 27.0278 12.3828 26.9767 12.3275C26.9841 12.3356 26.9937 12.3424 27.0019 12.35C27.0144 12.3617 27.0619 12.4193 27.027 12.3735C26.9922 12.3278 27.0192 12.364 27.0263 12.3749C27.0333 12.3858 27.0401 12.3973 27.0463 12.409C27.0525 12.4207 27.0694 12.4597 27.0478 12.4082C27.0261 12.3568 27.0425 12.3962 27.0467 12.4089C27.0548 12.4342 27.0609 12.4602 27.0649 12.4865L27.0542 12.4057C27.0609 12.4559 27.0609 12.5067 27.0542 12.5568L27.065 12.476C27.0612 12.5022 27.0554 12.5281 27.0477 12.5534C27.0445 12.5637 27.0404 12.5737 27.0371 12.5838C27.0261 12.6172 27.0722 12.5116 27.0497 12.552C27.0349 12.5724 27.0218 12.5939 27.0103 12.6163C27.0078 12.6089 27.0668 12.5529 27.0298 12.5888C27.0207 12.5976 27.0126 12.6071 27.0034 12.6159C26.9942 12.6246 26.987 12.6294 26.9796 12.6368C27.0385 12.5783 27.024 12.6035 26.9991 12.6197C26.9787 12.6324 26.957 12.6434 26.9362 12.6548C26.9053 12.6714 27.0099 12.628 26.9641 12.6421C26.9508 12.6464 26.9377 12.6512 26.9241 12.6548C26.8958 12.6626 26.867 12.6685 26.838 12.6726L26.9183 12.6617C26.8575 12.6697 26.796 12.6703 26.735 12.6634L26.8153 12.6742C26.7869 12.6705 26.7587 12.6649 26.731 12.6574C26.7199 12.6544 26.709 12.6506 26.6979 12.6472C26.644 12.6311 26.7239 12.6612 26.7256 12.6605C26.7153 12.6652 26.6657 12.6291 26.6556 12.6225C26.6455 12.6159 26.6108 12.5894 26.6543 12.6235C26.6999 12.659 26.6599 12.6268 26.6504 12.618C26.6253 12.5938 26.5917 12.533 26.6423 12.617C26.6297 12.5968 26.6171 12.5772 26.6045 12.5566C26.5764 12.5078 26.6185 12.5873 26.6158 12.5874C26.6105 12.575 26.606 12.5623 26.6025 12.5494C26.5946 12.5229 26.5888 12.4959 26.585 12.4685L26.5958 12.5494C26.59 12.5036 26.59 12.4573 26.5958 12.4115L26.585 12.4924C26.5886 12.4684 26.594 12.4447 26.601 12.4215C26.6041 12.4111 26.6088 12.401 26.6117 12.3906C26.59 12.4699 26.5886 12.4427 26.6029 12.416C26.609 12.4043 26.6155 12.3929 26.6226 12.3818C26.6298 12.3706 26.6555 12.3365 26.6217 12.3801C26.588 12.4237 26.6147 12.3897 26.6234 12.3801C26.6321 12.3705 26.6418 12.3605 26.6514 12.3512C26.6611 12.342 26.6686 12.3365 26.6766 12.3288C26.7018 12.3052 26.6137 12.3723 26.6538 12.3476C26.6684 12.3387 26.7104 12.3028 26.7271 12.3059C26.719 12.3043 26.6506 12.3356 26.7019 12.3171C26.7135 12.313 26.7252 12.309 26.737 12.3056C26.7666 12.2973 26.7967 12.2911 26.8272 12.2869L26.7469 12.2978C26.7681 12.2952 26.7894 12.2936 26.8109 12.2927C26.891 12.2927 26.9679 12.2607 27.0245 12.2036C27.0812 12.1466 27.113 12.0693 27.113 11.9886C27.113 11.908 27.0812 11.8307 27.0245 11.7736C26.9679 11.7166 26.891 11.6846 26.8109 11.6846L26.8093 11.6847Z" fill="#211715"/>
<path d="M15.5191 19.3805C15.6256 19.1265 15.7512 18.8811 15.8948 18.6463C16.0053 18.4362 16.1267 18.232 16.2585 18.0347C16.5339 17.6644 16.8781 17.3513 17.2719 17.1129C18.1305 16.5775 19.086 16.2026 20.0269 15.8424C20.1029 15.8191 20.1671 15.7673 20.2064 15.6977C20.2456 15.6281 20.2569 15.5461 20.2378 15.4684C20.216 15.391 20.1648 15.3253 20.0953 15.2855C20.0258 15.2458 19.9435 15.2352 19.8663 15.2561C19.0549 15.5529 18.2618 15.8979 17.4911 16.2892C16.7642 16.672 16.0814 17.1592 15.64 17.8722C15.3649 18.2984 15.1294 18.7492 14.9365 19.2188C14.9158 19.2966 14.9264 19.3794 14.9659 19.4494C15.0054 19.5194 15.0706 19.5709 15.1476 19.5928C15.2248 19.6124 15.3065 19.6013 15.3757 19.5617C15.4449 19.5222 15.4963 19.4573 15.5191 19.3805Z" fill="#211715"/>
<path d="M31.0235 35.4838C31.9192 35.1682 32.7897 34.7844 33.6274 34.3356C34.5618 33.8302 35.5043 33.2125 36.0505 32.2692C36.5036 31.4861 36.6309 30.6032 36.6392 29.7086C36.6307 29.3286 36.5942 28.9497 36.5299 28.5751C36.4656 28.1167 36.3915 27.6599 36.3123 27.2039C36.1141 26.0637 35.8445 24.9437 35.5446 23.8263C35.3344 23.0437 35.1339 22.2584 34.8946 21.4842C34.6226 20.5418 34.2591 19.6286 33.8091 18.758C33.3415 17.8979 32.6857 17.1561 31.8913 16.5887C31.0824 16.0077 30.1502 15.6192 29.2104 15.3091C29.0929 15.2703 28.9751 15.2328 28.8568 15.1964C28.801 15.179 28.745 15.1621 28.6891 15.1457L28.5925 15.1169C28.6208 15.1254 28.6231 15.1349 28.6086 15.1296C28.53 15.1013 28.4538 15.0555 28.3784 15.0194L27.5603 14.6278L27.3771 14.5401C27.3074 14.5016 27.2257 14.4914 27.1488 14.5117C27.0719 14.532 27.0056 14.5812 26.9637 14.6492C26.924 14.719 26.913 14.8017 26.9333 14.8795C26.9536 14.9574 27.0034 15.024 27.0721 15.0652C27.4808 15.2607 27.8869 15.463 28.2988 15.6519C28.483 15.7243 28.6714 15.7855 28.8629 15.8351C29.1027 15.9111 29.3412 15.9922 29.5769 16.0796C30.0189 16.2407 30.4484 16.4342 30.8621 16.6588C31.6737 17.0911 32.3756 17.7055 32.9137 18.4545C33.4376 19.2036 33.7836 20.0716 34.08 20.9324C34.3495 21.7146 34.5709 22.5119 34.7817 23.3116C35.0489 24.3226 35.3313 25.3296 35.5425 26.3546C35.7293 27.2614 35.8889 28.1837 35.9957 29.1038C36.035 29.45 36.0425 29.7991 36.0181 30.1467C36.0048 30.5445 35.9385 30.9387 35.821 31.3187C35.6828 31.7336 35.4667 32.1179 35.1843 32.4506C34.8355 32.8326 34.4326 33.1607 33.9886 33.4243C33.1596 33.9332 32.2848 34.3626 31.3759 34.7067C31.2064 34.7728 31.0359 34.8365 30.8644 34.8977C30.7882 34.9209 30.7239 34.9726 30.6846 35.0423C30.6453 35.1119 30.6342 35.1941 30.6534 35.2717C30.6753 35.3491 30.7266 35.4147 30.7961 35.4544C30.8656 35.4941 30.9478 35.5048 31.025 35.4841L31.0235 35.4838Z" fill="#211715"/>
<path d="M20.8558 18.1512C21.8033 18.3249 22.7736 18.3313 23.7233 18.1701C24.627 18.0462 25.5036 17.7699 26.3161 17.3528C26.6607 17.1711 26.3556 16.6461 26.0113 16.8276C25.2785 17.2097 24.4853 17.4607 23.6672 17.5693C22.7757 17.6919 21.9066 17.7391 21.0168 17.5647C20.9396 17.5454 20.858 17.5567 20.7889 17.5962C20.7197 17.6358 20.6683 17.7006 20.6453 17.7772C20.6247 17.8549 20.6353 17.9377 20.6748 18.0076C20.7142 18.0776 20.7794 18.1291 20.8562 18.1512H20.8558Z" fill="#211715"/>
<path d="M19.6022 16.0179C19.769 17.6172 20.063 19.2005 20.4812 20.7525C20.7625 21.8242 21.0811 22.8907 21.4567 23.9331C21.7168 24.6552 22.0294 25.3567 22.3487 26.0535C22.3895 26.1227 22.4558 26.173 22.5331 26.1934C22.6105 26.2138 22.6927 26.2027 22.762 26.1626C22.8298 26.1207 22.8789 26.054 22.8991 25.9765C22.9193 25.8991 22.909 25.8167 22.8704 25.7467C22.3999 24.7264 21.9921 23.678 21.6495 22.6074C21.2387 21.3265 20.8957 20.0246 20.6219 18.7072C20.4366 17.8188 20.2979 16.9211 20.2066 16.0179C20.2045 15.938 20.172 15.8618 20.1158 15.8053C20.0596 15.7487 19.984 15.716 19.9045 15.7139C19.8246 15.7144 19.748 15.7466 19.6915 15.8035C19.635 15.8604 19.603 15.9375 19.6024 16.0179H19.6022Z" fill="#211715"/>
<path d="M28.1559 16.4852C28.2843 16.6719 28.396 16.8696 28.4899 17.0761C28.5561 17.2005 28.6044 17.3338 28.6335 17.472V17.3103C28.7167 17.1954 28.738 17.1565 28.6973 17.1936C28.7451 17.1576 28.7558 17.1488 28.7295 17.167C28.7144 17.1746 28.6999 17.1835 28.6863 17.1936C28.6382 17.2226 28.5884 17.249 28.5389 17.2752C28.4038 17.3469 28.2666 17.4146 28.1293 17.4825C27.8483 17.6208 27.5653 17.7547 27.2837 17.8918C27.2443 17.9157 27.2107 17.9483 27.1856 17.987C27.1605 18.0258 27.1443 18.0698 27.1385 18.1157C27.1326 18.1616 27.1371 18.2083 27.1517 18.2522C27.1663 18.2961 27.1905 18.3362 27.2226 18.3693C27.4719 18.6393 27.7231 18.9075 27.9664 19.1831C28.0463 19.2736 28.198 19.3931 28.2294 19.5132C28.2531 19.6034 28.1897 19.6798 28.1467 19.7562C27.916 20.1676 27.6756 20.5734 27.4318 20.9769C26.7982 22.0259 26.1403 23.0597 25.4581 24.0784C25.0704 24.6579 24.6745 25.2313 24.2647 25.796C24.2249 25.8657 24.2139 25.9485 24.2342 26.0263C24.2545 26.1041 24.3044 26.1708 24.3731 26.2119C24.4426 26.2508 24.5245 26.2612 24.6015 26.2409C24.6785 26.2206 24.7448 26.1711 24.7864 26.1028C25.5606 25.0372 26.2892 23.9379 26.9962 22.8263C27.5897 21.8932 28.1838 20.9533 28.7139 19.9818C28.8174 19.8142 28.8576 19.6146 28.8272 19.4196C28.7731 19.2162 28.6638 19.0319 28.5115 18.8875C28.2318 18.5646 27.9397 18.253 27.6501 17.9392L27.5889 18.4168C28.0508 18.1918 28.53 17.9882 28.9743 17.7288C29.0582 17.6881 29.1304 17.6265 29.1839 17.5498C29.2112 17.4867 29.2244 17.4184 29.2223 17.3496C29.2202 17.2809 29.203 17.2134 29.1719 17.1522C29.0513 16.8067 28.8851 16.4791 28.6779 16.1781C28.636 16.11 28.5698 16.0608 28.4929 16.0405C28.4159 16.0202 28.3342 16.0304 28.2646 16.069C28.1959 16.1102 28.146 16.1769 28.1258 16.2547C28.1055 16.3325 28.1164 16.4152 28.1562 16.485L28.1559 16.4852Z" fill="#211715"/>
</g>
<defs>
<clipPath id="clip0_492_96">
<rect width="42" height="40" fill="white"/>
</clipPath>
</defs>
</svg>
