<svg width="43" height="40" viewBox="0 0 43 40" fill="none" xmlns="http://www.w3.org/2000/svg">
<g clip-path="url(#clip0_492_35)">
<path d="M24.2875 14.8149C23.7516 15.0461 23.1918 15.2191 22.6179 15.3309C22.4218 15.3628 22.2207 15.3853 22.0122 15.3984C21.4307 15.4423 20.8461 15.377 20.2892 15.2062L20.2838 15.2044C20.3354 15.6145 20.3781 15.9524 20.3781 15.9524C20.5043 17.3658 21.5494 21.8825 22.1844 23.5817C22.3648 24.0635 22.5031 24.4186 22.6535 24.7946C22.7784 25.1074 22.9112 25.4347 23.0833 25.8617L23.3563 25.8096C23.4871 25.5225 23.6784 25.0837 23.906 24.5489C24.6616 22.7704 25.8113 19.9307 26.4295 18.07C26.794 16.973 27.2364 15.8468 27.5218 14.55C27.3454 14.423 27.2216 14.3319 27.2216 14.3319C26.9104 13.991 26.6622 13.5991 26.488 13.1738C26.3647 13.2917 26.2015 13.4533 26.0885 13.566C26.0456 13.6107 26.0011 13.6551 25.9553 13.6993C25.4563 14.1479 24.8948 14.5238 24.2877 14.8154" fill="white"/>
<path d="M29.6221 34.9646L23.5044 34.6905C24.0027 36.2554 24.4745 37.7394 24.8001 38.7656C24.8512 38.9264 24.8432 39.0997 24.7775 39.2552C24.7118 39.4106 24.5927 39.5383 24.441 39.6158L24.368 39.653L24.4721 39.6102C26.0293 38.9697 31.0708 36.7614 32.0267 36.3283L31.4383 34.6504C30.8642 34.8872 30.2437 34.9946 29.6221 34.9646Z" fill="white"/>
<path d="M24.2877 14.8152C23.7517 15.0464 23.1919 15.2194 22.618 15.3313C22.4219 15.3632 22.2208 15.3856 22.0123 15.3987C20.7148 15.4798 19.6501 15.1184 18.659 14.2772C17.7137 13.475 17.3247 12.237 17.2079 10.8758C17.1403 10.0908 17.0861 9.23815 16.9938 8.38509C16.9938 8.38509 16.1357 4.68359 21.9774 4.68359C27.8191 4.68359 27.8857 8.99919 27.8857 8.99919C28.0738 8.88022 28.3009 8.83672 28.5205 8.87762C28.6598 8.89143 28.7928 8.94146 28.906 9.0226C29.0192 9.10373 29.1085 9.21306 29.1648 9.3394C29.3452 9.75863 29.2317 10.4674 29.0083 10.8849C28.8172 11.2925 28.5071 11.6345 28.1178 11.8675C27.8374 12.0036 27.5237 12.0593 27.2127 12.0282C27.1698 12.1103 27.1423 12.1633 27.1423 12.1633C27.0382 12.3646 26.7944 12.7153 26.7944 12.7153C26.5447 13.0672 26.2636 13.3964 25.9546 13.6991C25.4557 14.1477 24.8941 14.5236 24.287 14.8152" fill="white"/>
<path d="M23.0833 25.8613C22.705 24.9212 22.5141 24.4639 22.1844 23.5813C22.1254 23.4234 22.0629 23.2412 21.9977 23.0394C22.0564 21.3004 22.0879 21.1009 22.2604 19.8316C22.3127 19.4473 22.4129 18.9951 22.4943 18.5828C22.3572 18.2601 22.1237 17.6737 21.9948 17.3162L21.9655 17.2346C22.2656 16.9298 22.5324 16.6916 22.8726 16.4004C23.2043 16.6139 23.7847 16.9585 24.2879 17.2972C24.1333 17.7672 23.981 18.3171 23.8483 18.7883C23.8534 18.9446 24.2529 21.3011 24.3779 21.7966L24.5923 22.6466L24.632 22.8037C24.0997 24.1082 23.6118 25.2482 23.3563 25.8092L23.0833 25.8613Z" fill="#54D8CE"/>
<path d="M12.7072 27.3282C12.2227 26.0675 11.8013 24.6731 11.4325 23.3968L14.9268 19.4785C15.0969 18.9899 15.3126 18.5178 15.5711 18.0684C15.8359 17.6817 16.1809 17.3548 16.5834 17.1093C17.5181 16.5249 19.2023 15.8822 20.3397 15.5086C20.3621 15.7647 20.3783 15.9517 20.3783 15.9517C20.5045 17.3651 21.5496 21.8818 22.1846 23.581C22.5143 24.4635 22.7052 24.9208 23.0835 25.8609L23.3565 25.8088C23.9222 24.5672 25.6256 20.4895 26.4297 18.0693C26.7942 16.9722 27.2367 15.8462 27.5206 14.5483C27.8915 14.8151 28.4965 15.2387 28.6698 15.2957C29.5236 15.5767 30.6156 15.9661 31.4726 16.2715C32.4745 16.6285 33.3153 17.0728 34.0512 17.8328C34.712 18.5159 35.3719 19.9339 35.8575 21.4358C36.8956 24.6471 37.5742 28.0559 37.5738 29.589C37.5568 30.1413 37.4769 30.6901 37.3358 31.2248C37.1211 31.8495 36.8868 32.5088 36.0149 33.1516C34.78 34.062 32.7934 34.8242 31.7124 35.1771H22.9026L12.7072 27.3282Z" fill="white"/>
<path d="M28.46 35.8551C27.9247 36.2792 27.5205 36.8547 26.9664 37.4241C26.8867 37.5059 26.5605 37.7205 26.3092 37.5292C26.1437 37.4035 26.1199 37.0876 26.1797 36.9586C26.5054 36.2566 26.6388 36.044 26.8809 35.5525C26.586 35.8589 26.3558 36.1157 26.0064 36.4638L25.6503 36.8186L25.203 37.2644C25.203 37.2644 24.8868 37.5973 24.544 37.9585C24.1795 36.8106 23.7112 35.3389 23.2384 33.8546C23.6661 33.3257 24.0426 32.7293 24.5649 32.277C24.9281 31.9412 25.3897 31.7271 25.8837 31.6655C26.0879 31.6533 26.2928 31.6602 26.4956 31.6859C26.8827 31.725 27.2686 31.7747 27.6531 31.8351C28.3518 31.945 29.1343 32.0737 29.6937 31.6074C30.4179 32.2393 31.0754 33.4863 31.4384 34.6502C31.3078 34.7127 31.1823 34.7849 31.0629 34.8662C30.9821 34.9207 30.722 35.1477 30.6361 35.1937C29.9734 35.5414 29.2497 35.7619 28.5036 35.8434" fill="white"/>
<path d="M4.15409 27.4801C8.12161 27.5451 17.1785 27.5653 20.4123 27.5867C20.6519 27.5881 20.8849 27.6643 21.0777 27.8045C21.2706 27.9446 21.4134 28.1415 21.4856 28.3667C22.2552 30.7659 23.9855 36.1975 24.7998 38.7654C24.8339 38.8728 24.8419 38.9866 24.823 39.0976C24.8041 39.2086 24.759 39.3137 24.6912 39.4042C24.6234 39.4948 24.5349 39.5683 24.4328 39.6188C24.3308 39.6693 24.2181 39.6954 24.1039 39.6949C20.5997 39.6822 11.1582 39.6493 7.5282 39.5767C7.3758 39.5739 7.2282 39.5237 7.10643 39.4333C6.98465 39.3429 6.89492 39.2169 6.85 39.0733C6.13405 36.7913 4.29596 31.0406 3.44909 28.4134C3.41413 28.3051 3.40585 28.1901 3.42492 28.0779C3.44399 27.9658 3.48987 27.8597 3.55876 27.7685C3.62765 27.6773 3.71757 27.6036 3.82109 27.5534C3.92461 27.5033 4.03876 27.4781 4.15409 27.4801Z" fill="white"/>
<path d="M2.94333 17.4129C2.84635 17.3614 2.77331 17.2749 2.73947 17.1716C2.53853 16.6126 2.39289 16.0357 2.30457 15.4491C2.30457 15.4491 2.30766 15.3855 2.31165 15.2976C3.06376 15.2539 3.80948 15.1356 4.53748 14.9443C4.58091 15.0206 4.61377 15.0772 4.61377 15.0772C4.72394 15.1559 4.89649 16.2192 4.92896 16.6759C4.93483 16.7564 4.92796 16.8373 4.9086 16.9157C4.85103 17.0477 4.7528 17.1585 4.62781 17.2324C4.22419 17.3387 3.81278 17.4138 3.39731 17.457C3.25072 17.4814 3.10027 17.469 2.95983 17.4209C2.95416 17.4187 2.94875 17.4157 2.94333 17.4129Z" fill="white"/>
<path d="M3.71784 10.1502C3.79709 10.1743 3.87828 10.2029 3.96088 10.2367C4.40241 10.4078 4.78637 10.6976 5.06909 11.0731C5.31796 11.4169 5.47518 11.8167 5.52629 12.236C5.58136 12.6394 5.55335 13.0496 5.44395 13.4421C5.37211 13.7407 5.26003 14.0285 5.11071 14.2977C4.98665 14.5175 4.8373 14.7224 4.66562 14.9084C3.8431 15.138 2.99573 15.27 2.14148 15.3016C1.6174 15.1937 1.00582 14.5576 0.784049 14.1481C0.613693 13.8531 0.488873 13.5347 0.413701 13.2034C0.341211 12.8339 0.342437 12.4539 0.417309 12.0849C0.502439 11.5867 0.739295 11.1259 1.09641 10.7637C1.36187 10.5135 1.67808 10.3215 2.02421 10.2005C2.19762 10.1332 2.37792 10.0846 2.56195 10.0556C2.94961 10.0025 3.34438 10.0348 3.71784 10.1502Z" fill="#54D8CE"/>
<path d="M28.6039 2.80776C29.5553 3.82851 29.9678 4.83477 29.8576 6.97117C29.8146 7.80873 29.5195 8.60335 29.1646 9.33877C29.1083 9.21252 29.0189 9.10329 28.9057 9.02224C28.7925 8.94119 28.6595 8.89124 28.5203 8.87749C28.3007 8.8366 28.0736 8.8801 27.8855 8.99907L26.6695 8.74677L26.609 8.47999C26.5217 8.05836 26.3742 7.65106 26.1709 7.27021C25.8393 6.65899 25.3109 6.1739 24.6689 5.89134C24.6689 5.89134 24.3872 5.76151 24.2522 5.71654C23.6285 5.50921 21.9905 5.36236 21.9905 5.36236C21.2441 5.28562 20.4935 5.25448 19.7432 5.26911C19.459 5.25767 19.1777 5.32989 18.9353 5.47657C18.6276 5.69253 18.4951 6.07745 18.2991 6.40013C17.9588 6.96011 17.2493 7.20733 17.0833 7.85128L16.9279 7.86094C16.8696 7.3706 16.848 6.87669 16.8635 6.38323C16.8795 4.82969 17.5502 3.28821 18.3415 2.60132C18.6937 2.16992 19.1055 1.78934 19.5649 1.47068C20.8085 0.640482 22.2935 0.234455 23.7932 0.314641C25.2819 0.371935 26.779 0.765752 27.8672 2.02406L28.6039 2.80776Z" fill="#54D8CE"/>
<path d="M15.1382 18.9495C15.2393 19.7967 15.0536 20.653 14.6099 21.3853C14.7851 21.8546 14.6841 21.5544 14.7685 21.9738L14.7776 22.0194C13.94 22.3144 12.5854 22.7011 11.6273 22.9807L11.5723 22.7266C11.554 22.5193 11.4866 22.3191 11.3754 22.1422C11.2205 21.9246 11.0383 21.7272 10.8332 21.5547C10.4925 21.2189 10.1722 20.8636 9.8738 20.4907C9.70628 20.2976 9.55834 19.8113 9.61917 19.5396C9.66495 19.2225 9.80746 18.9266 10.0278 18.6911C10.0897 18.6385 10.1623 18.5995 10.2407 18.5767C10.3191 18.554 10.4016 18.548 10.4825 18.5591C10.4682 18.5312 10.4591 18.5129 10.4591 18.5129C10.3988 18.4279 10.358 18.331 10.3395 18.229C10.3209 18.1269 10.3251 18.0221 10.3517 17.9218C10.436 17.653 10.5657 17.6023 10.7973 17.5565C10.8405 17.5494 10.8844 17.5475 10.928 17.551C10.741 17.3096 10.8493 17.0494 11.0247 16.8817C11.1637 16.7434 11.3499 16.661 11.5472 16.6505C11.6594 16.6431 11.772 16.6443 11.884 16.6542L11.7722 16.3663C11.5629 15.8016 11.3539 15.2368 11.1451 14.6719C11.0892 14.5343 11.0469 14.3917 11.0187 14.2461C10.9956 14.1273 10.9981 14.0051 11.0261 13.8873C11.054 13.7696 11.1068 13.6589 11.181 13.5626C11.3283 13.3934 11.6112 13.39 11.8264 13.4826C12.0625 13.5842 12.1861 13.7791 12.3238 14.0244C12.7713 14.8208 13.3328 16.3938 13.5639 17.2792L13.6228 17.5047C13.932 17.4119 14.2601 17.3722 14.5265 17.5352C14.7501 17.6722 14.873 17.9225 14.9587 18.1679C15.0468 18.4213 15.107 18.6834 15.1382 18.9495Z" fill="white"/>
<path d="M36.8955 32.6604C37.5446 32.6604 38.1937 32.6594 38.8429 32.6573L41.9208 32.6524C42.181 32.6524 42.4412 32.652 42.7013 32.6513C43.0993 32.6513 43.0999 32.0415 42.7013 32.0415C42.0304 32.0415 41.3594 32.0425 40.6883 32.0446L37.6286 32.0495C37.3842 32.0495 37.1399 32.0499 36.8955 32.0507C36.4974 32.0507 36.4968 32.6604 36.8955 32.6604Z" fill="#211715"/>
<path d="M0.902689 32.6613C1.94415 32.6613 2.98561 32.6554 4.02694 32.6526C4.20413 32.6526 4.38118 32.6513 4.55824 32.6513C4.95629 32.6513 4.95694 32.0415 4.55824 32.0415C3.49925 32.0415 2.44027 32.0473 1.38128 32.0503C1.22175 32.0503 1.06222 32.0515 0.902689 32.0515C0.504764 32.0515 0.50412 32.6613 0.902689 32.6613Z" fill="#211715"/>
<path d="M31.7944 35.4715C32.6917 35.1793 33.5689 34.8302 34.4205 34.4265C35.3591 33.9793 36.3603 33.453 36.9977 32.6158C37.535 31.9106 37.7429 31.031 37.8408 30.1716C37.9266 29.4188 37.8396 28.6708 37.7335 27.9238C37.3956 25.6841 36.8645 23.477 36.146 21.3263C35.794 20.2447 35.3694 19.1347 34.7229 18.1868C34.1473 17.3431 33.2934 16.7209 32.3622 16.3016C31.8577 16.0745 31.3313 15.8981 30.8104 15.7132C30.2624 15.5188 29.7138 15.3258 29.1628 15.1395C29.0416 15.0984 28.9206 15.0562 28.7985 15.0175C28.7262 14.9946 28.7463 14.993 28.7804 15.0143C28.7568 14.9996 28.7288 14.9889 28.7045 14.9753C28.5756 14.9051 28.4536 14.8229 28.3319 14.7423C28.0601 14.5612 27.794 14.3715 27.5299 14.1797C27.479 14.1428 27.4282 14.1057 27.3774 14.0684C27.3065 14.028 27.2223 14.0169 27.1431 14.0374C27.0639 14.0579 26.9961 14.1083 26.9544 14.1778C26.9149 14.248 26.9044 14.3306 26.925 14.4082C26.9457 14.4859 26.9959 14.5528 27.0653 14.5948C27.4796 14.9166 27.9129 15.2139 28.3628 15.4853C28.5106 15.5615 28.6656 15.6231 28.8256 15.6693C29.0812 15.7549 29.3361 15.8419 29.5904 15.9304C30.1115 16.111 30.6313 16.2956 31.1508 16.4806C32.1237 16.8272 33.0416 17.254 33.7758 17.9916C34.0786 18.3125 34.3345 18.6736 34.5361 19.0643C34.7973 19.5452 35.0254 20.0429 35.2191 20.5539C35.6383 21.6827 35.9939 22.8334 36.2842 24.0008C36.56 25.0536 36.8028 26.1159 36.993 27.187C37.2561 28.6672 37.4707 30.2304 36.8471 31.6563C36.4506 32.5628 35.634 33.0987 34.7853 33.5575C33.94 34.0059 33.0608 34.3892 32.1556 34.7042C31.9816 34.7662 31.8066 34.8259 31.6308 34.8835C31.2549 35.0066 31.416 35.5957 31.7952 35.4715H31.7944Z" fill="#211715"/>
<path d="M29.9803 30.6779C30.6152 30.4125 31.2252 30.1032 31.8453 29.8071C31.9158 29.766 31.967 29.6991 31.9878 29.621C32.0086 29.5429 31.9972 29.4599 31.9563 29.39C31.9135 29.3217 31.8457 29.2723 31.7669 29.2519C31.6882 29.2316 31.6045 29.2418 31.5332 29.2806C30.9131 29.5766 30.303 29.886 29.6681 30.1514C29.5974 30.1923 29.5461 30.2592 29.5253 30.3374C29.5045 30.4156 29.5159 30.4987 29.5571 30.5685C29.6003 30.6365 29.6681 30.6856 29.7467 30.7059C29.8254 30.7263 29.9089 30.7163 29.9803 30.6779Z" fill="#211715"/>
<path d="M30.3904 24.9334L31.3335 28.3363C31.4382 28.7143 32.0351 28.5538 31.9298 28.1742L30.9868 24.7713C30.8821 24.3932 30.2852 24.5537 30.3904 24.9334Z" fill="#211715"/>
<path d="M29.4184 31.4324C28.9789 31.7088 28.4336 31.6472 27.9424 31.5733C27.3348 31.4818 26.7136 31.3621 26.0975 31.3537C24.8415 31.3365 24.0167 32.3241 23.3342 33.2297C23.2933 33.2996 23.282 33.3826 23.3028 33.4607C23.3236 33.5388 23.3747 33.6056 23.4451 33.6468C23.5163 33.6858 23.6001 33.6961 23.6789 33.6758C23.7577 33.6554 23.8255 33.6058 23.8682 33.5374C24.1903 33.1098 24.5247 32.657 24.9704 32.345C25.1765 32.195 25.4083 32.0828 25.6547 32.0137C25.9209 31.9571 26.1954 31.9485 26.4647 31.9883C27.0387 32.0444 27.6044 32.1506 28.1768 32.2156C28.7088 32.2759 29.2666 32.2515 29.7305 31.9595C30.0655 31.749 29.7551 31.221 29.4184 31.433V31.4324Z" fill="#211715"/>
<path d="M24.6428 33.6523L23.697 34.5767C23.6679 34.6049 23.6447 34.6386 23.6289 34.6757C23.613 34.7128 23.6048 34.7526 23.6046 34.7928C23.6045 34.8331 23.6124 34.8729 23.6279 34.9102C23.6435 34.9474 23.6663 34.9812 23.6952 35.0096C23.7241 35.0381 23.7584 35.0607 23.7961 35.076C23.8339 35.0913 23.8743 35.0991 23.9151 35.0989C23.956 35.0988 23.9964 35.0907 24.034 35.075C24.0716 35.0594 24.1057 35.0366 24.1343 35.0079L25.0802 34.0836C25.1089 34.0553 25.1317 34.0216 25.1473 33.9846C25.1628 33.9476 25.1708 33.908 25.1708 33.868C25.1708 33.8279 25.1628 33.7883 25.1473 33.7513C25.1317 33.7143 25.109 33.6807 25.0803 33.6523C25.0515 33.624 25.0174 33.6015 24.9799 33.5862C24.9424 33.5709 24.9022 33.563 24.8616 33.563C24.8209 33.563 24.7807 33.5709 24.7432 33.5862C24.7057 33.6015 24.6716 33.624 24.6428 33.6523Z" fill="#211715"/>
<path d="M24.7305 36.3052C25.2073 35.7557 25.73 35.2446 26.2511 34.7365C26.3083 34.6792 26.3402 34.6019 26.3399 34.5214C26.3396 34.441 26.307 34.3639 26.2493 34.3071C26.1916 34.2502 26.1135 34.2181 26.0319 34.2178C25.9503 34.2174 25.8719 34.2489 25.8137 34.3053C25.2921 34.8135 24.7699 35.3244 24.2932 35.874C24.2359 35.9313 24.204 36.0086 24.2043 36.0891C24.2047 36.1695 24.2372 36.2465 24.2949 36.3034C24.3526 36.3603 24.4308 36.3924 24.5124 36.3927C24.5939 36.393 24.6724 36.3616 24.7305 36.3052Z" fill="#211715"/>
<path d="M25.4213 37.4799C25.7726 37.1299 26.1284 36.7836 26.4731 36.4271C26.7776 36.1123 27.0727 35.7889 27.3827 35.4792C27.4399 35.4218 27.4718 35.3445 27.4715 35.2641C27.4712 35.1837 27.4386 35.1066 27.3809 35.0497C27.3232 34.9929 27.2451 34.9608 27.1635 34.9605C27.0819 34.9601 27.0035 34.9916 26.9454 35.048C26.6353 35.3577 26.3397 35.681 26.0356 35.996C25.691 36.3524 25.3352 36.6987 24.984 37.0487C24.9267 37.1061 24.8948 37.1834 24.8951 37.2638C24.8955 37.3442 24.928 37.4213 24.9857 37.4781C25.0434 37.535 25.1216 37.5671 25.2032 37.5674C25.2847 37.5678 25.3631 37.5363 25.4213 37.4799Z" fill="#211715"/>
<path d="M28.5032 36.1486C29.1347 36.0762 29.7527 35.9164 30.3388 35.6737C30.5856 35.5759 30.8173 35.4445 31.0271 35.2833C31.0695 35.2495 31.1115 35.2151 31.1538 35.1809C31.1745 35.1643 31.1951 35.1475 31.216 35.131C31.2558 35.0997 31.1815 35.1551 31.2111 35.1351C31.3343 35.0523 31.463 34.978 31.5964 34.9125C31.6315 34.8923 31.6622 34.8655 31.6867 34.8336C31.7113 34.8017 31.7292 34.7653 31.7395 34.7266C31.7498 34.6878 31.7523 34.6474 31.7468 34.6078C31.7413 34.5681 31.7279 34.5299 31.7074 34.4953C31.6869 34.4607 31.6596 34.4305 31.6273 34.4063C31.5949 34.3821 31.558 34.3644 31.5187 34.3542C31.4794 34.3441 31.4385 34.3416 31.3983 34.3471C31.358 34.3525 31.3192 34.3657 31.2842 34.3859C31.0718 34.4924 30.8722 34.6219 30.689 34.772C30.6302 34.8229 30.5688 34.8708 30.5049 34.9154C30.384 34.9872 30.2578 35.05 30.1274 35.1034C29.6109 35.3267 29.0638 35.4734 28.5037 35.5388C28.4225 35.5413 28.3453 35.5742 28.2878 35.6308C28.2304 35.6875 28.197 35.7636 28.1945 35.8437C28.1949 35.9244 28.2276 36.0017 28.2855 36.0588C28.3434 36.1159 28.4218 36.1481 28.5037 36.1486H28.5032Z" fill="#211715"/>
<path d="M29.362 31.7308C29.8603 32.0971 30.2229 32.6848 30.5117 33.2253C30.8544 33.8684 31.1142 34.5513 31.2849 35.258C31.3771 35.6391 31.9738 35.478 31.8814 35.0959C31.692 34.3217 31.403 33.5746 31.0213 32.8727C30.681 32.2449 30.2581 31.6337 29.6738 31.2041C29.6029 31.1638 29.5187 31.1526 29.4395 31.1731C29.3603 31.1936 29.2925 31.244 29.2508 31.3134C29.2113 31.3837 29.2007 31.4663 29.2214 31.544C29.2421 31.6217 29.2923 31.6885 29.3617 31.7306L29.362 31.7308Z" fill="#211715"/>
<path d="M26.5209 35.5839C26.3945 35.8327 26.2631 36.0793 26.1393 36.3291C26.041 36.5095 25.9535 36.6954 25.8775 36.886C25.8281 37.0474 25.8267 37.2193 25.8732 37.3815C25.8979 37.4797 25.944 37.5714 26.0083 37.6502C26.0727 37.729 26.1536 37.7931 26.2456 37.8379C26.3376 37.8828 26.4384 37.9073 26.541 37.9099C26.6436 37.9124 26.7455 37.8929 26.8397 37.8526C27.2113 37.7071 27.4563 37.3534 27.7091 37.0639C28.0019 36.7052 28.3265 36.3729 28.679 36.0708C28.7365 36.0134 28.7687 35.9359 28.7687 35.8552C28.7687 35.7745 28.7365 35.6971 28.679 35.6396C28.6201 35.584 28.5416 35.5529 28.46 35.5529C28.3783 35.5529 28.2999 35.584 28.2409 35.6396C27.671 36.097 27.2552 36.7012 26.7422 37.2138C26.7341 37.2218 26.6901 37.2551 26.7247 37.2303C26.7617 37.2037 26.6844 37.2537 26.6758 37.2586C26.6613 37.2666 26.6023 37.2928 26.6475 37.2754C26.6294 37.2824 26.5558 37.3032 26.5724 37.3008C26.5593 37.3059 26.545 37.3074 26.5312 37.3049C26.5173 37.3025 26.5044 37.2963 26.4939 37.2869C26.5238 37.3042 26.4767 37.2579 26.5044 37.2996C26.4943 37.2845 26.4852 37.2687 26.477 37.2525C26.4915 37.2806 26.4828 37.272 26.477 37.2477C26.4707 37.2201 26.4622 37.1933 26.4573 37.1654C26.4674 37.2232 26.4594 37.1436 26.4585 37.1242C26.4585 37.1115 26.4611 37.0988 26.4598 37.0861C26.4598 37.0927 26.4444 37.1369 26.4566 37.1086C26.4606 37.0992 26.4606 37.087 26.4639 37.0771C26.4792 37.0324 26.4499 37.1044 26.4736 37.0546C26.542 36.911 26.6094 36.7671 26.6798 36.6244C26.8013 36.379 26.9303 36.1374 27.0542 35.8933C27.0937 35.8231 27.1042 35.7405 27.0835 35.6628C27.0628 35.5852 27.0126 35.5183 26.9433 35.4761C26.8723 35.4361 26.7882 35.4252 26.7091 35.4456C26.63 35.4661 26.5622 35.5163 26.5202 35.5855L26.5209 35.5839Z" fill="#211715"/>
<path d="M24.5541 39.9042C25.5631 39.4887 26.5633 39.053 27.564 38.6185C28.7196 38.1174 29.8736 37.613 31.0261 37.1053C31.4127 36.9352 31.7983 36.7656 32.1826 36.5916C32.2529 36.5504 32.3039 36.4835 32.3247 36.4055C32.3454 36.3274 32.3342 36.2444 32.2935 36.1745C32.2508 36.106 32.183 36.0565 32.1042 36.0361C32.0253 36.0157 31.9416 36.0261 31.8703 36.0651C29.8538 36.978 27.818 37.8529 25.7834 38.7259C25.5108 38.8428 25.2381 38.9591 24.9651 39.075C24.851 39.1233 24.7367 39.1714 24.6225 39.2194C24.5967 39.2301 24.4475 39.2923 24.5246 39.2603C24.4795 39.2791 24.4346 39.2976 24.3896 39.3161C24.312 39.3398 24.2464 39.3918 24.2063 39.4615C24.1662 39.5312 24.1545 39.6134 24.1737 39.6912C24.1959 39.7689 24.2483 39.8349 24.3195 39.8747C24.3907 39.9146 24.475 39.9251 24.5541 39.9042Z" fill="#211715"/>
<path d="M4.15415 27.785C6.00718 27.8152 7.86047 27.8269 9.71376 27.8388C11.8786 27.8525 14.0435 27.8634 16.2084 27.8714C17.119 27.8754 18.0296 27.8796 18.9403 27.8841C19.2959 27.8859 19.6516 27.8877 20.0072 27.8897C20.4026 27.892 20.809 27.8685 21.0703 28.2228C21.1758 28.3978 21.252 28.5883 21.2962 28.7871L21.4783 29.3561C21.6232 29.8089 21.7679 30.2616 21.9125 30.7144C22.2485 31.7666 22.5842 32.819 22.9194 33.8715C23.2498 34.9084 23.5799 35.9455 23.9097 36.9827C24.0488 37.42 24.1878 37.8575 24.3267 38.295C24.4267 38.61 24.72 39.1567 24.2848 39.3528C24.1383 39.419 23.9498 39.3902 23.7915 39.3897L23.2793 39.3879L22.0975 39.3834C21.1557 39.3799 20.2139 39.376 19.2721 39.3717C17.1294 39.362 14.9868 39.3493 12.8442 39.3336C11.1059 39.3203 9.36712 39.3075 7.62903 39.2741C7.43497 39.2702 7.25172 39.2249 7.16294 39.034C7.1012 38.8754 7.04956 38.7133 7.0083 38.5484C6.88425 38.1543 6.75969 37.7605 6.63461 37.367C6.32285 36.3827 6.00988 35.3989 5.69572 34.4158C5.07924 32.4833 4.46071 30.5514 3.84011 28.6202C3.78586 28.4517 3.68548 28.2568 3.74037 28.0815C3.76713 27.9944 3.82203 27.9183 3.89673 27.8647C3.97143 27.8112 4.06182 27.7832 4.15415 27.785C4.55194 27.7799 4.55297 27.17 4.15415 27.1752C3.99946 27.1757 3.84679 27.2099 3.70709 27.2753C3.56739 27.3408 3.44412 27.436 3.34613 27.554C3.24814 27.672 3.17786 27.8099 3.14033 27.9578C3.1028 28.1058 3.09895 28.2601 3.12905 28.4097C3.18 28.6083 3.24125 28.8042 3.31255 28.9966C3.38007 29.2064 3.44755 29.4163 3.51499 29.6263C3.83758 30.6303 4.15934 31.6345 4.4803 32.6389C5.11661 34.6285 5.7501 36.6191 6.38075 38.6105C6.5225 39.0611 6.61901 39.5586 7.09748 39.7807C7.45906 39.9486 7.94023 39.8897 8.33326 39.8958C9.21545 39.9093 10.0976 39.9198 10.9798 39.9273C13.159 39.9481 15.3383 39.9631 17.5176 39.9724C19.4478 39.9823 21.378 39.9905 23.3082 39.997L23.8302 39.9989C24.051 40.0174 24.2734 39.9932 24.4848 39.9275C24.6312 39.8701 24.7626 39.7809 24.8692 39.6665C24.9758 39.5522 25.0549 39.4156 25.1006 39.2669C25.1848 38.9941 25.1156 38.7392 25.0326 38.4778C24.7348 37.5392 24.4366 36.6008 24.1378 35.6624C23.4658 33.5507 22.7925 31.4394 22.1179 29.3285C21.9873 28.92 21.8885 28.4747 21.7037 28.0865C21.4418 27.5364 20.8858 27.2844 20.295 27.2807C19.5246 27.2758 18.7543 27.272 17.9838 27.269C15.8447 27.2593 13.7058 27.2495 11.5672 27.2394C9.48065 27.2281 7.39412 27.216 5.30772 27.1909C4.92319 27.1863 4.53867 27.1809 4.15415 27.1749C3.75596 27.1688 3.75596 27.7785 4.15415 27.785Z" fill="#211715"/>
<path d="M11.1337 23.4783C11.5164 24.8013 11.9152 26.122 12.4085 27.4096C12.4322 27.4864 12.4849 27.5513 12.5556 27.5909C12.6264 27.6306 12.7099 27.6419 12.7889 27.6227C12.8677 27.6006 12.9344 27.5489 12.9748 27.4787C13.0152 27.4085 13.026 27.3255 13.0049 27.2475C12.5125 25.9599 12.113 24.6392 11.7307 23.3161C11.6217 22.9394 11.0247 23.1001 11.1342 23.4783H11.1337Z" fill="#211715"/>
<path d="M3.63554 10.4444C3.70074 10.4648 3.76543 10.4864 3.82883 10.5112C3.85134 10.5197 3.87376 10.5287 3.8961 10.5383C3.85512 10.5213 3.85134 10.5199 3.88476 10.5339C3.95859 10.5672 4.03179 10.6013 4.10292 10.6398C4.28553 10.7371 4.45321 10.8596 4.60097 11.0033C4.94095 11.3463 5.15812 11.7893 5.21951 12.265C5.27308 12.7006 5.23183 13.1425 5.0985 13.5611C4.96518 13.9798 4.74285 14.3656 4.44634 14.6929L4.5828 14.6145C3.9293 14.8044 3.25738 14.9261 2.5781 14.9776C2.42342 15.0074 2.26436 15.0074 2.10969 14.9776C1.97016 14.9239 1.83999 14.8491 1.72387 14.7559C1.47343 14.5669 1.2601 14.3344 1.09439 14.0699C0.727683 13.4883 0.595793 12.7921 0.72481 12.1192C0.781209 11.8008 0.910876 11.4994 1.10385 11.238C1.29683 10.9767 1.54799 10.7624 1.83805 10.6117C2.09738 10.4818 2.3756 10.3923 2.66276 10.3464C2.57075 10.3614 2.71302 10.3425 2.75528 10.3398C2.83028 10.3352 2.90567 10.3341 2.98079 10.336C3.20278 10.3434 3.42281 10.3797 3.63515 10.444C4.01761 10.5554 4.18101 9.96709 3.79958 9.85593C2.64962 9.52093 1.33549 9.89328 0.609608 10.8567C0.307722 11.2814 0.122671 11.776 0.0725119 12.2923C-0.000664492 13.003 0.160717 13.7181 0.532677 14.3312C0.834337 14.8646 1.30293 15.2874 1.86846 15.5366C2.15633 15.6509 2.47952 15.6001 2.78119 15.5693C3.13208 15.5338 3.48168 15.4817 3.82819 15.4169C4.09493 15.3667 4.3609 15.3097 4.62288 15.239C4.76429 15.2073 4.89035 15.1286 4.97995 15.0162C5.09716 14.8787 5.20438 14.7332 5.30082 14.5808C5.59148 14.1004 5.77493 13.5644 5.83895 13.0085C5.93621 12.2956 5.77043 11.572 5.37182 10.9695C4.98881 10.4356 4.43528 10.0436 3.79971 9.85619C3.4197 9.73715 3.25694 10.3256 3.63554 10.4444Z" fill="#211715"/>
<path d="M2.77155 16.6955C3.44406 16.607 4.11128 16.4831 4.77032 16.3241C4.84896 16.302 4.91563 16.2503 4.95601 16.1801C4.9964 16.11 5.00727 16.0271 4.9863 15.9491C4.96308 15.872 4.91048 15.8068 4.83954 15.7671C4.76859 15.7274 4.68481 15.7163 4.60577 15.7362C4.29998 15.8103 3.99174 15.8751 3.68247 15.9339C3.52036 15.9647 3.35791 15.9937 3.19512 16.0209C3.11643 16.0339 3.0376 16.0467 2.95866 16.059C2.91794 16.0651 2.87734 16.0717 2.83662 16.0771C2.82528 16.0786 2.70531 16.0951 2.77155 16.0863C2.69022 16.0885 2.61284 16.1213 2.55531 16.178C2.49779 16.2348 2.46449 16.311 2.46228 16.3912C2.46898 16.5382 2.59978 16.7189 2.77155 16.6961V16.6955Z" fill="#211715"/>
<path d="M1.99524 15.4495C2.00832 15.6272 2.03704 15.8034 2.08106 15.9761C2.13261 16.2159 2.19188 16.4539 2.25889 16.6903C2.31573 16.9131 2.38956 17.1313 2.47976 17.3432C2.61893 17.6496 2.92627 17.7775 3.25293 17.7724C3.51749 17.7577 3.78063 17.7241 4.04027 17.6719C4.26437 17.6447 4.48547 17.5973 4.70082 17.5304C4.83192 17.4791 4.94814 17.3967 5.03912 17.2904C5.1301 17.1842 5.19304 17.0574 5.22232 16.9214C5.24508 16.6655 5.2305 16.4078 5.17903 16.156C5.14398 15.9019 5.10313 15.6491 5.0481 15.3991C5.01086 15.2301 4.97388 14.9815 4.83277 14.8621C4.77379 14.8068 4.69547 14.7759 4.61403 14.7759C4.53259 14.7759 4.45427 14.8068 4.39529 14.8621C4.33798 14.9196 4.30587 14.9971 4.30587 15.0777C4.30587 15.1583 4.33798 15.2357 4.39529 15.2933C4.40238 15.2992 4.34014 15.2139 4.37995 15.2794C4.34903 15.2286 4.36294 15.2333 4.37815 15.2815C4.4016 15.3558 4.42171 15.4307 4.43936 15.5067C4.4842 15.7 4.51861 15.8959 4.54928 16.0921C4.55607 16.1354 4.56264 16.1788 4.56899 16.2223C4.56771 16.213 4.58188 16.3185 4.57698 16.2774C4.57209 16.2364 4.58484 16.338 4.58381 16.33C4.59502 16.4182 4.60533 16.5064 4.61332 16.5948C4.61706 16.6357 4.62118 16.6768 4.62157 16.718C4.62157 16.7434 4.6159 16.7761 4.61861 16.8021C4.61487 16.7661 4.60817 16.8589 4.62453 16.7996C4.63897 16.7479 4.61371 16.8175 4.6083 16.8261C4.59734 16.8435 4.58704 16.8613 4.57518 16.8782C4.5382 16.9313 4.55314 16.9079 4.56126 16.8981C4.5583 16.9016 4.50701 16.9744 4.52492 16.9417L4.49915 16.9576C4.53098 16.9449 4.53691 16.9422 4.51706 16.9492C4.49722 16.9562 4.47969 16.9609 4.46101 16.9662C4.42544 16.9764 4.38962 16.9852 4.35367 16.9937C4.24388 17.0191 4.13293 17.0402 4.02185 17.0596C3.91322 17.0787 3.8042 17.0958 3.69505 17.1119C3.63771 17.1205 3.58037 17.1285 3.52302 17.1365C3.51529 17.1376 3.46053 17.1448 3.51014 17.1382C3.48153 17.1421 3.45279 17.1459 3.42419 17.1493C3.33036 17.163 3.23526 17.1663 3.14069 17.1589C3.1111 17.1555 3.08311 17.1439 3.06002 17.1253C3.08 17.1417 3.03335 17.0762 3.05397 17.1142C3.04868 17.1043 3.00835 17.019 3.02923 17.0693C2.96253 16.8978 2.90608 16.7226 2.86016 16.5446C2.79616 16.3177 2.73864 16.089 2.68761 15.8586C2.66674 15.7645 2.64689 15.6702 2.63014 15.5753C2.62396 15.5405 2.61867 15.5057 2.61313 15.4707C2.62911 15.5724 2.61494 15.474 2.61403 15.4494C2.60115 15.058 1.98261 15.0562 1.9955 15.4494L1.99524 15.4495Z" fill="#211715"/>
<path d="M3.97842 7.79384C3.87481 8.05401 3.76966 8.31368 3.66297 8.57283C3.652 8.61206 3.64912 8.65304 3.65447 8.69339C3.65983 8.73373 3.67332 8.7726 3.69415 8.80772C3.71464 8.84231 3.74185 8.87257 3.77421 8.89679C3.80657 8.921 3.84346 8.93869 3.88275 8.94885C3.92205 8.95901 3.963 8.96143 4.00325 8.95598C4.0435 8.95054 4.08226 8.93733 4.11733 8.9171L4.17983 8.86947C4.21774 8.83217 4.24518 8.78582 4.25947 8.73493C4.36642 8.47594 4.47144 8.21628 4.57453 7.95594C4.58543 7.91668 4.58828 7.87569 4.58293 7.83533C4.57757 7.79498 4.56412 7.75609 4.54335 7.72092C4.52286 7.68633 4.49565 7.65607 4.46329 7.63186C4.43093 7.60764 4.39404 7.58995 4.35474 7.57979C4.31545 7.56963 4.2745 7.56721 4.23425 7.57266C4.194 7.5781 4.15524 7.59132 4.12017 7.61154L4.05767 7.6593C4.0197 7.69655 3.99225 7.74293 3.97803 7.79384H3.97842Z" fill="#211715"/>
<path d="M2.59961 8.31892C2.57504 8.1863 2.55356 8.0532 2.53518 7.91964L2.54613 8.00069C2.53178 7.89474 2.51946 7.78858 2.50915 7.68221C2.50687 7.60177 2.47478 7.52494 2.41894 7.46625C2.36094 7.40907 2.28228 7.37695 2.20026 7.37695C2.11825 7.37695 2.03958 7.40907 1.98159 7.46625C1.95254 7.49438 1.92957 7.52801 1.91407 7.56513C1.89857 7.60225 1.89085 7.64207 1.89138 7.68221C1.91716 7.94975 1.95478 8.21653 2.00375 8.48102C2.02534 8.55753 2.07614 8.62282 2.1455 8.6632C2.21777 8.70396 2.30342 8.71501 2.38389 8.69394C2.46143 8.67252 2.52761 8.62248 2.56868 8.5542C2.60704 8.48204 2.6181 8.39877 2.59987 8.3193L2.59961 8.31892Z" fill="#211715"/>
<path d="M1.09404 8.88266C0.913636 8.66251 0.727302 8.44603 0.528211 8.24176C0.469591 8.18532 0.391081 8.15345 0.309146 8.15283C0.227165 8.15322 0.148572 8.18513 0.0900811 8.24176C0.0322957 8.2992 -0.000126069 8.37682 -0.00012207 8.45772C0.00156171 8.53828 0.0337355 8.61531 0.0900811 8.67369C0.289946 8.8772 0.476795 9.09367 0.657202 9.31383C0.685996 9.34212 0.720165 9.36453 0.757754 9.37979C0.795344 9.39505 0.835615 9.40285 0.876267 9.40276C0.958259 9.40242 1.03687 9.37051 1.09533 9.31383C1.15315 9.25641 1.18558 9.17877 1.18553 9.09787L1.17445 9.01682C1.16021 8.96594 1.13281 8.91959 1.09494 8.88228L1.09404 8.88266Z" fill="#211715"/>
<path d="M4.52122 12.8642C4.3454 12.6155 4.08807 12.434 3.7925 12.3503C3.49496 12.2549 3.13531 12.1805 2.83738 12.3033C2.70991 12.3582 2.59573 12.4392 2.50242 12.5409C2.40911 12.6425 2.3388 12.7626 2.29616 12.8932C2.24387 13.063 2.24743 13.2448 2.30631 13.4125C2.36519 13.5802 2.47639 13.7253 2.62398 13.8269C2.75547 13.9151 2.90863 13.9667 3.06736 13.9764C3.22609 13.9861 3.38453 13.9534 3.52602 13.8818C3.8224 13.7491 3.96028 13.4196 3.96853 13.1119C3.98502 12.5014 3.41816 12.1629 2.87063 12.0947C2.53111 12.0435 2.18443 12.1192 1.89862 12.307C1.5516 12.5502 1.39864 12.9258 1.34851 13.3299C1.34895 13.4106 1.38168 13.4879 1.43958 13.545C1.49748 13.6021 1.57589 13.6344 1.65778 13.6348C1.73918 13.6329 1.81671 13.6001 1.87429 13.5434C1.93187 13.4866 1.96508 13.4102 1.96705 13.3299C1.97692 13.1569 2.05356 12.9942 2.18125 12.8752C2.30894 12.7561 2.478 12.6897 2.65375 12.6896C2.69486 12.6896 2.73609 12.691 2.77707 12.6943C2.79782 12.6959 2.81882 12.6977 2.83944 12.7004C2.82501 12.6984 2.78893 12.6917 2.85065 12.7037C2.93303 12.7183 3.01374 12.7408 3.09162 12.771C3.04485 12.7519 3.14652 12.8 3.15528 12.805C3.17358 12.8153 3.23414 12.8558 3.22229 12.8462C3.19561 12.8255 3.24136 12.8633 3.24664 12.8684C3.2603 12.8817 3.27383 12.8951 3.28685 12.9089C3.31984 12.9438 3.26443 12.8741 3.29136 12.9136C3.30467 12.9331 3.31689 12.9533 3.32796 12.9741C3.30218 12.9266 3.34277 13.0213 3.34651 13.0376C3.3487 13.0471 3.35244 13.0945 3.3487 13.0476C3.35001 13.0637 3.35048 13.0799 3.35012 13.096C3.35012 13.1035 3.34613 13.1723 3.35012 13.1362C3.35411 13.1001 3.34419 13.1646 3.34252 13.1712C3.3371 13.1927 3.33144 13.2139 3.32473 13.2348C3.32267 13.241 3.29986 13.2983 3.31107 13.2747C3.29484 13.3096 3.25438 13.3462 3.30785 13.3072C3.28544 13.323 3.26077 13.3354 3.23466 13.344C3.17334 13.3738 3.10295 13.38 3.03724 13.3614C2.99232 13.3463 2.95328 13.3177 2.92552 13.2797C2.90581 13.2571 2.89118 13.2306 2.88259 13.202C2.87399 13.1734 2.87163 13.1434 2.87565 13.1138C2.87849 13.0971 2.90851 13.0177 2.89472 13.0478C2.87746 13.0859 2.90233 13.0351 2.90761 13.0271C2.91714 13.0114 2.92616 12.9957 2.93609 12.9803C2.96488 12.9349 3.00557 12.8979 3.05387 12.8733C3.07815 12.8575 3.10626 12.8484 3.13531 12.8468C3.09935 12.8526 3.15812 12.8468 3.16031 12.8468C3.18694 12.8471 3.21353 12.8489 3.23994 12.8523C3.35293 12.8665 3.46455 12.8898 3.57369 12.922C3.66363 12.944 3.74951 12.9798 3.8282 13.0281C3.89045 13.0649 3.94443 13.1138 3.98683 13.1719C4.02953 13.2403 4.09735 13.2898 4.17617 13.3102C4.25499 13.3306 4.33875 13.3202 4.41001 13.2813C4.48025 13.2399 4.53123 13.1731 4.55198 13.0951C4.57273 13.0171 4.56159 12.9342 4.52096 12.8642H4.52122Z" fill="#211715"/>
<path d="M22.5121 9.8753C22.4432 9.59581 22.5371 8.96939 23.0662 8.94678C23.7621 8.99188 23.7527 9.75601 23.4968 10.1004C23.2883 10.3824 22.717 10.4712 22.5121 9.8753Z" fill="#211715"/>
<path d="M18.3741 9.75999C18.3117 9.4805 18.3998 8.85116 18.8844 8.82715C19.5212 8.87072 19.511 9.63727 19.2757 9.98319C19.0832 10.2667 18.5598 10.3572 18.3741 9.75999Z" fill="#211715"/>
<path d="M20.4745 10.4427C20.382 10.5878 20.2921 10.7357 20.213 10.8883C20.1769 10.9493 20.1504 11.0153 20.1343 11.0842C20.1191 11.1545 20.121 11.2274 20.1398 11.2968C20.1613 11.3662 20.2013 11.4287 20.2558 11.4775C20.3237 11.5414 20.4055 11.5892 20.495 11.6172C20.5552 11.6321 20.6167 11.6414 20.6787 11.6452L20.5965 11.6344C20.6012 11.6344 20.6057 11.6356 20.6102 11.6365C20.6907 11.6557 20.7756 11.6447 20.8484 11.6058C20.8835 11.5856 20.9142 11.5587 20.9388 11.5268C20.9633 11.4949 20.9813 11.4586 20.9916 11.4198C21.0019 11.3811 21.0044 11.3407 20.9988 11.3011C20.9933 11.2614 20.9799 11.2232 20.9594 11.1886C20.9395 11.1544 20.913 11.1244 20.8813 11.1004C20.8495 11.0764 20.8133 11.0589 20.7746 11.0488C20.7282 11.041 20.6813 11.0361 20.6345 11.0307L20.7167 11.0416C20.6911 11.0384 20.6659 11.0322 20.6417 11.0232L20.7157 11.0539C20.6924 11.044 20.6704 11.0312 20.6504 11.0158L20.7129 11.0634C20.6959 11.0499 20.6802 11.0347 20.6661 11.0182L20.7144 11.08C20.7105 11.0744 20.7072 11.0684 20.7046 11.0621L20.7358 11.1348C20.7334 11.1286 20.7317 11.1221 20.7307 11.1155L20.7417 11.1966C20.7408 11.1862 20.7408 11.1758 20.7417 11.1655L20.7307 11.2465C20.7342 11.2242 20.7404 11.2023 20.7492 11.1815L20.718 11.2544C20.7611 11.1633 20.8094 11.0747 20.8627 10.989C20.91 10.9087 20.9586 10.8292 21.0086 10.7506C21.0492 10.6806 21.0604 10.5976 21.0396 10.5196C21.0189 10.4416 20.9679 10.3747 20.8977 10.3334C20.8264 10.2942 20.7426 10.2837 20.6638 10.3041C20.5849 10.3245 20.5171 10.3742 20.4745 10.4427Z" fill="#211715"/>
<path d="M28.0418 9.26239C28.1289 9.2088 28.228 9.177 28.3304 9.16976C28.4328 9.16252 28.5355 9.18006 28.6295 9.22085C28.6866 9.23957 28.7388 9.27052 28.7824 9.31148C28.826 9.35244 28.8598 9.4024 28.8815 9.45778C28.8933 9.48318 28.893 9.4823 28.8806 9.45511C28.8892 9.47899 28.8973 9.50326 28.9048 9.5279C28.9167 9.56667 28.9262 9.60613 28.9332 9.64605C28.9465 9.74794 28.9495 9.85087 28.9423 9.95335C28.9304 10.1749 28.883 10.3932 28.8017 10.6001C28.6663 10.9523 28.4359 11.2614 28.1354 11.4941C27.9973 11.6041 27.8324 11.6766 27.6571 11.7042C27.4629 11.7577 27.2563 11.7473 27.0685 11.6747C26.9972 11.636 26.9136 11.6257 26.8348 11.6461C26.756 11.6664 26.6882 11.7158 26.6454 11.7841C26.6047 11.8541 26.5936 11.937 26.6143 12.015C26.6351 12.0931 26.6861 12.1599 26.7563 12.2013C26.9684 12.2936 27.1975 12.3418 27.4293 12.3428C27.6611 12.3438 27.8906 12.2975 28.1034 12.207C28.5341 12.0161 28.893 11.6965 29.1293 11.2935C29.3652 10.9227 29.51 10.5028 29.5521 10.0672C29.5919 9.66968 29.5369 9.22873 29.2548 8.92244C29.0584 8.72755 28.8014 8.60324 28.5249 8.56941C28.2484 8.53557 27.9683 8.59417 27.7296 8.73582C27.3937 8.94442 27.7038 9.47264 28.0418 9.26239Z" fill="#211715"/>
<path d="M20.5297 13.0995C20.8144 13.2396 21.13 13.3078 21.4481 13.2979C21.604 13.2972 21.7591 13.2774 21.9101 13.239C22.0804 13.1816 22.246 13.1112 22.4053 13.0285C22.4759 12.9875 22.5272 12.9206 22.548 12.8424C22.5688 12.7643 22.5573 12.6812 22.5162 12.6113C22.4732 12.5432 22.4054 12.494 22.3267 12.4736C22.248 12.4533 22.1644 12.4634 22.093 12.5019C22.0253 12.5318 21.9593 12.5654 21.8924 12.5965L21.8438 12.6192C21.7696 12.6536 21.878 12.6095 21.8353 12.6226C21.8086 12.6307 21.7826 12.6406 21.7557 12.648C21.7288 12.6554 21.7007 12.6622 21.6728 12.6678C21.6584 12.6707 21.6441 12.6734 21.6297 12.6759C21.6208 12.6773 21.57 12.6846 21.6152 12.6787C21.6605 12.6729 21.6087 12.6787 21.5998 12.6798C21.5844 12.6813 21.5691 12.6825 21.5538 12.6837C21.5185 12.6861 21.4833 12.6876 21.4481 12.688C21.3847 12.6889 21.321 12.6866 21.2578 12.6813C21.242 12.68 21.2262 12.6784 21.2105 12.6768C21.1582 12.672 21.2205 12.6735 21.2222 12.679C21.192 12.6714 21.1612 12.6662 21.1302 12.6635C21.0679 12.6515 21.0064 12.6357 20.946 12.6164C20.9332 12.612 20.9191 12.6075 20.9057 12.6026C20.8949 12.5987 20.8519 12.5899 20.8944 12.5992C20.9343 12.6077 20.8976 12.6007 20.8852 12.5945C20.8708 12.5873 20.8562 12.5803 20.8419 12.5728C20.8069 12.5526 20.7681 12.5394 20.7278 12.5339C20.6876 12.5285 20.6467 12.5309 20.6074 12.5411C20.5681 12.5512 20.5312 12.5689 20.4988 12.5931C20.4665 12.6173 20.4392 12.6476 20.4187 12.6822C20.3982 12.7167 20.3849 12.755 20.3793 12.7946C20.3738 12.8343 20.3763 12.8747 20.3866 12.9134C20.3969 12.9522 20.4148 12.9885 20.4394 13.0204C20.4639 13.0523 20.4946 13.0793 20.5297 13.0995Z" fill="#211715"/>
<path d="M24.4438 15.0782C25.066 14.7822 25.6408 14.3977 26.1497 13.9369C26.4185 13.6802 26.665 13.4017 26.8865 13.1043C27.0829 12.8566 27.2578 12.5932 27.4095 12.3167C27.5937 11.9692 27.0601 11.6606 26.8754 12.0088C26.2673 13.1559 25.2819 13.9957 24.1316 14.5515C24.0613 14.5928 24.0103 14.6597 23.9896 14.7377C23.9688 14.8157 23.98 14.8986 24.0206 14.9686C24.0631 15.0372 24.131 15.0869 24.2098 15.1073C24.2887 15.1277 24.3726 15.1172 24.4438 15.078V15.0782Z" fill="#211715"/>
<path d="M16.6851 8.38446C16.7867 9.33369 16.8182 10.2914 16.9372 11.2384C17.0358 12.0221 17.2255 12.8016 17.622 13.4946C18.4088 14.8701 20.0176 15.6923 21.5944 15.7135C22.5892 15.7262 23.5368 15.4615 24.4438 15.0783C24.5142 15.0372 24.5654 14.9703 24.5861 14.8923C24.6069 14.8142 24.5956 14.7312 24.5548 14.6613C24.5119 14.593 24.4441 14.5436 24.3653 14.5233C24.2866 14.5029 24.2029 14.5132 24.1316 14.5519C22.7765 15.125 21.187 15.3729 19.8226 14.6892C19.18 14.3849 18.6332 13.9143 18.2405 13.3276C17.8755 12.7093 17.6456 12.0225 17.5656 11.3114C17.4292 10.343 17.4077 9.35744 17.3036 8.38497C17.3014 8.3048 17.268 8.22853 17.2105 8.17183C17.153 8.11512 17.0756 8.08229 16.9943 8.08008C16.9125 8.08061 16.8341 8.1129 16.7762 8.16997C16.7184 8.22703 16.6856 8.30427 16.6851 8.38497V8.38446Z" fill="#211715"/>
<path d="M28.0872 1.80873C27.3385 0.974041 26.3342 0.402762 25.2264 0.181508C24.0973 -0.061399 22.9282 -0.0604889 21.7995 0.184176C20.6987 0.424768 19.6763 0.932672 18.8252 1.66175C18.6031 1.85297 18.3963 2.06087 18.2067 2.2836C18.0491 2.47174 17.8666 2.63486 17.7148 2.82986C17.3871 3.26416 17.1287 3.74542 16.9489 4.25688C16.4633 5.57261 16.477 7.0042 16.69 8.37214C16.7123 8.44982 16.7647 8.51572 16.836 8.55557C16.9072 8.59542 16.9914 8.60601 17.0705 8.58506C17.1485 8.56187 17.2144 8.50998 17.2546 8.44016C17.2948 8.37033 17.3063 8.28793 17.2865 8.21004C17.1127 7.09376 17.0932 5.91688 17.4116 4.82436C17.5512 4.33081 17.7632 3.86002 18.041 3.42694C18.1508 3.25597 18.2778 3.09625 18.4198 2.95017C18.6031 2.76419 18.7691 2.56334 18.955 2.3785C20.4369 0.908037 22.6354 0.381465 24.6799 0.698933C25.8335 0.878056 26.8791 1.35851 27.6498 2.23952C27.7082 2.29605 27.7867 2.32772 27.8685 2.32772C27.9503 2.32772 28.0288 2.29605 28.0872 2.23952C28.1437 2.18158 28.1753 2.10432 28.1753 2.02394C28.1753 1.94355 28.1437 1.86629 28.0872 1.80835V1.80873Z" fill="#211715"/>
<path d="M29.6091 9.1069C29.846 8.5884 30.0149 8.04222 30.1117 7.48158C30.1855 6.94846 30.206 6.40947 30.1729 5.8724C30.1326 5.07206 29.9712 4.27871 29.5681 3.57568C29.3578 3.22126 29.1076 2.89138 28.8223 2.59228C28.5531 2.302 28.1166 2.73418 28.3849 3.02345C28.8261 3.4774 29.1569 4.02426 29.3523 4.62273C29.5931 5.41836 29.6086 6.29353 29.5381 7.11521C29.4743 7.69711 29.3177 8.26544 29.0742 8.79922C29.0355 8.86962 29.0254 8.95192 29.046 9.02938C29.0666 9.10685 29.1164 9.17367 29.1852 9.21628C29.2561 9.25658 29.3403 9.2677 29.4195 9.24722C29.4987 9.22675 29.5666 9.17634 29.6083 9.1069H29.6091Z" fill="#211715"/>
<path d="M22.074 5.06869C21.3094 4.97086 20.5378 4.93585 19.7674 4.96401C19.5058 4.96102 19.246 5.00649 19.0015 5.09803C18.7614 5.20192 18.5564 5.37153 18.4111 5.58675C18.2869 5.78044 18.1727 5.98023 18.0691 6.18535C17.966 6.35549 17.8361 6.50834 17.6842 6.63811C17.3151 6.97146 16.9256 7.27266 16.7861 7.77052C16.6801 8.14935 17.2766 8.31107 17.3825 7.93263C17.4788 7.58746 17.7803 7.36807 18.0406 7.14029C18.198 7.0067 18.3413 6.85773 18.4683 6.69566C18.5875 6.52364 18.6933 6.34299 18.7849 6.15524C18.8604 5.98897 18.9731 5.84172 19.1145 5.72458C19.3047 5.61406 19.5237 5.56142 19.7442 5.57328C20.0623 5.56464 20.3814 5.57137 20.6995 5.58001C20.9226 5.58611 21.1457 5.59475 21.3685 5.60834C21.4715 5.61457 21.5746 5.62181 21.6777 5.63083C21.7273 5.63527 21.7771 5.6401 21.8266 5.64556C21.844 5.64747 21.8614 5.64938 21.8788 5.65154C21.9401 5.6589 21.8106 5.64137 21.9096 5.6556C21.9885 5.67447 22.0718 5.66296 22.1425 5.6234C22.2132 5.58384 22.2659 5.51922 22.2899 5.44269C22.3109 5.36488 22.3 5.28207 22.2596 5.21212C22.2192 5.14216 22.1525 5.09065 22.074 5.06869Z" fill="#211715"/>
<path d="M24.5136 6.15455C24.9676 6.35552 25.3632 6.66566 25.664 7.05652C25.9836 7.5083 26.2039 8.02086 26.3111 8.56141C26.3329 8.63937 26.3852 8.70561 26.4565 8.74554C26.5279 8.78547 26.6124 8.79582 26.6915 8.77433C26.7705 8.75283 26.8377 8.70124 26.8782 8.63091C26.9187 8.56058 26.9292 8.47727 26.9074 8.39931C26.7847 7.79536 26.5358 7.22322 26.1764 6.71936C25.8242 6.25145 25.3603 5.87648 24.8258 5.62773C24.7545 5.58899 24.6708 5.57875 24.592 5.5991C24.5133 5.61946 24.4455 5.66886 24.4026 5.73711C24.3619 5.8071 24.3508 5.89005 24.3715 5.96807C24.3923 6.0461 24.4433 6.11298 24.5136 6.1543V6.15455Z" fill="#211715"/>
<path d="M23.8733 5.69958C23.7716 4.86354 22.9375 4.28488 22.1433 4.16356C22.0643 4.14417 21.9807 4.15546 21.9099 4.19509C21.8391 4.23471 21.7864 4.29965 21.7628 4.37648C21.7419 4.45441 21.7529 4.53729 21.7932 4.60738C21.8336 4.67746 21.9002 4.72919 21.9787 4.75149C22.0945 4.76866 22.2087 4.79466 22.3204 4.82924C22.3689 4.84448 22.4165 4.86214 22.4642 4.88006C22.4956 4.89276 22.4905 4.8906 22.4488 4.87358L22.4868 4.8906C22.5056 4.89907 22.5241 4.90796 22.5425 4.91728C22.6301 4.96086 22.7141 5.01115 22.7937 5.06769C22.8145 5.08255 22.8452 5.12257 22.7906 5.06426C22.8085 5.08045 22.8274 5.09567 22.847 5.10987C22.8785 5.13629 22.9089 5.16377 22.9384 5.19231C22.9678 5.22086 22.9951 5.24923 23.0202 5.27743C23.0348 5.29369 23.0489 5.31008 23.0629 5.32685C23.0768 5.34362 23.1032 5.39037 23.0541 5.31491C23.0949 5.37754 23.1399 5.43585 23.1759 5.50165C23.1912 5.5296 23.2042 5.55844 23.2185 5.58689C23.2422 5.63466 23.188 5.50813 23.2099 5.56758C23.2149 5.58118 23.2202 5.59464 23.225 5.60824C23.2336 5.63364 23.2414 5.65981 23.2485 5.68674C23.2565 5.71901 23.2706 5.82915 23.2547 5.69945C23.2567 5.77969 23.29 5.85611 23.3475 5.91286C23.4051 5.96962 23.4826 6.00237 23.564 6.00434C23.715 5.99773 23.8939 5.86917 23.8733 5.69958Z" fill="#211715"/>
<path d="M21.6967 17.3975C21.8514 17.8238 22.0189 18.2463 22.1961 18.6641V18.502C21.9431 19.7239 21.7838 20.9629 21.7193 22.2084C21.702 22.6008 22.3206 22.6 22.3378 22.2084C22.3729 21.395 22.4531 20.5841 22.578 19.7793C22.6153 19.5404 22.6629 19.3032 22.711 19.0663C22.7361 18.9418 22.7641 18.8174 22.7865 18.6924C22.8058 18.5788 22.7869 18.4621 22.7327 18.3601C22.5787 17.9882 22.4298 17.6137 22.2927 17.2354C22.2692 17.1586 22.2165 17.0936 22.1457 17.0539C22.0749 17.0143 21.9913 17.003 21.9123 17.0225C21.8336 17.0446 21.7669 17.0963 21.7265 17.1664C21.686 17.2366 21.6752 17.3196 21.6963 17.3975H21.6967Z" fill="#211715"/>
<path d="M23.9895 17.216C23.8904 17.5192 23.8002 17.8248 23.7127 18.1307C23.652 18.3431 23.5354 18.5961 23.5415 18.8167C23.5624 19.0655 23.5998 19.3127 23.6535 19.5567C23.7694 20.2595 23.8861 20.9635 24.0314 21.6611C24.0819 21.9034 24.1462 22.1427 24.2063 22.3828C24.3015 22.7639 24.8981 22.6023 24.8027 22.2207C24.5217 21.0979 24.3308 19.9546 24.1583 18.811C24.1724 18.9044 24.1544 18.8325 24.1576 18.7923C24.1532 18.8466 24.1991 18.681 24.2064 18.6546C24.2322 18.5621 24.2583 18.4695 24.2848 18.377C24.3799 18.0423 24.4781 17.7082 24.5857 17.3773C24.7081 17.0029 24.1111 16.8426 23.9893 17.2152L23.9895 17.216Z" fill="#211715"/>
<path d="M22.5655 18.9971C22.9235 18.9833 23.2817 18.9685 23.6399 18.9623C23.722 18.9623 23.8006 18.9302 23.8586 18.873C23.9166 18.8158 23.9492 18.7383 23.9492 18.6574C23.9492 18.5766 23.9166 18.499 23.8586 18.4418C23.8006 18.3847 23.722 18.3525 23.6399 18.3525C23.2817 18.3588 22.9235 18.3735 22.5655 18.3873C22.4835 18.3873 22.4048 18.4195 22.3468 18.4766C22.2888 18.5338 22.2562 18.6114 22.2562 18.6922C22.2562 18.7731 22.2888 18.8506 22.3468 18.9078C22.4048 18.965 22.4835 18.9971 22.5655 18.9971Z" fill="#211715"/>
<path d="M28.8264 16.4209C28.9577 16.6081 29.0721 16.8063 29.1682 17.0134C29.2361 17.1382 29.2856 17.2718 29.3153 17.4104V17.2482C29.4005 17.1331 29.4223 17.0941 29.3806 17.1312C29.4296 17.0952 29.4406 17.0863 29.4136 17.1046C29.3981 17.1122 29.3833 17.1211 29.3694 17.1312C29.3202 17.1603 29.2691 17.1868 29.2185 17.2131C29.0801 17.285 28.9396 17.3528 28.799 17.4209C28.5114 17.5596 28.2216 17.6939 27.9334 17.8314C27.893 17.8553 27.8587 17.8879 27.8329 17.9268C27.8072 17.9657 27.7907 18.0098 27.7847 18.0559C27.7787 18.1019 27.7833 18.1487 27.7982 18.1927C27.8131 18.2368 27.838 18.2769 27.8709 18.3102C28.1328 18.5881 28.397 18.8643 28.6523 19.1486C28.728 19.233 28.91 19.3722 28.9155 19.4944C28.919 19.5691 28.8315 19.6596 28.7903 19.7208C28.5284 20.1146 28.2719 20.5116 28.0156 20.9088C27.3438 21.9498 26.6766 22.9935 25.9973 24.0298C25.6176 24.6089 25.2346 25.1858 24.8425 25.7575C24.6188 26.0833 25.1545 26.3887 25.3766 26.0652C26.752 24.0618 28.0153 21.9873 29.3651 19.9674C29.4807 19.8188 29.539 19.6346 29.5296 19.4477C29.4963 19.2299 29.3913 19.0291 29.2307 18.876C28.9319 18.5358 28.6188 18.2085 28.3082 17.879L28.2456 18.3579C28.7185 18.1323 29.2091 17.9282 29.664 17.668C29.7499 17.6272 29.8238 17.5654 29.8785 17.4885C29.9065 17.4253 29.92 17.3567 29.9179 17.2878C29.9157 17.2189 29.8981 17.1512 29.8663 17.0898C29.7427 16.7434 29.5726 16.4149 29.3605 16.113C29.3176 16.0448 29.2498 15.9954 29.1711 15.9751C29.0923 15.9547 29.0086 15.965 28.9373 16.0037C28.867 16.045 28.816 16.1118 28.7952 16.1899C28.7745 16.2679 28.7857 16.3509 28.8264 16.4209Z" fill="#211715"/>
<path d="M21.4366 25.3191C20.4791 23.6719 19.6102 21.9762 18.8336 20.2389C18.7773 20.0881 18.7117 19.9408 18.6372 19.7978C18.6243 19.7766 18.6072 19.6893 18.6089 19.7828C18.6104 19.8656 18.6376 19.7836 18.6648 19.7495C18.7115 19.6908 18.7591 19.6329 18.8074 19.5756C18.9939 19.3544 19.1947 19.1453 19.4085 18.9496C19.466 18.8922 19.4983 18.8147 19.4983 18.734C19.4983 18.6533 19.466 18.5758 19.4085 18.5184L18.6337 17.8799C18.5747 17.8247 18.4964 17.7939 18.4151 17.7939C18.3337 17.7939 18.2554 17.8247 18.1964 17.8799C18.139 17.9374 18.1069 18.0148 18.1069 18.0955C18.1069 18.1762 18.139 18.2536 18.1964 18.3111L18.971 18.9496V18.5184C18.7707 18.7017 18.582 18.8969 18.4059 19.1028C18.2234 19.3158 17.9378 19.5698 18.0091 19.8767C18.053 20.0139 18.1095 20.1469 18.1777 20.2741C18.2419 20.4186 18.3063 20.5628 18.371 20.7068C18.4852 20.9602 18.6008 21.213 18.7179 21.4651C19.1341 22.3604 19.5744 23.2446 20.0467 24.1128C20.3238 24.6221 20.6106 25.1262 20.9026 25.6273C21.1009 25.9675 21.6356 25.6607 21.4367 25.3195L21.4366 25.3191Z" fill="#211715"/>
<path d="M20.069 15.9524C20.1776 17.1428 20.466 18.329 20.7343 19.4918C21.0185 20.8066 21.3701 22.1063 21.7876 23.3861C22.084 24.2507 22.444 25.0949 22.7852 25.9426C22.8091 26.0192 22.8618 26.084 22.9325 26.1236C23.0033 26.1631 23.0867 26.1746 23.1656 26.1555C23.2445 26.1336 23.3113 26.0819 23.3518 26.0117C23.3922 25.9415 23.403 25.8585 23.3817 25.7805C23.064 24.9913 22.7364 24.2052 22.4475 23.4049C22.253 22.866 22.0947 22.314 21.9426 21.7624C21.5628 20.3855 21.234 18.9954 20.9562 17.592C20.8925 17.271 20.8322 16.9493 20.7791 16.6265C20.7572 16.494 20.7366 16.3614 20.7183 16.2285C20.7268 16.2903 20.7183 16.2243 20.7148 16.1999C20.7115 16.173 20.7081 16.1462 20.705 16.1194C20.6985 16.0638 20.6927 16.0081 20.6875 15.9524C20.6854 15.8721 20.6522 15.7958 20.5946 15.739C20.5371 15.6823 20.4596 15.6495 20.3782 15.6475C20.2964 15.6481 20.2181 15.6804 20.1603 15.7375C20.1024 15.7945 20.0696 15.8717 20.069 15.9524Z" fill="#211715"/>
<path d="M27.1821 14.6523C26.9492 15.6385 26.6096 16.5924 26.2801 17.55C26.0332 18.2675 25.789 18.9848 25.5229 19.6957C24.9735 21.1637 24.3862 22.6184 23.7784 24.064C23.5508 24.6052 23.3378 25.1091 23.0892 25.6554C23.0503 25.7258 23.0401 25.8081 23.0607 25.8857C23.0813 25.9632 23.1312 26.0301 23.2002 26.0726C23.2712 26.1128 23.3553 26.1238 23.4345 26.1034C23.5137 26.0829 23.5815 26.0326 23.6234 25.9632C24.148 24.8103 24.6275 23.6361 25.1018 22.4625C25.6877 21.013 26.2572 19.5555 26.7536 18.0736C27.1158 16.9927 27.5162 15.9251 27.7785 14.8145C27.8687 14.4326 27.2725 14.2696 27.1821 14.6523Z" fill="#211715"/>
<path d="M21.9056 17.7418C22.2793 17.3452 22.6751 16.9694 23.0911 16.6162L22.7164 16.6638C23.2834 17.0275 23.8666 17.365 24.4144 17.7563C24.4854 17.7965 24.5696 17.8076 24.6487 17.7871C24.7279 17.7666 24.7958 17.7163 24.8376 17.6469C24.8772 17.5767 24.8877 17.4941 24.8671 17.4164C24.8464 17.3387 24.7961 17.2718 24.7267 17.2297C24.1787 16.8382 23.5952 16.5006 23.0285 16.1372C22.9692 16.1043 22.9006 16.0911 22.8331 16.0997C22.7656 16.1083 22.7027 16.1383 22.6538 16.185C22.2377 16.5382 21.8419 16.914 21.4683 17.3107C21.1991 17.5992 21.6358 18.0315 21.9056 17.7418Z" fill="#211715"/>
<path d="M15.4041 19.0885C15.5716 18.7023 15.7451 18.2894 16.0288 17.9705C16.2928 17.6817 16.6033 17.4377 16.9477 17.2483C17.6752 16.85 18.4335 16.5093 19.2157 16.2295C19.6412 16.0686 20.0703 15.9175 20.5029 15.7763C20.8791 15.6536 20.718 15.0649 20.3385 15.1883C19.4953 15.4633 18.6633 15.7746 17.8502 16.1277C17.0859 16.4597 16.2909 16.825 15.7001 17.4235C15.3174 17.8119 15.0848 18.2889 14.8704 18.781C14.8316 18.8514 14.8215 18.9338 14.8421 19.0113C14.8627 19.0888 14.9125 19.1556 14.9813 19.1982C15.0523 19.2384 15.1365 19.2495 15.2156 19.229C15.2948 19.2085 15.3626 19.1582 15.4045 19.0888L15.4041 19.0885Z" fill="#211715"/>
<path d="M12.0705 16.2852C11.8579 15.7118 11.6439 15.1389 11.4338 14.5646C11.3546 14.3487 11.2662 14.1135 11.3468 13.8846C11.4067 13.7162 11.5393 13.6922 11.7031 13.7602C11.8814 13.8346 11.9782 14.0368 12.0653 14.1934C12.1581 14.3605 12.2416 14.5323 12.321 14.7058C12.5104 15.1202 12.6739 15.5461 12.8273 15.9745C12.9905 16.4307 13.1425 16.892 13.2654 17.3602C13.3653 17.7398 13.962 17.579 13.8618 17.1981C13.5982 16.1965 13.2432 15.2204 12.8009 14.282C12.5848 13.8246 12.3285 13.2737 11.7816 13.147C11.6357 13.1048 11.4809 13.1027 11.3339 13.1411C11.187 13.1794 11.0535 13.2566 10.9478 13.3644C10.8509 13.4836 10.7795 13.621 10.7379 13.7681C10.6963 13.9153 10.6854 14.0693 10.7058 14.2208C10.7489 14.5963 10.9215 14.9558 11.0518 15.3081C11.1923 15.6879 11.3329 16.0677 11.4737 16.4473C11.4973 16.5241 11.55 16.5891 11.6208 16.6287C11.6916 16.6683 11.7751 16.6796 11.8541 16.6603C11.9328 16.6382 11.9996 16.5865 12.0401 16.5164C12.0805 16.4462 12.0913 16.3632 12.0702 16.2852H12.0705Z" fill="#211715"/>
<path d="M11.2763 20.5457C11.6004 20.7918 11.9776 21.0264 12.3856 20.792C12.5634 20.6762 12.692 20.5003 12.7474 20.2974C12.8027 20.0945 12.7809 19.8787 12.6859 19.6906C12.5245 19.4554 12.3312 19.243 12.1114 19.0595C11.8902 18.833 11.6311 18.6459 11.3454 18.5064C10.9846 18.343 10.6071 18.2002 10.2038 18.2743C9.83707 18.3417 9.59056 18.685 9.44713 19.003C9.26828 19.3539 9.23299 19.7591 9.34856 20.135C9.47471 20.5204 9.7314 20.7937 9.98874 21.0988C10.2802 21.4444 10.6122 21.7413 10.924 22.0669C11.1887 22.3432 11.2591 22.6665 11.381 23.0505C11.4043 23.1275 11.457 23.1926 11.5278 23.2322C11.5987 23.2719 11.6823 23.2831 11.7614 23.2634C12.8837 23.0083 13.9642 22.5989 14.9709 22.0473C15.0295 22.0131 15.0752 21.9609 15.1008 21.8987C15.1264 21.8366 15.1306 21.7678 15.1127 21.703C15.0499 21.553 14.9967 21.3981 14.9428 21.2457L14.9116 21.4806C15.5388 20.399 15.682 18.9805 15.1531 17.8303C15.0913 17.6804 14.9986 17.5448 14.8809 17.432C14.7632 17.3192 14.6231 17.2317 14.4694 17.175C14.1611 17.0922 13.8344 17.105 13.5337 17.2119C12.929 17.3931 12.2527 17.683 12.0105 18.3053C11.9467 18.4673 11.9282 18.6432 11.9571 18.8146C11.9859 18.9861 12.061 19.1467 12.1744 19.2798C12.4388 19.5892 12.8175 19.5974 13.1876 19.5018C13.5723 19.4021 13.4091 18.8138 13.0232 18.9139C12.8313 18.9637 12.658 18.9901 12.579 18.7742C12.508 18.58 12.6394 18.3774 12.7764 18.2473C12.98 18.0796 13.2157 17.9538 13.4696 17.8774C13.6966 17.7932 13.9608 17.6931 14.2078 17.7359C14.4374 17.7755 14.5574 17.9807 14.6349 18.179C14.7291 18.4233 14.7936 18.6777 14.8271 18.937C14.895 19.4707 14.8422 20.0126 14.6725 20.5237C14.629 20.6578 14.5764 20.7888 14.515 20.9159C14.4408 21.0683 14.3021 21.2298 14.3462 21.4074C14.3914 21.5638 14.4482 21.7166 14.5162 21.8647L14.6579 21.5203C13.6979 22.0454 12.6677 22.4344 11.5976 22.676L11.9781 22.8889C11.897 22.6066 11.7972 22.3298 11.6794 22.0604C11.54 21.764 11.2645 21.5416 11.0312 21.3189C10.7966 21.0904 10.5748 20.8494 10.3669 20.597C10.1673 20.3596 10.0005 20.1927 9.91941 19.8856C9.89238 19.7621 9.89072 19.6344 9.91453 19.5102C9.93835 19.386 9.98715 19.2678 10.0581 19.1625C10.1112 19.061 10.1812 18.9691 10.2653 18.8905C10.3495 18.8614 10.4396 18.8526 10.528 18.8649C10.8075 18.9126 11.0731 19.0195 11.3066 19.1783C11.4834 19.3037 11.6465 19.4468 11.7932 19.6055C11.9 19.7103 12.0061 19.8165 12.1034 19.9301C12.1084 19.936 12.1412 19.9785 12.1121 19.9391C12.1278 19.9571 12.1412 19.9769 12.1519 19.998C12.1568 20.0394 12.1568 20.0812 12.1519 20.1225C12.0918 20.4715 11.7334 20.1283 11.5892 20.0187C11.5183 19.9784 11.434 19.9673 11.3548 19.9878C11.2756 20.0082 11.2078 20.0587 11.166 20.1281C11.1267 20.1984 11.1162 20.2809 11.1369 20.3586C11.1575 20.4363 11.2077 20.5031 11.277 20.5453L11.2763 20.5457Z" fill="#211715"/>
<path d="M10.726 18.3586C10.712 18.3399 10.6991 18.3204 10.6874 18.3003C10.6785 18.2849 10.6555 18.2278 10.6729 18.2749C10.6625 18.247 10.6537 18.2185 10.6464 18.1897C10.6443 18.1814 10.6335 18.0972 10.637 18.147C10.6343 18.1148 10.6343 18.0825 10.637 18.0503C10.633 18.096 10.6491 18.0053 10.6499 18.0023C10.6527 17.9928 10.6885 17.9118 10.6577 17.9727C10.6684 17.9516 10.6801 17.9318 10.6914 17.9111C10.7264 17.8456 10.6603 17.9677 10.6942 17.9081C10.7009 17.9012 10.708 17.8945 10.7154 17.8883C10.7331 17.8735 10.725 17.8799 10.691 17.9075C10.7066 17.8962 10.7236 17.8869 10.7416 17.8798C10.7011 17.8959 10.692 17.9001 10.7143 17.8925C10.7241 17.889 10.734 17.8857 10.7441 17.8827C10.7882 17.8682 10.8335 17.8574 10.8795 17.8505C10.8124 17.8589 10.9096 17.8548 10.9158 17.855C10.9462 17.8563 10.9767 17.8594 11.0069 17.8628C11.0198 17.8641 11.0971 17.8768 11.0375 17.8663C11.0729 17.8724 11.108 17.8791 11.1429 17.8873C11.2127 17.9038 11.2814 17.9254 11.35 17.9461C11.4085 17.9642 11.4668 17.9823 11.5247 18.0022C11.5538 18.0122 11.5824 18.0229 11.6113 18.0335C11.6703 18.0553 11.5889 18.0194 11.65 18.05C11.7042 18.0774 11.756 18.1057 11.8076 18.1377C11.8515 18.1649 11.8055 18.133 11.8282 18.1531C11.8509 18.1731 11.8721 18.1937 11.8926 18.2154C11.9063 18.2315 11.9063 18.2301 11.8926 18.2114C11.9016 18.2233 11.9101 18.2355 11.9184 18.2482C11.9349 18.2732 11.9497 18.2993 11.963 18.3261C11.9724 18.3454 11.972 18.3439 11.9618 18.3217C11.9671 18.3356 11.9719 18.3499 11.9761 18.3641C11.986 18.3975 11.9939 18.4314 11.9996 18.4657C12.0217 18.5435 12.0741 18.6095 12.1454 18.6494C12.2166 18.6892 12.301 18.6998 12.3801 18.6786C12.4579 18.6552 12.5237 18.6033 12.5639 18.5336C12.6041 18.4638 12.6156 18.3815 12.5961 18.3036C12.5596 18.1284 12.4802 17.9645 12.3649 17.8264C12.2496 17.6882 12.1018 17.5799 11.9344 17.5109C11.6153 17.3593 11.2697 17.2691 10.9163 17.2451C10.7655 17.2349 10.6146 17.2645 10.4792 17.331C10.3438 17.3974 10.2289 17.4982 10.1461 17.6229C10.0552 17.7841 10.0113 17.967 10.0195 18.1512C10.0277 18.3355 10.0876 18.5139 10.1925 18.6666C10.2352 18.735 10.303 18.7846 10.3818 18.8049C10.4606 18.8253 10.5443 18.8149 10.6156 18.7759C10.6857 18.7345 10.7366 18.6677 10.7574 18.5897C10.7781 18.5118 10.767 18.4289 10.7265 18.3589L10.726 18.3586Z" fill="#211715"/>
<path d="M11.1395 17.2944V17.261C11.1357 17.2818 11.1361 17.2816 11.1408 17.261C11.1424 17.2541 11.1634 17.1939 11.1497 17.2245C11.1596 17.2044 11.1708 17.1848 11.1831 17.166C11.2031 17.1337 11.1923 17.1508 11.2077 17.134C11.2368 17.1023 11.2682 17.0728 11.3017 17.0457C11.2675 17.0737 11.2965 17.0495 11.3167 17.0371C11.3331 17.0272 11.3493 17.0172 11.3661 17.0082C11.3805 17.0004 11.4272 16.9802 11.3889 16.9955C11.4145 16.9859 11.4407 16.9778 11.4672 16.9712C11.5055 16.96 11.5451 16.9541 11.585 16.9536C11.7054 16.9481 11.8261 16.9521 11.9458 16.9656C12.0045 16.9719 11.9127 16.9602 11.9676 16.9682C11.994 16.9721 12.0204 16.9763 12.0467 16.9809C12.0991 16.9907 12.1514 17.002 12.2033 17.0136C12.3045 17.0332 12.4032 17.0641 12.4972 17.1057C12.5647 17.1358 12.6226 17.1834 12.6648 17.2435C12.7158 17.3118 12.7396 17.3962 12.7318 17.4806C12.7318 17.5615 12.7643 17.6391 12.8223 17.6962C12.8803 17.7534 12.959 17.7855 13.041 17.7855C13.1231 17.7855 13.2017 17.7534 13.2597 17.6962C13.3177 17.6391 13.3503 17.5615 13.3503 17.4806C13.3535 17.3081 13.3113 17.1376 13.2278 16.986C13.1442 16.8343 13.0221 16.7066 12.8735 16.6154C12.5881 16.4615 12.2713 16.3725 11.9465 16.3552C11.6284 16.3013 11.3012 16.3532 11.0164 16.5027C10.8729 16.5831 10.7523 16.6977 10.6657 16.8361C10.5791 16.9746 10.5293 17.1322 10.5208 17.2947C10.5208 17.3755 10.5533 17.4531 10.6113 17.5102C10.6693 17.5674 10.748 17.5995 10.83 17.5995C10.912 17.5995 10.9907 17.5674 11.0487 17.5102C11.1067 17.4531 11.1393 17.3755 11.1393 17.2947L11.1395 17.2944Z" fill="#211715"/>
</g>
<defs>
<clipPath id="clip0_492_35">
<rect width="43" height="40" fill="white"/>
</clipPath>
</defs>
</svg>
