<svg width="36" height="43" viewBox="0 0 36 43" fill="none" xmlns="http://www.w3.org/2000/svg">
<g clip-path="url(#clip0_492_474)">
<path d="M28.7058 3.71174C28.7058 1.84797 28.7058 0.616728 28.7058 0.312831H28.6444C21.0476 0.312831 14.089 0.302734 7.3172 0.302734H7.21009C7.20855 2.31202 7.22173 39.686 7.22173 42.697H28.6962C28.6962 40.3426 28.7052 13.4291 28.7058 3.71174Z" fill="white"/>
<path d="M21.6951 2.11523V36.1343H20.1594V2.11523H21.6951Z" fill="white"/>
<path d="M15.758 2.11523V36.1343H14.2223V2.11523H15.758Z" fill="white"/>
<path d="M9.00037 4.70264H26.9171V5.71226H9.00037V4.70264Z" fill="white"/>
<path d="M9.00037 7.79541H26.9171V8.80504H9.00037V7.79541Z" fill="white"/>
<path d="M9.00037 10.8882H26.9171V11.8978H9.00037V10.8882Z" fill="white"/>
<path d="M9.00037 13.981H26.9171V14.9906H9.00037V13.981Z" fill="white"/>
<path d="M9.00037 17.0732H26.9171V18.0829H9.00037V17.0732Z" fill="white"/>
<path d="M9.00037 20.166H26.9171V21.1756H9.00037V20.166Z" fill="white"/>
<path d="M9.00037 23.2593H26.9171V24.2689H9.00037V23.2593Z" fill="white"/>
<path d="M9.00037 26.3511H26.9171V27.3607H9.00037V26.3511Z" fill="white"/>
<path d="M9.00037 29.4438H26.9171V30.4535H9.00037V29.4438Z" fill="white"/>
<path d="M9.00037 32.5366H26.9171V33.5462H9.00037V32.5366Z" fill="white"/>
<path d="M31.2435 42.5494V41.082H32.5599V42.5494" fill="white"/>
<path d="M32.3108 36.5344C32.2027 36.452 32.0699 36.4072 31.9333 36.4072C31.7966 36.4072 31.6638 36.452 31.5557 36.5344C31.0333 36.9377 30.6291 37.4709 30.3847 38.0791C30.3083 38.2623 30.2506 38.4525 30.2125 38.647C30.1815 38.8331 30.1619 39.0208 30.1536 39.2091C30.1322 39.5408 30.1128 39.8847 30.2341 40.1948C30.3425 40.4655 30.5473 40.6881 30.81 40.8208C31.0698 40.9521 31.6429 41.0217 31.9339 41.0217C32.1535 41.0217 32.798 40.9521 33.0579 40.8208C33.3206 40.688 33.5253 40.4655 33.6338 40.1948C33.7551 39.8847 33.7362 39.5408 33.7143 39.2091C33.706 39.0208 33.6864 38.8331 33.6554 38.647C33.6174 38.4525 33.5596 38.2623 33.4831 38.0791C33.2383 37.4707 32.8337 36.9375 32.3108 36.5344Z" fill="white"/>
<path d="M3.37305 42.5494V41.082H4.68929V42.5494" fill="white"/>
<path d="M4.44079 36.5344C4.3327 36.452 4.19991 36.4072 4.06326 36.4072C3.92661 36.4072 3.79382 36.452 3.68573 36.5344C3.16334 36.9377 2.75922 37.4709 2.51487 38.0791C2.4383 38.2623 2.38055 38.4525 2.34248 38.647C2.31153 38.8331 2.29188 39.0208 2.28361 39.2091C2.26224 39.5408 2.24279 39.8847 2.36411 40.1948C2.47242 40.4654 2.6769 40.6879 2.93937 40.8208C3.19929 40.9521 3.77224 41.0217 4.06339 41.0217C4.28287 41.0217 4.92736 40.9521 5.18728 40.8208C5.44999 40.688 5.65471 40.4655 5.76317 40.1948C5.8845 39.8847 5.86556 39.5408 5.84367 39.2091C5.83541 39.0208 5.81575 38.8331 5.7848 38.647C5.74672 38.4525 5.68902 38.2623 5.61255 38.0791C5.36794 37.4708 4.96351 36.9376 4.44079 36.5344Z" fill="white"/>
<path d="M15.7581 8.80518V10.8883H20.1594V8.80518H15.7581Z" fill="#54D8CE"/>
<path d="M15.7581 11.8979V13.9803H20.1594V11.8979H15.7581Z" fill="#54D8CE"/>
<path d="M15.7581 18.083V20.1654H20.1594V18.083H15.7581Z" fill="#54D8CE"/>
<path d="M15.7581 14.9902V17.0726H20.1594V14.9902H15.7581Z" fill="#54D8CE"/>
<path d="M14.2223 13.9808V11.8984H9.00085V13.9808H14.2223Z" fill="#54D8CE"/>
<path d="M9.00037 7.79525H14.2218V5.71289H9.00037V7.79525Z" fill="#54D8CE"/>
<path d="M14.2223 10.8883V8.80518H9.00085V10.8883H14.2223Z" fill="#54D8CE"/>
<path d="M21.6952 4.70303H26.9182C26.9182 3.67284 26.9182 2.79459 26.9182 2.11523H21.6952V4.70303Z" fill="#54D8CE"/>
<path d="M20.1594 36.1343V33.5464H15.7581V36.1344L20.1594 36.1343Z" fill="#54D8CE"/>
<path d="M20.1594 7.79525V5.71289H15.7581V7.79525H20.1594Z" fill="#54D8CE"/>
<path d="M15.7581 21.1758V23.2594H20.1594V21.1758H15.7581Z" fill="#54D8CE"/>
<path d="M14.2223 17.0736V14.9912H9.00085V17.0736H14.2223Z" fill="#54D8CE"/>
<path d="M15.7581 30.4536V32.536H20.1594V30.4536H15.7581Z" fill="#54D8CE"/>
<path d="M20.1594 29.444V27.3608H15.7581V29.4438L20.1594 29.444Z" fill="#54D8CE"/>
<path d="M15.7581 24.269V26.3514H20.1594V24.269H15.7581Z" fill="#54D8CE"/>
<path d="M15.7581 2.11475V4.70267H20.1594V2.11475H15.7581Z" fill="#54D8CE"/>
<path d="M21.6952 21.1758V23.2594H26.9173V21.1758H21.6952Z" fill="#54D8CE"/>
<path d="M21.6952 8.80518V10.8883H26.9177C26.9177 10.1712 26.9177 9.47481 26.9177 8.80518H21.6952Z" fill="#54D8CE"/>
<path d="M21.6952 5.7124V7.79476H26.9179C26.9179 7.05887 26.9179 6.36222 26.9179 5.7124H21.6952Z" fill="#54D8CE"/>
<path d="M21.6952 11.8979V13.9803H26.9175C26.9175 13.2736 26.9175 12.5774 26.9175 11.8979H21.6952Z" fill="#54D8CE"/>
<path d="M21.6952 14.9902V17.0726H26.9174C26.9174 16.3728 26.9174 15.677 26.9174 14.9902H21.6952Z" fill="#54D8CE"/>
<path d="M14.2223 20.1659V18.0835H9.00085V20.1659H14.2223Z" fill="#54D8CE"/>
<path d="M21.6952 33.5464V36.1343H26.9166C26.9166 35.4242 26.9166 34.5487 26.9166 33.5464H21.6952Z" fill="#54D8CE"/>
<path d="M14.2223 4.7028V2.11475H9.06051H9.00037V4.7028H14.2223Z" fill="#54D8CE"/>
<path d="M21.6952 18.083V20.1654H26.9174V18.083H21.6952Z" fill="#54D8CE"/>
<path d="M14.2223 33.5464H9.00085V36.1348H14.2223V33.5464Z" fill="#54D8CE"/>
<path d="M14.2223 29.444V27.3608H9.00085V29.4438L14.2223 29.444Z" fill="#54D8CE"/>
<path d="M14.2223 26.3514V24.269H9.00085V26.3514H14.2223Z" fill="#54D8CE"/>
<path d="M21.6952 24.269V26.3514H26.9166C26.9166 25.6699 26.9166 24.9741 26.9166 24.269H21.6952Z" fill="#54D8CE"/>
<path d="M14.2223 23.2594V21.1758H9.00085V23.2594H14.2223Z" fill="#54D8CE"/>
<path d="M14.2223 32.5365V30.4541H9.00085V32.5365H14.2223Z" fill="#54D8CE"/>
<path d="M21.6952 27.3608V29.4438H26.9166V27.3608H21.6952Z" fill="#54D8CE"/>
<path d="M26.9171 30.4536H21.6957V32.536H26.9171C26.917 31.8825 26.917 31.1855 26.9171 30.4536Z" fill="#54D8CE"/>
<path d="M26.9171 42.3368C26.9171 41.7118 26.9171 39.8067 26.9184 37.9717H9.00037V42.697H26.9171V42.3368Z" fill="#54D8CE"/>
<path d="M20.4662 10.8877V8.80533C20.4662 8.725 20.4339 8.64796 20.3763 8.59116C20.3187 8.53435 20.2405 8.50244 20.1591 8.50244C20.0776 8.50244 19.9995 8.53435 19.9419 8.59116C19.8843 8.64796 19.8519 8.725 19.8519 8.80533V10.8877C19.8519 10.968 19.8843 11.0451 19.9419 11.1019C19.9995 11.1587 20.0776 11.1906 20.1591 11.1906C20.2405 11.1906 20.3187 11.1587 20.3763 11.1019C20.4339 11.0451 20.4662 10.968 20.4662 10.8877Z" fill="#211715"/>
<path d="M22.0019 10.8877V8.80533C22.0019 8.725 21.9695 8.64796 21.9119 8.59116C21.8543 8.53435 21.7762 8.50244 21.6947 8.50244C21.6133 8.50244 21.5351 8.53435 21.4775 8.59116C21.4199 8.64796 21.3876 8.725 21.3876 8.80533V10.8877C21.3876 10.968 21.4199 11.0451 21.4775 11.1019C21.5351 11.1587 21.6133 11.1906 21.6947 11.1906C21.7762 11.1906 21.8543 11.1587 21.9119 11.1019C21.9695 11.0451 22.0019 10.968 22.0019 10.8877Z" fill="#211715"/>
<path d="M20.4662 23.2591V21.1754C20.4662 21.0951 20.4339 21.0181 20.3763 20.9613C20.3187 20.9045 20.2405 20.8726 20.1591 20.8726C20.0776 20.8726 19.9995 20.9045 19.9419 20.9613C19.8843 21.0181 19.8519 21.0951 19.8519 21.1754V23.2591C19.8519 23.3394 19.8843 23.4164 19.9419 23.4732C19.9995 23.53 20.0776 23.562 20.1591 23.562C20.2405 23.562 20.3187 23.53 20.3763 23.4732C20.4339 23.4164 20.4662 23.3394 20.4662 23.2591Z" fill="#211715"/>
<path d="M22.0019 23.2591V21.1754C22.0019 21.0951 21.9695 21.0181 21.9119 20.9613C21.8543 20.9045 21.7762 20.8726 21.6947 20.8726C21.6133 20.8726 21.5351 20.9045 21.4775 20.9613C21.4199 21.0181 21.3876 21.0951 21.3876 21.1754V23.2591C21.3876 23.3394 21.4199 23.4164 21.4775 23.4732C21.5351 23.53 21.6133 23.562 21.6947 23.562C21.7762 23.562 21.8543 23.53 21.9119 23.4732C21.9695 23.4164 22.0019 23.3394 22.0019 23.2591Z" fill="#211715"/>
<path d="M20.4662 29.4446V27.361C20.4662 27.2807 20.4339 27.2036 20.3763 27.1468C20.3187 27.09 20.2405 27.0581 20.1591 27.0581C20.0776 27.0581 19.9995 27.09 19.9419 27.1468C19.8843 27.2036 19.8519 27.2807 19.8519 27.361V29.4446C19.8519 29.5249 19.8843 29.602 19.9419 29.6588C19.9995 29.7156 20.0776 29.7475 20.1591 29.7475C20.2405 29.7475 20.3187 29.7156 20.3763 29.6588C20.4339 29.602 20.4662 29.5249 20.4662 29.4446Z" fill="#211715"/>
<path d="M22.0019 29.4446V27.361C22.0019 27.2807 21.9695 27.2036 21.9119 27.1468C21.8543 27.09 21.7762 27.0581 21.6947 27.0581C21.6133 27.0581 21.5351 27.09 21.4775 27.1468C21.4199 27.2036 21.3876 27.2807 21.3876 27.361V29.4446C21.3876 29.5249 21.4199 29.602 21.4775 29.6588C21.5351 29.7156 21.6133 29.7475 21.6947 29.7475C21.7762 29.7475 21.8543 29.7156 21.9119 29.6588C21.9695 29.602 22.0019 29.5249 22.0019 29.4446Z" fill="#211715"/>
<path d="M20.159 33.8488H26.9175C26.9986 33.8477 27.076 33.8154 27.1334 33.7588C27.1907 33.7023 27.2235 33.6259 27.2246 33.5459V32.5363C27.2235 32.4563 27.1907 32.3799 27.1334 32.3234C27.076 32.2668 26.9986 32.2345 26.9175 32.2334H20.159C19.7637 32.2334 19.7631 32.8392 20.159 32.8392H26.9175L26.6103 32.5363V33.5459L26.9175 33.243H20.159C19.7637 33.243 19.7631 33.8488 20.159 33.8488Z" fill="#211715"/>
<path d="M20.4662 32.5366V30.4543C20.4662 30.3739 20.4339 30.2969 20.3763 30.2401C20.3187 30.1833 20.2405 30.1514 20.1591 30.1514C20.0776 30.1514 19.9995 30.1833 19.9419 30.2401C19.8843 30.2969 19.8519 30.3739 19.8519 30.4543V32.5366C19.8519 32.6169 19.8843 32.694 19.9419 32.7508C19.9995 32.8076 20.0776 32.8395 20.1591 32.8395C20.2405 32.8395 20.3187 32.8076 20.3763 32.7508C20.4339 32.694 20.4662 32.6169 20.4662 32.5366Z" fill="#211715"/>
<path d="M21.3877 33.5459V36.1344L21.6948 35.8315H20.1591L20.4662 36.1344V33.5459C20.4662 33.1562 19.8519 33.1556 19.8519 33.5459V36.1344C19.8531 36.2144 19.8858 36.2908 19.9431 36.3473C20.0005 36.4039 20.078 36.4362 20.1591 36.4373H21.6948C21.7759 36.4361 21.8533 36.4038 21.9107 36.3473C21.968 36.2907 22.0008 36.2143 22.0019 36.1344V33.5459C22.0019 33.1562 21.3877 33.1556 21.3877 33.5459Z" fill="#211715"/>
<path d="M22.0019 32.5366V30.4543C22.0019 30.3739 21.9695 30.2969 21.9119 30.2401C21.8543 30.1833 21.7762 30.1514 21.6947 30.1514C21.6133 30.1514 21.5351 30.1833 21.4775 30.2401C21.4199 30.2969 21.3876 30.3739 21.3876 30.4543V32.5366C21.3876 32.6169 21.4199 32.694 21.4775 32.7508C21.5351 32.8076 21.6133 32.8395 21.6947 32.8395C21.7762 32.8395 21.8543 32.8076 21.9119 32.7508C21.9695 32.694 22.0019 32.6169 22.0019 32.5366Z" fill="#211715"/>
<path d="M20.4662 26.3511V24.2687C20.4662 24.1884 20.4339 24.1113 20.3763 24.0545C20.3187 23.9977 20.2405 23.9658 20.1591 23.9658C20.0776 23.9658 19.9995 23.9977 19.9419 24.0545C19.8843 24.1113 19.8519 24.1884 19.8519 24.2687V26.3511C19.8519 26.4314 19.8843 26.5084 19.9419 26.5652C19.9995 26.622 20.0776 26.654 20.1591 26.654C20.2405 26.654 20.3187 26.622 20.3763 26.5652C20.4339 26.5084 20.4662 26.4314 20.4662 26.3511Z" fill="#211715"/>
<path d="M22.0019 26.3511V24.2687C22.0019 24.1884 21.9695 24.1113 21.9119 24.0545C21.8543 23.9977 21.7762 23.9658 21.6947 23.9658C21.6133 23.9658 21.5351 23.9977 21.4775 24.0545C21.4199 24.1113 21.3876 24.1884 21.3876 24.2687V26.3511C21.3876 26.4314 21.4199 26.5084 21.4775 26.5652C21.5351 26.622 21.6133 26.654 21.6947 26.654C21.7762 26.654 21.8543 26.622 21.9119 26.5652C21.9695 26.5084 22.0019 26.4314 22.0019 26.3511Z" fill="#211715"/>
<path d="M20.4662 20.1658V18.0822C20.4662 18.0019 20.4339 17.9248 20.3763 17.868C20.3187 17.8112 20.2405 17.7793 20.1591 17.7793C20.0776 17.7793 19.9995 17.8112 19.9419 17.868C19.8843 17.9248 19.8519 18.0019 19.8519 18.0822V20.1658C19.8519 20.2461 19.8843 20.3232 19.9419 20.38C19.9995 20.4368 20.0776 20.4687 20.1591 20.4687C20.2405 20.4687 20.3187 20.4368 20.3763 20.38C20.4339 20.3232 20.4662 20.2461 20.4662 20.1658Z" fill="#211715"/>
<path d="M22.0019 20.1658V18.0822C22.0019 18.0019 21.9695 17.9248 21.9119 17.868C21.8543 17.8112 21.7762 17.7793 21.6947 17.7793C21.6133 17.7793 21.5351 17.8112 21.4775 17.868C21.4199 17.9248 21.3876 18.0019 21.3876 18.0822V20.1658C21.3876 20.2461 21.4199 20.3232 21.4775 20.38C21.5351 20.4368 21.6133 20.4687 21.6947 20.4687C21.7762 20.4687 21.8543 20.4368 21.9119 20.38C21.9695 20.3232 22.0019 20.2461 22.0019 20.1658Z" fill="#211715"/>
<path d="M20.4662 17.0727V14.9904C20.4662 14.9101 20.4339 14.833 20.3763 14.7762C20.3187 14.7194 20.2405 14.6875 20.1591 14.6875C20.0776 14.6875 19.9995 14.7194 19.9419 14.7762C19.8843 14.833 19.8519 14.9101 19.8519 14.9904V17.0727C19.8519 17.1531 19.8843 17.2301 19.9419 17.2869C19.9995 17.3437 20.0776 17.3756 20.1591 17.3756C20.2405 17.3756 20.3187 17.3437 20.3763 17.2869C20.4339 17.2301 20.4662 17.1531 20.4662 17.0727Z" fill="#211715"/>
<path d="M22.0019 17.0727V14.9904C22.0019 14.9101 21.9695 14.833 21.9119 14.7762C21.8543 14.7194 21.7762 14.6875 21.6947 14.6875C21.6133 14.6875 21.5351 14.7194 21.4775 14.7762C21.4199 14.833 21.3876 14.9101 21.3876 14.9904V17.0727C21.3876 17.1531 21.4199 17.2301 21.4775 17.2869C21.5351 17.3437 21.6133 17.3756 21.6947 17.3756C21.7762 17.3756 21.8543 17.3437 21.9119 17.2869C21.9695 17.2301 22.0019 17.1531 22.0019 17.0727Z" fill="#211715"/>
<path d="M20.4662 13.9807V11.8971C20.4662 11.8168 20.4339 11.7398 20.3763 11.683C20.3187 11.6261 20.2405 11.5942 20.1591 11.5942C20.0776 11.5942 19.9995 11.6261 19.9419 11.683C19.8843 11.7398 19.8519 11.8168 19.8519 11.8971V13.9807C19.8519 14.0611 19.8843 14.1381 19.9419 14.1949C19.9995 14.2517 20.0776 14.2836 20.1591 14.2836C20.2405 14.2836 20.3187 14.2517 20.3763 14.1949C20.4339 14.1381 20.4662 14.0611 20.4662 13.9807Z" fill="#211715"/>
<path d="M22.0019 13.9807V11.8971C22.0019 11.8168 21.9695 11.7398 21.9119 11.683C21.8543 11.6261 21.7762 11.5942 21.6947 11.5942C21.6133 11.5942 21.5351 11.6261 21.4775 11.683C21.4199 11.7398 21.3876 11.8168 21.3876 11.8971V13.9807C21.3876 14.0611 21.4199 14.1381 21.4775 14.1949C21.5351 14.2517 21.6133 14.2836 21.6947 14.2836C21.7762 14.2836 21.8543 14.2517 21.9119 14.1949C21.9695 14.1381 22.0019 14.0611 22.0019 13.9807Z" fill="#211715"/>
<path d="M20.4662 7.79568V5.71207C20.4662 5.63174 20.4339 5.5547 20.3763 5.49789C20.3187 5.44109 20.2405 5.40918 20.1591 5.40918C20.0776 5.40918 19.9995 5.44109 19.9419 5.49789C19.8843 5.5547 19.8519 5.63174 19.8519 5.71207V7.79568C19.8519 7.87602 19.8843 7.95306 19.9419 8.00986C19.9995 8.06666 20.0776 8.09857 20.1591 8.09857C20.2405 8.09857 20.3187 8.06666 20.3763 8.00986C20.4339 7.95306 20.4662 7.87602 20.4662 7.79568Z" fill="#211715"/>
<path d="M22.0019 7.79568V5.71207C22.0019 5.63174 21.9695 5.5547 21.9119 5.49789C21.8543 5.44109 21.7762 5.40918 21.6947 5.40918C21.6133 5.40918 21.5351 5.44109 21.4775 5.49789C21.4199 5.5547 21.3876 5.63174 21.3876 5.71207V7.79568C21.3876 7.87602 21.4199 7.95306 21.4775 8.00986C21.5351 8.06666 21.6133 8.09857 21.6947 8.09857C21.7762 8.09857 21.8543 8.06666 21.9119 8.00986C21.9695 7.95306 22.0019 7.87602 22.0019 7.79568Z" fill="#211715"/>
<path d="M20.4662 4.70256V2.11539L20.1591 2.41828H21.6948L21.3877 2.11539V4.70256C21.3877 5.0924 22.0019 5.09303 22.0019 4.70256V2.11539C22.0008 2.03541 21.968 1.95903 21.9107 1.90248C21.8533 1.84592 21.7759 1.81364 21.6948 1.8125H20.1591C20.078 1.81364 20.0005 1.84592 19.9432 1.90248C19.8858 1.95903 19.8531 2.03541 19.8519 2.11539V4.70256C19.8519 5.0924 20.4662 5.09303 20.4662 4.70256Z" fill="#211715"/>
<path d="M14.5293 4.70256V2.11539L14.2222 2.41828H15.7579L15.4508 2.11539V4.70256C15.4508 5.0924 16.065 5.09303 16.065 4.70256V2.11539C16.0639 2.03541 16.0312 1.95903 15.9738 1.90248C15.9165 1.84592 15.839 1.81364 15.7579 1.8125H14.2222C14.1411 1.81364 14.0636 1.84592 14.0063 1.90248C13.9489 1.95903 13.9162 2.03541 13.915 2.11539V4.70256C13.915 5.0924 14.5293 5.09303 14.5293 4.70256Z" fill="#211715"/>
<path d="M14.5293 10.8877V8.80533C14.5293 8.725 14.497 8.64796 14.4394 8.59116C14.3818 8.53435 14.3036 8.50244 14.2222 8.50244C14.1407 8.50244 14.0626 8.53435 14.005 8.59116C13.9474 8.64796 13.915 8.725 13.915 8.80533V10.8877C13.915 10.968 13.9474 11.0451 14.005 11.1019C14.0626 11.1587 14.1407 11.1906 14.2222 11.1906C14.3036 11.1906 14.3818 11.1587 14.4394 11.1019C14.497 11.0451 14.5293 10.968 14.5293 10.8877Z" fill="#211715"/>
<path d="M16.0651 10.8877V8.80533C16.0651 8.725 16.0327 8.64796 15.9751 8.59116C15.9175 8.53435 15.8394 8.50244 15.7579 8.50244C15.6765 8.50244 15.5984 8.53435 15.5408 8.59116C15.4832 8.64796 15.4508 8.725 15.4508 8.80533V10.8877C15.4508 10.968 15.4832 11.0451 15.5408 11.1019C15.5984 11.1587 15.6765 11.1906 15.7579 11.1906C15.8394 11.1906 15.9175 11.1587 15.9751 11.1019C16.0327 11.0451 16.0651 10.968 16.0651 10.8877Z" fill="#211715"/>
<path d="M14.5293 23.2591V21.1754C14.5293 21.0951 14.497 21.0181 14.4394 20.9613C14.3818 20.9045 14.3036 20.8726 14.2222 20.8726C14.1407 20.8726 14.0626 20.9045 14.005 20.9613C13.9474 21.0181 13.915 21.0951 13.915 21.1754V23.2591C13.915 23.3394 13.9474 23.4164 14.005 23.4732C14.0626 23.53 14.1407 23.562 14.2222 23.562C14.3036 23.562 14.3818 23.53 14.4394 23.4732C14.497 23.4164 14.5293 23.3394 14.5293 23.2591Z" fill="#211715"/>
<path d="M16.0651 23.2591V21.1754C16.0651 21.0951 16.0327 21.0181 15.9751 20.9613C15.9175 20.9045 15.8394 20.8726 15.7579 20.8726C15.6765 20.8726 15.5984 20.9045 15.5408 20.9613C15.4832 21.0181 15.4508 21.0951 15.4508 21.1754V23.2591C15.4508 23.3394 15.4832 23.4164 15.5408 23.4732C15.5984 23.53 15.6765 23.562 15.7579 23.562C15.8394 23.562 15.9175 23.53 15.9751 23.4732C16.0327 23.4164 16.0651 23.3394 16.0651 23.2591Z" fill="#211715"/>
<path d="M14.5293 29.4446V27.361C14.5293 27.2807 14.497 27.2036 14.4394 27.1468C14.3818 27.09 14.3036 27.0581 14.2222 27.0581C14.1407 27.0581 14.0626 27.09 14.005 27.1468C13.9474 27.2036 13.915 27.2807 13.915 27.361V29.4446C13.915 29.5249 13.9474 29.602 14.005 29.6588C14.0626 29.7156 14.1407 29.7475 14.2222 29.7475C14.3036 29.7475 14.3818 29.7156 14.4394 29.6588C14.497 29.602 14.5293 29.5249 14.5293 29.4446Z" fill="#211715"/>
<path d="M16.0651 29.4446V27.361C16.0651 27.2807 16.0327 27.2036 15.9751 27.1468C15.9175 27.09 15.8394 27.0581 15.7579 27.0581C15.6765 27.0581 15.5984 27.09 15.5408 27.1468C15.4832 27.2036 15.4508 27.2807 15.4508 27.361V29.4446C15.4508 29.5249 15.4832 29.602 15.5408 29.6588C15.5984 29.7156 15.6765 29.7475 15.7579 29.7475C15.8394 29.7475 15.9175 29.7156 15.9751 29.6588C16.0327 29.602 16.0651 29.5249 16.0651 29.4446Z" fill="#211715"/>
<path d="M15.4508 33.5459V36.1344L15.7579 35.8315H14.2222L14.5293 36.1344V33.5459C14.5293 33.1562 13.915 33.1556 13.915 33.5459V36.1344C13.9162 36.2144 13.9489 36.2908 14.0062 36.3473C14.0636 36.4039 14.1411 36.4362 14.2222 36.4373H15.7579C15.839 36.4361 15.9165 36.4038 15.9738 36.3473C16.0312 36.2907 16.0639 36.2143 16.065 36.1344V33.5459C16.065 33.1562 15.4508 33.1556 15.4508 33.5459Z" fill="#211715"/>
<path d="M14.5293 32.5366V30.4543C14.5293 30.3739 14.497 30.2969 14.4394 30.2401C14.3818 30.1833 14.3036 30.1514 14.2222 30.1514C14.1407 30.1514 14.0626 30.1833 14.005 30.2401C13.9474 30.2969 13.915 30.3739 13.915 30.4543V32.5366C13.915 32.6169 13.9474 32.694 14.005 32.7508C14.0626 32.8076 14.1407 32.8395 14.2222 32.8395C14.3036 32.8395 14.3818 32.8076 14.4394 32.7508C14.497 32.694 14.5293 32.6169 14.5293 32.5366Z" fill="#211715"/>
<path d="M16.0651 32.5366V30.4543C16.0651 30.3739 16.0327 30.2969 15.9751 30.2401C15.9175 30.1833 15.8394 30.1514 15.7579 30.1514C15.6765 30.1514 15.5984 30.1833 15.5408 30.2401C15.4832 30.2969 15.4508 30.3739 15.4508 30.4543V32.5366C15.4508 32.6169 15.4832 32.694 15.5408 32.7508C15.5984 32.8076 15.6765 32.8395 15.7579 32.8395C15.8394 32.8395 15.9175 32.8076 15.9751 32.7508C16.0327 32.694 16.0651 32.6169 16.0651 32.5366Z" fill="#211715"/>
<path d="M14.5293 26.3511V24.2687C14.5293 24.1884 14.497 24.1113 14.4394 24.0545C14.3818 23.9977 14.3036 23.9658 14.2222 23.9658C14.1407 23.9658 14.0626 23.9977 14.005 24.0545C13.9474 24.1113 13.915 24.1884 13.915 24.2687V26.3511C13.915 26.4314 13.9474 26.5084 14.005 26.5652C14.0626 26.622 14.1407 26.654 14.2222 26.654C14.3036 26.654 14.3818 26.622 14.4394 26.5652C14.497 26.5084 14.5293 26.4314 14.5293 26.3511Z" fill="#211715"/>
<path d="M16.0651 26.3511V24.2687C16.0651 24.1884 16.0327 24.1113 15.9751 24.0545C15.9175 23.9977 15.8394 23.9658 15.7579 23.9658C15.6765 23.9658 15.5984 23.9977 15.5408 24.0545C15.4832 24.1113 15.4508 24.1884 15.4508 24.2687V26.3511C15.4508 26.4314 15.4832 26.5084 15.5408 26.5652C15.5984 26.622 15.6765 26.654 15.7579 26.654C15.8394 26.654 15.9175 26.622 15.9751 26.5652C16.0327 26.5084 16.0651 26.4314 16.0651 26.3511Z" fill="#211715"/>
<path d="M14.5293 20.1658V18.0822C14.5293 18.0019 14.497 17.9248 14.4394 17.868C14.3818 17.8112 14.3036 17.7793 14.2222 17.7793C14.1407 17.7793 14.0626 17.8112 14.005 17.868C13.9474 17.9248 13.915 18.0019 13.915 18.0822V20.1658C13.915 20.2461 13.9474 20.3232 14.005 20.38C14.0626 20.4368 14.1407 20.4687 14.2222 20.4687C14.3036 20.4687 14.3818 20.4368 14.4394 20.38C14.497 20.3232 14.5293 20.2461 14.5293 20.1658Z" fill="#211715"/>
<path d="M16.0651 20.1658V18.0822C16.0651 18.0019 16.0327 17.9248 15.9751 17.868C15.9175 17.8112 15.8394 17.7793 15.7579 17.7793C15.6765 17.7793 15.5984 17.8112 15.5408 17.868C15.4832 17.9248 15.4508 18.0019 15.4508 18.0822V20.1658C15.4508 20.2461 15.4832 20.3232 15.5408 20.38C15.5984 20.4368 15.6765 20.4687 15.7579 20.4687C15.8394 20.4687 15.9175 20.4368 15.9751 20.38C16.0327 20.3232 16.0651 20.2461 16.0651 20.1658Z" fill="#211715"/>
<path d="M14.5293 17.0727V14.9904C14.5293 14.9101 14.497 14.833 14.4394 14.7762C14.3818 14.7194 14.3036 14.6875 14.2222 14.6875C14.1407 14.6875 14.0626 14.7194 14.005 14.7762C13.9474 14.833 13.915 14.9101 13.915 14.9904V17.0727C13.915 17.1531 13.9474 17.2301 14.005 17.2869C14.0626 17.3437 14.1407 17.3756 14.2222 17.3756C14.3036 17.3756 14.3818 17.3437 14.4394 17.2869C14.497 17.2301 14.5293 17.1531 14.5293 17.0727Z" fill="#211715"/>
<path d="M16.0651 17.0727V14.9904C16.0651 14.9101 16.0327 14.833 15.9751 14.7762C15.9175 14.7194 15.8394 14.6875 15.7579 14.6875C15.6765 14.6875 15.5984 14.7194 15.5408 14.7762C15.4832 14.833 15.4508 14.9101 15.4508 14.9904V17.0727C15.4508 17.1531 15.4832 17.2301 15.5408 17.2869C15.5984 17.3437 15.6765 17.3756 15.7579 17.3756C15.8394 17.3756 15.9175 17.3437 15.9751 17.2869C16.0327 17.2301 16.0651 17.1531 16.0651 17.0727Z" fill="#211715"/>
<path d="M14.5293 13.9807V11.8971C14.5293 11.8168 14.497 11.7398 14.4394 11.683C14.3818 11.6261 14.3036 11.5942 14.2222 11.5942C14.1407 11.5942 14.0626 11.6261 14.005 11.683C13.9474 11.7398 13.915 11.8168 13.915 11.8971V13.9807C13.915 14.0611 13.9474 14.1381 14.005 14.1949C14.0626 14.2517 14.1407 14.2836 14.2222 14.2836C14.3036 14.2836 14.3818 14.2517 14.4394 14.1949C14.497 14.1381 14.5293 14.0611 14.5293 13.9807Z" fill="#211715"/>
<path d="M16.0651 13.9807V11.8971C16.0651 11.8168 16.0327 11.7398 15.9751 11.683C15.9175 11.6261 15.8394 11.5942 15.7579 11.5942C15.6765 11.5942 15.5984 11.6261 15.5408 11.683C15.4832 11.7398 15.4508 11.8168 15.4508 11.8971V13.9807C15.4508 14.0611 15.4832 14.1381 15.5408 14.1949C15.5984 14.2517 15.6765 14.2836 15.7579 14.2836C15.8394 14.2836 15.9175 14.2517 15.9751 14.1949C16.0327 14.1381 16.0651 14.0611 16.0651 13.9807Z" fill="#211715"/>
<path d="M14.5293 7.79568V5.71207C14.5293 5.63174 14.497 5.5547 14.4394 5.49789C14.3818 5.44109 14.3036 5.40918 14.2222 5.40918C14.1407 5.40918 14.0626 5.44109 14.005 5.49789C13.9474 5.5547 13.915 5.63174 13.915 5.71207V7.79568C13.915 7.87602 13.9474 7.95306 14.005 8.00986C14.0626 8.06666 14.1407 8.09857 14.2222 8.09857C14.3036 8.09857 14.3818 8.06666 14.4394 8.00986C14.497 7.95306 14.5293 7.87602 14.5293 7.79568Z" fill="#211715"/>
<path d="M16.0651 7.79568V5.71207C16.0651 5.63174 16.0327 5.5547 15.9751 5.49789C15.9175 5.44109 15.8394 5.40918 15.7579 5.40918C15.6765 5.40918 15.5984 5.44109 15.5408 5.49789C15.4832 5.5547 15.4508 5.63174 15.4508 5.71207V7.79568C15.4508 7.87602 15.4832 7.95306 15.5408 8.00986C15.5984 8.06666 15.6765 8.09857 15.7579 8.09857C15.8394 8.09857 15.9175 8.06666 15.9751 8.00986C16.0327 7.95306 16.0651 7.87602 16.0651 7.79568Z" fill="#211715"/>
<path d="M8.69324 0.39711V36.1341C8.69324 36.5238 9.30753 36.5245 9.30753 36.1341V0.39711C9.30753 0.00726836 8.69324 0.00663733 8.69324 0.39711Z" fill="#211715"/>
<path d="M28.4013 0.302872C28.4013 0.799861 28.4013 1.29689 28.4013 1.79396C28.4013 2.84347 28.401 3.89302 28.4004 4.94261C28.4004 6.41364 28.4 7.88466 28.3991 9.35569L28.3976 14.6376C28.397 16.5558 28.3964 18.4741 28.3958 20.3924C28.3953 22.3444 28.3947 24.2963 28.3941 26.2483C28.3934 28.0861 28.3929 29.9241 28.3924 31.7622C28.3919 33.362 28.3915 34.9619 28.391 36.5618C28.391 37.7918 28.3907 39.0218 28.39 40.2517C28.39 40.98 28.39 41.7083 28.39 42.4364V42.6971C28.39 43.0869 29.0043 43.0876 29.0043 42.6971C29.0043 42.1087 29.0043 41.5203 29.0043 40.9318C29.0043 39.811 29.0046 38.6901 29.0052 37.5691C29.0052 36.0462 29.0056 34.5236 29.0065 33.0011L29.008 27.6234C29.0086 25.6925 29.0092 23.7618 29.0098 21.8313C29.0103 19.887 29.0109 17.9427 29.0116 15.9984L29.0131 10.566C29.0136 9.01309 29.0141 7.46012 29.0145 5.90706C29.0145 4.74371 29.0149 3.58037 29.0156 2.41703C29.0156 1.77499 29.0156 1.13304 29.0156 0.491168C29.0156 0.428318 29.0156 0.365553 29.0156 0.302872C29.0156 -0.0869699 28.4013 -0.087601 28.4013 0.302872Z" fill="#211715"/>
<path d="M7.31699 0.605776C10.0006 0.605776 12.6842 0.606912 15.3679 0.609184C18.1521 0.611035 20.9364 0.612843 23.7207 0.61461C25.3618 0.615367 27.003 0.615788 28.6442 0.615872C29.0395 0.615872 29.0402 0.0100963 28.6442 0.0100963C25.7642 0.0100963 22.8842 0.00896044 20.0041 0.00668878C17.2748 0.00483779 14.5454 0.00302888 11.816 0.00126203C10.3163 0.000420678 8.81663 0 7.31699 0C6.92167 0 6.92103 0.605776 7.31699 0.605776Z" fill="#211715"/>
<path d="M6.90112 0.293012C6.90112 0.796647 6.90112 1.30028 6.90112 1.80392C6.90112 2.85561 6.90146 3.90731 6.90215 4.959C6.90266 6.42851 6.90313 7.89802 6.90355 9.36754C6.90424 11.1243 6.90483 12.881 6.90535 14.6378L6.90727 20.3556L6.90919 26.1971C6.91021 28.0262 6.91072 29.855 6.91072 31.6837L6.91226 36.4889C6.91226 37.7257 6.9126 38.9627 6.91328 40.1999C6.91328 40.9415 6.91328 41.6832 6.91328 42.425V42.6973C6.91328 43.0872 7.52757 43.0878 7.52757 42.6973C7.52757 42.0958 7.52757 41.4943 7.52757 40.8926C7.52757 39.7641 7.52723 38.6356 7.52655 37.5071C7.52603 35.982 7.52556 34.457 7.52514 32.932C7.52446 31.1409 7.52386 29.3499 7.52335 27.5589L7.52143 21.8017L7.51951 15.9837C7.519 14.1843 7.5184 12.3847 7.51772 10.585L7.51695 5.93178C7.51695 4.76641 7.51661 3.60114 7.51592 2.43594C7.51592 1.78701 7.51592 1.13803 7.51592 0.489006V0.293012C7.51592 -0.096704 6.90164 -0.097335 6.90164 0.293012H6.90112Z" fill="#211715"/>
<path d="M26.8351 1.81201H9.06848C8.67329 1.81201 8.67265 2.41779 9.06848 2.41779H26.8351C27.2304 2.41779 27.2311 1.81201 26.8351 1.81201Z" fill="#211715"/>
<path d="M7.296 38.2747H28.6323C29.0275 38.2747 29.0281 37.6689 28.6323 37.6689H7.296C6.90068 37.6689 6.90004 38.2747 7.296 38.2747Z" fill="#211715"/>
<path d="M7.296 36.4368H28.6336C29.0288 36.4368 29.0294 35.8311 28.6336 35.8311H7.296C6.90068 35.8311 6.90004 36.4368 7.296 36.4368Z" fill="#211715"/>
<path d="M26.61 0.438031V36.0808C26.61 36.4705 27.2243 36.4711 27.2243 36.0808V0.438031C27.2243 0.0483155 26.61 0.0476845 26.61 0.438031Z" fill="#211715"/>
<path d="M26.61 38.2584V42.5494C26.61 42.9391 27.2243 42.9397 27.2243 42.5494V38.2584C27.2243 37.8686 26.61 37.868 26.61 38.2584Z" fill="#211715"/>
<path d="M20.6245 39.0153V41.7917C20.6245 42.1815 21.2388 42.1821 21.2388 41.7917V39.0153C21.2388 38.6254 20.6245 38.6248 20.6245 39.0153Z" fill="#211715"/>
<path d="M14.6797 39.0153V41.7917C14.6797 42.1815 15.294 42.1821 15.294 41.7917V39.0153C15.294 38.6254 14.6797 38.6248 14.6797 39.0153Z" fill="#211715"/>
<path d="M8.69324 38.2584V42.5494C8.69324 42.9391 9.30753 42.9397 9.30753 42.5494V38.2584C9.30753 37.8686 8.69324 37.868 8.69324 38.2584Z" fill="#211715"/>
<path d="M9.00038 5.00568H26.9171L26.61 4.70279V5.71242L26.9171 5.40953H9.00038L9.30753 5.71242V4.70279C9.30753 4.31307 8.69324 4.31244 8.69324 4.70279V5.71242C8.69439 5.79239 8.72713 5.86877 8.78448 5.92533C8.84183 5.98189 8.91928 6.01416 9.00038 6.01531H26.9171C26.9982 6.0142 27.0757 5.98193 27.1331 5.92536C27.1904 5.8688 27.2231 5.7924 27.2243 5.71242V4.70279C27.2231 4.62282 27.1904 4.54644 27.133 4.48988C27.0757 4.43332 26.9982 4.40104 26.9171 4.3999H9.00038C8.60519 4.3999 8.60455 5.00568 9.00038 5.00568Z" fill="#211715"/>
<path d="M9.00038 8.09845H26.9171L26.61 7.79556V8.80519L26.9171 8.5023H9.00038L9.30753 8.80519V7.79556C9.30753 7.40585 8.69324 7.40522 8.69324 7.79556V8.80519C8.69439 8.88517 8.72713 8.96155 8.78448 9.0181C8.84183 9.07466 8.91928 9.10694 9.00038 9.10808H26.9171C26.9982 9.10697 27.0757 9.0747 27.1331 9.01814C27.1904 8.96157 27.2231 8.88518 27.2243 8.80519V7.79556C27.2231 7.71559 27.1904 7.63921 27.133 7.58265C27.0757 7.5261 26.9982 7.49382 26.9171 7.49268H9.00038C8.60519 7.49268 8.60455 8.09845 9.00038 8.09845Z" fill="#211715"/>
<path d="M9.00038 11.1912H26.9171L26.61 10.8883V11.898L26.9171 11.5951H9.00038L9.30753 11.898V10.8883C9.30753 10.4985 8.69324 10.4979 8.69324 10.8883V11.898C8.69439 11.9779 8.72713 12.0543 8.78448 12.1109C8.84183 12.1674 8.91928 12.1997 9.00038 12.2009H26.9171C26.9982 12.1997 27.0757 12.1674 27.133 12.1109C27.1904 12.0543 27.2231 11.9779 27.2243 11.898V10.8883C27.2231 10.8084 27.1904 10.732 27.1331 10.6754C27.0757 10.6188 26.9982 10.5866 26.9171 10.5854H9.00038C8.60519 10.5854 8.60455 11.1912 9.00038 11.1912Z" fill="#211715"/>
<path d="M9.00038 14.2835H26.9171L26.61 13.9806V14.9902L26.9171 14.6874H9.00038L9.30753 14.9902V13.9806C9.30753 13.5908 8.69324 13.5901 8.69324 13.9806V14.9902C8.69439 15.0702 8.72713 15.1466 8.78448 15.2032C8.84183 15.2597 8.91928 15.292 9.00038 15.2931H26.9171C26.9982 15.292 27.0757 15.2597 27.133 15.2032C27.1904 15.1466 27.2231 15.0702 27.2243 14.9902V13.9806C27.2231 13.9006 27.1904 13.8243 27.133 13.7677C27.0757 13.7112 26.9982 13.6789 26.9171 13.6777H9.00038C8.60519 13.6777 8.60455 14.2835 9.00038 14.2835Z" fill="#211715"/>
<path d="M9.00038 17.3763H26.9171L26.61 17.0734V18.083L26.9171 17.7801H9.00038L9.30753 18.083V17.0734C9.30753 16.6837 8.69324 16.6831 8.69324 17.0734V18.083C8.69439 18.163 8.72713 18.2394 8.78448 18.2959C8.84183 18.3525 8.91928 18.3848 9.00038 18.3859H26.9171C26.9982 18.3848 27.0757 18.3525 27.1331 18.296C27.1904 18.2394 27.2231 18.163 27.2243 18.083V17.0734C27.2231 16.9934 27.1904 16.917 27.133 16.8605C27.0757 16.8039 26.9982 16.7716 26.9171 16.7705H9.00038C8.60519 16.7705 8.60455 17.3763 9.00038 17.3763Z" fill="#211715"/>
<path d="M9.00038 20.4691H26.9171L26.61 20.1662V21.1758L26.9171 20.8729H9.00038L9.30753 21.1758V20.1662C9.30753 19.7765 8.69324 19.7758 8.69324 20.1662V21.1758C8.69439 21.2558 8.72713 21.3322 8.78448 21.3887C8.84183 21.4453 8.91928 21.4775 9.00038 21.4787H26.9171C26.9982 21.4776 27.0757 21.4453 27.1331 21.3887C27.1904 21.3322 27.2231 21.2558 27.2243 21.1758V20.1662C27.2231 20.0862 27.1904 20.0098 27.133 19.9533C27.0757 19.8967 26.9982 19.8644 26.9171 19.8633H9.00038C8.60519 19.8633 8.60455 20.4691 9.00038 20.4691Z" fill="#211715"/>
<path d="M9.00038 23.5623H26.9171L26.61 23.2594V24.2691L26.9171 23.9662H9.00038L9.30753 24.2691V23.2594C9.30753 22.8696 8.69324 22.869 8.69324 23.2594V24.2691C8.69439 24.349 8.72713 24.4254 8.78448 24.482C8.84183 24.5385 8.91928 24.5708 9.00038 24.5719H26.9171C26.9982 24.5708 27.0757 24.5385 27.133 24.482C27.1904 24.4254 27.2231 24.349 27.2243 24.2691V23.2594C27.2231 23.1794 27.1904 23.103 27.1331 23.0465C27.0757 22.9899 26.9982 22.9577 26.9171 22.9565H9.00038C8.60519 22.9565 8.60455 23.5623 9.00038 23.5623Z" fill="#211715"/>
<path d="M9.00038 26.6541H26.9171L26.61 26.3512V27.3609L26.9171 27.058H9.00038L9.30753 27.3609V26.3512C9.30753 25.9614 8.69324 25.9608 8.69324 26.3512V27.3609C8.69439 27.4408 8.72713 27.5172 8.78448 27.5738C8.84183 27.6303 8.91928 27.6626 9.00038 27.6637H26.9171C26.9982 27.6626 27.0757 27.6303 27.133 27.5738C27.1904 27.5172 27.2231 27.4408 27.2243 27.3609V26.3512C27.2231 26.2713 27.1904 26.1949 27.133 26.1383C27.0757 26.0818 26.9982 26.0495 26.9171 26.0483H9.00038C8.60519 26.0483 8.60455 26.6541 9.00038 26.6541Z" fill="#211715"/>
<path d="M9.00038 29.7469H26.9171L26.61 29.444V30.4536L26.9171 30.1507H9.00038L9.30753 30.4536V29.444C9.30753 29.0543 8.69324 29.0537 8.69324 29.444V30.4536C8.69439 30.5336 8.72713 30.61 8.78448 30.6665C8.84183 30.7231 8.91928 30.7554 9.00038 30.7565H26.9171C26.9982 30.7554 27.0757 30.7231 27.1331 30.6666C27.1904 30.61 27.2231 30.5336 27.2243 30.4536V29.444C27.2231 29.364 27.1904 29.2876 27.133 29.2311C27.0757 29.1745 26.9982 29.1423 26.9171 29.1411H9.00038C8.60519 29.1411 8.60455 29.7469 9.00038 29.7469Z" fill="#211715"/>
<path d="M20.1591 32.2338H11.3719C10.5965 32.2338 9.81854 32.2153 9.04275 32.2338C9.02854 32.2338 9.01434 32.2338 9.00026 32.2338C8.91916 32.2349 8.84171 32.2672 8.78436 32.3238C8.727 32.3803 8.69427 32.4567 8.69312 32.5367V33.5463C8.69424 33.6263 8.72696 33.7027 8.78432 33.7592C8.84168 33.8158 8.91915 33.8481 9.00026 33.8492H17.5927C18.4307 33.8492 19.2707 33.8652 20.1086 33.8492C20.1253 33.8492 20.1419 33.8492 20.1586 33.8492C20.5537 33.8492 20.5544 33.2434 20.1586 33.2434H9.88343C9.60508 33.2434 9.32135 33.2279 9.04326 33.2434C9.02918 33.2443 9.01485 33.2434 9.00077 33.2434L9.30792 33.5463V32.5367L9.00077 32.8395H17.5933C18.4313 32.8395 19.2712 32.8556 20.1092 32.8395C20.1258 32.8395 20.1424 32.8395 20.1591 32.8395C20.5543 32.8395 20.5549 32.2338 20.1591 32.2338Z" fill="#211715"/>
<path d="M32.4657 36.2726C32.3606 36.2001 32.2415 36.1497 32.1158 36.1245C31.9901 36.0993 31.8605 36.0998 31.735 36.1261C31.484 36.1766 31.2835 36.3517 31.1006 36.5186C30.7374 36.8523 30.4405 37.2499 30.2251 37.691C29.9921 38.1851 29.8622 38.7203 29.8432 39.2649C29.811 39.7949 29.8518 40.3173 30.2144 40.7377C30.5128 41.0831 30.9281 41.2147 31.3687 41.2763C31.7432 41.3293 32.1236 41.3279 32.4977 41.2723C32.9219 41.2121 33.3218 41.0982 33.6198 40.7738C33.9939 40.3666 34.0566 39.8491 34.0268 39.3204C34.0189 39.0182 33.9826 38.7173 33.9183 38.4217C33.8434 38.136 33.735 37.8599 33.5951 37.599C33.3365 37.102 32.9723 36.6658 32.5274 36.3199C32.4686 36.2654 32.3909 36.2351 32.3103 36.2351C32.2296 36.2351 32.1519 36.2654 32.0931 36.3199C32.036 36.377 32.004 36.4539 32.004 36.5341C32.004 36.6143 32.036 36.6912 32.0931 36.7483C32.7337 37.242 33.2428 37.9801 33.3676 38.7835C33.3967 38.9986 33.4136 39.2151 33.4181 39.432C33.4375 39.6443 33.4161 39.8584 33.3551 40.063C33.3005 40.2128 33.2059 40.3453 33.0812 40.4464C32.9764 40.5364 32.8484 40.5961 32.7113 40.6187C32.4356 40.6892 32.1515 40.7228 31.8667 40.7185C31.5694 40.7182 31.2743 40.6693 30.9932 40.5737C30.8282 40.4962 30.6892 40.3738 30.5924 40.2209C30.4957 40.068 30.4453 39.891 30.4473 39.7108C30.4198 39.2828 30.4647 38.8533 30.5801 38.4399C30.7112 38.0165 30.9261 37.623 31.2125 37.2821C31.3557 37.1101 31.5161 36.9529 31.6912 36.8126C31.7527 36.7535 31.8342 36.7191 31.9199 36.716C32.0057 36.7129 32.0895 36.7414 32.1551 36.796C32.2256 36.8359 32.3092 36.8468 32.3878 36.8265C32.4665 36.8062 32.5338 36.7562 32.5754 36.6873C32.615 36.6176 32.6257 36.5355 32.6053 36.4582C32.5848 36.3809 32.5348 36.3144 32.4657 36.2726Z" fill="#211715"/>
<path d="M32.2527 41.0817V42.5491C32.2527 42.6294 32.285 42.7064 32.3426 42.7632C32.4002 42.82 32.4784 42.852 32.5598 42.852C32.6413 42.852 32.7194 42.82 32.777 42.7632C32.8346 42.7064 32.867 42.6294 32.867 42.5491V41.0817C32.867 41.0014 32.8346 40.9243 32.777 40.8675C32.7194 40.8107 32.6413 40.7788 32.5598 40.7788C32.4784 40.7788 32.4002 40.8107 32.3426 40.8675C32.285 40.9243 32.2527 41.0014 32.2527 41.0817Z" fill="#211715"/>
<path d="M30.9364 41.0817V42.5491C30.9364 42.6294 30.9688 42.7064 31.0264 42.7632C31.084 42.82 31.1621 42.852 31.2435 42.852C31.325 42.852 31.4031 42.82 31.4607 42.7632C31.5183 42.7064 31.5507 42.6294 31.5507 42.5491V41.0817C31.5507 41.0014 31.5183 40.9243 31.4607 40.8675C31.4031 40.8107 31.325 40.7788 31.2435 40.7788C31.1621 40.7788 31.084 40.8107 31.0264 40.8675C30.9688 40.9243 30.9364 41.0014 30.9364 41.0817Z" fill="#211715"/>
<path d="M4.59525 36.2726C4.49013 36.2001 4.37102 36.1497 4.24531 36.1245C4.11961 36.0993 3.98999 36.0998 3.8645 36.1261C3.61367 36.1766 3.413 36.3517 3.23012 36.5186C2.86692 36.8523 2.57001 37.2499 2.35463 37.691C2.12162 38.1851 1.99175 38.7203 1.97275 39.2649C1.9405 39.7949 1.98145 40.3173 2.34388 40.7377C2.64232 41.0831 3.05761 41.2147 3.49823 41.2763C3.87275 41.3293 4.25312 41.3279 4.62724 41.2723C5.05136 41.2121 5.45129 41.0982 5.74947 40.7738C6.12355 40.3666 6.18613 39.8491 6.15644 39.3204C6.14843 39.0182 6.11206 38.7173 6.04779 38.4217C5.97293 38.136 5.86453 37.8599 5.72477 37.599C5.46604 37.102 5.10184 36.6658 4.65693 36.3199C4.59811 36.2654 4.52045 36.2351 4.43976 36.2351C4.35906 36.2351 4.2814 36.2654 4.22258 36.3199C4.16548 36.377 4.13347 36.4539 4.13347 36.5341C4.13347 36.6143 4.16548 36.6912 4.22258 36.7483C4.86323 37.242 5.37232 37.9801 5.4971 38.7835C5.52651 38.9986 5.5436 39.215 5.54829 39.432C5.56767 39.6443 5.54631 39.8584 5.48533 40.063C5.4307 40.2128 5.33603 40.3453 5.21133 40.4464C5.10656 40.5364 4.97854 40.5961 4.84148 40.6187C4.56576 40.6893 4.28165 40.7228 3.99683 40.7185C3.69957 40.7182 3.40441 40.6693 3.12339 40.5737C2.95839 40.4962 2.81931 40.3738 2.72257 40.2209C2.62584 40.068 2.57548 39.891 2.57744 39.7108C2.54996 39.2828 2.5949 38.8533 2.71041 38.4399C2.90958 37.8011 3.29617 37.2349 3.82137 36.8126C3.88281 36.7535 3.96435 36.719 4.05013 36.716C4.13592 36.7129 4.21979 36.7414 4.28542 36.796C4.3559 36.8359 4.43945 36.8468 4.51806 36.8265C4.59666 36.8062 4.66401 36.7562 4.70557 36.6873C4.74513 36.6175 4.75575 36.5353 4.73518 36.458C4.71461 36.3807 4.66445 36.3142 4.59525 36.2726Z" fill="#211715"/>
<path d="M4.3822 41.0817V42.5491C4.3822 42.6294 4.41456 42.7064 4.47216 42.7632C4.52976 42.82 4.60789 42.852 4.68935 42.852C4.77081 42.852 4.84893 42.82 4.90653 42.7632C4.96413 42.7064 4.99649 42.6294 4.99649 42.5491V41.0817C4.99649 41.0419 4.98855 41.0025 4.97311 40.9658C4.95768 40.929 4.93505 40.8956 4.90653 40.8675C4.87801 40.8394 4.84415 40.8171 4.80689 40.8019C4.76962 40.7866 4.72968 40.7788 4.68935 40.7788C4.64901 40.7788 4.60907 40.7866 4.57181 40.8019C4.53454 40.8171 4.50068 40.8394 4.47216 40.8675C4.44364 40.8956 4.42102 40.929 4.40558 40.9658C4.39015 41.0025 4.3822 41.0419 4.3822 41.0817Z" fill="#211715"/>
<path d="M3.06592 41.0817V42.5491C3.06592 42.6294 3.09828 42.7064 3.15588 42.7632C3.21348 42.82 3.2916 42.852 3.37306 42.852C3.45452 42.852 3.53265 42.82 3.59025 42.7632C3.64785 42.7064 3.68021 42.6294 3.68021 42.5491V41.0817C3.68021 41.0014 3.64785 40.9243 3.59025 40.8675C3.53265 40.8107 3.45452 40.7788 3.37306 40.7788C3.2916 40.7788 3.21348 40.8107 3.15588 40.8675C3.09828 40.9243 3.06592 41.0014 3.06592 41.0817Z" fill="#211715"/>
<path d="M35.7033 42.394H0.296634C-0.0985581 42.394 -0.099198 42.9998 0.296634 42.9998H35.7033C36.0985 42.9998 36.0993 42.394 35.7033 42.394Z" fill="#211715"/>
</g>
<defs>
<clipPath id="clip0_492_474">
<rect width="36" height="43" fill="white"/>
</clipPath>
</defs>
</svg>
