<svg width="20" height="20" viewBox="0 0 20 20" fill="none" xmlns="http://www.w3.org/2000/svg">
<path d="M19.4612 16.5557L14.9373 12.0314L14.494 12.4754L13.7271 11.7069C14.5816 10.4423 15.0115 8.97316 15.0103 7.50633C15.0115 5.58516 14.2788 3.6591 12.8135 2.19492C11.352 0.731134 9.42594 -0.0011315 7.50406 1.31231e-06C5.58445 -0.0011315 3.65836 0.732657 2.19609 2.19492C0.732657 3.6591 -0.00117047 5.58328 1.40132e-06 7.50519C-0.00113141 9.42633 0.732658 11.3516 2.19492 12.8143C3.65949 14.2785 5.58445 15.0111 7.5048 15.0111C8.97203 15.0111 10.4423 14.5804 11.7073 13.7278L12.4746 14.4951L12.0321 14.9365L16.556 19.4608C16.9121 19.8187 17.3866 20 17.8557 20C18.323 20 18.7975 19.8187 19.1546 19.4608L19.4612 19.1546C19.818 18.7978 19.9989 18.3233 19.9996 17.8542C19.9996 17.3866 19.818 16.9128 19.4612 16.5557ZM7.5048 14.002C5.83805 14.002 4.17547 13.3699 2.90781 12.1007C1.64051 10.8338 1.00758 9.17199 1.00758 7.50523C1.00758 5.83809 1.64125 4.1759 2.90852 2.90859C4.17621 1.64129 5.83801 1.00766 7.50402 1.00766C9.17117 1.00766 10.8337 1.64055 12.101 2.90859C13.3691 4.1759 14.0016 5.83809 14.0023 7.50523C14.0016 9.17199 13.3691 10.8338 12.1018 12.1007C10.8337 13.3699 9.17121 14.002 7.5048 14.002ZM12.3809 13.2123C12.5283 13.0862 12.6745 12.9552 12.8154 12.8155C12.9555 12.6753 13.0854 12.5291 13.2126 12.3806L13.9003 13.0691L13.0691 13.9007L12.3809 13.2123ZM18.7476 18.4418L18.4422 18.7471C18.2784 18.9105 18.0694 18.989 17.855 18.9905C17.641 18.9905 17.4323 18.9105 17.2686 18.7483L13.4578 14.9373L14.9373 13.4586L18.7476 17.2689C18.9109 17.433 18.9898 17.6413 18.9898 17.8542C18.9898 18.069 18.9102 18.2784 18.7476 18.4418Z" fill="#211715"/>
<path d="M10.8384 4.17058C9.92028 3.25285 8.71048 2.79207 7.50485 2.79285C6.30001 2.79285 5.09021 3.25285 4.17095 4.17058C3.25282 5.08945 2.79208 6.29964 2.79321 7.50527C2.79208 8.7105 3.25282 9.92105 4.17095 10.8373C5.09021 11.7569 6.30001 12.2173 7.50411 12.2173C8.70974 12.2173 9.9195 11.7569 10.8384 10.838C11.7577 9.91917 12.2173 8.7105 12.2173 7.50527C12.2184 6.29968 11.7576 5.09062 10.8384 4.17058ZM10.244 10.2436C9.48845 10.9991 8.4988 11.3772 7.50411 11.3761C6.5106 11.3761 5.52091 10.9991 4.76536 10.2436C4.01025 9.48847 3.63404 8.49952 3.63404 7.50527C3.63404 6.51136 4.01025 5.52164 4.76536 4.76539C5.52204 4.01027 6.5106 3.63363 7.50485 3.6325C8.49876 3.63363 9.48845 4.0114 10.244 4.76539C10.9991 5.52164 11.3757 6.51136 11.3765 7.50527C11.3765 8.49952 10.9998 9.48847 10.244 10.2436Z" fill="#211715"/>
</svg>
